<?xml version="1.0" encoding="UTF-8"?>
<svg width="42px" height="32px" viewBox="0 0 42 32" version="1.1" xmlns="http://www.w3.org/2000/svg" xmlns:xlink="http://www.w3.org/1999/xlink">
    <!-- Generator: Sketch 46.2 (44496) - http://www.bohemiancoding.com/sketch -->
    <title>ACCNET_Color</title>
    <desc>Created with Sketch.</desc>
    <defs></defs>
    <g id="Domestic" stroke="none" stroke-width="1" fill="none" fill-rule="evenodd">
        <g id="ACCNET">
            <g id="Page-1" transform="translate(0.000000, 8.000000)">
                <path d="M19.3797663,0.128808589 L18.5784166,0.78251411 L10.670435,0.78251411 C8.98347791,0.78251411 7.33864969,1.35196196 6.01010982,2.40634233 C5.94672331,2.4696 5.86246564,2.51172883 5.79920798,2.5749865 C5.6515638,2.70150184 5.52504847,2.82814601 5.39853313,2.95466135 C5.33527546,3.01791902 5.27201779,3.08117669 5.20863129,3.14443436 C4.5550546,3.84026871 4.06999325,4.62048957 3.71144724,5.50622577 L-1.28834356e-05,14.9325202 L0.906723313,14.9325202 L0.105502454,15.5862258 L33.2766129,15.5862258 C34.4153798,15.5862258 36.0180791,14.9536491 36.7983,13.1821767 L41.9226865,0.128808589 L19.3797663,0.128808589 Z" id="Fill-1" fill="#013CA5"></path>
                <path d="M23.9979883,12.6972055 C23.9768595,12.8237209 23.9136018,12.8659785 23.8082153,12.8659785 L23.7238288,12.8659785 C23.5973135,12.8659785 23.5551847,12.802592 23.5763135,12.6972055 L23.8082153,10.7993466 C23.8292153,10.6728313 23.8926018,10.6305736 23.9979883,10.6305736 L24.0823748,10.6305736 C24.1877613,10.6305736 24.251019,10.6938313 24.230019,10.7993466 L23.9979883,12.6972055 Z M24.2088902,10.2298988 L23.9558595,10.2298988 C23.5763135,10.2298988 23.3654117,10.4196718 23.323154,10.7782178 L23.0912521,12.7183344 C23.0489945,13.0978804 23.1966387,13.2665245 23.5763135,13.2665245 L23.8292153,13.2665245 C24.2088902,13.2665245 24.3986632,13.0767515 24.4619209,12.7183344 L24.6939515,10.7782178 C24.7572092,10.4196718 24.5884362,10.2298988 24.2088902,10.2298988 L24.2088902,10.2298988 Z M19.4219209,10.6728313 L19.8437245,10.6728313 L19.5273074,13.2665245 L19.9912399,13.2665245 L20.3076571,10.6728313 L20.7293319,10.6728313 L20.7715896,10.2510276 L19.4851785,10.2510276 L19.4219209,10.6728313 Z M22.7327061,10.2510276 L22.2687736,12.3597883 L22.2899025,10.2510276 L21.8470988,10.2510276 L21.3620374,12.3597883 L21.4041663,10.2510276 L20.9402337,10.2510276 L20.9402337,13.2455245 L21.4885528,13.2455245 L21.9102276,11.4530521 L21.8892276,13.2455245 L22.4375466,13.2455245 L23.1756387,10.2510276 L22.7327061,10.2510276 Z M17.8614791,13.2455245 L18.8947307,13.2455245 L18.9368595,12.8237209 L18.3675405,12.8237209 L18.472927,11.9169847 L19.021246,11.9169847 L19.0635037,11.495181 L18.5151847,11.495181 L18.6205712,10.6517025 L19.190019,10.6517025 L19.2321479,10.2298988 L18.2198963,10.2298988 L17.8614791,13.2455245 Z M35.1744975,5.9279908 C35.237884,5.73821779 35.1957552,5.65383129 35.0058534,5.65383129 L34.0779883,5.65383129 C33.9093442,5.65383129 33.8038288,5.73821779 33.7405712,5.90686196 L33.6140558,6.22327914 L35.069111,6.22327914 L35.1744975,5.9279908 Z M31.4420374,11.7272117 L31.1257491,12.5284325 L32.3699025,12.5284325 L32.665062,11.7482117 L33.2766387,11.7482117 L32.9814791,12.5284325 L34.310019,12.5284325 L34.6263074,11.7060828 L35.237884,11.7060828 L34.6684362,13.1822669 L30.2821417,13.1822669 L30.8515896,11.7272117 L31.4420374,11.7272117 Z M33.213381,7.25653067 L32.9814791,7.84697853 L36.7561969,7.84697853 L36.5030374,8.50068405 L32.7284485,8.50068405 L32.4964178,9.0911319 L31.8848411,9.0911319 L32.6018043,7.25653067 L33.213381,7.25653067 Z M34.310019,5.00012577 L35.1323687,5.00012577 C35.5120436,5.00012577 35.6595589,5.1266411 35.6595589,5.37967178 L35.6595589,5.44292945 L38.0003503,4.78922393 L37.7261908,5.48518712 L35.7228166,6.0123773 L35.6385589,6.22327914 L37.4099025,6.22327914 L37.1568718,6.87698466 L32.7705773,6.87698466 L33.192381,5.80147546 C33.382154,5.27428528 33.7617,5.00012577 34.310019,5.00012577 L34.310019,5.00012577 Z M38.2745098,4.00900307 L38.0424791,4.62057975 L33.8882153,4.00900307 L34.2256325,3.14439571 L38.8649577,2.53281902 L38.611927,3.18652454 L37.8949638,3.27091104 L37.6208043,3.92461656 L38.2745098,4.00900307 Z M31.5264239,9.9768681 L31.7794546,9.34429141 L33.7195712,9.93473926 L36.1867491,9.34429141 L35.9125896,10.0189969 L34.2045037,10.3775429 L35.6174301,10.757089 L35.3643994,11.3897945 L33.4454117,10.7782178 L30.9781049,11.3686656 L31.2522644,10.6938313 L32.9603503,10.3352853 L31.5264239,9.9768681 Z M36.3343933,12.9924939 C35.6595589,14.5529356 34.2677613,15.1012546 33.2555098,15.1012546 L1.43393926,15.1012546 L2.23528896,14.4474202 L4.47069387,14.4474202 L33.213381,14.4474202 C33.213381,14.4474202 34.9425957,14.5318067 35.7228166,12.7394632 L38.2745098,6.26540798 L40.2567552,1.22540798 L33.951473,1.22540798 L31.9692276,6.26540798 L29.4175344,12.7394632 C28.7217,14.3420337 27.245516,14.4474202 26.9713564,14.4474202 L26.9503564,14.4474202 L26.9292276,14.4474202 L0.695847239,14.4474202 L4.15427669,5.67496012 C4.49169387,4.8314816 4.95562638,4.09338957 5.54607423,3.46068405 C5.60946074,3.39742638 5.67258957,3.33416871 5.73584724,3.27091104 C5.86236258,3.14439571 5.98900675,3.0390092 6.11552209,2.91249387 C6.17877975,2.8492362 6.24203742,2.80697853 6.30529509,2.74372086 C7.52844847,1.77372699 9.04676135,1.22540798 10.6704607,1.22540798 L18.7260865,1.22540798 L19.5273074,0.571702454 L41.2057491,0.571702454 L36.3343933,12.9924939 Z M19.379792,0.128769939 L18.5784423,0.782604294 L10.6704607,0.782604294 C8.98337485,0.782604294 7.33854663,1.35192331 6.01000675,2.40630368 C5.94674908,2.46956135 5.86236258,2.51169018 5.79923374,2.57507669 C5.65158957,2.70159202 5.52507423,2.82810736 5.39843006,2.9546227 C5.33530123,3.01788037 5.27191472,3.08113804 5.20865706,3.14439571 C4.55495153,3.84023006 4.06989018,4.62057975 3.71147301,5.50631595 L1.28834356e-05,14.9326104 L0.90674908,14.9326104 L0.105399387,15.5861871 L33.2766387,15.5861871 C34.4154055,15.5861871 36.0181049,14.9536104 36.7983258,13.1822669 L41.9227123,0.128769939 L19.379792,0.128769939 Z M25.8115896,11.4740521 C25.7904607,11.6006963 25.7272031,11.6638252 25.6006877,11.6638252 L25.3897859,11.6638252 L25.5163012,10.6728313 L25.7483319,10.6728313 C25.8537184,10.6728313 25.9169761,10.7359601 25.8958472,10.8414755 L25.8115896,11.4740521 Z M25.8748472,10.2510276 L25.1156264,10.2510276 L24.7572092,13.2455245 L25.2211417,13.2455245 L25.3687859,12.0435 L25.5585589,12.0435 L25.7694607,13.2455245 L26.2543933,13.2455245 L25.9592337,11.8325982 C26.1278779,11.7693405 26.2543933,11.6428252 26.2755221,11.3686656 L26.3387798,10.7993466 C26.4020374,10.4408006 26.2543933,10.2510276 25.8748472,10.2510276 L25.8748472,10.2510276 Z M27.7094485,10.2510276 L27.0557429,11.7060828 L27.2243871,10.2510276 L26.7604546,10.2510276 L26.4020374,13.2455245 L26.8659699,13.2455245 L27.0557429,11.7693405 L27.3299025,13.2455245 L27.814835,13.2455245 L27.4985466,11.7272117 L28.1945098,10.2510276 L27.7094485,10.2510276 Z M22.6061908,3.71371472 L21.7837123,6.20215031 C21.5518104,7.13001534 22.1633871,7.72046319 23.0279945,7.72046319 L26.6761969,7.72046319 L27.0767429,6.53956748 L23.9979883,6.53956748 C23.512927,6.53956748 23.1756387,6.34979448 23.2810252,5.90686196 L23.8503442,4.19877607 C23.9558595,3.9457454 24.2088902,3.79810123 24.5041785,3.79810123 L26.8027123,3.79810123 L28.5951847,2.61720552 L24.6516939,2.61720552 C24.3565344,2.59607669 22.943608,2.63833436 22.6061908,3.71371472 L22.6061908,3.71371472 Z M37.0513564,3.8613589 L37.2622583,3.33416871 L34.9637245,3.58732822 L37.0513564,3.8613589 Z M6.30529509,10.2931564 L3.66921534,10.2931564 L3.56382883,11.115635 L6.19990859,11.115635 L6.30529509,10.2931564 Z M7.21203129,10.2931564 C6.76922761,10.2931564 6.47393926,10.5251871 6.43181043,10.8836043 C6.4106816,11.0101196 6.4106816,11.1367638 6.4106816,11.1367638 L12.2099025,11.1367638 C12.2099025,11.1367638 12.2310313,11.0523773 12.2310313,10.9891196 C12.2731601,10.6305736 12.125516,10.3142853 11.5771969,10.3142853 C11.5561969,10.2931564 7.44406196,10.2931564 7.21203129,10.2931564 L7.21203129,10.2931564 Z M6.07326442,12.1067577 L6.15765092,11.4109233 L3.5217,11.4109233 L3.28966933,13.2243957 L5.92574908,13.2243957 L6.03113558,12.4441748 L4.38630736,12.4441748 L4.4284362,12.1067577 L6.07326442,12.1067577 Z M17.4608043,10.2510276 L17.2287736,12.1067577 L17.0390006,10.2510276 L16.5118104,10.2510276 L16.1532644,13.2455245 L16.5750681,13.2455245 L16.8280988,11.2210215 L17.0390006,13.2455245 L17.5451908,13.2455245 L17.903608,10.2510276 L17.4608043,10.2510276 Z M14.3186632,3.90361656 L13.7703442,5.82260429 L11.8513564,5.82260429 L14.3186632,3.90361656 Z M10.4174301,6.89798466 L13.6649577,6.0967638 L13.1798963,7.72046319 L14.6982092,7.72046319 L16.1322644,2.61720552 L13.981246,2.61720552 L7.38080429,7.74159202 L9.34192086,7.74159202 L10.4174301,6.89798466 Z M17.165516,7.72046319 L20.8137184,7.72046319 L21.2143933,6.53956748 L18.1356387,6.53956748 C17.6505773,6.53956748 17.3131601,6.34979448 17.4185466,5.90686196 L17.9879945,4.19877607 C18.093381,3.9457454 18.3464117,3.79810123 18.6417,3.79810123 L20.9402337,3.79810123 L22.7327061,2.61720552 L18.7893442,2.61720552 C18.5151847,2.61720552 17.1022583,2.65933436 16.7437123,3.73484356 L15.9213626,6.22327914 C15.6683319,7.13001534 16.3009086,7.72046319 17.165516,7.72046319 L17.165516,7.72046319 Z M8.51944233,11.4319233 L6.36855276,11.4319233 C6.30529509,11.8958558 6.53719693,12.1278865 6.87461411,12.1278865 L8.20315399,12.1278865 L8.16102515,12.4653037 L6.24203742,12.4653037 L6.13652209,13.2455245 L8.30866933,13.2455245 C8.37192699,13.2455245 8.85698834,13.2243957 9.02563252,12.8237209 C9.08889018,12.6972055 9.13101902,12.233273 9.13101902,12.1278865 C9.21540552,11.5584387 8.81473067,11.4319233 8.51944233,11.4319233 L8.51944233,11.4319233 Z M14.6349515,10.2931564 L12.484062,10.2931564 L12.3786755,11.115635 L15.2253994,11.115635 C15.2253994,11.115635 15.2253994,11.0945061 15.2465282,10.9891196 C15.3309147,10.4408006 14.9723687,10.2931564 14.6349515,10.2931564 L14.6349515,10.2931564 Z M14.0023748,13.2455245 L14.9934975,13.2455245 L15.2253994,11.4319233 L14.2342767,11.4319233 L14.0023748,13.2455245 Z M12.125516,13.2455245 L13.1166387,13.2455245 L13.3486693,11.4319233 L12.3574178,11.4319233 L12.125516,13.2455245 Z M9.40517853,11.4319233 L9.17327669,13.2455245 L10.1643994,13.2455245 L10.3120436,12.1278865 L11.5561969,12.1278865 C11.9146141,12.1278865 12.104516,11.9379847 12.125516,11.6850828 C12.1466448,11.5584387 12.1466448,11.4319233 12.1466448,11.4319233 L9.40517853,11.4319233 Z" id="Fill-4" fill="#FFFFFF"></path>
                <path d="M35.174562,5.9279908 C35.2378196,5.73821779 35.1956908,5.65383129 35.0059178,5.65383129 L34.0780528,5.65383129 C33.9092798,5.65383129 33.8038933,5.73821779 33.7406356,5.90686196 L33.6141202,6.22327914 L35.0691755,6.22327914 L35.174562,5.9279908 Z M31.441973,11.7272117 L31.1256847,12.5284325 L32.369838,12.5284325 L32.6651264,11.7482117 L33.2767031,11.7482117 L32.9814147,12.5284325 L34.3099546,12.5284325 L34.6263718,11.7060828 L35.2378196,11.7060828 L34.6685006,13.1822669 L30.2822061,13.1822669 L30.8515252,11.7272117 L31.441973,11.7272117 Z M33.2134454,7.25653067 L32.9814147,7.84697853 L36.7561325,7.84697853 L36.5031018,8.50068405 L32.728384,8.50068405 L32.4963534,9.0911319 L31.8849055,9.0911319 L32.6018687,7.25653067 L33.2134454,7.25653067 Z M34.3099546,5.00012577 L35.1324331,5.00012577 C35.5119791,5.00012577 35.6596233,5.1266411 35.6596233,5.37967178 L35.6596233,5.44292945 L38.0004147,4.78922393 L37.7262552,5.48505828 L35.722881,6.0123773 L35.6384945,6.22327914 L37.4099669,6.22327914 L37.1568074,6.87698466 L32.7705129,6.87698466 L33.1923166,5.80147546 C33.3820896,5.27428528 33.7617644,5.00012577 34.3099546,5.00012577 L34.3099546,5.00012577 Z M38.2745742,4.00900307 L38.0425436,4.62057975 L33.8882798,4.00900307 L34.2255681,3.14439571 L38.8650221,2.53281902 L38.6118626,3.18652454 L37.8948994,3.27091104 L37.6207399,3.92461656 L38.2745742,4.00900307 Z M31.5263595,9.9768681 L31.7793902,9.34429141 L33.7195067,9.93473926 L36.1868135,9.34429141 L35.912654,10.0189969 L34.2045681,10.3775429 L35.6174945,10.757089 L35.364335,11.3897945 L33.4453472,10.7782178 L30.9780405,11.3686656 L31.2522,10.6938313 L32.9602859,10.3352853 L31.5263595,9.9768681 Z M18.7260221,1.22540798 L19.5273718,0.571702454 L41.2056847,0.571702454 L36.3343288,12.992365 C35.6596233,14.5529356 34.2678258,15.1012546 33.2555742,15.1012546 L1.43400368,15.1012546 L2.23535337,14.4474202 L4.47062945,14.4474202 L33.2134454,14.4474202 C33.2134454,14.4474202 34.9426601,14.5318067 35.722881,12.7394632 L38.2745742,6.26540798 L40.2568196,1.22540798 L33.9515374,1.22540798 L18.7260221,1.22540798 Z M37.0514209,3.8613589 L37.2623227,3.33416871 L34.9636601,3.58732822 L37.0514209,3.8613589 Z" id="Fill-7" fill="#8A898E"></path>
                <polygon id="Fill-9" fill="#8A898E" points="26.4863595 8.39528466 6.53726135 8.39528466 5.41962331 9.25989202 26.2122 9.25989202"></polygon>
            </g>
        </g>
    </g>
</svg>