<?xml version="1.0" encoding="UTF-8"?>
<svg width="42px" height="32px" viewBox="0 0 42 32" version="1.1" xmlns="http://www.w3.org/2000/svg" xmlns:xlink="http://www.w3.org/1999/xlink">
    <!-- Generator: Sketch 46.2 (44496) - http://www.bohemiancoding.com/sketch -->
    <title>AESTR_Color</title>
    <desc>Created with Sketch.</desc>
    <defs></defs>
    <g id="Domestic-A-Z" stroke="none" stroke-width="1" fill="none" fill-rule="evenodd">
        <g id="AESTR" fill="#000000">
            <g id="Logo-/-A&amp;E-White" transform="translate(2.000000, 6.000000)">
                <path d="M17.0604422,13.8302994 C17.0604422,15.4291858 18.491274,16.8759057 20.0249773,16.8759057 C21.0992492,16.8759057 21.892829,16.5248983 22.7360076,15.7386416 L18.9016577,10.877473 C17.8018515,11.6902924 17.0604422,12.4484685 17.0604422,13.8302994 L17.0604422,13.8302994 Z" id="Path"></path>
                <path d="M20.3374493,6.1944644 C20.9254699,5.76092276 21.3854523,5.24617508 21.3854523,4.56977424 C21.3854523,3.67536931 20.8233333,2.99820953 19.8770995,2.99820953 C18.8794301,2.99820953 18.3683794,3.67536931 18.3683794,4.56977424 C18.3683794,5.27387621 18.9306821,5.95084625 19.5699547,6.73615427 C19.8254801,6.57336271 20.3374493,6.1944644 20.3374493,6.1944644 L20.3374493,6.1944644 Z" id="Path"></path>
                <path d="M17.4032246,0.555197675 C15.9398781,1.29800533 15.1174575,2.72100851 15.1174575,4.48799899 C15.1174575,6.33031377 16.1915458,7.68406412 16.9335062,8.57808959 C15.3481835,9.68898073 13.659622,11.2874876 13.659622,13.7517497 C13.659622,14.5556516 13.7667185,15.281573 13.9741147,15.9285651 L8.21974248,15.9226833 L7.03194452,19.4234609 L0.884272614,19.4213738 L8.15287603,0.553679805 L17.4032246,0.555197675 Z M9.46889591,11.3927899 L13.0394541,11.3927899 L11.2757596,5.80626913 L9.46889591,11.3927899 Z" id="Path"></path>
                <path d="M27.9455285,14.7981313 C27.3266465,15.5329702 27.3036841,15.6225245 27.0806735,15.8868236 L29.9092712,19.4225122 L35.9210059,19.4213738 L35.9217406,14.8002184 L27.9455285,14.7981313 Z" id="Path"></path>
                <path d="M24.6301284,4.54207311 C24.6301284,6.03224204 23.8887191,7.03441574 22.7635625,7.90149901 C22.7635625,7.90149901 21.9194654,8.57808959 21.4592993,8.90367271 L25.0880901,13.4328072 C25.1904104,13.2867122 26.3596548,11.8356285 26.3596548,11.8356285 L35.3434561,11.8356285 L35.3434561,7.7918329 L26.3596548,7.7918329 L26.3596548,4.90939766 L35.9342322,4.90275698 L35.9357018,0.554059273 L22.3943274,0.555766877 C23.8100959,1.3112867 24.6301284,2.76521648 24.6301284,4.54207311 L24.6301284,4.54207311 Z" id="Path"></path>
                <path d="M36.8424402,18.511221 C37.0832696,18.511221 37.28938,18.7045597 37.28938,18.9673409 C37.28938,19.2327784 37.0832696,19.4257377 36.8424402,19.4257377 C36.5992227,19.4257377 36.3929287,19.2327784 36.3929287,18.9673409 C36.3929287,18.7045597 36.5992227,18.511221 36.8424402,18.511221 Z M36.8424402,19.3519312 C37.0450602,19.3519312 37.2037762,19.1904678 37.2037762,18.9673409 C37.2037762,18.7491471 37.0450602,18.5852171 36.8424402,18.5852171 C36.6372484,18.5852171 36.4785324,18.7491471 36.4785324,18.9673409 C36.4785324,19.1904678 36.6372484,19.3519312 36.8424402,19.3519312 Z" id="Path"></path>
                <path d="M37.1084852,18.855398 C37.1084852,18.9498854 37.041751,18.9906782 36.952772,19.0007341 L37.1219604,19.2327784 L37.0225007,19.2327784 L36.8637931,19.0033903 L36.761339,19.0033903 L36.761339,19.2327784 L36.6695794,19.2327784 L36.6695794,18.7045597 L36.8971602,18.7045597 C37.0389704,18.7045597 37.1084852,18.7516136 37.1084852,18.855398 Z M36.761339,18.936604 L36.8695682,18.936604 C36.980578,18.936604 37.0165118,18.908144 37.0165118,18.8502752 C37.0165118,18.799806 36.9889197,18.7713459 36.8845406,18.7713459 L36.761339,18.7713459 L36.761339,18.936604 Z" id="Path"></path>
            </g>
        </g>
    </g>
</svg>