<?xml version="1.0" encoding="UTF-8"?>
<svg width="42px" height="32px" viewBox="0 0 42 32" version="1.1" xmlns="http://www.w3.org/2000/svg" xmlns:xlink="http://www.w3.org/1999/xlink">
    <!-- Generator: Sketch 46.2 (44496) - http://www.bohemiancoding.com/sketch -->
    <title>AMCSTR_Color</title>
    <desc>Created with Sketch.</desc>
    <defs>
        <radialGradient cx="50%" cy="0%" fx="50%" fy="0%" r="100%" gradientTransform="translate(0.500000,0.000000),scale(0.451973,1.000000),rotate(-90.000000),translate(-0.500000,-0.000000)" id="radialGradient-1">
            <stop stop-color="#FBFBF2" offset="0%"></stop>
            <stop stop-color="#C3BB77" offset="55.8793048%"></stop>
            <stop stop-color="#B5AC59" offset="100%"></stop>
        </radialGradient>
    </defs>
    <g id="Domestic" stroke="none" stroke-width="1" fill="none" fill-rule="evenodd">
        <g id="AMCSTR">
            <g id="Logo-/-AMC-White" transform="translate(2.000000, 7.000000)">
                <path d="M8.86671518,9.7547555 C8.08052271,9.83378896 7.01716529,10.0908226 7.01716529,11.0035541 C7.01716529,11.6749888 7.69242044,11.978883 8.65268819,11.978883 C9.76277484,11.978883 10.6434959,11.451527 10.8814226,10.9353615 C11.0069851,10.6765794 11.0815378,10.4195458 11.0815378,10.157966 L11.0815378,9.6732741 C11.0815378,9.6732741 10.5379093,9.67257469 10.4651401,9.67257469 C10.1455264,9.67152558 9.64755698,9.67747057 8.86671518,9.7547555 M29.3075768,13.7095759 C26.7749241,13.7095759 25.0077746,11.7316411 25.0077746,9.12003988 C25.0077746,6.38988845 26.7863388,4.52840567 29.3075768,4.52840567 C31.4175262,4.52840567 33.0773055,5.9919235 33.5007222,8.06322963 L31.4792373,8.06322963 C31.1403612,7.05118169 30.3199244,6.36960553 29.3075768,6.36960553 C27.9741886,6.36960553 26.9696886,7.55370861 26.9696886,9.12003988 C26.9696886,10.6842729 27.9741886,11.8701245 29.3075768,11.8701245 C30.3249184,11.8701245 31.1499924,11.1801554 31.4842312,10.1562175 L33.5050027,10.1562175 C33.0887202,12.2383645 31.4243037,13.7095759 29.3075768,13.7095759 L29.3075768,13.7095759 Z M21.9364873,13.5032496 L21.9364873,7.08090667 L20.1201116,13.5032496 L18.188518,13.5032496 L16.3717856,7.08090667 L16.3717856,13.5032496 L14.2746778,13.5032496 L14.2746778,4.74172607 L17.4843692,4.74172607 C17.4843692,4.74172607 19.0032474,10.3499544 19.1530663,11.0406229 L20.8214067,4.74172607 L24.0286011,4.74172607 L24.0318115,13.5032496 L21.9364873,13.5032496 Z M13.0953891,13.5032496 L11.1637955,13.5032496 L11.1092186,12.8311155 C10.6365757,13.210546 9.41555172,13.7095759 8.16171028,13.7095759 C6.20871401,13.7095759 4.94167424,12.252003 4.94167424,11.0213891 C4.94167424,8.65982734 7.42938127,8.0800155 10.4460917,8.0800155 L11.064273,8.0800155 C11.064273,8.0800155 11.0660565,7.91950064 11.0660565,7.87648685 C11.0660565,7.5655986 10.9073198,6.25175475 9.25895531,6.25175475 C7.88133493,6.25175475 7.46754941,6.85359804 7.31666039,7.38899728 L5.2866144,7.38899728 C5.2866144,6.72280816 5.8163312,4.52945479 9.2250677,4.52945479 C12.1005203,4.52945479 13.0953891,6.04962492 13.0953891,8.74130874 L13.0953891,13.5032496 Z M0.929381623,17.3874294 L37.5183655,17.3874294 L37.5183655,0.85020242 L0.929381623,0.85020242 L0.929381623,17.3874294 Z" id="Fill-3" fill="url(#radialGradient-1)"></path>
                <path d="M29.3075768,13.7095759 C26.7749241,13.7095759 25.0077746,11.7316411 25.0077746,9.12003988 C25.0077746,6.38988845 26.7863388,4.52840567 29.3075768,4.52840567 C31.4175262,4.52840567 33.0773055,5.9919235 33.5007222,8.06322963 L31.4792373,8.06322963 C31.1403612,7.05118169 30.3199244,6.36960553 29.3075768,6.36960553 C27.9741886,6.36960553 26.9696886,7.55370861 26.9696886,9.12003988 C26.9696886,10.6842729 27.9741886,11.8701245 29.3075768,11.8701245 C30.3249184,11.8701245 31.1499924,11.1801554 31.4842312,10.1562175 L33.5050027,10.1562175 C33.0887202,12.2383645 31.4243037,13.7095759 29.3075768,13.7095759 L29.3075768,13.7095759 Z" id="Path" fill="#312D16"></path>
                <path d="M21.9364873,13.5032496 L21.9364873,7.08090667 L20.1201116,13.5032496 L18.188518,13.5032496 L16.3717856,7.08090667 L16.3717856,13.5032496 L14.2746778,13.5032496 L14.2746778,4.74172607 L17.4843692,4.74172607 C17.4843692,4.74172607 19.0032474,10.3499544 19.1530663,11.0406229 L20.8214067,4.74172607 L24.0286011,4.74172607 L24.0318115,13.5032496 L21.9364873,13.5032496 Z" id="Path" fill="#312D16"></path>
                <path d="M13.0953891,13.5032496 L11.1637955,13.5032496 L11.1092186,12.8311155 C10.6365757,13.210546 9.41555172,13.7095759 8.16171028,13.7095759 C6.20871401,13.7095759 4.94167424,12.252003 4.94167424,11.0213891 C4.94167424,8.65982734 7.42938127,8.0800155 10.4460917,8.0800155 L11.064273,8.0800155 C11.064273,8.0800155 11.0660565,7.91950064 11.0660565,7.87648685 C11.0660565,7.5655986 10.9073198,6.25175475 9.25895531,6.25175475 C7.88133493,6.25175475 7.46754941,6.85359804 7.31666039,7.38899728 L5.2866144,7.38899728 C5.2866144,6.72280816 5.8163312,4.52945479 9.2250677,4.52945479 C12.1005203,4.52945479 13.0953891,6.04962492 13.0953891,8.74130874 L13.0953891,13.5032496 Z M8.86671518,9.7547555 C8.08052271,9.83378896 7.01716529,10.0908226 7.01716529,11.0035541 C7.01716529,11.6749888 7.69242044,11.978883 8.65268819,11.978883 C9.76277484,11.978883 10.6434959,11.451527 10.8814226,10.9353615 C11.0069851,10.6765794 11.0815378,10.4195458 11.0815378,10.157966 L11.0815378,9.6732741 C11.0815378,9.6732741 10.5379093,9.67257469 10.4651401,9.67257469 C10.1455264,9.67152558 9.64755698,9.67747057 8.86671518,9.7547555 Z" id="Combined-Shape" fill="#312D16"></path>
            </g>
        </g>
    </g>
</svg>