<?xml version="1.0" encoding="UTF-8"?>
<svg width="42px" height="32px" viewBox="0 0 42 32" version="1.1" xmlns="http://www.w3.org/2000/svg" xmlns:xlink="http://www.w3.org/1999/xlink">
    <!-- Generator: Sketch 46.2 (44496) - http://www.bohemiancoding.com/sketch -->
    <title>AXSTV_Color</title>
    <desc>Created with Sketch.</desc>
    <defs></defs>
    <g id="Domestic" stroke="none" stroke-width="1" fill="none" fill-rule="evenodd">
        <g id="AXSTV" fill="#000000">
            <g id="Logo-/-AXS-TV-White" transform="translate(8.000000, 3.000000)">
                <path d="M13.0000248,0.590933909 C19.8533175,0.590933909 25.4091157,6.14664936 25.4091157,13.0000248 C25.4091157,19.8533175 19.8533175,25.4091157 13.0000248,25.4091157 C6.14664936,25.4091157 0.590933909,19.8533175 0.590933909,13.0000248 C0.590933909,6.14664936 6.14664936,0.590933909 13.0000248,0.590933909 Z M24.3185221,15.8752939 C24.4201112,15.8752939 24.5032521,15.7919875 24.5032521,15.6905639 L24.5032521,10.2651439 C24.5032521,10.1636375 24.4201112,10.0804139 24.3185221,10.0804139 L17.5835294,10.0804139 C17.4819403,10.0804139 17.3987166,10.1636375 17.3987166,10.2651439 L17.3987166,15.6905639 C17.3987166,15.7919875 17.4819403,15.8752939 17.5835294,15.8752939 L24.3185221,15.8752939 Z M23.4196655,11.8204415 C23.5211718,11.8204415 23.6556036,11.8397996 23.65883,11.8627978 C23.6620564,11.8861269 23.6398027,11.9843242 23.6091109,12.0811151 L22.7866364,14.6689896 C22.7560273,14.7657805 22.71607,14.8639778 22.69787,14.8868933 C22.6800009,14.9099742 22.5327464,14.9289187 22.4314055,14.9289187 L21.9757436,14.9289187 C21.8742373,14.9289187 21.7686773,14.920646 21.7413773,14.9099742 C21.7138291,14.8993851 21.6496327,14.7657805 21.6189409,14.6689896 L20.9939364,12.6989224 C20.9633273,12.6024624 20.9256864,12.4853205 20.9102991,12.4396551 L20.9102991,12.4418887 L20.9102991,12.4440396 C20.8628136,12.4447842 20.7401291,12.4455287 20.6387055,12.4455287 L20.1209155,12.4455287 C20.0194091,12.4455287 19.9164964,12.4542978 19.89234,12.4652178 C19.8682664,12.4761378 19.8485773,12.6171051 19.8485773,12.7186115 L19.8485773,13.6430887 C19.8485773,13.7445124 19.8496527,13.8566905 19.8515555,13.8916842 C19.8530445,13.9271742 19.8701691,14.0712851 19.8825782,14.1541778 L19.9494218,14.2140724 L20.0172582,14.2743805 C20.1169445,14.2852178 20.22722,14.2966342 20.2622964,14.2994469 C20.29729,14.3025078 20.4575327,14.3046587 20.5594527,14.3046587 L20.6387055,14.3046587 C20.7401291,14.3046587 20.8431245,14.3137587 20.8668673,14.3246787 C20.8906927,14.3355987 20.9102991,14.4762351 20.9102991,14.5777415 L20.9102991,14.6565805 C20.9102991,14.7581696 20.9016127,14.8614133 20.8906927,14.885156 C20.8801036,14.9092296 20.7401291,14.9289187 20.6387055,14.9289187 L20.1833745,14.9289187 C20.0818682,14.9289187 19.9698555,14.9274296 19.9347791,14.9256924 C19.9000336,14.9242033 19.74128,14.9019496 19.6408491,14.8859005 C19.6408491,14.8859005 19.4470191,14.8544642 19.28264,14.705886 C19.1175991,14.5558187 19.0574564,14.0600342 19.0574564,14.0600342 C19.0449645,13.9592724 19.03512,13.7934869 19.03512,13.6919805 L19.03512,12.7186115 C19.03512,12.6171051 19.02602,12.5141924 19.0155136,12.4897051 C19.0045109,12.4652178 18.8642882,12.4455287 18.7627818,12.4455287 L18.5149309,12.4455287 C18.4134245,12.4455287 18.3100155,12.4367596 18.2859418,12.4257569 C18.2612064,12.4148369 18.2414345,12.2738696 18.2414345,12.172446 L18.2414345,12.0943515 C18.2414345,11.9927624 18.2506173,11.889436 18.2607927,11.8650315 C18.2720436,11.8405442 18.4134245,11.8204415 18.5149309,11.8204415 L18.7627818,11.8204415 C18.8642882,11.8204415 18.9672836,11.8117551 18.9913573,11.8010833 C19.0155136,11.7905769 19.03512,11.6496096 19.03512,11.5481033 L19.03512,11.211486 C19.03512,11.1099796 19.0438891,11.0069842 19.0548091,10.9829105 C19.0658118,10.9580924 19.2063655,10.9383205 19.3079545,10.9383205 L19.5754945,10.9383205 C19.6770009,10.9383205 19.7800791,10.9475033 19.8044836,10.9584233 C19.8289709,10.9693433 19.8485773,11.1099796 19.8485773,11.211486 L19.8485773,11.5481033 C19.8485773,11.6496096 19.8572636,11.7525224 19.8679355,11.7770096 C19.8785245,11.8007524 20.0194091,11.8204415 20.1209155,11.8204415 L21.26553,11.8204415 C21.3670364,11.8204415 21.4725964,11.8292105 21.50031,11.8401305 C21.5277755,11.8508024 21.5839473,11.9865578 21.6106682,12.0844242 L22.1296991,13.9826842 C22.1563373,14.0803851 22.1859536,14.1713851 22.1954673,14.1841251 C22.2049809,14.1969478 22.2477509,14.0807987 22.27472,13.9826842 L22.7963982,12.0844242 C22.82345,11.9862269 22.8595191,11.8869542 22.8768091,11.8635424 C22.8939336,11.8397996 23.0395336,11.8204415 23.1411227,11.8204415 L23.4196655,11.8204415 Z M16.8912675,14.7120657 C16.9562085,14.4692612 16.9690312,14.2104075 16.9441303,13.9613985 C16.9227866,13.7244675 16.8613203,13.4886121 16.7419448,13.2808839 C16.5099775,12.8770921 16.0811194,12.6521566 15.6484557,12.5214475 C15.3636257,12.4368175 15.0704403,12.3827139 14.7834594,12.3052812 C14.5706848,12.2468757 14.3522848,12.1778812 14.165073,12.0592503 C14.0573621,11.9890975 13.944853,11.8927203 13.923013,11.7601912 C13.8900875,11.5503121 14.0237748,11.3669885 14.2037894,11.2786357 C14.4192112,11.1727448 14.6750866,11.1574403 14.9105285,11.1589294 C15.5038485,11.1625694 16.4396594,11.6072285 16.4396594,11.6072285 C16.5166785,11.6437112 16.5813712,11.6035885 16.5813712,11.5174694 L16.5813712,10.417693 C16.5726848,10.4147148 16.5662321,10.4123985 16.5586212,10.4097512 C16.5512585,10.4071866 16.542903,10.4042085 16.5337203,10.4010648 C16.3860521,10.3491948 16.4714266,10.3790594 16.5337203,10.4010648 C16.5409175,10.4035466 16.5503485,10.406773 16.5586212,10.4097512 C16.5719403,10.4144666 16.5813712,10.417693 16.5813712,10.417693 C16.099733,10.2494257 15.5944348,10.1527175 15.0855794,10.1226875 C14.5677894,10.0920785 14.0204657,10.1179721 13.5359321,10.322143 C13.1307339,10.4940503 12.790063,10.8040294 12.6462003,11.2282548 C12.5666166,11.4597257 12.5472585,11.7102239 12.5652103,11.9530285 C12.5830794,12.1910348 12.6440494,12.4279657 12.7678094,12.6332121 C13.0039957,13.0282348 13.4366594,13.2418366 13.8623739,13.3696503 C14.1895603,13.4680957 14.5287421,13.5193039 14.8569212,13.6142748 C15.0339575,13.6649866 15.2267948,13.7190903 15.3822394,13.8212585 C15.5630812,13.9417921 15.6345575,14.1790539 15.5859966,14.3863685 C15.5352848,14.6025348 15.3348366,14.7216621 15.1343885,14.7777512 C14.8828148,14.8489794 14.6074985,14.8531157 14.3493894,14.8340057 C13.7499475,14.7894985 12.7908075,14.3524503 12.7908075,14.3524503 C12.7122994,14.3155539 12.6476066,14.3579103 12.6476066,14.4441121 L12.6476066,15.0194803 L12.6476066,15.4232721 L12.6476066,15.5277566 C12.6476066,15.5317275 12.7122994,15.5641566 12.7922966,15.5889748 L12.8660066,15.6105666 C13.4502266,15.7800748 14.0573621,15.8818294 14.6667312,15.887703 C15.1530021,15.8920875 15.6663248,15.8474975 16.1107357,15.6364603 C16.4980648,15.4525575 16.7810748,15.1290112 16.8912675,14.7120657 Z M12.1543866,16.9881412 C12.2694603,16.9881412 12.3205857,16.9048348 12.2694603,16.8026666 L8.98973755,10.3826994 C8.93753664,10.2815239 8.80202936,10.1979694 8.68736936,10.1979694 L6.32227936,10.1979694 C6.20687482,10.1979694 6.174363,10.2687839 6.24848664,10.3560612 L8.52017755,13.0786157 L7.22954936,15.632903 C7.178093,15.7354848 7.22954936,15.8183775 7.34305118,15.8183775 L7.78043027,15.8183775 C7.89550391,15.8183775 8.04706027,15.7468185 8.12151482,15.6591275 L9.40775845,14.143233 L11.6483439,16.830463 C11.7225503,16.9173266 11.8754303,16.9881412 11.990173,16.9881412 L12.1543866,16.9881412 Z M6.49170482,15.5412412 L6.49170482,12.6302339 C6.49170482,11.6911966 6.31020118,11.0391403 5.94769027,10.6748094 C5.58360755,10.3103957 4.95454936,10.1271548 4.05786845,10.1271548 C3.69022845,10.1271548 3.34194664,10.159253 3.01294027,10.2209675 C2.68509209,10.2834266 2.26698845,10.4323357 2.26698845,10.4323357 C2.14331118,10.4761812 2.04329391,10.6185548 2.04329391,10.7477748 L2.04329391,11.7438112 C2.39554664,11.5535385 2.731833,11.414143 3.05529664,11.3275275 C3.37876027,11.2399194 3.71215118,11.1972321 4.05786845,11.1972321 C4.38720573,11.1972321 4.63547027,11.2559685 4.80415118,11.3765021 C4.97390755,11.496953 5.01039027,11.674403 5.01039027,11.674403 C5.03636664,11.8014721 5.056883,11.9598948 5.056883,12.0264075 C5.056883,12.0935821 4.95198482,12.147603 4.82276482,12.147603 L4.05786845,12.147603 C3.18493027,12.147603 2.53940936,12.3009794 2.12205027,12.6076494 C1.704443,12.9154775 1.49671482,13.3896703 1.49671482,14.0344466 C1.49671482,14.6288421 1.67160027,15.0917839 2.02095755,15.423603 C2.37072845,15.7555048 2.86039118,15.921373 3.48614027,15.921373 C3.81506391,15.921373 4.11486755,15.8556048 4.38861209,15.7234066 C4.661033,15.5927803 4.897633,15.3356639 4.897633,15.3356639 C4.98631664,15.2407757 5.056883,15.2692339 5.056883,15.3984539 L5.056883,15.5412412 C5.056883,15.6715366 5.16451118,15.7789166 5.29447573,15.7789166 L6.25543573,15.7789166 C6.38614482,15.7789166 6.49170482,15.6715366 6.49170482,15.5412412 Z M4.82275655,13.1866575 C4.95197655,13.1866575 5.05687473,13.2312475 5.05687473,13.2852685 C5.05687473,13.8011557 4.95313473,14.202383 4.74325564,14.4901085 C4.53213564,14.7770894 4.23713018,14.9209521 3.85567473,14.9209521 C3.60294291,14.9209521 3.40290836,14.8464148 3.25540564,14.6996566 C3.10715836,14.5514094 3.03377927,14.3527812 3.03377927,14.1030275 C3.03377927,13.7678994 3.14000109,13.531713 3.35434745,13.3944685 C3.56720473,13.2560657 4.24631291,13.2049403 4.24631291,13.2049403 C4.37553291,13.1947648 4.58839018,13.1866575 4.71835473,13.1866575 L4.82275655,13.1866575 Z M9.87980027,10.3826994 C9.87980027,10.3826994 9.80609027,10.5502221 9.74652664,10.7149321 C9.74106664,10.9215848 10.4899139,12.8690675 10.4899139,12.8690675 L12.6224575,10.3560612 C12.6958366,10.2687839 12.6625803,10.1979694 12.5487475,10.1979694 L10.1817548,10.1979694 C10.068253,10.1979694 9.93208391,10.2807794 9.87980027,10.3826994 Z" id="Combined-Shape"></path>
            </g>
        </g>
    </g>
</svg>