<?xml version="1.0" encoding="UTF-8"?>
<svg width="42px" height="32px" viewBox="0 0 42 32" version="1.1" xmlns="http://www.w3.org/2000/svg" xmlns:xlink="http://www.w3.org/1999/xlink">
    <!-- Generator: Sketch 46.2 (44496) - http://www.bohemiancoding.com/sketch -->
    <title>BBCAHD_Color</title>
    <desc>Created with Sketch.</desc>
    <defs></defs>
    <g id="Domestic" stroke="none" stroke-width="1" fill="none" fill-rule="evenodd">
        <g id="BBCAHD" fill="#000000">
            <g id="Logo-/-BBC-America-White" transform="translate(8.000000, 3.000000)">
                <path d="M4.0339078,3.91160451 L3.63186254,3.91160451 L3.63186254,2.61481408 L4.0339078,2.61481408 C4.25008425,2.61481408 4.54618696,2.61481408 4.74332056,2.70144558 C4.93508999,2.78593141 5.05417478,2.9886974 5.05417478,3.2306219 C5.05417478,3.59055836 4.80661788,3.75255658 4.70013892,3.80566196 L4.69826146,3.80646659 L4.69638399,3.80753942 C4.57434891,3.87459167 4.33912963,3.91160451 4.0339078,3.91160451 Z M13.6701201,4.85006774 C13.4968571,4.78086982 13.272098,4.75485355 12.8416226,4.75485355 L12.2309107,4.75485355 L12.2309107,6.12486504 L12.8802447,6.12486504 C13.0792558,6.12486504 13.4493842,6.12486504 13.6269385,6.05781279 C13.98312,5.92987711 14.1094465,5.6431617 14.1094465,5.43637258 C14.1094465,5.33901272 14.0777978,5.00884746 13.6701201,4.85006774 Z M16.8100427,8.21045809 L9.19049371,8.21045809 L9.19049371,0.590909091 L16.8100427,0.590909091 L16.8100427,8.21045809 L16.8100427,8.21045809 Z M15.0905549,5.50208378 C15.0905549,4.8935176 14.6807316,4.40135411 14.0246924,4.19295573 C14.429688,3.95827287 14.6345996,3.61577 14.6345996,3.17188413 C14.6345996,2.57163243 14.2861962,2.10575343 13.6784346,1.89386833 C13.4078118,1.79811772 13.1280698,1.77880668 12.7643784,1.77880668 L11.3806883,1.77880668 L11.2803781,1.77880668 L11.2803781,1.87911684 L11.2803781,6.86083049 L11.2803781,6.96114064 L11.3806883,6.96114064 L12.8416226,6.96114064 C13.4099574,6.96114064 13.6693155,6.96114064 13.9938484,6.85385705 C14.138413,6.80718869 14.4184232,6.69507733 14.6630298,6.47005 C14.9467949,6.20881445 15.0905549,5.88320874 15.0905549,5.50208378 Z M5.07107194,4.85006774 C4.89780894,4.78086982 4.67304981,4.75485355 4.24257439,4.75485355 L3.63186254,4.75485355 L3.63186254,6.12486504 L4.28119649,6.12486504 C4.48020755,6.12486504 4.85033595,6.12486504 5.0278903,6.05781279 C5.38407182,5.92987711 5.51039826,5.6431617 5.51039826,5.43637258 C5.51039826,5.33901272 5.4787496,5.00884746 5.07107194,4.85006774 Z M13.2954322,3.80727121 L13.2973097,3.80619838 L13.2991871,3.80539375 C13.4056661,3.75255658 13.653223,3.59029015 13.653223,3.23035369 C13.653223,2.9886974 13.5341382,2.78593141 13.3423688,2.70117737 C13.1452352,2.61454587 12.8491324,2.61454587 12.632956,2.61454587 L12.2309107,2.61454587 L12.2309107,3.9113363 L12.632956,3.9113363 C12.9381778,3.91160451 13.1733971,3.87459167 13.2954322,3.80727121 Z M8.21099451,8.21045809 L0.591445509,8.21045809 L0.591445509,0.590909091 L8.21099451,0.590909091 L8.21099451,8.21045809 Z M6.49150672,5.50208378 C6.49150672,4.8935176 6.08168339,4.40135411 5.42564422,4.19295573 C5.83063978,3.95827287 6.03555144,3.61577 6.03555144,3.17188413 C6.03555144,2.57163243 5.68714798,2.10575343 5.07938642,1.89386833 C4.80876356,1.79811772 4.52902159,1.77880668 4.165062,1.77880668 L2.78164006,1.77880668 L2.6813299,1.77880668 L2.6813299,1.87911684 L2.6813299,6.86083049 L2.6813299,6.96114064 L2.78164006,6.96114064 L4.24257439,6.96114064 C4.81090923,6.96114064 5.07026731,6.96114064 5.39480018,6.85385705 C5.53909662,6.80718869 5.819375,6.69507733 6.0639816,6.47005 C6.3477467,6.20881445 6.49150672,5.88320874 6.49150672,5.50208378 Z M25.4088227,0.590909091 L25.4088227,8.21045809 L17.7892737,8.21045809 L17.7892737,0.590909091 L25.4088227,0.590909091 Z M23.8794951,5.52756363 L23.7268842,5.62116857 C23.1502349,5.97466801 22.5172617,6.16160967 21.8968943,6.16160967 C20.5174955,6.16160967 19.8890818,5.24058002 19.8890818,4.38472515 C19.8890818,3.91026346 20.0800466,3.46691401 20.4268408,3.13621234 C20.7937507,2.78619962 21.3130033,2.59335736 21.8891162,2.59335736 C22.4660337,2.59335736 23.0845237,2.76098797 23.6775337,3.0782792 L23.8250487,3.15713264 L23.8250487,2.98977023 L23.8250487,2.22269254 L23.8250487,2.15510388 L23.762556,2.12962403 C23.4817412,2.01563521 22.735852,1.71309548 21.865782,1.71309548 C20.199936,1.71309548 18.8950993,2.88329127 18.8950993,4.37748351 C18.8950993,5.02869492 19.1563349,5.67722424 19.612022,6.1567819 C19.989392,6.5537312 20.6840533,7.02712005 21.8502259,7.02712005 C22.5875324,7.02712005 23.2336478,6.88014153 23.8250487,6.57787001 L23.8797633,6.54997627 L23.8797633,6.48855642 L23.8797633,5.70699544 L23.8797633,5.52756363 L23.8794951,5.52756363 Z M2.38281331,23.9481566 C2.52845078,24.1401942 2.98226038,24.8388786 3.35372982,25.4082863 L0.591445509,25.4082863 L0.591445509,23.0558253 L0.857777029,23.0558253 C1.34538096,23.0560935 1.68788383,23.0560935 2.38281331,23.9481566 Z M25.3600087,11.8052631 C25.3766376,11.8130411 25.3927302,11.821892 25.4088227,11.8307429 L25.4088227,13.672534 C25.352767,13.7079376 25.2918836,13.7398545 25.2250995,13.7658708 C24.9450894,13.8696676 24.395261,13.8696676 24.2396997,13.8696676 L23.8454325,13.8696676 L23.8454325,11.6392417 L24.156555,11.6392417 C24.7686079,11.6392417 25.1006506,11.6805459 25.3600087,11.8052631 Z M18.9294301,20.5765015 L20.0706593,23.1389701 L17.8713457,23.1389701 L18.9294301,20.5765015 Z M0.982225997,22.1535703 L0.5911773,22.1535703 L0.5911773,19.9231444 L0.899081212,19.9231444 C1.51113411,19.9231444 1.84317683,19.9647168 2.10253492,20.0891657 C2.43457764,20.2447269 2.64190318,20.628534 2.64190318,21.0332614 C2.64190318,21.4170684 2.44476958,21.8630999 1.9676258,22.0500416 C1.68788383,22.1535703 1.13778721,22.1535703 0.982225997,22.1535703 Z M20.4855786,24.0519535 L21.0997772,25.4082863 L16.8969424,25.4082863 L17.4773467,24.0519535 L20.4855786,24.0519535 Z M25.4088227,9.14865311 L25.4088227,10.8659952 C25.1151339,10.7941152 24.8396832,10.7780227 24.6130466,10.7780227 L22.8391124,10.7780227 L22.8391124,17.8531074 L23.8454325,17.8531074 L23.8454325,14.7719226 L24.1152508,14.7719226 C24.545458,14.7719226 24.8627492,14.7724591 25.4090909,15.3853166 L25.4090909,25.4082863 L22.1431101,25.4082863 L19.3030452,19.0206211 L18.5871954,19.0206211 L15.8589737,25.4085545 L14.8733056,25.4085545 L14.8733056,24.4982532 C14.1263436,24.9858571 13.2549326,25.2867876 12.3628696,25.2867876 C10.4851385,25.2867876 9.551503,23.9382328 9.551503,22.6205221 C9.551503,21.1992827 10.6406997,19.9336045 12.3524094,19.9336045 C13.2133602,19.9336045 14.053659,20.2136147 14.800621,20.6389941 L14.800621,19.5497975 C14.3441293,19.3526639 13.4104938,18.9688568 12.3212972,18.9688568 C10.0804111,18.9688568 8.49315036,20.6599144 8.49315036,22.6103302 C8.49315036,23.5898294 8.91021532,24.6825128 9.79825527,25.4088227 L7.1030232,25.4088227 L7.1030232,19.0624617 L6.08624294,19.0624617 L6.08624294,25.4088227 L4.52124353,25.4088227 C4.36273202,25.1811133 4.23613738,24.9901485 4.07360273,24.7267673 C3.53423447,23.8553563 3.13996726,23.201731 2.49680212,22.7766197 C3.26441623,22.4756893 3.67933553,21.8531762 3.67933553,21.0337978 C3.67933553,20.317948 3.32664072,19.6125584 2.56921855,19.2909758 C2.12318701,19.0938422 1.68734741,19.06273 1.35530469,19.06273 L0.590909091,19.06273 L0.590909091,9.14865311 L25.4088227,9.14865311 Z M7.74484729,17.894948 L4.58078592,10.7782909 L3.86493615,10.7782909 L0.825323742,17.894948 L1.86275609,17.894948 L2.75481917,15.8096232 L5.76331933,15.8096232 L6.70741495,17.894948 L7.74484729,17.894948 L7.74484729,17.894948 Z M15.2555034,10.8198633 L14.3114078,10.8198633 L11.9669931,13.7245666 L9.61211823,10.8198633 L8.65783067,10.8198633 L8.65783067,17.894948 L9.67434272,17.894948 L9.67434272,12.3862037 L11.8736564,15.1248857 L12.0603298,15.1248857 L14.2389914,12.3862037 L14.2389914,17.894948 L15.2555034,17.894948 L15.2555034,10.8198633 L15.2555034,10.8198633 Z M21.1314258,16.9819647 L18.0400491,16.9819647 L18.0400491,14.782651 L20.9345604,14.782651 L20.9345604,13.8801278 L18.0400491,13.8801278 L18.0400491,11.7223865 L21.0380891,11.7223865 L21.0380891,10.8198633 L17.0232688,10.8198633 L17.0232688,17.894948 L21.1314258,17.894948 L21.1314258,16.9819647 Z M4.20717081,12.3344394 L5.34840003,14.896908 L3.14908637,14.896908 L4.20717081,12.3344394 Z" id="Shape"></path>
            </g>
        </g>
    </g>
</svg>