<?xml version="1.0" encoding="UTF-8"?>
<svg width="42px" height="32px" viewBox="0 0 42 32" version="1.1" xmlns="http://www.w3.org/2000/svg" xmlns:xlink="http://www.w3.org/1999/xlink">
    <!-- Generator: Sketch 46.2 (44496) - http://www.bohemiancoding.com/sketch -->
    <title>BLOOMHD_Color</title>
    <desc>Created with Sketch.</desc>
    <defs></defs>
    <g id="Domestic" stroke="none" stroke-width="1" fill="none" fill-rule="evenodd">
        <g id="BLOOMHD" fill="#000000">
            <g id="Logo" transform="translate(0.000000, 10.000000)">
                <path d="M2.10184238,3.45749839 L3.1253841,3.45749839 C3.98816283,3.45749839 4.39431917,3.67283048 4.39431917,4.2855944 C4.39431917,5.05434693 3.63299281,5.1453968 3.08376261,5.1453968 L2.10184238,5.1453968 L2.10184238,3.45749839 Z M1.03581206,6.0386011 L3.19336586,6.0386011 C4.32720452,6.0386011 5.46173687,5.64184748 5.46173687,4.36782752 C5.46173687,3.61484341 4.91944359,3.03565095 4.16574784,2.95307872 L4.16574784,2.93646254 C4.78400033,2.75436281 5.20749896,2.31589919 5.20749896,1.65379539 C5.20749896,0.58713855 4.27691189,0.182585501 3.37077745,0.182585501 L1.03581206,0.182585501 L1.03581206,6.0386011 Z M2.10184238,1.0757898 L2.98213682,1.0757898 C3.78577835,1.0757898 4.1404281,1.32367604 4.1404281,1.8277566 C4.1404281,2.26689842 3.78577835,2.56344632 3.07543832,2.56344632 L2.10184238,2.56344632 L2.10184238,1.0757898 Z" id="Fill-1"></path>
                <polygon id="Fill-3" points="6.15664227 0.0435691365 7.1718597 0.0435691365 7.1718597 6.03861805 6.15664227 6.03861805"></polygon>
                <path d="M7.85172933,4.0530527 C7.85172933,5.30299615 8.8331293,6.13719607 10.060096,6.13719607 C11.2865425,6.13719607 12.2675956,5.30299615 12.2675956,4.0530527 C12.2675956,2.80378746 11.2865425,1.96857022 10.060096,1.96857022 C8.8331293,1.96857022 7.85172933,2.80378746 7.85172933,4.0530527 M8.86642649,4.0530527 C8.86642649,3.4326589 9.31507143,2.86194408 10.060096,2.86194408 C10.8046004,2.86194408 11.252725,3.4326589 11.252725,4.0530527 C11.252725,4.67395516 10.8046004,5.24500908 10.060096,5.24500908 C9.31507143,5.24500908 8.86642649,4.67395516 8.86642649,4.0530527" id="Fill-5"></path>
                <path d="M12.7268887,4.0530527 C12.7268887,5.30299615 13.708809,6.13719607 14.9357757,6.13719607 C16.1622222,6.13719607 17.1431019,5.30299615 17.1431019,4.0530527 C17.1431019,2.80378746 16.1622222,1.96857022 14.9357757,1.96857022 C13.708809,1.96857022 12.7268887,2.80378746 12.7268887,4.0530527 M13.7426264,4.0530527 C13.7426264,3.4326589 14.1907511,2.86194408 14.9357757,2.86194408 C15.68028,2.86194408 16.1284047,3.4326589 16.1284047,4.0530527 C16.1284047,4.67395516 15.68028,5.24500908 14.9357757,5.24500908 C14.1907511,5.24500908 13.7426264,4.67395516 13.7426264,4.0530527" id="Fill-6"></path>
                <path d="M17.7635915,2.06813164 L18.727996,2.06813164 L18.727996,2.688695 L18.7449915,2.688695 C18.9224031,2.31584832 19.311564,1.96860413 19.9889537,1.96860413 C20.615357,1.96860413 21.0466597,2.2091996 21.2578887,2.70565028 C21.5542684,2.19970464 21.985571,1.96860413 22.5951524,1.96860413 C23.6780047,1.96860413 24.0590148,2.72107959 24.0590148,3.67277961 L24.0590148,6.03871978 L23.0437973,6.03871978 L23.0437973,3.7889233 C23.0437973,3.29230307 22.8910118,2.86197799 22.2906219,2.86197799 C21.6553739,2.86197799 21.4189986,3.3755535 21.4189986,3.88709439 L21.4189986,6.03871978 L20.4030874,6.03871978 L20.4030874,3.67277961 C20.4030874,3.18565434 20.200703,2.86197799 19.7099163,2.86197799 C19.0408509,2.86197799 18.7793292,3.3424907 18.7793292,3.87183463 L18.7793292,6.03871978 L17.7635915,6.03871978 L17.7635915,2.06813164 Z" id="Fill-7"></path>
                <path d="M24.881438,6.03868587 L25.8460159,6.03868587 L25.8460159,5.44236857 L25.8633582,5.44236857 C26.1592176,5.9232204 26.6924929,6.13855249 27.2595857,6.13855249 C28.5111784,6.13855249 29.2638337,5.22856246 29.2638337,4.0530527 C29.2638337,2.87940802 28.4603656,1.96857022 27.3012072,1.96857022 C26.5397074,1.96857022 26.1340713,2.31581441 25.9228423,2.57200874 L25.8971757,2.57200874 L25.8971757,0.0436369577 L24.881438,0.0436369577 L24.881438,6.03868587 Z M28.2486162,4.0530527 C28.2486162,4.67395516 27.8004916,5.24500908 27.055467,5.24500908 C26.3114829,5.24500908 25.8633582,4.67395516 25.8633582,4.0530527 C25.8633582,3.4326589 26.3114829,2.86194408 27.055467,2.86194408 C27.8004916,2.86194408 28.2486162,3.4326589 28.2486162,4.0530527 L28.2486162,4.0530527 Z" id="Fill-8"></path>
                <path d="M33.8350001,4.39994083 L33.8350001,4.12848675 C33.8350001,2.74764851 33.0653495,1.96872282 31.931164,1.96872282 C30.7047175,1.96872282 29.7233175,2.8037705 29.7233175,4.05303574 C29.7233175,5.30297919 30.7047175,6.13853553 31.931164,6.13853553 C32.5747362,6.13853553 33.1756464,5.91336938 33.6489174,5.34435008 L32.9217553,4.80669806 C32.6680377,5.1117236 32.3383608,5.34435008 31.831099,5.34435008 C31.2636594,5.34435008 30.8061699,4.9887978 30.738535,4.39994083 L33.8350001,4.39994083 Z M30.738535,3.65628212 C30.8153613,3.0855673 31.1866596,2.71305974 31.7886104,2.71305974 C32.4228178,2.71305974 32.8114584,3.07776787 32.820303,3.65628212 L30.738535,3.65628212 Z" id="Fill-9"></path>
                <path d="M34.4974754,2.06813164 L35.5121726,2.06813164 L35.5121726,2.69683353 L35.5296883,2.69683353 C35.7501088,2.24141463 36.1987537,1.96860413 36.7315087,1.96860413 C36.8586277,1.96860413 36.9765552,1.99335884 37.0955233,2.0265912 L37.0955233,2.98626021 C36.9257423,2.94590664 36.7648059,2.91233518 36.6043898,2.91233518 C35.6479627,2.91233518 35.5121726,3.69804298 35.5121726,3.91337508 L35.5121726,6.03871978 L34.4974754,6.03871978 L34.4974754,2.06813164 Z" id="Fill-10"></path>
                <path d="M40.5672756,2.06813164 L40.5672756,2.66343162 L40.5508004,2.66343162 C40.2539004,2.18308846 39.722186,1.96860413 39.1552666,1.96860413 C37.9026333,1.96860413 37.1494578,2.87944193 37.1494578,4.05308661 C37.1494578,5.17739141 37.953793,6.08907697 39.1715684,6.08907697 C39.6791771,6.08907697 40.2037812,5.89833004 40.4996406,5.50937585 L40.5175032,5.50937585 L40.5175032,5.79931119 C40.5175032,6.58552766 40.2129726,7.13080955 39.2315727,7.13080955 C38.6634394,7.13080955 38.240461,6.92429421 37.8343047,6.55958607 L37.2252436,7.36987904 C37.8004872,7.86751659 38.4860278,8.02469207 39.2393767,8.02469207 C40.8216869,8.02469207 41.5323738,7.11368472 41.5323738,5.68401527 L41.5323738,2.06813164 L40.5672756,2.06813164 Z M39.3659754,2.86197799 C40.1028491,2.86197799 40.5672756,3.3424907 40.5672756,4.02782324 C40.5672756,4.6911139 40.1104797,5.19502491 39.3576511,5.19502491 C38.6728042,5.19502491 38.1646752,4.67381951 38.1646752,4.04528718 C38.1646752,3.3424907 38.6563291,2.86197799 39.3659754,2.86197799 L39.3659754,2.86197799 Z" id="Fill-11"></path>
                <polygon id="Fill-12" points="0.978409091 7.53687162 3.28614709 7.53687162 3.28614709 8.11742051 2.50990637 8.11742051 2.50990637 10.4689487 1.75898538 10.4689487 1.75898538 8.11742051 0.978409091 8.11742051"></polygon>
                <polygon id="Fill-13" points="3.62400951 7.54085611 5.83844601 7.54085611 5.83844601 8.10902764 4.37076834 8.10902764 4.37076834 8.63989755 5.74080894 8.63989755 5.74080894 9.19569172 4.37076834 9.19569172 4.37076834 9.89238429 5.96990054 9.89238429 5.96990054 10.4690335 3.62400951 10.4690335"></polygon>
                <polygon id="Fill-14" points="6.43784744 7.53687162 7.18460628 7.53687162 7.18460628 9.85075907 8.355384 9.85075907 8.355384 10.4689487 6.43784744 10.4689487"></polygon>
                <polygon id="Fill-15" points="8.71662382 7.54085611 10.9310603 7.54085611 10.9310603 8.10902764 9.46320924 8.10902764 9.46320924 8.63989755 10.8334233 8.63989755 10.8334233 9.19569172 9.46320924 9.19569172 9.46320924 9.89238429 11.0625149 9.89238429 11.0625149 10.4690335 8.71662382 10.4690335"></polygon>
                <polygon id="Fill-16" points="13.254892 7.54085611 14.0524637 7.54085611 13.0129671 10.4690335 12.2495596 10.4690335 11.2228963 7.54085611 12.020468 7.54085611 12.6397611 9.6227953"></polygon>
                <polygon id="Fill-17" points="15.1160141 10.4690335 14.3692552 10.4690335 14.3692552 7.54085611 15.1160141 7.54085611"></polygon>
                <path d="M16.0497401,9.58968163 C16.1262196,9.67259296 16.1898658,9.73905767 16.3383157,9.81773018 C16.5375786,9.92149652 16.7413505,9.95879814 16.9151202,9.95879814 C17.2121935,9.95879814 17.4667783,9.82179945 17.4667783,9.61867516 C17.4667783,9.38672689 17.1655428,9.34908617 16.9447755,9.31992308 C16.7795035,9.29940719 16.6140581,9.27855219 16.4527748,9.24531983 C16.270334,9.20818776 15.6468788,9.07966672 15.6468788,8.4492693 C15.6468788,7.69425056 16.3339802,7.47010172 16.8516474,7.47010172 C17.5429109,7.47010172 17.9162903,7.79801689 18.1750372,8.02606544 L17.6235526,8.41179813 C17.5302511,8.32040915 17.4454473,8.24173664 17.3266526,8.17561104 C17.2205178,8.11728487 17.0297527,8.04675089 16.8388141,8.04675089 C16.5417407,8.04675089 16.3934642,8.21257356 16.3934642,8.35381106 C16.3934642,8.5776208 16.6478755,8.61085315 16.7751679,8.62746933 C17.0933989,8.66477095 17.5217533,8.74344346 17.6915343,8.80160008 C18.035085,8.92588231 18.2090281,9.18733277 18.2090281,9.51914765 C18.2090281,9.73058003 18.1283865,9.96320651 17.9714388,10.1414065 C17.700032,10.4482972 17.267342,10.5354473 16.8473118,10.5354473 C16.0030893,10.5354473 15.6680364,10.1536143 15.48126,9.94201241 L16.0497401,9.58968163 Z" id="Fill-18"></path>
                <polygon id="Fill-19" points="19.4345901 10.4690335 18.6880047 10.4690335 18.6880047 7.54085611 19.4345901 7.54085611"></polygon>
                <path d="M21.9405158,8.27476553 C21.8132234,8.14217522 21.6181227,8.05926389 21.4145242,8.05926389 C20.9606766,8.05926389 20.672101,8.44923539 20.672101,8.9801053 C20.672101,9.67679787 21.0709736,9.93400951 21.423022,9.93400951 C21.7794059,9.93400951 22.1611097,9.68493641 22.1824407,9.07132472 C22.1951005,8.76426455 22.1101233,8.45313511 21.9405158,8.27476553 M21.423022,10.5520296 C20.4728381,10.5520296 19.9340133,9.83855127 19.9340133,8.99265221 C19.9340133,8.20033184 20.447345,7.44955192 21.4103621,7.44955192 C21.5884674,7.44955192 21.7752438,7.47447618 21.9575112,7.53687162 C22.8738776,7.84766196 22.9331882,8.82242117 22.9331882,9.02147619 C22.9331882,9.52742183 22.6955989,9.98368849 22.3647081,10.2447998 C22.0719703,10.4814956 21.7327552,10.5520296 21.423022,10.5520296" id="Fill-20"></path>
                <path d="M23.4226916,7.54085611 L24.1566171,7.54085611 L24.8057389,8.6192121 C25.0433282,9.0296995 25.1154721,9.16262892 25.2554244,9.41967101 L25.2214335,7.54085611 L25.9383636,7.54085611 L25.9383636,10.4690335 L25.2044381,10.4690335 L24.6444556,9.54395323 C24.3728754,9.10837201 24.3220626,9.01715259 24.1184641,8.62735064 L24.1396217,10.4690335 L23.4226916,10.4690335 L23.4226916,7.54085611 Z" id="Fill-21"></path>
                <path d="M2.10184238,3.45749839 L3.1253841,3.45749839 C3.98816283,3.45749839 4.39431917,3.67283048 4.39431917,4.2855944 C4.39431917,5.05434693 3.63299281,5.1453968 3.08376261,5.1453968 L2.10184238,5.1453968 L2.10184238,3.45749839 Z M1.03581206,6.0386011 L3.19336586,6.0386011 C4.32720452,6.0386011 5.46173687,5.64184748 5.46173687,4.36782752 C5.46173687,3.61484341 4.91944359,3.03565095 4.16574784,2.95307872 L4.16574784,2.93646254 C4.78400033,2.75436281 5.20749896,2.31589919 5.20749896,1.65379539 C5.20749896,0.58713855 4.27691189,0.182585501 3.37077745,0.182585501 L1.03581206,0.182585501 L1.03581206,6.0386011 Z M2.10184238,1.0757898 L2.98213682,1.0757898 C3.78577835,1.0757898 4.1404281,1.32367604 4.1404281,1.8277566 C4.1404281,2.26689842 3.78577835,2.56344632 3.07543832,2.56344632 L2.10184238,2.56344632 L2.10184238,1.0757898 Z" id="Fill-22"></path>
                <polygon id="Fill-23" points="6.15664227 0.0435691365 7.1718597 0.0435691365 7.1718597 6.03861805 6.15664227 6.03861805"></polygon>
                <path d="M7.85172933,4.0530527 C7.85172933,5.30299615 8.8331293,6.13719607 10.060096,6.13719607 C11.2865425,6.13719607 12.2675956,5.30299615 12.2675956,4.0530527 C12.2675956,2.80378746 11.2865425,1.96857022 10.060096,1.96857022 C8.8331293,1.96857022 7.85172933,2.80378746 7.85172933,4.0530527 M8.86642649,4.0530527 C8.86642649,3.4326589 9.31507143,2.86194408 10.060096,2.86194408 C10.8046004,2.86194408 11.252725,3.4326589 11.252725,4.0530527 C11.252725,4.67395516 10.8046004,5.24500908 10.060096,5.24500908 C9.31507143,5.24500908 8.86642649,4.67395516 8.86642649,4.0530527" id="Fill-24"></path>
                <path d="M12.7268887,4.0530527 C12.7268887,5.30299615 13.708809,6.13719607 14.9357757,6.13719607 C16.1622222,6.13719607 17.1431019,5.30299615 17.1431019,4.0530527 C17.1431019,2.80378746 16.1622222,1.96857022 14.9357757,1.96857022 C13.708809,1.96857022 12.7268887,2.80378746 12.7268887,4.0530527 M13.7426264,4.0530527 C13.7426264,3.4326589 14.1907511,2.86194408 14.9357757,2.86194408 C15.68028,2.86194408 16.1284047,3.4326589 16.1284047,4.0530527 C16.1284047,4.67395516 15.68028,5.24500908 14.9357757,5.24500908 C14.1907511,5.24500908 13.7426264,4.67395516 13.7426264,4.0530527" id="Fill-25"></path>
                <path d="M17.7635915,2.06813164 L18.727996,2.06813164 L18.727996,2.688695 L18.7449915,2.688695 C18.9224031,2.31584832 19.311564,1.96860413 19.9889537,1.96860413 C20.615357,1.96860413 21.0466597,2.2091996 21.2578887,2.70565028 C21.5542684,2.19970464 21.985571,1.96860413 22.5951524,1.96860413 C23.6780047,1.96860413 24.0590148,2.72107959 24.0590148,3.67277961 L24.0590148,6.03871978 L23.0437973,6.03871978 L23.0437973,3.7889233 C23.0437973,3.29230307 22.8910118,2.86197799 22.2906219,2.86197799 C21.6553739,2.86197799 21.4189986,3.3755535 21.4189986,3.88709439 L21.4189986,6.03871978 L20.4030874,6.03871978 L20.4030874,3.67277961 C20.4030874,3.18565434 20.200703,2.86197799 19.7099163,2.86197799 C19.0408509,2.86197799 18.7793292,3.3424907 18.7793292,3.87183463 L18.7793292,6.03871978 L17.7635915,6.03871978 L17.7635915,2.06813164 Z" id="Fill-26"></path>
                <path d="M24.881438,6.03868587 L25.8460159,6.03868587 L25.8460159,5.44236857 L25.8633582,5.44236857 C26.1592176,5.9232204 26.6924929,6.13855249 27.2595857,6.13855249 C28.5111784,6.13855249 29.2638337,5.22856246 29.2638337,4.0530527 C29.2638337,2.87940802 28.4603656,1.96857022 27.3012072,1.96857022 C26.5397074,1.96857022 26.1340713,2.31581441 25.9228423,2.57200874 L25.8971757,2.57200874 L25.8971757,0.0436369577 L24.881438,0.0436369577 L24.881438,6.03868587 Z M28.2486162,4.0530527 C28.2486162,4.67395516 27.8004916,5.24500908 27.055467,5.24500908 C26.3114829,5.24500908 25.8633582,4.67395516 25.8633582,4.0530527 C25.8633582,3.4326589 26.3114829,2.86194408 27.055467,2.86194408 C27.8004916,2.86194408 28.2486162,3.4326589 28.2486162,4.0530527 L28.2486162,4.0530527 Z" id="Fill-27"></path>
                <path d="M33.8350001,4.39994083 L33.8350001,4.12848675 C33.8350001,2.74764851 33.0653495,1.96872282 31.931164,1.96872282 C30.7047175,1.96872282 29.7233175,2.8037705 29.7233175,4.05303574 C29.7233175,5.30297919 30.7047175,6.13853553 31.931164,6.13853553 C32.5747362,6.13853553 33.1756464,5.91336938 33.6489174,5.34435008 L32.9217553,4.80669806 C32.6680377,5.1117236 32.3383608,5.34435008 31.831099,5.34435008 C31.2636594,5.34435008 30.8061699,4.9887978 30.738535,4.39994083 L33.8350001,4.39994083 Z M30.738535,3.65628212 C30.8153613,3.0855673 31.1866596,2.71305974 31.7886104,2.71305974 C32.4228178,2.71305974 32.8114584,3.07776787 32.820303,3.65628212 L30.738535,3.65628212 Z" id="Fill-28"></path>
                <path d="M34.4974754,2.06813164 L35.5121726,2.06813164 L35.5121726,2.69683353 L35.5296883,2.69683353 C35.7501088,2.24141463 36.1987537,1.96860413 36.7315087,1.96860413 C36.8586277,1.96860413 36.9765552,1.99335884 37.0955233,2.0265912 L37.0955233,2.98626021 C36.9257423,2.94590664 36.7648059,2.91233518 36.6043898,2.91233518 C35.6479627,2.91233518 35.5121726,3.69804298 35.5121726,3.91337508 L35.5121726,6.03871978 L34.4974754,6.03871978 L34.4974754,2.06813164 Z" id="Fill-29"></path>
                <path d="M40.5672756,2.06813164 L40.5672756,2.66343162 L40.5508004,2.66343162 C40.2539004,2.18308846 39.722186,1.96860413 39.1552666,1.96860413 C37.9026333,1.96860413 37.1494578,2.87944193 37.1494578,4.05308661 C37.1494578,5.17739141 37.953793,6.08907697 39.1715684,6.08907697 C39.6791771,6.08907697 40.2037812,5.89833004 40.4996406,5.50937585 L40.5175032,5.50937585 L40.5175032,5.79931119 C40.5175032,6.58552766 40.2129726,7.13080955 39.2315727,7.13080955 C38.6634394,7.13080955 38.240461,6.92429421 37.8343047,6.55958607 L37.2252436,7.36987904 C37.8004872,7.86751659 38.4860278,8.02469207 39.2393767,8.02469207 C40.8216869,8.02469207 41.5323738,7.11368472 41.5323738,5.68401527 L41.5323738,2.06813164 L40.5672756,2.06813164 Z M39.3659754,2.86197799 C40.1028491,2.86197799 40.5672756,3.3424907 40.5672756,4.02782324 C40.5672756,4.6911139 40.1104797,5.19502491 39.3576511,5.19502491 C38.6728042,5.19502491 38.1646752,4.67381951 38.1646752,4.04528718 C38.1646752,3.3424907 38.6563291,2.86197799 39.3659754,2.86197799 L39.3659754,2.86197799 Z" id="Fill-30"></path>
                <polygon id="Fill-31" points="0.978409091 7.53687162 3.28614709 7.53687162 3.28614709 8.11742051 2.50990637 8.11742051 2.50990637 10.4689487 1.75898538 10.4689487 1.75898538 8.11742051 0.978409091 8.11742051"></polygon>
                <polygon id="Fill-32" points="3.62400951 7.54085611 5.83844601 7.54085611 5.83844601 8.10902764 4.37076834 8.10902764 4.37076834 8.63989755 5.74080894 8.63989755 5.74080894 9.19569172 4.37076834 9.19569172 4.37076834 9.89238429 5.96990054 9.89238429 5.96990054 10.4690335 3.62400951 10.4690335"></polygon>
                <polygon id="Fill-33" points="6.43784744 7.53687162 7.18460628 7.53687162 7.18460628 9.85075907 8.355384 9.85075907 8.355384 10.4689487 6.43784744 10.4689487"></polygon>
                <polygon id="Fill-34" points="8.71662382 7.54085611 10.9310603 7.54085611 10.9310603 8.10902764 9.46320924 8.10902764 9.46320924 8.63989755 10.8334233 8.63989755 10.8334233 9.19569172 9.46320924 9.19569172 9.46320924 9.89238429 11.0625149 9.89238429 11.0625149 10.4690335 8.71662382 10.4690335"></polygon>
                <polygon id="Fill-35" points="13.254892 7.54085611 14.0524637 7.54085611 13.0129671 10.4690335 12.2495596 10.4690335 11.2228963 7.54085611 12.020468 7.54085611 12.6397611 9.6227953"></polygon>
                <polygon id="Fill-36" points="15.1160141 10.4690335 14.3692552 10.4690335 14.3692552 7.54085611 15.1160141 7.54085611"></polygon>
                <path d="M16.0497401,9.58968163 C16.1262196,9.67259296 16.1898658,9.73905767 16.3383157,9.81773018 C16.5375786,9.92149652 16.7413505,9.95879814 16.9151202,9.95879814 C17.2121935,9.95879814 17.4667783,9.82179945 17.4667783,9.61867516 C17.4667783,9.38672689 17.1655428,9.34908617 16.9447755,9.31992308 C16.7795035,9.29940719 16.6140581,9.27855219 16.4527748,9.24531983 C16.270334,9.20818776 15.6468788,9.07966672 15.6468788,8.4492693 C15.6468788,7.69425056 16.3339802,7.47010172 16.8516474,7.47010172 C17.5429109,7.47010172 17.9162903,7.79801689 18.1750372,8.02606544 L17.6235526,8.41179813 C17.5302511,8.32040915 17.4454473,8.24173664 17.3266526,8.17561104 C17.2205178,8.11728487 17.0297527,8.04675089 16.8388141,8.04675089 C16.5417407,8.04675089 16.3934642,8.21257356 16.3934642,8.35381106 C16.3934642,8.5776208 16.6478755,8.61085315 16.7751679,8.62746933 C17.0933989,8.66477095 17.5217533,8.74344346 17.6915343,8.80160008 C18.035085,8.92588231 18.2090281,9.18733277 18.2090281,9.51914765 C18.2090281,9.73058003 18.1283865,9.96320651 17.9714388,10.1414065 C17.700032,10.4482972 17.267342,10.5354473 16.8473118,10.5354473 C16.0030893,10.5354473 15.6680364,10.1536143 15.48126,9.94201241 L16.0497401,9.58968163 Z" id="Fill-37"></path>
                <polygon id="Fill-38" points="19.4345901 10.4690335 18.6880047 10.4690335 18.6880047 7.54085611 19.4345901 7.54085611"></polygon>
                <path d="M21.9405158,8.27476553 C21.8132234,8.14217522 21.6181227,8.05926389 21.4145242,8.05926389 C20.9606766,8.05926389 20.672101,8.44923539 20.672101,8.9801053 C20.672101,9.67679787 21.0709736,9.93400951 21.423022,9.93400951 C21.7794059,9.93400951 22.1611097,9.68493641 22.1824407,9.07132472 C22.1951005,8.76426455 22.1101233,8.45313511 21.9405158,8.27476553 M21.423022,10.5520296 C20.4728381,10.5520296 19.9340133,9.83855127 19.9340133,8.99265221 C19.9340133,8.20033184 20.447345,7.44955192 21.4103621,7.44955192 C21.5884674,7.44955192 21.7752438,7.47447618 21.9575112,7.53687162 C22.8738776,7.84766196 22.9331882,8.82242117 22.9331882,9.02147619 C22.9331882,9.52742183 22.6955989,9.98368849 22.3647081,10.2447998 C22.0719703,10.4814956 21.7327552,10.5520296 21.423022,10.5520296" id="Fill-39"></path>
                <path d="M23.4226916,7.54085611 L24.1566171,7.54085611 L24.8057389,8.6192121 C25.0433282,9.0296995 25.1154721,9.16262892 25.2554244,9.41967101 L25.2214335,7.54085611 L25.9383636,7.54085611 L25.9383636,10.4690335 L25.2044381,10.4690335 L24.6444556,9.54395323 C24.3728754,9.10837201 24.3220626,9.01715259 24.1184641,8.62735064 L24.1396217,10.4690335 L23.4226916,10.4690335 L23.4226916,7.54085611 Z" id="Fill-40"></path>
            </g>
        </g>
    </g>
</svg>