<?xml version="1.0" encoding="UTF-8"?>
<svg width="42px" height="32px" viewBox="0 0 42 32" version="1.1" xmlns="http://www.w3.org/2000/svg" xmlns:xlink="http://www.w3.org/1999/xlink">
    <!-- Generator: Sketch 46.2 (44496) - http://www.bohemiancoding.com/sketch -->
    <title>BRAVOHD_Color</title>
    <desc>Created with Sketch.</desc>
    <defs></defs>
    <g id="Domestic" stroke="none" stroke-width="1" fill="none" fill-rule="evenodd">
        <g id="BRAVOHD" fill="#000000">
            <g id="Logo-/-Bravo-White" transform="translate(5.000000, 4.000000)">
                <path d="M15.3490386,7.95259106 C14.4142516,7.95259106 13.8481844,8.67435049 13.8481844,9.54673384 C13.8481844,10.4192756 14.4142516,11.141035 15.3490386,11.141035 C16.2423287,11.141035 16.8498927,10.4555457 16.8498927,9.54673384 C16.8498927,8.63808038 16.2423287,7.95259106 15.3490386,7.95259106 L15.3490386,7.95259106 Z M26.3566222,12.1640423 C24.8194979,12.1640423 23.6821368,11.037293 23.6821368,9.54673384 C23.6821368,8.05633309 24.8194979,6.92958379 26.3566222,6.92958379 C27.8937464,6.92958379 29.0361758,8.05633309 29.0361758,9.54673384 C29.0361758,11.037293 27.8937464,12.1640423 26.3566222,12.1640423 L26.3566222,12.1640423 Z M21.6896563,12.0343251 L20.4018297,12.0343251 L18.4025387,7.05930092 L19.5866233,7.05930092 L21.0561172,10.9074175 L22.525928,7.05930092 L23.6786524,7.05930092 L21.6896563,12.0343251 Z M17.8675149,12.0343251 L16.7822624,12.0343251 L16.7822624,11.4370562 C16.4344494,11.8784745 15.9306275,12.1640423 15.219163,12.1640423 C13.827436,12.1640423 12.7317301,11.0683364 12.7317301,9.54673384 C12.7317301,8.02528967 13.827436,6.92958379 15.219163,6.92958379 C15.9306275,6.92958379 16.4344494,7.22037824 16.7822624,7.66179661 L16.7822624,7.05930092 L17.8675149,7.05930092 L17.8675149,12.0343251 Z M12.4570909,8.1447118 C12.2285417,8.02528967 11.896092,7.96288607 11.6312727,7.96288607 C10.9407151,7.96288607 10.4473465,8.44595964 10.4473465,9.29759459 L10.4473465,12.0343251 L9.36193561,12.0343251 L9.36193561,7.05930092 L10.4368931,7.05930092 L10.4368931,7.62014141 C10.7691844,7.14245293 11.2730063,6.92958379 11.8805703,6.92958379 C12.21302,6.92958379 12.4673859,6.9710806 12.7166836,7.06975432 L12.4570909,8.1447118 Z M6.12977747,12.1640423 C5.41831305,12.1640423 4.91971777,11.8784745 4.57174642,11.4422829 L4.57174642,12.0343251 L3.48649393,12.0343251 L3.48649393,5.58283803 L4.57174642,4.55634629 L4.57174642,7.65134322 C4.91971777,7.21515154 5.41831305,6.92958379 6.12977747,6.92958379 C7.52134612,6.92958379 8.61721039,8.02528967 8.61721039,9.54673384 C8.61721039,11.0683364 7.52134612,12.1640423 6.12977747,12.1640423 L6.12977747,12.1640423 Z M0.727272727,0.392727273 L0.727272727,23.6497895 L7.0970333,17.6257829 L31.2727273,17.6257829 L31.2727273,0.392727273 L0.727272727,0.392727273 Z M5.99990195,7.95259106 C5.10661181,7.95259106 4.49904781,8.63808038 4.49904781,9.54673384 C4.49904781,10.4555457 5.10661181,11.141035 5.99990195,11.141035 C6.93468891,11.141035 7.50059771,10.4192756 7.50059771,9.54673384 C7.50059771,8.67435049 6.93468891,7.95259106 5.99990195,7.95259106 L5.99990195,7.95259106 Z M26.3566222,7.95259106 C25.4685587,7.95259106 24.7985911,8.60687858 24.7985911,9.54673384 C24.7985911,10.4867475 25.4685587,11.141035 26.3566222,11.141035 C27.2445272,11.141035 27.9195632,10.4867475 27.9195632,9.54673384 C27.9195632,8.60687858 27.2445272,7.95259106 26.3566222,7.95259106 L26.3566222,7.95259106 Z" id="Fill-1"></path>
            </g>
        </g>
    </g>
</svg>