<?xml version="1.0" encoding="UTF-8"?>
<svg width="42px" height="32px" viewBox="0 0 42 32" version="1.1" xmlns="http://www.w3.org/2000/svg" xmlns:xlink="http://www.w3.org/1999/xlink">
    <!-- Generator: Sketch 46.2 (44496) - http://www.bohemiancoding.com/sketch -->
    <title>CNNHD_Color</title>
    <desc>Created with Sketch.</desc>
    <defs></defs>
    <g id="Domestic-A-Z" stroke="none" stroke-width="1" fill="none" fill-rule="evenodd">
        <g id="CNNHD">
            <polygon id="Fill-1" fill="#CC0000" points="8 28 33 28 33 3 8 3"></polygon>
            <path d="M29.1589837,11.038837 L30.2682041,11.038837 L30.2682041,18.3354212 C30.2680574,20.0004044 28.0969971,20.79965 26.9479401,18.8655553 C26.8648931,18.7257607 25.0550859,15.6358403 25.0550859,15.6358403 L25.0550859,18.3354212 C25.0549392,20.0004044 22.883837,20.79965 21.7348428,18.8655553 C21.6517959,18.7257607 19.841821,15.6358403 19.841821,15.6358403 L19.841821,18.1804757 C19.8433089,19.3355889 19.1495956,19.9620348 18.071075,19.9614061 L15.2337112,19.9614061 C12.7473533,19.9614061 10.7318043,17.9638579 10.7318043,15.5001111 C10.7318043,13.0360708 12.7473533,11.038837 15.2337112,11.038837 L16.6919258,11.038837 L16.6919258,12.1404505 L15.2324539,12.1404505 C13.3631538,12.1404505 11.8422821,13.6475964 11.8422821,15.5001111 C11.8422821,17.3525629 13.3631538,18.8596459 15.2324539,18.8596459 L18.0425754,18.8596459 C18.4074749,18.8596459 18.7276551,18.5428604 18.7276551,18.181733 L18.7277179,12.6960038 C18.7277179,12.5471144 18.8248261,12.46807 18.9079149,12.4455427 C19.0372108,12.4106936 19.1716827,12.4863642 19.2675126,12.6477012 C19.283334,12.6745243 20.2693776,14.3590801 21.1394321,15.8454799 C21.9803374,17.281754 22.706448,18.5223868 22.7159619,18.5384388 C22.934759,18.9068797 23.2604505,18.9712972 23.4922402,18.9087867 C23.7635101,18.835505 23.9458026,18.5924413 23.9458655,18.3039459 L23.9458655,12.6960666 C23.9458655,12.5730993 24.015899,12.474692 24.1243022,12.4453961 C24.2520264,12.410987 24.3850105,12.4866366 24.4805469,12.6477012 C24.495614,12.6730574 25.362588,14.1540926 26.2010205,15.5864899 C27.2386987,17.3594573 27.919692,18.5227431 27.929101,18.5384388 C28.1011463,18.8278982 28.3389501,18.9297632 28.5453835,18.9297632 C28.6017749,18.9297632 28.6556936,18.9221563 28.7054841,18.9087867 C28.9767121,18.8353583 29.1589837,18.5924413 29.1589837,18.3039459 L29.1589837,11.038837 Z M12.2128814,15.5001111 C12.2128814,13.850132 13.5675335,12.5077598 15.2324539,12.5077598 L16.6919258,12.5077598 L16.6919258,13.6095201 L15.2443776,13.6095201 C14.1907104,13.6095201 13.3365821,14.4558738 13.3365821,15.5000482 C13.3365821,16.5442225 14.1907104,17.3907858 15.2443776,17.3907858 L16.9485687,17.3907858 C17.1263139,17.3904296 17.248422,17.250132 17.2477724,17.0893399 L17.2477724,12.6645285 C17.2479191,10.9996081 19.4190214,10.2003625 20.5680784,12.1343944 C20.6510624,12.2742728 22.4608697,15.3641932 22.4608697,15.3641932 L22.4608697,12.6645285 C22.4610163,10.9996081 24.6321396,10.2003625 25.780987,12.1343944 C25.8641597,12.2742728 27.6740717,15.3641932 27.6740717,15.3641932 L27.6740717,11.038837 L28.7883843,11.038837 L28.7883843,18.3039459 C28.7883843,18.4528353 28.69136,18.5318797 28.6079568,18.5544279 C28.4788286,18.5893399 28.3443567,18.5135855 28.248464,18.3523114 C28.2333969,18.3268294 27.3633005,16.8401572 26.5214522,15.4022066 C25.6419049,13.8995453 24.8112049,12.480308 24.7999937,12.4615947 C24.5813642,12.0934891 24.2574329,12.0288621 24.0270054,12.0910163 C23.7566995,12.1639417 23.57535,12.4071731 23.5752033,12.6960038 L23.5752033,18.3038831 C23.5752033,18.4528353 23.4780951,18.5318797 23.3949853,18.5544279 C23.2657104,18.5893399 23.1312385,18.5137322 23.0354086,18.3524581 C23.0223324,18.33035 22.2634681,17.0338076 21.4599476,15.6611756 C20.5449434,14.0978479 19.5986735,12.481293 19.5868965,12.4615947 C19.3679317,12.09307 19.042324,12.0287364 18.8104715,12.0912469 C18.5392645,12.1645075 18.3570557,12.4075922 18.3570557,12.6960038 L18.3569719,18.181733 C18.3569719,18.3254254 18.219671,18.4922527 18.0425754,18.4922527 L15.2324539,18.4922527 C13.5675335,18.4922527 12.2128814,17.1501111 12.2128814,15.5001111 L12.2128814,15.5001111 Z" id="Fill-3" fill="#FFFFFF"></path>
        </g>
    </g>
</svg>