<?xml version="1.0" encoding="UTF-8"?>
<svg width="42px" height="32px" viewBox="0 0 42 32" version="1.1" xmlns="http://www.w3.org/2000/svg" xmlns:xlink="http://www.w3.org/1999/xlink">
    <!-- Generator: Sketch 46.2 (44496) - http://www.bohemiancoding.com/sketch -->
    <title>COMEDY_Color</title>
    <desc>Created with Sketch.</desc>
    <defs></defs>
    <g id="Domestic" stroke="none" stroke-width="1" fill="none" fill-rule="evenodd">
        <g id="COMEDY" fill-rule="nonzero" fill="#000000">
            <g id="Logo-/-Comedy-Central-White" transform="translate(6.000000, 3.000000)">
                <path d="M3.02178702,21.9360749 C3.02178702,21.881007 2.97715842,21.8329456 2.91540343,21.8329456 L0.84061078,21.8329456 C0.780480921,21.8329456 0.738227507,21.881007 0.738227507,21.9360749 L0.738227507,22.5268255 C0.738227507,22.5806642 0.780480921,22.6305695 0.84061078,22.6305695 L2.15484197,22.6305695 L2.15484197,25.5283941 C2.15484197,25.5822328 2.20434597,25.6301714 2.25922541,25.6301714 L2.91540343,25.6301714 C2.97715842,25.6301714 3.02178702,25.5822328 3.02178702,25.5283941 L3.02178702,21.9360749 Z M6.32755413,23.134539 L5.91202056,24.0309901 L5.90714516,24.0309901 L5.48723623,23.134539 L6.32755413,23.134539 Z M7.75579454,21.9739341 C7.78742209,21.9030096 7.74429361,21.8329456 7.66078686,21.8329456 L7.05398783,21.8329456 C6.94360391,21.8329456 6.88334904,21.8958803 6.85547179,21.9623797 L6.6563307,22.3959164 L5.15708456,22.3959164 L4.95769345,21.9676652 C4.9075644,21.8637983 4.86381086,21.8329456 4.76467785,21.8329456 L4.15200335,21.8329456 C4.06937167,21.8329456 4.02574314,21.9030096 4.05724569,21.9739341 L5.78588537,25.626115 C5.80213668,25.6572136 5.84101482,25.6863455 5.87801781,25.6863455 L5.93339728,25.6863455 C5.97077531,25.6863455 6.0115286,25.6572136 6.02852997,25.626115 L7.75579454,21.9739341 L7.75579454,21.9739341 Z M10.6480282,24.00825 L10.6480282,24.8528291 L9.83271236,24.8528291 C9.60519397,24.8528291 9.41267842,24.6720147 9.41267842,24.4425242 C9.41267842,24.2148775 9.60519397,24.00825 9.83271236,24.00825 L10.6480282,24.00825 Z M11.5916045,21.9360749 C11.5916045,21.881007 11.548976,21.8329456 11.4877211,21.8329456 L10.8299179,21.8329456 C10.7762886,21.8329456 10.7249094,21.881007 10.7249094,21.9360749 L10.7249094,23.3203931 L10.3447537,23.3203931 L9.61156949,21.881007 C9.5993185,21.8598649 9.56706589,21.8329456 9.5238124,21.8329456 L8.78812795,21.8329456 C8.69424537,21.8329456 8.65711737,21.9182516 8.69424537,21.9905282 L9.45068149,23.3673483 C8.97039268,23.5581192 8.6364907,23.9608031 8.6364907,24.4571516 C8.6364907,25.104568 9.17540924,25.6301714 9.83758775,25.6301714 L11.4877211,25.6301714 C11.548976,25.6301714 11.5916045,25.5822328 11.5916045,25.5296233 L11.5916045,21.9360749 Z M14.5537188,21.9354603 C14.5537188,21.881007 14.5037148,21.832331 14.4489604,21.832331 L13.7867819,21.832331 C13.7312774,21.832331 13.6812733,21.881007 13.6812733,21.9354603 L13.6812733,24.83476 L12.8920846,24.83476 C12.8314547,24.83476 12.7889512,24.8820839 12.7889512,24.9360456 L12.7889512,25.5296233 C12.7889512,25.5822328 12.8314547,25.6301714 12.8920846,25.6301714 L15.3426576,25.6301714 C15.4025374,25.6301714 15.447416,25.5822328 15.447416,25.5296233 L15.447416,24.9360456 C15.447416,24.8820839 15.4025374,24.83476 15.3426576,24.83476 L14.5537188,24.83476 L14.5537188,21.9354603 Z M20.0330366,21.9360749 C20.0330366,21.881007 19.9820324,21.8329456 19.9284031,21.8329456 L19.271725,21.8329456 C19.2107201,21.8329456 19.1677166,21.881007 19.1677166,21.9360749 L19.1677166,23.9608031 L19.1612161,23.9608031 L16.9806649,21.804797 C16.969039,21.7950864 16.9266606,21.7776318 16.9089091,21.7776318 L16.8214021,21.7776318 C16.7665226,21.7776318 16.7163936,21.8206536 16.7163936,21.8767049 L16.7163936,25.5296233 C16.7163936,25.5822328 16.7665226,25.6301714 16.8214021,25.6301714 L17.4842056,25.6301714 C17.5449605,25.6301714 17.588339,25.5822328 17.588339,25.5296233 L17.588339,23.6035994 L17.5935894,23.6035994 L19.7957674,25.6863455 L19.9340286,25.6863455 C19.988783,25.6863455 20.0377869,25.6424633 20.0377869,25.5888704 L20.0330366,21.9360749 Z M23.9844808,21.9360749 C23.9844808,21.881007 23.9406023,21.8329456 23.8793473,21.8329456 L21.5966629,21.8329456 C21.535408,21.8329456 21.4911544,21.881007 21.4911544,21.9360749 L21.4911544,22.5268255 C21.4911544,22.5806642 21.535408,22.6306924 21.5966629,22.6306924 L23.1240363,22.6306924 L23.1240363,23.3624315 L21.8660597,23.3624315 C21.8106802,23.3624315 21.7611762,23.4052075 21.7611762,23.465438 L21.7611762,24.0584011 C21.7611762,24.1117481 21.8106802,24.1593179 21.8660597,24.1593179 L23.1240363,24.1593179 L23.1240363,24.8341454 L21.5966629,24.8341454 C21.535408,24.8341454 21.4911544,24.8820839 21.4911544,24.9355539 L21.4911544,25.5296233 C21.4911544,25.5822328 21.535408,25.6301714 21.5966629,25.6301714 L23.8793473,25.6301714 C23.9406023,25.6301714 23.9844808,25.5822328 23.9844808,25.5296233 L23.9844808,21.9360749 Z M26.7067008,25.6863455 C27.8094149,25.6863455 28.6991118,24.8131262 28.6991118,23.7266417 C28.6991118,22.6401572 27.8094149,21.7776318 26.7067008,21.7776318 C26.2156611,21.7776318 25.7423729,21.9468918 25.3658425,22.3042185 C25.3284644,22.3414631 25.3215889,22.4121417 25.3609671,22.4515988 L25.7898767,22.9035734 C25.8248795,22.9395888 25.8960103,22.9395888 25.9332633,22.9086131 C26.1327794,22.7400907 26.4150522,22.646549 26.6763233,22.646549 C27.2982486,22.646549 27.761661,23.1460934 27.761661,23.7486443 C27.761661,24.3566036 27.303624,24.8670878 26.6781985,24.8670878 C26.4086767,24.8670878 26.1380299,24.7685064 25.9332633,24.5906421 C25.8960103,24.5520454 25.8342553,24.5520454 25.7962522,24.5906421 L25.3658425,25.0286039 C25.3215889,25.0727319 25.3215889,25.1373875 25.3705928,25.1807781 C25.7472483,25.5172084 26.1537811,25.6863455 26.7067008,25.6863455 L26.7067008,25.6863455 Z M26.4603059,20.319562 C26.4603059,20.3780717 26.5060596,20.427854 26.5699397,20.427854 L27.2548701,20.427854 C27.3137499,20.427854 27.365129,20.3780717 27.365129,20.319562 L27.365129,18.512647 L28.6559833,16.6270636 C28.7028621,16.5519598 28.6559833,16.4619828 28.5641009,16.4619828 L27.8144153,16.4619828 C27.7621611,16.4619828 27.7406593,16.4900084 27.7220328,16.5118881 L26.9224682,17.6742138 L26.1194033,16.5118881 C26.1034021,16.4890251 26.0738997,16.4619828 26.028021,16.4619828 L25.2795855,16.4619828 C25.186828,16.4619828 25.1405743,16.5519598 25.186828,16.6270636 L26.4603059,18.5178096 L26.4603059,20.319562 Z M21.7104221,19.5901584 L21.7104221,17.2936554 L22.2633418,17.2936554 C22.9138943,17.2936554 23.3870576,17.7994687 23.3870576,18.4397558 C23.3870576,19.0849597 22.9138943,19.5901584 22.2633418,19.5901584 L21.7104221,19.5901584 Z M20.8119745,20.3200537 C20.8119745,20.3780717 20.8582282,20.427854 20.9152328,20.427854 L22.3217215,20.427854 C23.4325612,20.427854 24.3435099,19.5385322 24.3435099,18.4397558 C24.3435099,17.352165 23.4325612,16.4619828 22.3217215,16.4619828 L20.9152328,16.4619828 C20.8582282,16.4619828 20.8119745,16.5118881 20.8119745,16.5686768 L20.8119745,20.3200537 Z M16.684266,20.3200537 C16.684266,20.3780717 16.7295196,20.427854 16.7940248,20.427854 L19.1787175,20.427854 C19.2407225,20.427854 19.2889764,20.3780717 19.2889764,20.3200537 L19.2889764,19.7031213 C19.2889764,19.6469471 19.2407225,19.5958127 19.1787175,19.5958127 L17.5839637,19.5958127 L17.5839637,18.8301478 L18.8978198,18.8301478 C18.9541994,18.8301478 19.0054535,18.7865114 19.0054535,18.7236996 L19.0054535,18.1041859 C19.0054535,18.0493638 18.9541994,17.9979835 18.8978198,17.9979835 L17.5839637,17.9979835 L17.5839637,17.2936554 L19.1787175,17.2936554 C19.2407225,17.2936554 19.2889764,17.2441189 19.2889764,17.1873301 L19.2889764,16.5681852 C19.2889764,16.5118881 19.2407225,16.4619828 19.1787175,16.4619828 L16.7940248,16.4619828 C16.7295196,16.4619828 16.684266,16.5118881 16.684266,16.5681852 L16.684266,20.3200537 Z M10.620026,20.3037054 C10.6092751,20.3780717 10.6602792,20.4284686 10.7281597,20.4284686 L11.4084647,20.4284686 C11.4670944,20.4284686 11.5130981,20.3820051 11.5180985,20.3383687 L11.7723691,18.5861528 L11.7828699,18.5861528 L12.7598239,20.423306 C12.7760752,20.4566172 12.8209538,20.4868553 12.8570817,20.4868553 L12.9585899,20.4868553 C12.9883423,20.4868553 13.0414716,20.4566172 13.0574729,20.423306 L14.0264262,18.5861528 L14.0371771,18.5861528 L14.2979482,20.3383687 C14.3025735,20.3820051 14.3535776,20.4284686 14.4058319,20.4284686 L15.0865119,20.4284686 C15.1546424,20.4284686 15.2077717,20.3780717 15.1955207,20.3037054 L14.5445931,16.4957856 C14.5393427,16.4430532 14.4874635,16.4045795 14.4407097,16.4045795 L14.3487023,16.4045795 C14.3189499,16.4045795 14.2681957,16.426582 14.2513194,16.4619828 L12.9130863,18.9117663 L12.9025854,18.9117663 L11.5647273,16.4619828 C11.5478509,16.426582 11.4964718,16.4045795 11.4670944,16.4045795 L11.374712,16.4045795 C11.3288332,16.4045795 11.2754539,16.4430532 11.2717036,16.4957856 L10.620026,20.3037054 Z M7.35113684,19.5773748 C6.72183599,19.5773748 6.20404415,19.0679968 6.20404415,18.4511873 C6.20404415,17.8281089 6.72183599,17.3124621 7.35113684,17.3124621 C7.98481304,17.3124621 8.50122977,17.8281089 8.50122977,18.4511873 C8.50122977,19.0679968 7.98481304,19.5773748 7.35113684,19.5773748 L7.35113684,19.5773748 Z M7.35113684,16.4045795 C6.20016884,16.4045795 5.28221967,17.3170101 5.28221967,18.4511873 C5.28221967,19.5848728 6.20016884,20.4868553 7.35113684,20.4868553 C8.50122977,20.4868553 9.42505442,19.5848728 9.42505442,18.4511873 C9.42505442,17.3170101 8.50122977,16.4045795 7.35113684,16.4045795 L7.35113684,16.4045795 Z M2.75089013,16.4045795 C3.32756173,16.4045795 3.75397118,16.5812146 4.14587785,16.931289 C4.19625692,16.9779984 4.19625692,17.044252 4.15075324,17.0904697 L3.70146694,17.5494507 C3.66183874,17.5887849 3.59683349,17.5887849 3.55795535,17.5494507 C3.34506314,17.3623673 3.06229029,17.2613276 2.77976747,17.2613276 C2.12808981,17.2613276 1.64980116,17.7924623 1.64980116,18.4283243 C1.64980116,19.0563195 2.13321522,19.5773748 2.78589296,19.5773748 C3.05566476,19.5773748 3.35031357,19.4828497 3.55795535,19.3063375 C3.59683349,19.2730263 3.67283963,19.2730263 3.70734242,19.3119918 L4.15612868,19.7811751 C4.19625692,19.8238281 4.19025644,19.8963506 4.15075324,19.933841 C3.75797151,20.3092368 3.2640566,20.4868553 2.75089013,20.4868553 C1.59717191,20.4868553 0.669721972,19.5837666 0.669721972,18.4511873 C0.669721972,17.3170101 1.59717191,16.4045795 2.75089013,16.4045795 L2.75089013,16.4045795 Z" id="Fill-1"></path>
                <path d="M14.468712,10.6886189 C15.7911938,10.6886189 17.0021667,9.976301 17.6275922,8.83032353 L16.3168613,8.13767276 C15.9497066,8.80819803 15.2415244,9.22526353 14.468712,9.22526353 C13.3128686,9.22526353 12.3729176,8.30078679 12.3729176,7.16476579 C12.3729176,6.02837603 13.3128686,5.10426806 14.468712,5.10426806 C15.2261482,5.10426806 15.9287049,5.50879577 16.2996099,6.16100605 L17.5983398,5.44709024 C16.9649136,4.33233429 15.7653167,3.64115856 14.468712,3.64115856 C12.4918022,3.64115856 10.8834223,5.22165607 10.8834223,7.16476579 C10.8834223,9.1084901 12.4918022,10.6886189 14.468712,10.6886189 M14.4797128,14.2899112 C18.4751607,14.2899112 21.7262984,11.0938841 21.7262984,7.16501163 C21.7262984,3.23589333 18.4751607,0.0396204314 14.4797128,0.0396204314 C11.8501254,0.0396204314 9.42167914,1.44471198 8.1427008,3.70679751 L9.44405595,4.41764034 C10.4606381,2.62031302 12.389794,1.50285285 14.4797128,1.50285285 C17.6543444,1.50285285 20.2378031,4.04285912 20.2378031,7.16501163 C20.2378031,10.2866725 17.6543444,12.8256954 14.4797128,12.8256954 C12.3644169,12.8256954 10.42226,11.6885681 9.41267842,9.85657751 L8.10407268,10.5541451 C9.37405029,12.8586378 11.8168727,14.2899112 14.4797128,14.2899112" id="Fill-3"></path>
            </g>
        </g>
    </g>
</svg>