<?xml version="1.0" encoding="UTF-8"?>
<svg width="42px" height="32px" viewBox="0 0 42 32" version="1.1" xmlns="http://www.w3.org/2000/svg" xmlns:xlink="http://www.w3.org/1999/xlink">
    <!-- Generator: Sketch 46.2 (44496) - http://www.bohemiancoding.com/sketch -->
    <title>DISNHD_Color</title>
    <desc>Created with Sketch.</desc>
    <defs></defs>
    <g id="Domestic-A-Z" stroke="none" stroke-width="1" fill="none" fill-rule="evenodd">
        <g id="DISNHD" fill-rule="nonzero">
            <g id="Logo-/-Disney-Color" transform="translate(1.000000, 8.000000)">
                <path d="M35.2291282,12.3949841 C34.9245398,13.5243917 34.6214029,14.6471079 34.3190953,15.770027 C34.3047886,15.8227462 34.3008491,15.8778986 34.2873717,15.9306178 C34.1051163,16.6459768 33.4915854,16.9061259 32.8258038,16.5480408 C32.4733189,16.3584544 32.2216033,16.0695126 32.0138446,15.7400176 C31.9655334,15.6635747 31.9205398,15.5851043 31.8653863,15.4930484 L31.5060591,15.4930484 C25.3017042,15.4930484 19.0971419,15.4926429 12.892787,15.4938595 C12.2566555,15.4940623 11.7621401,15.2420239 11.4104846,14.7249702 C11.2251191,14.4520469 11.1438402,14.1474921 11.1421815,13.8216469 C11.1411447,13.5951571 11.1419741,13.3686673 11.1419741,13.1287949 C10.5087455,13.074048 9.89231178,13.0209233 9.24166623,12.964757 C9.22839622,12.976923 9.18360993,13.0095684 9.14981287,13.0507299 C8.59786308,13.7202638 7.15080921,13.6955263 6.80288596,12.5338789 C6.7041902,12.2043839 6.53354611,12.0261524 6.23455604,11.8722529 C5.39025121,11.437725 4.62971336,10.8813347 3.98093394,10.1949712 C3.7310844,9.93056412 3.50425005,9.63290337 3.32697092,9.31800751 C2.94794606,8.64543212 3.07463325,8.0140183 3.65415978,7.49676179 C4.13768601,7.06527536 4.7217741,6.80634298 5.33323159,6.60722659 C5.78130201,6.46123498 6.23870288,6.34322505 6.70999583,6.20757449 C6.81594864,5.19293257 6.96171146,4.1780879 7.32311208,3.16952898 C6.03218825,2.81184946 4.72840911,2.72040192 3.39415038,2.78001517 C3.35952393,2.85443036 3.32697092,2.92762894 3.29172244,2.9992054 C3.17602448,3.23319756 2.99231768,3.40068242 2.7356258,3.46029567 C2.37982347,3.54261874 2.01780082,3.55924556 1.66013239,3.45684864 C1.07065336,3.28794442 0.802350211,2.81732415 0.948113052,2.19827904 C1.0486749,1.77206455 1.29624365,1.44054186 1.65743692,1.18667862 C2.10758078,0.870160631 2.62200127,0.730657507 3.1615104,0.651781467 C6.00191605,0.237327419 8.69303398,0.730657507 11.2688687,1.92353088 C12.7665145,2.61719394 14.1374731,3.49537422 15.3396537,4.61707666 C15.377805,4.65256074 15.4248721,4.67912311 15.4970278,4.7306257 C15.5461683,4.04953416 15.8857978,3.5416049 16.369324,3.10261615 C16.1594919,2.64071482 16.1186451,2.18124668 16.3622744,1.73090302 C16.562154,1.36166582 16.87317,1.11165514 17.2793569,0.978437764 C18.2542885,0.658675517 19.0772369,1.09665044 19.5192943,2.18327434 C20.3395472,1.7388109 21.1224782,1.76537326 21.80464,2.43369056 C22.3101448,2.92904831 22.4285382,3.53714405 22.1934101,4.1961341 C21.9719666,4.81659857 21.453814,5.11669252 20.5910555,5.18664685 C20.1110542,5.60393959 19.668582,5.98838425 19.2391725,6.36167679 C19.6001585,6.29030309 19.9843669,6.19926108 20.373759,6.13985057 C21.9226188,5.90383076 23.466295,5.92309354 24.9987746,6.26739053 C25.4646766,6.37201787 25.8928419,6.56525401 26.3019317,6.88846328 C26.288869,6.70577095 26.269586,6.56667338 26.2708301,6.4279813 C26.2741476,6.02062406 26.3506575,5.63557113 26.7672116,5.4338188 C27.1831438,5.2322692 27.5781341,5.33973527 27.905945,5.62016091 C28.1477081,5.8267796 28.3432335,6.08591477 28.5541024,6.32619268 C28.6194157,6.40040511 28.6673122,6.48901392 28.7259906,6.57518956 C29.7693456,6.2379894 30.8425582,6.14086441 31.9105873,6.01271619 C32.5946152,5.93059589 33.1969495,6.11653248 33.7358366,6.53869162 C33.9668178,6.40101342 34.1886759,6.25400794 34.4233894,6.13092886 C35.879981,5.36629767 37.7299044,5.85050327 38.5410341,7.22769107 C38.9942881,7.99718871 39.0394891,8.83096318 38.7145811,9.6489219 C38.1441777,11.0847091 37.0440103,11.9488986 35.5295697,12.3262464 C35.4491202,12.3463202 35.367634,12.3633526 35.2291282,12.3949841" id="bkg" stroke="#288FBA" fill="#288FBA"></path>
                <path d="M29.4176902,14.5278815 C29.4127139,14.4451529 29.4048349,14.3658713 29.4035908,14.2863869 C29.3961264,13.7958956 29.3938456,13.3054042 29.3822344,12.8151156 C29.3774654,12.6157965 29.2603161,12.493934 29.1075035,12.5040723 C28.9638142,12.5138051 28.876315,12.6275569 28.8773517,12.822618 C28.8804618,13.34028 28.8875115,13.857942 28.8951833,14.3756041 C28.8964273,14.4662405 28.9011962,14.5576881 28.9159176,14.6471079 C28.9609113,14.9206395 29.1678406,15.0854884 29.4500358,15.039866 C30.0299771,14.9461881 30.6105403,14.9044182 31.1977385,14.9437549 C31.3629917,14.954907 31.4865688,14.8500769 31.4985947,14.7217259 C31.5112427,14.5883058 31.4098515,14.4735401 31.2375486,14.459752 C31.0161052,14.4421114 30.7925883,14.4305537 30.5711449,14.4413003 C30.1929495,14.4593465 29.8155834,14.4968582 29.4176902,14.5278815 Z M19.7647896,13.9755464 C19.9306648,14.2849676 20.0735249,14.5591074 20.2238493,14.8293947 C20.3302168,15.0206033 20.4610508,15.0745391 20.5987273,14.9974879 C20.7249998,14.9269253 20.7521618,14.7928968 20.6642479,14.6177069 C20.5541483,14.3981111 20.3760398,14.1918979 20.3360224,13.9619611 C20.2622079,13.5387881 19.9176022,13.2920217 19.740323,12.9412362 C19.6590442,12.7808481 19.5441756,12.6320178 19.42205,12.4971783 C19.2497471,12.3067808 19.0502822,12.3268547 18.9225583,12.5448283 C18.84045,12.6851425 18.7786615,12.8392448 18.7257888,12.9931443 C18.6202507,13.3013489 18.5271532,13.6138116 18.4315676,13.9153249 C18.0199898,14.0734825 17.9208793,14.2442116 18.2814506,14.5230151 C18.2600941,14.6248037 18.2285778,14.7298366 18.21904,14.8368971 C18.2128197,14.9044182 18.2169666,14.9934326 18.256984,15.0392577 C18.3044657,15.0935991 18.4066863,15.1521985 18.4645353,15.1365855 C18.5483023,15.1138757 18.6509376,15.0392577 18.6793437,14.9632204 C18.7610372,14.7444357 18.8093484,14.5136878 18.8719663,14.2827372 C19.170749,14.1799347 19.4570911,14.0813904 19.7647896,13.9755464 Z M19.2657126,13.1083358 C19.3432592,13.2381061 19.4208059,13.3676737 19.5174282,13.5294811 C19.3660671,13.5860529 19.2267319,13.6381638 19.0316212,13.7109568 C19.0967272,13.4854808 19.1491853,13.3040051 19.2016433,13.1223266 L19.2657126,13.1083358 Z M15.8714911,13.7506787 C15.6900651,13.8303658 15.4520342,13.8344211 15.4686217,14.0830125 C15.4839651,14.314977 15.7002249,14.2926727 15.8733572,14.3228848 C15.8733572,14.478001 15.8712838,14.6136516 15.8737719,14.7490993 C15.8764673,14.8900218 15.9602343,14.9745753 16.09563,14.9822804 C16.2306109,14.9899856 16.3259892,14.9125289 16.3508704,14.7787032 C16.3657992,14.6992188 16.3624817,14.6160848 16.3637258,14.5345727 C16.3653845,14.4015581 16.3641405,14.2683408 16.3641405,14.1266072 C16.6274674,14.0523948 16.8559605,13.9881179 17.1004191,13.9191774 C17.107054,14.0223854 17.1126523,14.1030863 17.1176286,14.18399 C17.1313133,14.4104799 17.1425099,14.6371724 17.1593048,14.8632567 C17.169672,15.0007322 17.2582078,15.0777833 17.3904933,15.0966406 C17.5088868,15.1136729 17.6399282,15.0003266 17.6517468,14.8628512 C17.661492,14.7462606 17.6409649,14.6276424 17.6397208,14.5100381 C17.6374401,14.2752348 17.6390988,14.0404316 17.6390988,13.7837296 C17.7581143,13.7360796 17.9065726,13.685388 17.9032551,13.5018846 C17.8993155,13.2966853 17.7075223,13.2928327 17.5557465,13.2194314 C17.5557465,13.0247758 17.565077,12.8341757 17.553051,12.644792 C17.5422692,12.472238 17.4392192,12.3757213 17.2990546,12.3763296 C17.1555726,12.3769379 17.0655853,12.4750768 17.0548034,12.6498612 C17.0510712,12.7131243 17.0589503,12.7769956 17.0591576,12.8404614 C17.059987,13.0286284 17.0595723,13.2167954 17.0595723,13.4185477 C16.8364701,13.4812025 16.6258086,13.540613 16.3624817,13.6148254 C16.3624817,13.3506211 16.3689094,13.1267672 16.3606156,12.9033189 C16.3533586,12.7092717 16.2561142,12.603225 16.1093147,12.603225 C15.9637592,12.603225 15.8752233,12.7115021 15.8723205,12.9081853 C15.8683809,13.1802975 15.8714911,13.4524097 15.8714911,13.7506787 Z M14.3419143,13.0596516 C14.3804803,13.0951357 14.41407,13.1255506 14.4474524,13.1565739 C14.5581741,13.2601874 14.6742868,13.277017 14.7914361,13.1697537 C14.9075487,13.0635042 14.8922053,12.9450887 14.8144513,12.8246456 C14.685276,12.6245154 14.4835303,12.547667 14.2618795,12.5770681 C13.3636652,12.6962946 12.678808,13.1790809 12.1407503,13.8593614 C11.9149526,14.1450589 12.0204907,14.4759733 12.329226,14.6882695 C12.5411315,14.8338556 12.7797845,14.9058376 13.0379278,14.8961048 C13.5115015,14.8780586 13.9852826,14.8594041 14.4578196,14.8263533 C14.697924,14.8093209 14.9380284,14.7707953 15.1739858,14.7227397 C15.3504356,14.6868501 15.4271528,14.5680292 15.3981247,14.4319731 C15.3653644,14.2772625 15.2399212,14.2358982 15.0242835,14.2539443 C14.3400482,14.3109217 13.6549836,14.3571523 12.9697116,14.3985166 C12.7988601,14.4088577 12.6404493,14.3575579 12.5411315,14.2066998 C12.7101169,13.7486511 13.6379814,13.1537351 14.3419143,13.0596516 Z M25.3651514,14.2569859 C25.2538077,14.1629023 25.174395,14.1053168 25.1063861,14.0369846 C24.8347654,13.7638585 24.5683284,13.4854606 24.2962931,13.2127401 C24.1994634,13.1156151 24.1005603,13.0158541 23.9867284,12.9404251 C23.810486,12.8236318 23.6286453,12.898047 23.5842737,13.1002049 C23.5612585,13.2052377 23.5550382,13.3165564 23.5606365,13.4242252 C23.5826149,13.8500342 23.6120578,14.2754376 23.6394272,14.700841 C23.6433667,14.764104 23.641708,14.8293947 23.6578808,14.8898191 C23.6920926,15.0187783 23.7795918,15.0968433 23.9203783,15.084069 C24.0592989,15.0714975 24.1422364,14.9853219 24.1424438,14.8494686 C24.1428585,14.6866474 24.1246122,14.5236234 24.1154891,14.3605994 C24.1044998,14.1667549 24.0945473,13.9729104 24.0833507,13.7642641 C24.2699604,13.9315461 24.4294079,14.0785516 24.5932097,14.2210962 C24.8490722,14.4439362 25.09125,14.6864446 25.369713,14.8782614 C25.6301371,15.0573039 25.9003063,14.9117178 25.8804013,14.6075686 C25.8387252,13.9652054 25.7682282,13.324667 25.7016708,12.6839259 C25.6869493,12.5413813 25.5845214,12.4562195 25.4356484,12.4545974 C25.3008748,12.4529753 25.2050818,12.5792986 25.206948,12.7441474 C25.2077773,12.8163322 25.2233281,12.8883142 25.2307925,12.960499 C25.2739201,13.3745475 25.3166329,13.7887988 25.3651514,14.2569859 Z M26.8165595,14.0436758 C26.9490523,14.0361735 27.05853,14.0341458 27.1671782,14.0229937 C27.4253216,13.9968369 27.6840869,13.9731132 27.9405714,13.9349932 C28.0844682,13.9135 28.1842006,13.8228635 28.1564165,13.6695722 C28.1296692,13.5225668 28.0206062,13.4607231 27.8675863,13.4812025 C27.8124328,13.4885021 27.7574867,13.499857 27.7021258,13.5037095 C27.3981595,13.5252027 27.0941931,13.5448711 26.7643089,13.5667698 C26.7458552,13.430511 26.7296824,13.3108789 26.7091553,13.1606292 C26.8696396,13.1606292 26.9981929,13.1652928 27.1261241,13.1598181 C27.4504102,13.1458272 27.7751109,13.1334585 28.0987749,13.10791 C28.2461965,13.0961495 28.3419894,13.0016605 28.3258166,12.8505997 C28.3098511,12.7031887 28.2051424,12.6299901 28.0535739,12.634451 C27.5710844,12.6488473 27.0881802,12.6581746 26.6063127,12.684737 C26.3131283,12.7009583 26.1847823,12.841678 26.2113223,13.1302143 C26.2544499,13.5998207 26.3108475,14.0690216 26.3827959,14.5353838 C26.4284115,14.8322335 26.5271073,14.9082708 26.8335617,14.9044182 C27.2045002,14.8999574 27.5752313,14.8762337 27.9455477,14.8525101 C28.0550253,14.845616 28.1676131,14.8229062 28.2698337,14.784989 C28.4392338,14.7217259 28.5033031,14.5883058 28.4581021,14.4413003 C28.4081322,14.2786819 28.2787495,14.2758431 28.1437686,14.2957142 C27.9787227,14.3198434 27.8157503,14.3595855 27.6502898,14.3794566 C27.3971228,14.4102771 27.1425043,14.4299454 26.8702616,14.4558995 C26.8497346,14.2987557 26.8350131,14.1848011 26.8165595,14.0436758 Z M22.5939987,14.1858149 C22.5769965,14.192709 22.5602016,14.199603 22.5431994,14.2062943 C22.4268794,14.0588833 22.3105594,13.9114723 22.1944468,13.7640613 C21.9568305,13.4619397 21.7235685,13.1565739 21.4793173,12.8597242 C21.4050881,12.769696 21.3070144,12.6914283 21.1653984,12.73847 C21.0198429,12.7867284 20.9700804,12.8956138 20.9613719,13.0318726 C20.9522488,13.1766477 20.9387714,13.3218283 20.9398082,13.4666033 C20.9437477,13.9654081 20.9460285,14.4642129 20.9634454,14.9626121 C20.9709098,15.1761249 21.1674719,15.2996095 21.3177963,15.1895075 C21.3924401,15.1347606 21.448423,15.0116815 21.4521552,14.9171925 C21.4641812,14.6093935 21.4469716,14.3005806 21.4440688,13.9921732 C21.4430321,13.891804 21.4513258,13.7914347 21.4554727,13.6910655 C21.7557069,14.0023115 21.9997508,14.3202489 22.2508444,14.6329143 C22.3362701,14.7391638 22.4285382,14.8458188 22.5373938,14.9275336 C22.7061718,15.0542624 22.911235,15.0013405 23.0028811,14.813579 C23.0458013,14.7255785 23.0744148,14.6235871 23.0798057,14.5264621 C23.1150542,13.8834906 23.1449117,13.2401135 23.1702077,12.5967365 C23.1776721,12.4099888 23.0746221,12.2838683 22.9284446,12.29279 C22.7629841,12.3029283 22.6864741,12.4045141 22.6783877,12.5640911 C22.6663618,12.7995026 22.6474935,13.0347114 22.6352601,13.2701229 C22.619502,13.575286 22.6074761,13.8806519 22.5939987,14.1858149 Z M18.5089069,9.47190703 C18.47822,9.03717639 18.4500212,8.44732957 18.3894768,7.86072704 C18.3589972,7.56529676 18.2833166,7.2718941 18.2014158,6.98477722 C18.1560074,6.82560577 18.0471518,6.68529158 17.8439547,6.69502434 C17.6629433,6.70374331 17.5945198,6.84486855 17.552429,6.98437169 C17.4869083,7.20112872 17.4247051,7.42133279 17.3925668,7.64437554 C17.2631841,8.53756053 17.26194,9.43743681 17.2839185,10.3362992 C17.2903462,10.6053699 17.3403161,10.8795098 17.4149599,11.1390505 C17.5039105,11.4482689 17.7274273,11.5543156 18.0933896,11.518426 C18.3376408,11.4942968 18.4178829,11.4026465 18.4790494,11.0678795 C18.4952222,10.9788652 18.5068335,10.888026 18.5076629,10.797795 C18.510773,10.4074702 18.5089069,10.0169425 18.5089069,9.47190703 Z M17.4008605,3.23846948 C17.3023721,3.29869103 17.222752,3.34471895 17.1458274,3.3948022 C16.8157357,3.60953157 16.5405902,3.87616908 16.3568834,4.22310199 C16.1269389,4.65661607 16.1808484,5.0830333 16.5453591,5.41617811 C16.7097829,5.56663064 16.918371,5.69133182 17.1296545,5.76777466 C17.818244,6.01737981 18.4616325,5.86753564 19.0679064,5.49910951 C19.5151474,5.22720006 19.8943796,4.88797226 20.1479614,4.43661477 C20.8659937,4.6689848 21.4123452,4.47270715 21.6043457,3.92665786 C21.7942728,3.38709708 21.4701941,2.79745306 20.8676524,2.58677901 C20.6111679,2.49715637 20.3557201,2.50222552 20.1083586,2.61394968 C19.7832433,2.76075239 19.6063788,3.02252351 19.545627,3.37087579 C19.396132,3.27537292 19.2713109,3.179059 19.1319757,3.11153786 C18.9940919,3.04482779 18.8414867,3.00731605 18.6951019,2.95703004 C18.9849688,2.32156087 18.8827482,1.89291319 18.3809757,1.62546461 C17.8955833,1.36653221 17.2542683,1.5068464 16.9639867,1.93529132 C16.6703876,2.36880538 16.8088934,2.80110285 17.4008605,3.23846948 Z M17.8807375,3.77415742 C17.5377905,4.0560024 17.2018932,4.33196715 16.8670326,4.60712084 C16.8017193,4.22328448 17.3084681,3.80071979 17.8807375,3.77415742 Z M17.4692426,5.13490091 C17.9096413,4.64096252 18.3852884,4.2005544 18.9925991,3.92479241 C19.271062,3.79826632 19.490432,3.8337504 19.6028125,3.99251631 C19.7207912,4.1591901 19.6793224,4.41285058 19.4560129,4.60122035 C18.887683,5.07995128 18.2378668,5.30806322 17.4692426,5.13490091 Z M30.0442838,7.86032152 C29.9885083,8.23097807 29.9677738,8.59190185 29.5228136,8.71335882 C29.4649646,8.72917457 29.413336,8.78189379 29.3689644,8.82690787 C29.278355,8.91855815 29.2296291,9.03068784 29.3061391,9.14768393 C29.3990292,9.2900258 29.3573531,9.42263485 29.3123594,9.56315182 C29.2209207,9.84864656 29.1083329,10.1308971 29.051728,10.4232859 C28.8924878,11.2455027 29.5665632,11.9454515 30.4110754,11.8554233 C31.1886154,11.7726947 31.878449,11.4774672 32.5002736,11.0234738 C32.6093366,10.9437867 32.7009826,10.8415925 32.7895185,10.7600805 C32.6688443,10.3665114 32.4073835,10.1903076 32.0312615,10.2405936 C31.7094636,10.2837828 31.3903611,10.3454237 31.0691852,10.3930737 C30.8355086,10.4279495 30.6005878,10.4530925 30.3606908,10.4833047 C30.2968288,10.1866578 30.3747902,9.95550436 30.449434,9.72191771 C30.5106005,9.53111476 30.6331408,9.44250595 30.8398628,9.44351979 C31.2114232,9.44514189 31.5831911,9.43784233 31.9549589,9.42973167 C32.0559354,9.42750126 32.1608515,9.42243211 32.2562297,9.3936393 C32.4355823,9.33950072 32.5340707,9.1689744 32.5096041,8.98891801 C32.4830641,8.79365418 32.3657074,8.68497154 32.1589854,8.67158899 C32.0385185,8.66368107 31.9166002,8.67158899 31.7969628,8.65881471 C31.524098,8.62981916 31.2425248,8.65658429 30.972563,8.56027035 C30.9661353,8.5006571 30.9563901,8.45645407 30.9572195,8.41225103 C30.9646839,8.02598148 31.0405718,7.9294648 31.4287198,7.89256137 C31.8906822,7.84876386 32.3553402,7.83315086 32.8177173,7.79259765 C32.9618214,7.78002611 33.1150486,7.7502195 33.2415285,7.68594263 C33.4534341,7.57827378 33.4797667,7.41889959 33.3257102,7.23843767 C33.0097179,6.86798391 32.6116174,6.66846199 32.1046612,6.7122595 C31.6418694,6.75200165 31.1778335,6.77815848 30.7162857,6.8266196 C30.3476281,6.86534792 29.9795925,6.91867545 29.6150817,6.9859938 C29.4674527,7.01336724 29.2785624,7.05047345 29.2607308,7.24066813 C29.2443506,7.4152498 29.3899061,7.51217201 29.5279972,7.59348126 C29.615289,7.64478111 29.7081791,7.68675368 29.7985811,7.73338992 C29.8788233,7.77455144 29.9586507,7.81611849 30.0442838,7.86032152 Z M25.5028279,8.83420744 C25.5353809,8.82852998 25.5681412,8.82285252 25.6006942,8.81717507 C25.6647635,8.89017091 25.7369192,8.95809756 25.7914507,9.03758192 C25.9776456,9.3090858 26.146631,9.59275569 26.3425711,9.85716275 C26.6363776,10.2535706 26.9260372,10.656467 27.2573729,11.0220544 C27.5797929,11.3775035 27.9362172,11.3773007 28.2658942,11.0261097 C28.4554066,10.8243574 28.6019988,10.5684665 28.7120985,10.3139949 C28.9296024,9.81093208 28.8883409,9.28374003 28.7838395,8.75857565 C28.631027,7.99130847 28.3575402,7.270272 27.8945411,6.631153 C27.7481562,6.42899513 27.5501426,6.2505609 27.3432133,6.10578587 C27.1605433,5.97784044 27.0122923,6.06239389 27.006072,6.28401733 C27.0010957,6.46224878 27.0324047,6.64696879 27.0798864,6.82033384 C27.2358091,7.39030956 27.4215894,7.95298568 27.5656935,8.52559734 C27.6469723,8.8488066 27.6743417,9.1856012 27.7141518,9.51773221 C27.7265924,9.62154846 27.711249,9.73590861 27.5412268,9.79673844 C27.3724488,9.56396288 27.2057443,9.32632091 27.0309532,9.09476197 C26.6067274,8.53208585 26.2042727,7.950958 25.7443837,7.41727744 C25.3234753,6.92881374 25.0408654,6.98660211 24.8181779,7.58820933 C24.6581083,8.02091233 24.5467646,8.47470302 24.4559479,8.92727712 C24.334237,9.53293965 24.2423836,10.1471184 24.3110145,10.7673801 C24.3315415,10.9514918 24.3810967,11.1499998 24.4783411,11.3053187 C24.6744885,11.6177814 25.0686495,11.577431 25.2210474,11.2442861 C25.2695658,11.1378339 25.31062,11.0210406 25.3207798,10.9060721 C25.364322,10.4088895 25.3921062,9.91028749 25.4319162,9.4126993 C25.4472597,9.21926041 25.478776,9.02703806 25.5028279,8.83420744 Z M19.9677794,8.18130036 C20.0216888,7.98258954 20.1662076,7.94487502 20.2984931,7.92094861 C20.581103,7.87005433 20.8664084,7.82929829 21.1525431,7.80314147 C21.8183248,7.74231163 22.4868018,7.70682753 23.15051,7.63119578 C23.4125929,7.60138913 23.6792372,7.52129651 23.9185123,7.41139724 C24.1631782,7.29906476 24.1557138,7.05006793 23.912914,6.928611 C23.7433066,6.84385472 23.5490252,6.78667466 23.3597201,6.76254547 C22.5726422,6.66197348 21.7826616,6.67718092 20.9968277,6.77430591 C20.4888349,6.83696068 19.9912093,6.95152357 19.5367112,7.19828999 C19.2360624,7.36151675 18.9911891,7.574624 18.8761132,7.90472734 C18.6957239,8.42259211 18.8889685,8.80926719 19.4222573,8.96113908 C19.6076228,9.01385825 19.8035629,9.04143444 19.9968076,9.05603361 C20.5703211,9.09922281 21.1496403,9.09820897 21.7177629,9.17627396 C22.1448916,9.23507616 22.567666,9.36423822 22.9746823,9.50941877 C23.2842469,9.61992635 23.2886011,9.84661893 23.0122116,10.0323527 C22.8990017,10.1085928 22.7704485,10.1706392 22.6404437,10.2144368 C21.9049946,10.4618115 21.1448714,10.5767799 20.3687827,10.5737384 C20.1871494,10.5729273 20.0038573,10.5187887 19.8247121,10.4753968 C19.6974028,10.4443736 19.6177827,10.3541426 19.6067935,10.2213308 C19.5951822,10.0810166 19.6609103,9.97537542 19.7790964,9.90096025 C19.9474597,9.79450802 20.1317885,9.79024993 20.3157027,9.84357742 C20.4844807,9.89244407 20.6470384,9.96179009 20.8145724,10.0151176 C21.052396,10.0907494 21.2881461,10.1815886 21.5323974,10.2268055 C21.8535732,10.286216 22.1631378,10.2126119 22.4324777,10.0282974 C22.6313206,9.89224128 22.6265517,9.74929115 22.4256354,9.62195398 C22.3335746,9.56355735 22.2282439,9.51975985 22.1231204,9.48731725 C21.5612181,9.31415495 20.982521,9.23487338 20.3951154,9.22716829 C20.1031751,9.22311294 19.8263708,9.29732536 19.5703009,9.44128933 C19.2084856,9.64466381 18.9418412,10.1884827 19.3082181,10.6657942 C19.5570309,10.9898146 19.8858785,11.2023135 20.2653181,11.3442498 C20.9416742,11.5970993 21.6416677,11.6271087 22.3514062,11.5336334 C22.7244181,11.484564 23.079391,11.375273 23.3866749,11.1589215 C23.8625294,10.8235463 24.1409924,10.3821244 24.0686293,9.78660015 C23.9952296,9.18093758 23.6137166,8.81981105 23.0366781,8.66976406 C22.6354675,8.5653395 22.2193281,8.50917328 21.8065061,8.45584576 C21.2914636,8.38933846 20.7722742,8.35243504 20.2564023,8.29180794 C20.1562551,8.28025025 20.0623283,8.21901488 19.9677794,8.18130036 Z M34.7354421,11.7307222 C34.8175503,11.7218004 34.8807902,11.71004 34.9442375,11.7088234 C36.4008292,11.6808417 37.7950104,10.4297744 38.1236506,9.26326066 C38.3133704,8.59088806 38.2397633,7.94244182 37.7867166,7.37753528 C37.4603571,6.97078636 37.0850645,6.91015927 36.6336765,7.17781062 C36.4203195,7.30433669 36.2171224,7.45195045 36.0261586,7.60949979 C35.3914785,8.13304202 34.8494813,8.74438201 34.3226202,9.36890184 C34.2591729,9.44392532 34.1928228,9.51651559 34.1161055,9.60329951 C34.0037251,9.43297593 33.9993708,9.27319621 34.0601227,9.11747176 C34.1525981,8.88043814 34.2481837,8.64299892 34.3659551,8.41732018 C34.5602364,8.04544705 34.7723493,7.68249559 34.9784493,7.31650266 C35.0713394,7.15145101 35.1184065,6.97909976 35.0655338,6.79275765 C35.0020865,6.56930932 34.8812049,6.53159484 34.7128416,6.69583544 C34.0447792,7.34752589 33.529944,8.09553028 33.2541765,8.98547101 C33.0868498,9.52564009 33.1036447,10.0625649 33.3416756,10.5824574 C33.3951704,10.6994534 33.3895721,10.8018503 33.3522502,10.9208741 C33.1695801,11.5020019 32.9815191,12.0819132 32.8212422,12.669124 C32.6271682,13.3798194 32.4409732,14.0957867 32.4602562,14.8401413 C32.4733189,15.3369185 32.7380972,15.6941924 33.1658479,15.94177 C33.277399,16.0064524 33.4007687,16.0547107 33.5027819,15.9946919 C33.9182994,14.556877 34.3263523,13.1454217 34.7354421,11.7307222 Z M35.3652703,10.4145264 C35.3781256,10.3705261 35.380199,10.3322033 35.3986526,10.3046271 C35.8247446,9.66652199 36.2495925,9.02780855 36.6829415,8.39477258 C36.7590367,8.28345399 36.8635381,8.18632899 36.9703203,8.10076166 C37.2031676,7.91421676 37.4210862,7.9896458 37.4785205,8.27939864 C37.5477733,8.62957582 37.5019503,8.96860087 37.3118159,9.27842754 C36.9371452,9.88875373 36.3769017,10.2470415 35.6781524,10.4110794 C35.6155345,10.4256786 35.5489771,10.4270979 35.4840784,10.4293283 C35.4488299,10.4307477 35.4133741,10.4210149 35.3652703,10.4145264 Z M7.35379902,11.6589429 C7.36997182,11.779386 7.3778509,11.879147 7.3979633,11.9764747 C7.42719878,12.1182083 7.45000664,12.2639972 7.50267201,12.3980256 C7.61401575,12.6810872 7.84789979,12.8220097 8.15580565,12.8145073 C8.45749119,12.8072077 8.63891719,12.6699351 8.74818748,12.3670024 C8.77244677,12.3002923 8.79898678,12.2343933 8.82677088,12.1620058 C8.90265878,12.1753883 8.96610605,12.1843101 9.02872394,12.1980982 C10.3260754,12.4805514 11.6255004,12.5131968 12.9255473,12.2201997 C13.9562544,11.9878297 14.9038166,11.5839195 15.682808,10.8659245 C16.738189,9.89305238 17.2092747,8.47024218 16.3357344,6.95132079 C15.8739792,6.14816402 15.2606556,5.47051948 14.5627357,4.86303202 C13.2436131,3.71496998 11.7447232,2.85098333 10.1129258,2.2015233 C7.81182192,1.28583128 5.43939172,0.978437764 2.98360923,1.41681822 C2.73998002,1.46041295 2.49324064,1.5338143 2.27241927,1.6416859 C1.96617216,1.79132733 1.73684968,2.03119971 1.64147143,2.36839985 C1.60103935,2.51053894 1.61700484,2.63949822 1.74535078,2.73662321 C1.93901009,2.88342592 2.45218653,2.87044889 2.68150901,2.69404232 C2.56954324,2.5790739 2.45944357,2.46593038 2.3111926,2.31365298 C2.47955594,2.25525633 2.58675279,2.19746797 2.69975528,2.18286881 C3.03109101,2.13947685 3.36387815,2.09689595 3.69728733,2.08351338 C5.45763801,2.01254523 7.15889565,2.31973597 8.81350088,2.88768401 C10.6290051,3.51098721 12.3057961,4.37700152 13.7196749,5.67470502 C14.369491,6.27104031 14.9282832,6.94199355 15.1858044,7.79665296 C15.4673776,8.73099946 15.2923793,9.57450674 14.5208522,10.2247778 C14.2168859,10.4810743 13.8509237,10.6907345 13.4791559,10.8417953 C12.2419341,11.3452637 10.9408504,11.4352918 9.61903237,11.3199179 C9.35280264,11.2965998 9.08864636,11.2491525 8.83319854,11.2142767 C8.74569939,10.7546058 8.69987633,8.17501464 8.77493487,7.95237737 C9.34699701,7.92196245 9.92403539,7.93230352 10.4884258,8.05153003 C10.9582673,8.1506827 11.4260354,8.27477557 11.8784601,8.43252766 C12.2230658,8.55256522 12.2284568,8.68679643 11.9794366,8.94958138 C11.8774234,9.05725023 11.7909609,9.17911269 11.6767144,9.32003519 C11.9698988,9.49421133 12.2498132,9.49684728 12.4975893,9.44068106 C13.0671633,9.311519 13.4014018,8.55722884 13.1192066,8.05335492 C13.0111804,7.8605243 12.8484154,7.67499324 12.6651233,7.54968375 C12.4175545,7.38017122 12.1361887,7.24533175 11.8517127,7.14232652 C11.0764534,6.8614954 10.2626282,6.78201104 9.44237524,6.74977124 C9.19605058,6.74024121 8.95014058,6.72503373 8.70174244,6.71205671 C8.67603178,6.41236833 8.67292162,6.13802568 8.62481783,5.87159095 C8.55577225,5.48876843 8.46682168,5.10817633 8.36003952,4.73386996 C8.31359444,4.57125151 8.21427665,4.39971133 7.99739481,4.40924134 C7.78963612,4.41856858 7.73406792,4.6006526 7.68886692,4.75191617 C7.61360105,5.00395452 7.54973912,5.26187307 7.51386858,5.52161655 C7.45436085,5.95229188 7.42056379,6.38641425 7.37474073,6.83128322 C7.31170819,6.84507134 7.25033436,6.8606843 7.18813113,6.87183647 C6.3438263,7.02228895 5.51445026,7.22606896 4.75847399,7.63545383 C4.49431772,7.778404 4.24985913,7.96940974 4.02924509,8.17237865 C3.80614294,8.37798355 3.76031991,8.64685149 3.9199748,8.92058583 C4.0255129,9.10165601 4.11943974,9.29793367 4.26271445,9.44696679 C4.60566145,9.80363248 4.9554508,10.1580678 5.33717115,10.4733691 C5.93598063,10.9681186 6.62187465,11.3355309 7.35379902,11.6589429 Z M7.34208408,10.81795 C6.26928614,10.4266113 5.28523144,9.96734588 4.4732723,9.21893596 C4.05029051,8.82901662 4.10399261,8.55507954 4.65718644,8.37461762 C5.05010334,8.24626666 5.46624279,8.17367639 5.87782064,8.11487418 C6.3538825,8.04694753 6.83595735,8.02119619 7.34208408,7.97476274 L7.34208408,10.81795 Z" id="Text" fill="#FFFFFF"></path>
            </g>
        </g>
    </g>
</svg>