<?xml version="1.0" encoding="UTF-8"?>
<svg width="42px" height="32px" viewBox="0 0 42 32" version="1.1" xmlns="http://www.w3.org/2000/svg" xmlns:xlink="http://www.w3.org/1999/xlink">
    <!-- Generator: Sketch 46.2 (44496) - http://www.bohemiancoding.com/sketch -->
    <title>ELREY_Color</title>
    <desc>Created with Sketch.</desc>
    <defs></defs>
    <g id="Domestic" stroke="none" stroke-width="1" fill="none" fill-rule="evenodd">
        <g id="ELREY">
            <g id="Logo-/-El-Rey-Color" transform="translate(5.000000, 4.000000)">
                <polyline id="Fill-1" fill="#000000" points="0.733947029 19.9851817 1.28609609 19.9851817 1.28609609 18.0237787 0.733947029 18.0237787 0.733947029 17.2695153 5.89867194 17.2695153 5.89867194 18.3857579 4.73422376 18.3857579 4.73422376 18.0237787 2.61095389 18.0237787 2.61095389 18.6171797 5.26618721 18.6171797 5.26618721 19.356623 2.61095389 19.356623 2.61095389 19.9851817 4.73422376 19.9851817 4.73422376 19.6231035 5.89867194 19.6231035 5.89867194 20.7391621 0.733947029 20.7391621 0.733947029 19.9851817"></polyline>
                <polyline id="Fill-3" fill="#000000" points="6.55131753 19.9851817 7.10361868 19.9851817 7.10361868 18.0237787 6.55131753 18.0237787 6.55131753 17.2695153 9.14131458 17.2695153 9.14131458 18.0237787 8.42846941 18.0237787 8.42846941 19.9851817 9.89922102 19.9851817 9.89922102 19.0246057 11.0636692 19.0246057 11.0636692 20.7391621 6.55131753 20.7391621 6.55131753 19.9851817"></polyline>
                <path d="M17.4677452,18.7328393 L17.6784437,18.5218578 L17.6784437,18.2450528 L17.4572403,18.0237787 L15.324219,18.0237787 L15.324219,18.7328393 L17.4677452,18.7328393 Z M13.447106,19.9851817 L13.9993718,19.9851817 L13.9993718,18.0237787 L13.447106,18.0237787 L13.447106,17.2695153 L18.4162247,17.2695153 L19.0032591,17.8578231 L19.0032591,18.6070285 L18.5415049,19.0696669 L19.0032591,19.5323054 L19.0032591,19.9851817 L19.3950162,19.9851817 L19.3950162,20.7391621 L17.9796185,20.7391621 L17.6784437,20.4427304 L17.6784437,19.7236566 L17.4677452,19.5125336 L15.324219,19.5125336 L15.324219,19.9851817 L16.0873637,19.9851817 L16.0873637,20.7391621 L13.447106,20.7391621 L13.447106,19.9851817 L13.447106,19.9851817 Z" id="Fill-4" fill="#000000"></path>
                <polyline id="Fill-5" fill="#000000" points="19.9467161 19.9851817 20.4989783 19.9851817 20.4989783 18.0237787 19.9467161 18.0237787 19.9467161 17.2695153 25.1114657 17.2695153 25.1114657 18.3857579 23.9468761 18.3857579 23.9468761 18.0237787 21.8241155 18.0237787 21.8241155 18.6171797 24.4790871 18.6171797 24.4790871 19.356623 21.8241155 19.356623 21.8241155 19.9851817 23.9468761 19.9851817 23.9468761 19.6231035 25.1114657 19.6231035 25.1114657 20.7391621 19.9467161 20.7391621 19.9467161 19.9851817"></polyline>
                <polyline id="Fill-6" fill="#000000" points="26.9835244 19.9851817 27.7967493 19.9851817 27.7967493 19.6078555 26.1201095 18.0237787 25.6634486 18.0237787 25.6634486 17.2695153 28.1076862 17.2695153 28.1076862 18.0237787 27.6160056 18.0237787 28.5493857 18.8835186 29.493161 18.0237787 28.9359045 18.0237787 28.9359045 17.2695153 31.2700392 17.2695153 31.2700392 18.0237787 30.8130599 18.0237787 29.121883 19.6078555 29.121883 19.9851817 29.9348604 19.9851817 29.9348604 20.7391621 26.9835244 20.7391621 26.9835244 19.9851817"></polyline>
                <polyline id="Fill-7" fill="#EBA62D" points="1.11296391 22.8843153 1.28792118 22.8843153 1.28792118 22.0078489 1.11296391 22.0078489 1.11296391 21.7149825 1.89816531 21.7149825 2.47092795 22.6996808 2.47092795 22.0078489 2.26682235 22.0078489 2.26682235 21.7149825 3.04369767 21.7149825 3.04369767 22.0078489 2.87290345 22.0078489 2.87290345 23.1792968 2.26056895 23.1792968 1.68989667 22.1839911 1.68989667 22.8843153 1.88150962 22.8843153 1.88150962 23.1792968 1.11296391 23.1792968 1.11296391 22.8843153"></polyline>
                <polyline id="Fill-8" fill="#EBA62D" points="5.79496737 22.8885597 5.96994231 22.8885597 5.96994231 22.0057232 5.79496737 22.0057232 5.79496737 21.7149825 7.4466007 21.7149825 7.4466007 22.1648878 7.04048339 22.1648878 7.04048339 22.0057232 6.43855826 22.0057232 6.43855826 22.2837342 7.24251632 22.2837342 7.24251632 22.5893267 6.43855826 22.5893267 6.43855826 22.8885597 7.04257021 22.8885597 7.04257021 22.723025 7.4466007 22.723025 7.4466007 23.1792968 5.79496737 23.1792968 5.79496737 22.8885597"></polyline>
                <polyline id="Fill-9" fill="#EBA62D" points="10.5436254 22.8885597 10.8018965 22.8885597 10.8018965 22.0120898 10.5540595 22.0120898 10.5540595 22.2901008 10.1978845 22.2901008 10.1978845 21.7149825 11.8766112 21.7149825 11.8766112 22.2901008 11.5183848 22.2901008 11.5183848 22.0120898 11.2705124 22.0120898 11.2705124 22.8885597 11.5287835 22.8885597 11.5287835 23.1792968 10.5436254 23.1792968 10.5436254 22.8885597"></polyline>
                <polyline id="Fill-10" fill="#EBA62D" points="14.7507701 22.0057232 14.6278951 22.0057232 14.6278951 21.7149825 15.394361 21.7149825 15.394361 22.0057232 15.1923281 22.0057232 15.3526953 22.8185237 15.6546836 21.7149825 16.2191166 21.7149825 16.5190534 22.8185237 16.6815074 22.0057232 16.4773877 22.0057232 16.4773877 21.7149825 17.1855287 21.7149825 17.1855287 22.0057232 17.0605668 22.0057232 16.7939837 23.1792968 16.1983191 23.1792968 15.9171283 22.069389 15.6380243 23.1792968 15.01944 23.1792968 14.7507701 22.0057232"></polyline>
                <path d="M21.0489804,22.8630934 L21.1447975,22.7654689 L21.1447975,22.1288105 L21.0489804,22.0311895 L20.503297,22.0311895 L20.4075153,22.1288105 L20.4075153,22.7654689 L20.503297,22.8630934 L21.0489804,22.8630934 Z M19.9409508,22.9119003 L19.9409508,21.9823826 L20.2013087,21.7149825 L21.3510076,21.7149825 L21.613417,21.9823826 L21.613417,22.9119003 L21.3510076,23.1792968 L20.2013087,23.1792968 L19.9409508,22.9119003 L19.9409508,22.9119003 Z" id="Fill-11" fill="#EBA62D"></path>
                <path d="M25.6331366,22.3367891 L25.7039471,22.2625123 L25.7039471,22.0821257 L25.6289629,22.0057232 L25.0312079,22.0057232 L25.0312079,22.3367891 L25.6331366,22.3367891 Z M24.387617,22.8885597 L24.5625955,22.8885597 L24.5625955,22.0057232 L24.387617,22.0057232 L24.387617,21.7149825 L25.9517841,21.7149825 L26.1725631,21.9420573 L26.1725631,22.2964639 L26.0059354,22.4662394 L26.1725631,22.636015 L26.1725631,22.8885597 L26.2954381,22.8885597 L26.2954381,23.1792968 L25.828909,23.1792968 L25.7039471,23.0540909 L25.7039471,22.7081731 L25.6331366,22.6338963 L25.0312079,22.6338963 L25.0312079,22.8885597 L25.2519869,22.8885597 L25.2519869,23.1792968 L24.387617,23.1792968 L24.387617,22.8885597 L24.387617,22.8885597 Z" id="Fill-12" fill="#EBA62D"></path>
                <polyline id="Fill-13" fill="#EBA62D" points="29.9985616 22.8885597 30.2213921 22.8885597 29.9902143 22.5383976 29.6861427 22.7866908 29.6861427 22.8885597 29.8652524 22.8885597 29.8652524 23.1792968 29.0446351 23.1792968 29.0446351 22.8885597 29.2195747 22.8885597 29.2195747 22.0057232 29.0446351 22.0057232 29.0446351 21.7149825 29.8652524 21.7149825 29.8652524 22.0057232 29.6861427 22.0057232 29.6861427 22.4089402 30.1505815 22.0057232 29.9714683 22.0057232 29.9714683 21.7149825 30.8753817 21.7149825 30.8753817 22.0057232 30.6650333 22.0057232 30.3213828 22.298586 30.7400211 22.8885597 30.9128738 22.8885597 30.9128738 23.1792968 29.9985616 23.1792968 29.9985616 22.8885597"></polyline>
                <polyline id="Fill-14" fill="#EBA62D" points="31.2670681 0.95093166 16.7562087 10.3654857 16.0991065 0.870030064 8.48233778 10.3654857 0.727272727 0.698464777 0.732811655 16.3028557 31.2670681 16.3028557 31.2670681 0.95093166"></polyline>
            </g>
        </g>
    </g>
</svg>