<?xml version="1.0" encoding="UTF-8"?>
<svg width="42px" height="32px" viewBox="0 0 42 32" version="1.1" xmlns="http://www.w3.org/2000/svg" xmlns:xlink="http://www.w3.org/1999/xlink">
    <!-- Generator: Sketch 46.2 (44496) - http://www.bohemiancoding.com/sketch -->
    <title>EPDVN_Color</title>
    <desc>Created with Sketch.</desc>
    <defs></defs>
    <g id="Domestic" stroke="none" stroke-width="1" fill="none" fill-rule="evenodd">
        <g id="EPDVN" fill-rule="nonzero">
            <g id="Logo" transform="translate(2.000000, 7.000000)">
                <path d="M26.7226654,6.58033295 L26.6307657,6.58033295 L26.6307657,6.67937967 L26.7226654,6.67937967 C26.7545268,6.67937967 26.7785854,6.66439234 26.7785854,6.62985631 C26.7785854,6.59684075 26.7545268,6.58033295 26.7226654,6.58033295 Z M26.7642802,6.73064069 L26.8362394,6.87160852 L26.7657975,6.87160852 L26.6981732,6.73693973 L26.6307657,6.73693973 L26.6307657,6.87160852 L26.5718113,6.87160852 L26.5718113,6.5225557 L26.7246161,6.5225557 C26.7866049,6.5225557 26.8386236,6.5555713 26.8386236,6.62811864 C26.8386236,6.68307219 26.8093631,6.71760822 26.7642802,6.73064069 Z M26.6925379,6.43502098 C26.5406001,6.43502098 26.4246419,6.55079269 26.4246419,6.70348974 C26.4246419,6.85575234 26.5406001,6.97174127 26.6925379,6.97174127 C26.8446924,6.97174127 26.9606506,6.85575234 26.9606506,6.70348974 C26.9606506,6.55079269 26.8446924,6.43502098 26.6925379,6.43502098 Z M26.6925379,7.02321949 C26.5113396,7.02321949 26.3734902,6.88464094 26.3734902,6.70348974 C26.3734902,6.52168689 26.5113396,6.38354277 26.6925379,6.38354277 C26.8737361,6.38354277 27.0118023,6.52168689 27.0118023,6.70348974 C27.0118023,6.88464094 26.8737361,7.02321949 26.6925379,7.02321949 Z" id="Fill-1" fill="#000000"></path>
                <path d="M3.46669241,14.4689479 C3.92337271,14.4689479 4.00963695,14.3451395 4.00963695,13.7515108 L4.00963695,10.5620327 C4.00963695,9.96840405 3.92337271,9.84481288 3.46669241,9.84481288 L3.07221773,9.84481288 L3.07221773,14.4689479 L3.46669241,14.4689479 Z M3.97257367,8.05154599 L4.30614319,8.05154599 C6.00845316,8.07630764 6.21826166,8.37344782 6.21826166,10.8215959 L6.21826166,13.034291 C6.21826166,13.6407349 6.18098164,14.3329759 6.14413512,14.8027961 C6.05787088,15.6062475 5.88490889,15.952911 5.46572534,16.1503528 C5.21863681,16.2615632 5.23120801,16.2615632 4.29335528,16.2741612 L3.97257367,16.2861077 L0.863593015,16.2861077 L0.863593015,8.05154599 L3.97257367,8.05154599 Z" id="Fill-3" fill="#000000"></path>
                <path d="M9.29000564,11.2787096 C9.80824135,11.2787096 9.91921442,11.1427375 9.91921442,10.5740878 C9.91921442,10.0301996 9.75882363,9.84470426 9.29000564,9.84470426 L8.98157848,9.84470426 L8.98157848,11.2787096 L9.29000564,11.2787096 Z M10.1413774,8.05165456 L10.5607776,8.05165456 C11.3503772,8.05165456 11.6219579,8.15135293 11.8562585,8.48454953 C12.0042949,8.70718746 12.1031303,9.17700774 12.1031303,9.64661083 L12.1031303,10.1787697 C12.1031303,10.9822211 12.066067,11.2044246 11.9056762,11.5141627 C11.7082221,11.8601747 11.4494294,12.0085275 10.9062681,12.0580509 C11.8686129,12.3423758 12.1031303,12.6514623 12.1031303,13.6284626 L12.1031303,14.9019515 C12.1031303,15.4084799 12.1649024,15.878083 12.2756588,16.2862162 L10.0796052,16.2862162 C9.94414003,15.8659193 9.90686001,15.5320711 9.90686001,14.9019515 L9.90686001,13.8017944 C9.90686001,13.2692011 9.72176036,13.0591612 9.26551353,13.0591612 L8.98157848,13.0591612 L8.98157848,16.2862162 L6.77295376,16.2862162 L6.77295376,8.05165456 L10.1413774,8.05165456 Z" id="Fill-6" fill="#000000"></path>
                <polygon id="Fill-9" fill="#000000" points="12.6460748 16.2861511 14.8540493 16.2861511 14.8540493 8.05224105 12.6460748 8.05224105"></polygon>
                <path d="M17.5931775,12.7874995 C17.5931775,13.689346 17.7167217,14.196526 18.0372866,14.6168229 C18.3704226,14.1845796 18.4937501,13.7149765 18.4937501,12.812044 L18.4937501,8.05150254 L20.7023749,8.05150254 L20.7023749,11.7362142 C20.7023749,13.009703 20.1594303,14.6917596 19.233932,16.2860642 L16.8527788,16.2860642 C15.9151429,14.6543999 15.3847695,13.009703 15.3847695,11.7362142 L15.3847695,8.05150254 L17.5931775,8.05150254 L17.5931775,12.7874995 Z" id="Fill-11" fill="#000000"></path>
                <path d="M23.416469,11.2787096 L25.4523485,11.2787096 L25.4523485,13.0717593 L23.416469,13.0717593 L23.416469,14.4938182 L25.4523485,14.4938182 L25.4523485,16.2862162 L23.3919769,16.2862162 L22.9597887,16.2740526 C22.1825435,16.2740526 21.9358885,16.2245293 21.7137256,16.0264358 C21.3186006,15.6806411 21.208061,15.062468 21.208061,13.3313225 L21.208061,10.6978962 C21.208061,10.3640479 21.2451243,9.78301729 21.2817541,9.37488398 C21.3927272,8.34879474 21.7505721,8.07641626 23.0092064,8.05165456 L23.3919769,8.05165456 L25.4523485,8.05165456 L25.4523485,9.84470426 L23.416469,9.84470426 L23.416469,11.2787096 Z" id="Fill-12" fill="#000000"></path>
                <polygon id="Fill-13" fill="#000000" points="25.9923237 13.0021877 28.53105 13.0021877 28.53105 11.4024528 25.9923237 11.4024528"></polygon>
                <polygon id="Fill-14" fill="#000000" points="29.0397489 16.2861511 31.2481569 16.2861511 31.2481569 8.05224105 29.0397489 8.05224105"></polygon>
                <path d="M33.8388368,8.05156771 C33.9747355,8.54658408 33.9992276,8.69515414 34.0488621,9.14021277 C34.2705916,8.27442279 34.5918066,8.05156771 35.5786436,8.05156771 C36.2696245,8.05156771 36.5407717,8.12585272 36.7750723,8.3982312 C37.0590073,8.73207946 37.1086418,8.966881 37.1209962,9.83201932 L37.1209962,10.7347346 L37.1209962,16.2861293 L34.9123715,16.2861293 L34.9123715,10.5989798 C34.9123715,10.1532695 34.7764728,9.94388131 34.4682624,9.94388131 C34.1596185,9.94388131 34.0241532,10.1532695 34.0241532,10.6237414 L34.0241532,16.2861293 L31.8157453,16.2861293 L31.8157453,9.93106604 C31.8157453,9.14021277 31.7782485,8.7561895 31.6059368,8.05156771 L33.8388368,8.05156771 Z" id="Fill-15" fill="#000000"></path>
                <path d="M18.1312236,3.15464148 L17.224582,3.15464148 L17.224582,4.47873971 L18.1481296,4.47873971 C18.4788815,4.47873971 18.7242361,4.21613559 18.7242361,3.81712501 C18.7242361,3.45221605 18.5042406,3.15464148 18.1312236,3.15464148 M18.1903948,5.61734254 L17.224582,5.61734254 L17.224582,7.00052126 L16.0639162,7.00052126 L16.0639162,2.0683857 L18.1227706,2.0683857 C19.1304149,2.0683857 19.8851187,2.83165361 19.8851187,3.84253832 C19.8851187,4.69963996 19.2071424,5.61734254 18.1903948,5.61734254" id="Fill-16" fill="#000000"></path>
                <polygon id="Fill-17" fill="#000000" points="24.8888133 7.00052126 23.9485763 5.5313283 23.007906 7.00052126 21.6101218 7.00052126 23.2877229 4.48721081 21.6781795 2.06773408 23.075747 2.06773408 23.9485763 3.49478876 24.821189 2.06773408 26.2189732 2.06773408 24.6089963 4.48721081 26.2868142 7.00052126"></polygon>
                <polygon id="Fill-18" fill="#F48024" points="20.2379785 7.00052126 21.3986444 7.00052126 21.3986444 2.06773408 20.2379785 2.06773408"></polygon>
                <path d="M21.4238734,1.17835537 C21.4238734,1.51394129 21.1518592,1.78631976 20.8167725,1.78631976 C20.4812523,1.78631976 20.2092382,1.51394129 20.2092382,1.17835537 C20.2092382,0.842117825 20.4812523,0.569956558 20.8167725,0.569956558 C21.1518592,0.569956558 21.4238734,0.842117825 21.4238734,1.17835537" id="Fill-19" fill="#F48024"></path>
                <path d="M13.532169,3.13724314 C13.0666022,3.13724314 12.6682261,3.49476704 12.6088382,3.9439526 L14.4132347,3.9439526 C14.3622998,3.55363033 14.1082754,3.13724314 13.532169,3.13724314 L13.532169,3.13724314 Z M12.6003852,5.0480194 C12.65132,5.5908215 13.0492627,5.94769375 13.6509449,5.94769375 C14.0321982,5.94769375 14.4385938,5.77783735 14.7268638,5.44637838 L15.5825704,6.17728234 C15.0571821,6.77959932 14.4045649,7.05979727 13.6680677,7.05979727 C12.2449244,7.05979727 11.3718783,6.1088619 11.3718783,4.4958774 C11.3718783,3.04406103 12.2702835,2.02579127 13.532169,2.02579127 C14.802941,2.02579127 15.6586476,2.908089 15.6586476,4.26672326 L15.6586476,5.0480194 L12.6003852,5.0480194 Z" id="Fill-20" fill="#000000"></path>
            </g>
        </g>
    </g>
</svg>