<?xml version="1.0" encoding="UTF-8"?>
<svg width="42px" height="32px" viewBox="0 0 42 32" version="1.1" xmlns="http://www.w3.org/2000/svg" xmlns:xlink="http://www.w3.org/1999/xlink">
    <!-- Generator: Sketch 46.2 (44496) - http://www.bohemiancoding.com/sketch -->
    <title>ESPNHD_Color</title>
    <desc>Created with Sketch.</desc>
    <defs></defs>
    <g id="Domestic" stroke="none" stroke-width="1" fill="none" fill-rule="evenodd">
        <g id="ESPNHD" fill="#EE4135">
            <g id="Logo-/-ESPN-Color" transform="translate(1.000000, 11.000000)">
                <path d="M27.2510147,0.0381198783 C28.9953201,0.0381198783 29.4739109,1.14380274 29.3331735,2.36294001 C29.3060313,2.5993486 29.270847,2.89429387 29.270847,2.89429387 L10.7721793,2.89429387 C10.7721793,2.89429387 10.8194268,2.50100335 10.8686849,2.05550933 C11.0025529,0.84541946 11.944823,0.035767554 13.3669403,0.0379389302 C14.1164505,0.0390246183 17.3393357,0.0391150924 20.4974651,0.0388436703 C23.5821261,0.0386627223 27.2510147,0.0381198783 27.2510147,0.0381198783 Z M29.1472578,3.98244287 C29.1472578,3.98244287 29.1059581,4.3854141 29.0493281,4.82475589 C28.9369895,5.69593012 28.3356724,6.34462877 27.2187373,6.34462877 L23.2801021,6.34462877 L22.8336799,10.2149259 L19.6979178,10.2151069 L20.4092278,3.98244287 L29.1472578,3.98244287 Z M2.0777443,0.0364461091 L10.4687898,0.0385270113 L10.1402351,2.89424863 L1.75094883,2.89424863 L2.0777443,0.0364461091 Z M1.62570934,3.98253334 L10.0150794,3.98244287 L9.74382488,6.34462877 L4.4908034,6.34462877 L4.35660028,7.51074827 L9.60911914,7.51092922 L9.29723512,10.2151069 L0.909205455,10.2151069 L1.62570934,3.98253334 Z M30.2374445,0.0381198783 L37.0792063,0.0381198783 C38.1604545,0.0381198783 39.286102,0.58024014 39.0623463,2.45495208 C39.0222194,2.79088207 39.0108264,2.89429387 39.0108264,2.89429387 L29.9103139,2.89429387 L30.2374445,0.0381198783 Z M29.7836503,3.98173717 L32.9217581,3.98309428 L32.2057568,10.2134964 L29.0683192,10.2150345 L29.7836503,3.98173717 Z M35.744321,3.98173717 L38.8813397,3.98309428 L38.1653384,10.2134964 L35.0279846,10.2150345 L35.744321,3.98173717 Z M17.5386718,3.98426139 C18.5229955,3.98426139 19.7717043,4.44911685 19.5248276,6.3982889 C19.4822713,6.733857 19.3284655,8.33244226 19.1562298,8.77847913 C18.6259515,10.1519651 17.0707201,10.1972021 16.8488074,10.2151159 C16.5787258,10.2171968 9.93290719,10.2151159 9.93290719,10.2151159 L10.2421105,7.51093826 L16.3483521,7.51075732 L16.4818013,6.34273786 C16.4818013,6.34273786 12.8186092,6.34463781 12.2374812,6.34463781 C11.1693853,6.34463781 10.4161892,5.60926507 10.6480707,3.98254239 C11.7196013,3.98254239 16.9959115,3.98426139 17.5386718,3.98426139 Z" id="Combined-Shape"></path>
            </g>
        </g>
    </g>
</svg>