<?xml version="1.0" encoding="UTF-8"?>
<svg width="42px" height="32px" viewBox="0 0 42 32" version="1.1" xmlns="http://www.w3.org/2000/svg" xmlns:xlink="http://www.w3.org/1999/xlink">
    <!-- Generator: Sketch 46.2 (44496) - http://www.bohemiancoding.com/sketch -->
    <title>FLAMA_Color</title>
    <desc>Created with Sketch.</desc>
    <defs></defs>
    <g id="Domestic" stroke="none" stroke-width="1" fill="none" fill-rule="evenodd">
        <g id="FLAMA" fill="#C7285E">
            <g id="Logo-/-Flama-Color" transform="translate(8.000000, 3.000000)">
                <path d="M0.590909091,24.1554589 L0.590909091,0.432390895 L25.4090909,0.432390895 L25.4090909,24.1554589 L0.590909091,24.1554589 Z M23.1111111,11.6349508 L23.1111111,2.62897127 L15.9873737,2.62897127 L15.9873737,11.6349508 L18.4002525,11.6349508 L18.4002525,9.43837041 L20.6982323,9.43837041 L20.6982323,11.6349508 L23.1111111,11.6349508 Z M18.4002525,7.13196102 L18.4002525,4.93538065 L20.6982323,4.93538065 L20.6982323,7.13196102 L18.4002525,7.13196102 Z M23.1111111,21.8490495 L23.1111111,12.733241 L15.9873737,12.733241 L15.9873737,21.8490495 L18.4002525,21.8490495 L18.4002525,19.5426401 L20.6982323,19.5426401 L20.6982323,21.8490495 L23.1111111,21.8490495 Z M14.8383838,11.6349508 L14.8383838,9.43837041 L12.4255051,9.43837041 L12.4255051,2.62897127 L3.00378788,2.62897127 L3.00378788,11.6349508 L5.41666667,11.6349508 L5.41666667,9.43837041 L7.71464646,9.43837041 L7.71464646,7.13196102 L5.41666667,7.13196102 L5.41666667,4.93538065 L10.1275253,4.93538065 L10.1275253,11.6349508 L14.8383838,11.6349508 Z M14.8383838,21.8490495 L14.8383838,12.733241 L10.1275253,12.733241 L10.1275253,15.0396504 L7.71464646,15.0396504 L7.71464646,12.733241 L3.00378788,12.733241 L3.00378788,21.8490495 L5.41666667,21.8490495 L5.41666667,15.0396504 L7.71464646,15.0396504 L7.71464646,21.8490495 L10.1275253,21.8490495 L10.1275253,15.0396504 L12.4255051,15.0396504 L12.4255051,21.8490495 L14.8383838,21.8490495 Z M18.4002525,17.2362307 L18.4002525,15.0396504 L20.6982323,15.0396504 L20.6982323,17.2362307 L18.4002525,17.2362307 Z" id="Combined-Shape"></path>
            </g>
        </g>
    </g>
</svg>