<?xml version="1.0" encoding="UTF-8"?>
<svg width="42px" height="32px" viewBox="0 0 42 32" version="1.1" xmlns="http://www.w3.org/2000/svg" xmlns:xlink="http://www.w3.org/1999/xlink">
    <!-- Generator: Sketch 46.2 (44496) - http://www.bohemiancoding.com/sketch -->
    <title>FOODHD_Color</title>
    <desc>Created with Sketch.</desc>
    <defs></defs>
    <g id="Domestic" stroke="none" stroke-width="1" fill="none" fill-rule="evenodd">
        <g id="FOODHD">
            <g id="Logo-/-Food-Color" transform="translate(8.000000, 3.000000)">
                <ellipse id="Oval" fill="#FFFFFF" cx="13.2935483" cy="12.790323" rx="12.6812902" ry="12.5974197"></ellipse>
                <path d="M21.7040293,12.1274845 C21.7008662,12.1476397 21.697614,12.1679247 21.6942742,12.1883232 C21.6897495,12.2156439 21.6850903,12.2431696 21.6802652,12.2708602 C21.6747573,12.3069145 21.668785,12.3433996 21.6625405,12.3803154 C21.6617868,12.3847921 21.6610244,12.3892705 21.6602586,12.3937553 C21.6541327,12.4297093 21.6477721,12.4660697 21.641353,12.5028363 C21.6130163,12.65843 21.5840017,12.8086352 21.5501062,12.9506229 C21.526786,13.0521966 21.4996696,13.1482471 21.4701126,13.2406603 C21.4588737,13.2799346 21.447274,13.3187307 21.4351858,13.3568798 C21.4216207,13.3998083 21.4074627,13.4418395 21.392546,13.4827399 C21.3756217,13.5291253 21.357942,13.5743353 21.3393499,13.6183423 C21.3006164,13.7100566 21.2578992,13.7965583 21.2097946,13.8775842 C21.1384783,13.9957276 21.0553664,14.1017469 20.9569337,14.192813 C20.9028363,14.2433305 20.8458918,14.2877858 20.7874558,14.3267179 C20.7286131,14.3661889 20.666652,14.3993283 20.6027927,14.4262709 C20.5705222,14.4390021 20.5375397,14.4506891 20.5038284,14.4608436 C20.4701729,14.4709974 20.4357383,14.479618 20.4004904,14.4862183 C20.3305299,14.5006326 20.256502,14.5077724 20.1796269,14.5096584 C20.1018026,14.5107361 20.0295373,14.5049434 19.9631019,14.4928192 C19.8970734,14.4804256 19.8364681,14.4619699 19.7806082,14.4365091 C19.7255618,14.4114525 19.6759387,14.380199 19.6311965,14.3418058 C19.5856409,14.3046249 19.5456441,14.2607084 19.5094436,14.2118076 C19.4488383,14.1218192 19.4085704,14.0168776 19.3836233,13.8987342 C19.3594896,13.7800519 19.3508123,13.6478982 19.3552866,13.5045634 C19.3592184,13.3610939 19.3744037,13.2061738 19.3984017,13.043575 C19.4217219,12.8798985 19.4538549,12.7076003 19.4886995,12.5301831 C19.5234086,12.3500716 19.5594735,12.1789859 19.5986568,12.0177342 C19.6386535,11.8566172 19.6831245,11.7030442 19.7355949,11.5633467 C19.7880652,11.4220326 19.8486705,11.2931121 19.9209359,11.1760463 C19.9937435,11.0596541 20.0771266,10.9560597 20.1770508,10.8676879 C20.2310125,10.8186523 20.2866013,10.7750052 20.3432747,10.7376897 C20.4010327,10.7007783 20.4608245,10.6697942 20.5225145,10.6441987 C20.5536346,10.6318709 20.5854328,10.6210253 20.6179939,10.6117124 C20.6505519,10.6024039 20.6838711,10.5946242 20.7180377,10.5884275 C20.7875893,10.5753607 20.8599881,10.5698374 20.9369963,10.5695677 C21.0133265,10.5698374 21.0836915,10.5758995 21.1495825,10.5884275 C21.2156111,10.6008211 21.2764875,10.6192768 21.3323475,10.6452764 C21.3597328,10.6569955 21.3862709,10.6708023 21.411589,10.6862591 C21.4369257,10.701719 21.4610271,10.7188286 21.4835353,10.7371508 C21.5285486,10.7744664 21.5690877,10.8166316 21.6043391,10.8655325 C21.6654867,10.9547126 21.7060258,11.0570946 21.7307018,11.1725438 C21.7560557,11.2873194 21.7650041,11.4165093 21.7616145,11.555668 C21.759174,11.695635 21.7446667,11.8458402 21.7221601,12.0066877 C21.7164962,12.0463307 21.7104526,12.0866412 21.7040293,12.1274845 Z M24.9272033,7.78395526 L24.9274745,7.78395526 C25.5992847,9.3229185 25.9715936,11.0205738 25.9699667,12.8052539 C25.9627808,19.7642668 20.280256,25.3979715 13.2782445,25.3911011 C8.83128107,25.3866556 4.92244378,23.1089253 2.66201591,19.665522 C2.8036994,19.6019374 2.93982401,19.5295964 3.06740694,19.4482297 C3.21573396,19.3537957 3.35823095,19.2480459 3.49028809,19.1319232 C3.6708837,18.972288 3.82585425,18.8052437 3.96347027,18.6192048 C4.09674766,18.439228 4.20982328,18.2452411 4.30988301,18.026871 C4.4041127,17.8169879 4.48546207,17.5862243 4.55826976,17.320974 C4.61657014,17.1105521 4.65629575,16.9091559 4.70239373,16.6676152 L4.89831013,15.6497225 L5.65757093,11.4567751 L6.47919958,11.46149 L6.89340346,10.0688253 L5.88846756,10.0721931 L5.98269725,9.41048206 C5.98608681,9.39337349 6.00100086,9.30944718 6.01713515,9.21797694 C6.03652342,9.10616501 6.05903008,8.97953463 6.06377546,8.95932766 C6.1032299,8.78797251 6.14471808,8.64409884 6.19190072,8.51854617 C6.24193058,8.37938747 6.30131562,8.25733734 6.37330982,8.1444477 C6.44977822,8.02630425 6.53505948,7.9286372 6.63417013,7.84524975 C6.68894538,7.79890842 6.74724576,7.75660849 6.80703755,7.71929294 C6.86954098,7.68184268 6.93095976,7.65220578 6.99481901,7.62795741 L7.00851282,7.6237813 L7.01963057,7.62027876 C7.10518299,7.58606162 7.18788819,7.56167853 7.27235595,7.54456996 C7.36794146,7.52503655 7.46691653,7.51560663 7.56833208,7.51560663 L7.57768726,7.51560663 C7.67517092,7.51560663 7.76750246,7.52476712 7.85278372,7.54268398 C7.93467542,7.56006197 8.01168616,7.58511862 8.08164662,7.61744978 L8.1101189,7.6329418 L8.129236,7.64344943 L8.5884532,6.17790487 L8.57706429,6.17426761 C8.50683266,6.15325236 8.43429614,6.13142882 8.35538725,6.11553267 C8.1575727,6.07323273 7.9417257,6.05167863 7.71326955,6.05167863 L7.68411935,6.05221748 C7.45322272,6.05221748 7.22327517,6.07404101 7.00092022,6.11849636 C6.79836028,6.15904502 6.59674942,6.21980066 6.40191768,6.29847315 C6.22240673,6.37216125 6.05157305,6.45999424 5.89538226,6.55968199 C5.74705524,6.65357706 5.60767665,6.75784506 5.48063605,6.86965699 C5.30397233,7.02457713 5.15225575,7.18933133 5.01613114,7.37227182 C4.88719238,7.54686008 4.77628607,7.73694037 4.67690426,7.953155 C4.61494315,8.09029301 4.55799859,8.24049819 4.50349451,8.41064092 C4.46512473,8.52353056 4.4301445,8.64544597 4.39435077,8.79376517 C4.34987978,8.97145184 4.30540879,9.22376961 4.26649668,9.44550748 L4.24561701,9.56257323 C4.23653299,9.61255181 4.22907597,9.66131798 4.22148336,9.71021886 L4.1515229,10.0709807 L3.4932709,10.0735403 L3.08096517,11.4596041 L3.92089743,11.4583916 C3.86313938,11.7698485 2.90118306,16.9712586 2.89535302,16.9999525 C2.85562741,17.1738672 2.81291899,17.3212435 2.76505844,17.4498945 C2.71421509,17.5914781 2.65347422,17.7164919 2.57958188,17.8319411 L2.56724389,17.8501274 L2.55924454,17.8614433 C2.40725679,18.1076989 2.1905963,18.2957585 1.9380065,18.4102647 C1.08668533,16.7150342 0.607808696,14.8033196 0.609978013,12.7796584 C0.616892709,5.8211844 6.2999598,0.186940834 13.3035984,0.193945919 C17.9681713,0.19866088 22.0411988,2.70594237 24.2393944,6.4360153 C23.7159112,6.53031451 23.3406194,6.81388573 23.0896566,7.09018244 C23.0107477,7.17222276 22.9384823,7.26086403 22.8732672,7.35745337 C22.838287,7.41066507 22.8052049,7.46589747 22.7732075,7.52274643 C22.7585646,7.54793779 22.7459555,7.57110845 22.7345666,7.59212371 L22.7260249,7.60815458 C22.7085348,7.64169815 22.6963324,7.66742837 22.6884686,7.68426752 C22.6593184,7.74502316 22.6309817,7.8068565 22.604272,7.87165353 C22.5267189,8.05809656 22.4590634,8.26286058 22.3966955,8.47853636 C22.3362258,8.69434685 22.2792813,8.92322453 22.2239637,9.16449581 C22.1678326,9.40266869 22.1169893,9.6339712 22.076179,9.8538231 C22.060587,9.94125194 22.0478423,10.026256 22.035911,10.1104517 C21.9711027,10.0127846 21.8997864,9.92670292 21.820742,9.8538231 C21.7316644,9.77312991 21.6343163,9.7055039 21.5274775,9.65256162 C21.4199607,9.59840693 21.3029532,9.55866654 21.1761838,9.52997264 C21.0500922,9.50073988 20.9126118,9.48282303 20.7659118,9.47420139 C20.6239571,9.46625331 20.482816,9.47083356 20.3438441,9.48740328 C20.205279,9.50518542 20.06929,9.53293633 19.9387243,9.57281143 C19.8084297,9.61255181 19.683694,9.66279982 19.5661441,9.72207362 C19.4495434,9.78336811 19.3397217,9.8528801 19.2419669,9.93155259 C19.0635406,10.0709807 18.9152136,10.2405846 18.7912914,10.4295872 C18.6665557,10.6181856 18.5654113,10.8271257 18.4809435,11.0468429 C18.3959334,11.2668295 18.3278711,11.4970543 18.2682149,11.7292998 C18.2095078,11.9608718 18.1597491,12.1958115 18.1122953,12.4215908 C18.0642992,12.6485825 18.0161674,12.8839264 17.9772553,13.119405 C17.939699,13.3556919 17.9110912,13.59144 17.9030918,13.8203176 C17.8967194,14.0489259 17.9097353,14.2689125 17.9544775,14.4709822 C17.9986773,14.6743991 18.0756881,14.8603033 18.1945937,15.0195343 C18.2603511,15.1068284 18.3410226,15.1873869 18.434032,15.2583807 C18.5270415,15.3297787 18.6318466,15.3930939 18.7483118,15.4454973 C18.8630144,15.4979007 18.9893771,15.5392577 19.1217054,15.5697028 C19.2544405,15.6000133 19.3939546,15.6173913 19.5387565,15.623184 C19.6964387,15.6278989 19.8425964,15.6221063 19.9826529,15.6033811 C20.1216248,15.5841171 20.2543598,15.5515166 20.3819427,15.5047711 C20.5099324,15.4581603 20.6341258,15.3960576 20.756421,15.3179239 C20.8247545,15.2745463 20.893088,15.2252413 20.9614214,15.171356 C20.9844704,15.1537086 21.0079262,15.1345793 21.0304328,15.1150459 L21.0331445,15.1128905 C21.0551088,15.0948389 21.076802,15.0758444 21.0979528,15.0561762 L21.1242558,15.033275 L21.12873,15.0266741 C21.1726586,14.9845088 21.2150959,14.9414006 21.2565841,14.894251 C21.350407,14.787154 21.4285024,14.6750727 21.4930396,14.5620483 C21.5457811,14.7429681 21.6244188,14.9098777 21.7377656,15.0529431 C21.8085396,15.140372 21.8942276,15.2210652 21.9919824,15.2916549 C22.0566551,15.337592 22.1278358,15.3784101 22.2025417,15.4162645 C22.2213876,15.4275804 22.2392845,15.4405129 22.2592151,15.4507511 C22.365376,15.5053099 22.4811633,15.5465322 22.6071192,15.5763038 C22.7345666,15.606749 22.8735384,15.624127 23.0244415,15.6296502 C23.0668787,15.6309973 23.1079602,15.6291113 23.1494484,15.6281684 L23.5503652,14.3506834 L23.5225708,14.3467767 C23.4675244,14.3349219 23.4169522,14.3186216 23.3705831,14.2959898 C23.3250274,14.2736274 23.2829969,14.2460112 23.2463897,14.2134107 C23.2091046,14.1809448 23.1762937,14.1433598 23.1468723,14.1015987 C23.0975203,14.0244081 23.0657941,13.9346891 23.0469482,13.8352708 C23.0332543,13.7590231 23.0302715,13.674558 23.031085,13.5871291 L23.028509,13.572176 C23.028509,13.572176 23.0313562,13.5058971 23.0332543,13.4724882 C23.0346102,13.4479704 23.0379997,13.4151004 23.0424739,13.3769766 C23.0510156,13.2930503 23.061591,13.2064297 23.0769118,13.1159025 C23.0805726,13.0956955 23.0854535,13.073872 23.0888431,13.0529914 C23.0957578,13.0109609 23.100232,12.9825364 23.100232,12.9825364 L23.2996735,11.8564691 C23.4461024,10.9883774 23.6292741,9.9183507 23.6511028,9.80653877 C23.686761,9.61915276 23.7236393,9.44133137 23.7639073,9.27347877 C23.8059378,9.10562616 23.8517646,8.94585634 23.9059975,8.80009669 C23.960366,8.65298991 24.0236829,8.51854617 24.0982532,8.39649604 C24.1737725,8.27579304 24.2606808,8.16761836 24.3644012,8.07547456 C24.4202611,8.02441827 24.4782903,7.97861579 24.5371331,7.94049196 C24.5974672,7.90182928 24.6591571,7.8692287 24.7238299,7.84242078 C24.7880959,7.81682527 24.8556158,7.79715715 24.9272033,7.78395526 Z M17.5230682,10.6485095 C17.4630053,10.4911646 17.3803001,10.3462132 17.2712919,10.2066504 C17.1990266,10.1108693 17.1104913,10.0185908 17.0054151,9.93250906 C16.899932,9.84656206 16.7776368,9.76627301 16.6375803,9.69999413 C16.4969815,9.63344582 16.3383502,9.57686629 16.1599239,9.53833833 C15.9821755,9.49873265 15.784361,9.47610084 15.5659379,9.47502314 C15.346159,9.4725983 15.1395316,9.49186228 14.9464625,9.52917783 C14.7536645,9.56501153 14.5738823,9.6188968 14.4082008,9.68342441 C14.2434683,9.74997271 14.0917517,9.82648979 13.9523731,9.91257151 C13.8136725,9.99757552 13.6892079,10.0909317 13.5784372,10.1864434 C13.415874,10.3264104 13.2779869,10.4735171 13.1569119,10.631401 C13.0363792,10.7907667 12.9357772,10.9613135 12.8476487,11.1486995 C12.7599269,11.3367591 12.6868481,11.5407149 12.6223109,11.7659553 C12.557367,11.9906568 12.5012359,12.2371819 12.4498503,12.5097067 C12.3998204,12.7846563 12.3628064,13.0330673 12.3420623,13.2622144 C12.3206403,13.4898797 12.3177931,13.6972033 12.3333851,13.8883613 C12.3500617,14.0791151 12.3863977,14.2528951 12.4464607,14.4152245 C12.5076083,14.5783621 12.5907203,14.7274896 12.7017621,14.8708244 C12.7782306,14.968222 12.8690707,15.0634642 12.9771298,15.1518361 C13.0846465,15.2398038 13.2104669,15.3190151 13.3539129,15.3858328 C13.4977657,15.4526506 13.6606001,15.5070747 13.8439073,15.5437167 C14.0262655,15.5804934 14.2288254,15.6002962 14.4541632,15.5959854 C14.678823,15.5939647 14.8895179,15.5683692 15.0862478,15.5275511 C15.2822998,15.483904 15.4637089,15.4262468 15.6318309,15.3560612 C15.7994106,15.2860104 15.952483,15.2026229 16.0910481,15.1137122 C16.23002,15.0237238 16.3544845,14.9274039 16.4648485,14.8285245 C16.6242933,14.6855938 16.7601467,14.5340415 16.8767475,14.3725204 C16.9926703,14.2118076 17.090154,14.03924 17.1735371,13.8507763 C17.256649,13.6629861 17.3255248,13.4579527 17.3857234,13.23379 C17.4447017,13.0096273 17.4947315,12.7644493 17.5402872,12.4950229 C17.5863852,12.2276173 17.6202807,11.9858072 17.6377708,11.7643387 C17.655261,11.5435438 17.6568879,11.3428212 17.6383132,11.1586683 C17.6202807,10.9737071 17.5836735,10.806124 17.5230682,10.6485095 Z M16.1797189,11.5617301 C16.1770073,11.7000805 16.1630423,11.8488039 16.1405357,12.0081696 C16.1286044,12.0926347 16.1146394,12.180333 16.0986407,12.2697825 C16.0872518,12.3445483 16.0743715,12.420796 16.0602709,12.4991991 C16.0324766,12.6538498 16.0035975,12.8020343 15.9699731,12.9425401 C15.9469242,13.0430361 15.9202144,13.1377395 15.8905219,13.2301527 C15.8669306,13.3127319 15.8418479,13.3930209 15.8140535,13.4692686 C15.7623967,13.6105827 15.7040963,13.7416586 15.6329156,13.8602062 C15.562684,13.9776761 15.4803855,14.0826176 15.3826307,14.1728755 C15.3292113,14.2225846 15.2726734,14.26704 15.215051,14.3051638 C15.1567506,14.3440959 15.0953318,14.3769659 15.0320149,14.4036391 C14.9678845,14.4290999 14.9017203,14.4498457 14.8318954,14.4635865 C14.7627485,14.4773272 14.6888561,14.4843323 14.6130656,14.4862183 C14.5360549,14.4875654 14.4640607,14.4815033 14.3983033,14.4691097 C14.333495,14.4569855 14.2732964,14.4390687 14.2177077,14.4141467 C14.1637459,14.3888207 14.1142584,14.3581061 14.069923,14.3202517 C14.0246385,14.2830708 13.9854552,14.2399626 13.9492548,14.1913312 C13.8895985,14.1025552 13.8490594,13.9984219 13.8247902,13.8816256 C13.8006566,13.7637516 13.7925216,13.6332145 13.7964535,13.4913615 C13.8006566,13.3493739 13.8155706,13.1951273 13.8392975,13.0346839 C13.8626177,12.8724892 13.8942083,12.7020771 13.9293242,12.5265458 C13.9634909,12.3481856 13.9990135,12.1789859 14.0373832,12.0190813 C14.07738,11.8595809 14.1213087,11.7074898 14.1732367,11.5691393 C14.2248935,11.4291724 14.2854988,11.3011948 14.3573574,11.1854762 C14.4290805,11.0705659 14.5116501,10.9679145 14.6104896,10.8802162 C14.6641801,10.8315847 14.7188198,10.7884765 14.7754932,10.7518345 C14.832031,10.7150579 14.8914161,10.6842085 14.9522925,10.6592866 C15.0137113,10.6350382 15.0786552,10.615909 15.1464463,10.6040542 C15.2153221,10.5908523 15.2865028,10.5855985 15.3628357,10.5850596 C15.4382194,10.5855985 15.5081799,10.5913912 15.5735305,10.6040542 C15.6387456,10.615909 15.6990797,10.6347688 15.7543973,10.6598255 C15.8084946,10.6836697 15.859338,10.7147884 15.903809,10.7510263 C15.9485511,10.7884765 15.9888191,10.8296988 16.0235281,10.8784649 C16.0844046,10.9662979 16.1244014,11.0681411 16.1488062,11.1823778 C16.1741601,11.295941 16.1831085,11.4239185 16.1797189,11.5617301 Z M11.8961322,10.6485095 C11.8360692,10.4908951 11.7532285,10.3462132 11.6446271,10.2066504 C11.5720905,10.1108693 11.4838265,10.0185908 11.3787502,9.93223963 C11.2735383,9.84683148 11.1512431,9.76681186 11.0106443,9.69999413 C10.8700455,9.63344582 10.7116854,9.57753986 10.5327167,9.53860775 C10.3552395,9.49873265 10.157425,9.47610084 9.93900191,9.47529256 C9.71922302,9.4725983 9.51286678,9.49186228 9.31979761,9.52836955 C9.1269996,9.56501153 8.94748865,9.6188968 8.78194268,9.68409797 C8.61598996,9.74997271 8.46427338,9.82648979 8.32570829,9.91257151 C8.18754994,9.99811437 8.06227191,10.0914706 7.9513656,10.1864434 C7.78920918,10.3264104 7.65077967,10.4732477 7.53078935,10.631401 C7.41052786,10.7904972 7.30938347,10.9613135 7.22152615,11.1484301 C7.13434674,11.3367591 7.06072556,11.540176 6.99618839,11.7664941 C6.93151564,11.9906568 6.87592691,12.2371819 6.82454122,12.5097067 C6.77396903,12.7851951 6.7366839,13.0330673 6.71593981,13.2622144 C6.69478897,13.4898797 6.691535,13.6972033 6.70753371,13.8876877 C6.72393916,14.0791151 6.76013964,14.2528951 6.82006701,14.4152245 C6.88094345,14.5780927 6.96459772,14.727759 7.07604636,14.8708244 C7.15156569,14.9687609 7.24267699,15.0642725 7.35100724,15.1521055 C7.45906632,15.2398038 7.58380202,15.3190151 7.72779041,15.385294 C7.87082972,15.45292 8.03420637,15.5073441 8.21683571,15.5439861 C8.39905831,15.5804934 8.60243173,15.6000268 8.82722716,15.5962548 C9.05161585,15.5939647 9.26285305,15.5680998 9.45944736,15.5275511 C9.65536377,15.4841734 9.83704403,15.4265162 10.0048949,15.3555224 C10.1727458,15.2860104 10.3258182,15.2026229 10.4646544,15.1142511 C10.6036263,15.0237238 10.7275485,14.9276733 10.8381836,14.8285245 C10.9973572,14.6858632 11.1332107,14.5340415 11.2500826,14.3727898 C11.3662766,14.212077 11.4640315,14.0397789 11.5463299,13.8505069 C11.6299842,13.6629861 11.6994023,13.4579527 11.758245,13.23379 C11.8174945,13.0098967 11.8677955,12.7644493 11.91308,12.4952924 C11.9597203,12.2276173 11.9933447,11.9858072 12.0108348,11.7646081 C12.0283249,11.5435438 12.0300875,11.3425518 12.0116483,11.1589377 C11.9936159,10.974246 11.9560596,10.8066628 11.8961322,10.6485095 Z M10.5527829,11.5617301 C10.5503424,11.6998111 10.5361063,11.8490733 10.5133285,12.0081696 C10.5022107,12.093443 10.4877034,12.1816801 10.4717047,12.2718032 C10.4603158,12.3452219 10.4474355,12.4216043 10.4336061,12.4997379 C10.4055406,12.6538498 10.3766615,12.8025731 10.3435794,12.9425401 C10.3205305,13.041689 10.2938207,13.1357188 10.2646706,13.2266502 C10.2408081,13.3108459 10.2157254,13.3922127 10.1871175,13.4698074 C10.136003,13.6108521 10.0766179,13.7416586 10.0059796,13.8602062 C9.9352056,13.9780802 9.85317832,14.0828871 9.75569466,14.172606 C9.7025464,14.2225846 9.64587301,14.26704 9.58811495,14.3054332 C9.53008573,14.3440959 9.46893812,14.3769659 9.40562119,14.4036391 C9.34121961,14.4293693 9.27451312,14.450654 9.20536616,14.4638559 C9.13527012,14.4767884 9.0619201,14.4848712 8.9861296,14.4864877 C8.90911886,14.4875654 8.837667,14.4817728 8.77163843,14.4696486 C8.70683009,14.457255 8.64663156,14.4390687 8.59131399,14.4141467 C8.53708107,14.3888207 8.48650888,14.3581061 8.44298697,14.3202517 C8.39824481,14.2830708 8.3585192,14.2399626 8.32286106,14.1913312 C8.26266253,14.1025552 8.22293692,13.9984219 8.19758303,13.8816256 C8.17372055,13.7637516 8.16585677,13.6332145 8.17005982,13.4913615 C8.17372055,13.3493739 8.18904134,13.1956661 8.2123615,13.034145 C8.23595282,12.8732975 8.26767907,12.7026159 8.3026593,12.5265458 C8.33655487,12.348455 8.37180627,12.1789859 8.41098955,12.019216 C8.45098632,11.8593115 8.49437265,11.7072203 8.54711416,11.5691393 C8.59795752,11.4286335 8.6585628,11.3011948 8.72987908,11.1854762 C8.80187328,11.0705659 8.88525638,10.9679145 8.98355354,10.8799468 C9.03778645,10.8318542 9.0925617,10.788746 9.14896393,10.752104 C9.20563732,10.7153273 9.26393771,10.684478 9.32589881,10.6592866 C9.38731759,10.63423 9.4522615,10.615909 9.51923915,10.6040542 C9.58838612,10.5908523 9.66010915,10.5855985 9.73589964,10.5850596 C9.81155456,10.5858679 9.88178618,10.5916606 9.94659452,10.6032459 C10.0123519,10.6160437 10.0721437,10.6350382 10.1271901,10.6598255 C10.1821009,10.6842085 10.2332155,10.7147884 10.2774153,10.7510263 C10.3216151,10.7884765 10.3621542,10.8296988 10.3968633,10.8784649 C10.4569262,10.9662979 10.4980077,11.0681411 10.521599,11.1823778 C10.547224,11.295941 10.5564436,11.4239185 10.5527829,11.5617301 Z M8.68296761,18.7680898 L9.05554773,18.7680898 L9.05554773,17.819305 C9.05554773,17.6567062 9.02409264,17.5172781 8.90383116,17.3975181 C8.82044805,17.3149389 8.70018656,17.2664421 8.55077488,17.2664421 C8.41343003,17.2664421 8.27567843,17.3177679 8.17819476,17.4204193 L8.17819476,17.2835507 L7.81388516,17.2835507 L7.81388516,18.7680898 L8.18673645,18.7680898 L8.18673645,17.8706307 C8.18673645,17.6682915 8.31892917,17.5998572 8.43620785,17.5998572 C8.55402886,17.5998572 8.68296761,17.6682915 8.68296761,17.8706307 L8.68296761,18.7680898 Z M10.0858646,18.1410404 L11.0209757,18.1410404 L11.0209757,17.9758821 C11.0209757,17.56824 10.7860116,17.2664826 10.3700451,17.2664826 C9.98322885,17.2664826 9.71884339,17.540085 9.71884339,18.024783 C9.71884339,18.6257384 10.0575279,18.7855082 10.410313,18.7855082 C10.6798506,18.7855082 10.8260083,18.7025249 10.9781317,18.5515115 L10.7517092,18.3320637 C10.6570728,18.4263629 10.5766725,18.4720307 10.4134314,18.4720307 C10.2038212,18.4720307 10.0858646,18.3320637 10.0858646,18.1410404 Z M10.6195165,17.7277404 C10.6425655,17.7821646 10.6509716,17.8224438 10.6542256,17.887645 L10.0858646,17.887645 C10.0891186,17.8224438 10.0975247,17.7821646 10.1205737,17.7277404 C10.1608416,17.639638 10.2439536,17.5740327 10.3700451,17.5740327 C10.4964078,17.5740327 10.5795197,17.639638 10.6195165,17.7277404 Z M12.1689238,18.7680898 L12.3728395,18.7680898 L12.3728395,18.454747 L12.2380707,18.454747 C12.1492643,18.454747 12.1088608,18.4065197 12.1088608,18.3205727 L12.1088608,17.6086136 L12.3728395,17.6086136 L12.3728395,17.3262548 L12.1088608,17.3262548 L12.1088608,16.8876287 L11.7360095,16.8876287 L11.7360095,17.3262548 L11.5784629,17.3262548 L11.5784629,17.6086136 L11.7360095,17.6086136 L11.7360095,18.3434739 C11.7360095,18.5544347 11.8652194,18.7680898 12.1689238,18.7680898 Z M14.6631497,18.7680898 L15.1193841,17.2835507 L14.7261955,17.2835507 L14.4852658,18.2013515 L14.1785786,17.2835507 L13.9057871,17.2835507 L13.6020828,18.2013515 L13.361153,17.2835507 L12.9647104,17.2835507 L13.4240632,18.7680898 L13.7312927,18.7680898 L14.0438098,17.8364136 L14.3561914,18.7680898 L14.6631497,18.7680898 Z M16.7432667,18.6031201 C16.8780355,18.4628837 16.9122022,18.2950311 16.9122022,18.0247964 C16.9122022,17.7564478 16.8780355,17.5883258 16.7432667,17.4491671 C16.6513419,17.3517695 16.499083,17.266496 16.2784906,17.266496 C16.0576271,17.266496 15.9084866,17.3517695 15.8169685,17.4491671 C15.6821997,17.5883258 15.6474907,17.7564478 15.6474907,18.0247964 C15.6474907,18.2950311 15.6821997,18.4628837 15.8169685,18.6031201 C15.9084866,18.6997094 16.0576271,18.785387 16.2784906,18.785387 C16.499083,18.785387 16.6513419,18.6997094 16.7432667,18.6031201 Z M16.4535274,17.6653817 C16.5308093,17.7424376 16.5396221,17.8705499 16.5396221,18.0247964 C16.5396221,18.1782347 16.5308093,18.3091759 16.4535274,18.3863666 C16.4104122,18.4292054 16.3531965,18.4518372 16.2784906,18.4518372 C16.2043271,18.4518372 16.1492807,18.4292054 16.1065723,18.3863666 C16.0290192,18.3091759 16.0206131,18.1782347 16.0206131,18.0247964 C16.0206131,17.8705499 16.0290192,17.7424376 16.1065723,17.6653817 C16.1492807,17.6228124 16.2043271,17.5999111 16.2784906,17.5999111 C16.3531965,17.5999111 16.4104122,17.6228124 16.4535274,17.6653817 Z M18.3585669,17.688283 L18.6397646,17.4056547 C18.5367221,17.3034074 18.4338151,17.266496 18.2871151,17.266496 C18.1263145,17.266496 17.9832752,17.340723 17.911281,17.4262658 L17.911281,17.2836046 L17.5472425,17.2836046 L17.5472425,18.7681437 L17.9200938,18.7681437 L17.9200938,17.8735136 C17.9200938,17.6853193 18.0460498,17.5999111 18.1610236,17.5999111 C18.2526772,17.5999111 18.3010801,17.631434 18.3585669,17.688283 Z M20.1150355,18.7680898 L20.5765576,18.7680898 L20.0027733,17.882216 L20.5365608,17.2835507 L20.0864276,17.2835507 L19.5901964,17.8905682 L19.5901964,16.7391748 L19.2173451,16.7391748 L19.2173451,18.7680898 L19.5901964,18.7680898 L19.5901964,18.3263653 L19.7480142,18.1497564 L20.1150355,18.7680898 Z M26.136543,7.15487171 L26.136543,6.56630987 L25.937915,7.15487171 L25.85643,7.15487171 L25.6580732,6.56630987 L25.6580732,7.15487171 L25.5658772,7.15487171 L25.5658772,6.44183491 L25.7014595,6.44183491 L25.8971047,7.0361894 L26.0931567,6.44183491 L26.228739,6.44183491 L26.228739,7.15487171 L26.136543,7.15487171 Z M25.2560717,6.52549178 L25.2560717,7.15487171 L25.1636046,7.15487171 L25.1636046,6.52549178 L24.973247,6.52549178 L24.973247,6.44183491 L25.446158,6.44183491 L25.446158,6.52549178 L25.2560717,6.52549178 Z" id="Combined-Shape" fill="#C41F40"></path>
            </g>
        </g>
    </g>
</svg>