<?xml version="1.0" encoding="UTF-8"?>
<svg width="42px" height="32px" viewBox="0 0 42 32" version="1.1" xmlns="http://www.w3.org/2000/svg" xmlns:xlink="http://www.w3.org/1999/xlink">
    <!-- Generator: Sketch 46.2 (44496) - http://www.bohemiancoding.com/sketch -->
    <title>FOXGN_Color</title>
    <desc>Created with Sketch.</desc>
    <defs></defs>
    <g id="Domestic" stroke="none" stroke-width="1" fill="none" fill-rule="evenodd">
        <g id="FOXGN" fill-rule="nonzero">
            <g id="Logo-/-Fox-Color" transform="translate(4.000000, 6.000000)">
                <path d="M3.04772552,19.0506048 C3.04772552,19.2453802 2.99071268,19.4150233 2.89569127,19.5721003 C2.80066987,19.7228941 2.66130515,19.8422726 2.47126234,19.9176696 C2.27488478,19.9930665 2.06583769,20.030765 1.81244728,20.030765 C1.59706544,20.030765 1.42602691,20.0119157 1.28666219,19.9930665 C1.15363223,19.955368 0.995263221,19.9176696 0.843228977,19.8422726 L0.843228977,19.0945864 C0.995263221,19.1699833 1.17263651,19.2453802 1.35000979,19.2893618 C1.52738308,19.3270602 1.67941732,19.3647587 1.83778632,19.3647587 C1.95181201,19.3647587 2.05316817,19.3459095 2.11018101,19.308211 C2.16719385,19.2705125 2.20520241,19.2139648 2.20520241,19.1322848 C2.20520241,19.0945864 2.18619813,19.0568879 2.16719385,19.0191894 C2.14818957,18.9814909 2.11018101,18.9626417 2.05316817,18.9249432 C1.99615533,18.8872448 1.8567906,18.8306971 1.64774352,18.7301678 C1.43236167,18.6359217 1.29933171,18.5542416 1.18530603,18.4599955 C1.09028462,18.3845985 1.00793274,18.2652201 0.9509199,18.1709739 C0.893907058,18.0578785 0.874902778,17.9196508 0.874902778,17.7688569 C0.874902778,17.4798353 0.96992418,17.2662107 1.18530603,17.0965676 C1.40068787,16.9457737 1.69208684,16.8640937 2.05950293,16.8640937 C2.38891046,16.8640937 2.71831799,16.9394906 3.04772552,17.0965676 L2.79433511,17.7500077 C2.50293614,17.618063 2.24954574,17.5552322 2.04049865,17.5552322 C1.92647297,17.5552322 1.84412108,17.5740815 1.80611252,17.6117799 C1.74909968,17.6494784 1.7300954,17.6871769 1.7300954,17.7437246 C1.7300954,17.8002723 1.76810396,17.85682 1.8251168,17.8945185 C1.88212965,17.9322169 2.05950293,18.0264631 2.3509019,18.1646908 C2.62329659,18.2777862 2.81333939,18.4160139 2.91469555,18.5479586 C2.99071268,18.667337 3.04772552,18.8432632 3.04772552,19.0506048 Z M4.5617332,20.030765 C4.15630855,20.030765 3.8459053,19.9176696 3.63052345,19.7040449 C3.39613733,19.4904203 3.30111593,19.1825494 3.30111593,18.7992817 C3.30111593,18.3971647 3.39613733,18.0892939 3.61151917,17.85682 C3.82690102,17.6431953 4.11829999,17.5300999 4.50472036,17.5300999 C4.87213645,17.5300999 5.14453114,17.6243461 5.35991298,17.8191215 C5.55629055,18.0138969 5.65131195,18.2777862 5.65131195,18.6296386 L5.65131195,18.9940571 L4.15630855,18.9940571 C4.15630855,19.1260017 4.21332139,19.226531 4.30834279,19.3019279 C4.4033642,19.3773249 4.52372464,19.4150233 4.69476316,19.4150233 C4.84679741,19.4150233 4.98616213,19.3961741 5.10018782,19.3773249 C5.2142135,19.3584756 5.35357822,19.3019279 5.50561247,19.2453802 L5.50561247,19.8422726 C5.3725825,19.8988203 5.23321778,19.955368 5.10018782,19.9742173 C4.91014501,20.0119157 4.75811077,20.030765 4.5617332,20.030765 Z M4.50472036,18.1081431 C4.40969896,18.1081431 4.32734707,18.1458416 4.25132995,18.2023893 C4.19431711,18.258937 4.15630855,18.3531831 4.13730427,18.4914109 L4.85313217,18.4914109 C4.85313217,18.3783155 4.81512361,18.2777862 4.75811077,18.2212385 C4.70109792,18.1458416 4.61874604,18.1081431 4.50472036,18.1081431 Z M6.84858162,19.9930665 L6.01872804,19.9930665 L6.01872804,16.6881675 L6.85491638,16.6881675 L6.84858162,19.9930665 Z M8.49561927,20.030765 C8.09019462,20.030765 7.77979137,19.9176696 7.56440952,19.7040449 C7.3300234,19.4904203 7.23500199,19.1825494 7.23500199,18.7992817 C7.23500199,18.3971647 7.3300234,18.0892939 7.54540524,17.85682 C7.76078709,17.6431953 8.05218606,17.5300999 8.43860643,17.5300999 C8.80602252,17.5300999 9.07841721,17.6243461 9.29379905,17.8191215 C9.49017662,18.0138969 9.58519802,18.2777862 9.58519802,18.6296386 L9.58519802,18.9940571 L8.09019462,18.9940571 C8.09019462,19.1260017 8.14720746,19.226531 8.24222886,19.3019279 C8.33725027,19.3773249 8.45761071,19.4150233 8.62864923,19.4150233 C8.78068348,19.4150233 8.9200482,19.3961741 9.03407388,19.3773249 C9.14809957,19.3584756 9.28746429,19.3019279 9.43949854,19.2453802 L9.43949854,19.8422726 C9.30646857,19.8988203 9.16710385,19.955368 9.03407388,19.9742173 C8.86303536,20.0119157 8.69199684,20.030765 8.49561927,20.030765 Z M8.45761071,18.1081431 C8.36258931,18.1081431 8.28023742,18.1458416 8.2042203,18.2023893 C8.14720746,18.258937 8.1091989,18.3531831 8.09019462,18.4914109 L8.80602252,18.4914109 C8.80602252,18.3783155 8.76801396,18.2777862 8.71100112,18.2212385 C8.65398827,18.1458416 8.55263211,18.1081431 8.45761071,18.1081431 Z M11.0548624,20.030765 C10.668442,20.030765 10.3580388,19.9176696 10.1616612,19.7040449 C9.94627935,19.4904203 9.85125795,19.1825494 9.85125795,18.7804325 C9.85125795,18.3783155 9.96528363,18.0704446 10.1806655,17.85682 C10.3960473,17.6431953 10.7254549,17.5300999 11.1308795,17.5300999 C11.4032742,17.5300999 11.6756689,17.5866476 11.9227245,17.7060261 L11.6693341,18.3217678 C11.5743127,18.2840693 11.4729566,18.2463708 11.3969394,18.2275216 C11.3209223,18.2086724 11.2195661,18.1898231 11.1245447,18.1898231 C10.9915148,18.1898231 10.8901586,18.2463708 10.8141415,18.340617 C10.7381244,18.4348632 10.7001158,18.5919401 10.7001158,18.7804325 C10.7001158,19.1637002 10.8331458,19.3584756 11.1245447,19.3584756 C11.3779351,19.3584756 11.6059865,19.2830787 11.8213684,19.144851 L11.8213684,19.7982911 C11.618656,19.955368 11.3652656,20.030765 11.0548624,20.030765 Z M13.3987236,19.3773249 C13.5127493,19.3773249 13.6521141,19.3584756 13.8041483,19.3019279 L13.8041483,19.8988203 C13.6901226,19.9365188 13.5887665,19.9742173 13.4747408,19.9930665 C13.3797194,20.0119157 13.2593589,20.030765 13.126329,20.030765 C12.8539343,20.030765 12.6448872,19.955368 12.5245267,19.8171403 C12.4105011,19.6851957 12.3281492,19.471571 12.3281492,19.1825494 L12.3281492,18.2023893 L12.0367502,18.2023893 L12.0367502,17.85682 L12.4041663,17.5866476 L12.6195481,17.0840014 L13.1643375,17.0840014 L13.1643375,17.5615153 L13.7661397,17.5615153 L13.7661397,18.177257 L13.1643375,18.177257 L13.1643375,19.1197187 C13.1896766,19.3019279 13.2656937,19.3773249 13.3987236,19.3773249 Z M16.5977775,19.9930665 L15.9579668,17.7625738 L15.9389625,17.7625738 C15.976971,18.1458416 15.976971,18.4348632 15.976971,18.6484878 L15.976971,19.9930665 L15.2231346,19.9930665 L15.2231346,16.8955091 L16.3443871,16.8955091 L17.0032022,19.0883033 L17.0222065,19.0883033 L17.6620172,16.8955091 L18.7832698,16.8955091 L18.7832698,19.9930665 L18.0104291,19.9930665 L18.0104291,18.6296386 L18.0104291,18.3971647 C18.0104291,18.3217678 18.0294333,18.1081431 18.0294333,17.7625738 L18.0104291,17.7625738 L17.3706183,19.9930665 L16.5977775,19.9930665 Z M20.9244187,19.9930665 L20.7723845,19.6663464 L20.7533802,19.6663464 C20.6393545,19.7982911 20.5189941,19.8988203 20.4049684,19.955368 C20.2909427,20.0119157 20.1325737,20.030765 19.9615352,20.030765 C19.7271491,20.030765 19.5561105,19.955368 19.4167458,19.8171403 C19.2837158,19.6851957 19.2203682,19.4904203 19.2203682,19.2390971 C19.2203682,18.987774 19.3153897,18.7992817 19.4927629,18.661054 C19.6701362,18.5291093 19.9361961,18.4662786 20.2656037,18.4474293 L20.6710283,18.4285801 L20.6710283,18.3908816 C20.6710283,18.1961062 20.5760069,18.10186 20.3796294,18.10186 C20.2022561,18.10186 19.9742047,18.1584077 19.70181,18.2777862 L19.4674239,17.7374415 C19.7588229,17.6054969 20.1072347,17.5238169 20.5316636,17.5238169 C20.8420669,17.5238169 21.076453,17.5992138 21.2474915,17.7562907 C21.4248648,17.9070846 21.5008819,18.1207093 21.5008819,18.3908816 L21.5008819,19.9679342 L20.9244187,19.9930665 Z M20.3036122,19.4401556 C20.3986336,19.4401556 20.4999898,19.4024572 20.5570026,19.3459095 C20.6330198,19.2893618 20.6710283,19.1951156 20.6710283,19.0945864 L20.6710283,18.8998109 L20.4746508,18.8998109 C20.2022561,18.9186602 20.0692261,19.0129063 20.0692261,19.2076818 C20.0692261,19.3584756 20.1452432,19.4401556 20.3036122,19.4401556 Z M23.4456533,17.536383 C23.5216704,17.536383 23.5786832,17.536383 23.6610351,17.5552322 L23.6990437,17.5552322 L23.6230266,18.340617 C23.5470094,18.3217678 23.4709923,18.3217678 23.3316276,18.3217678 C23.1542543,18.3217678 23.0212244,18.3594662 22.926203,18.4348632 C22.8501858,18.5102601 22.8121773,18.6484878 22.8121773,18.7992817 L22.8121773,19.9742173 L21.9759889,19.9742173 L21.9759889,17.5740815 L22.5967954,17.5740815 L22.7298254,17.9573492 L22.7678339,17.9573492 C22.8438511,17.8254046 22.9452072,17.7248754 23.0592329,17.6494784 C23.1922629,17.5740815 23.3252928,17.536383 23.4456533,17.536383 Z M24.7632834,18.6296386 C24.8583048,18.4788447 24.959661,18.340617 25.0166738,18.2652201 L25.5614632,17.5929307 L26.4926729,17.5929307 L25.6564846,18.6107893 L26.5496858,19.9930665 L25.5994717,19.9930665 L25.0736867,19.1260017 L24.801292,19.3396264 L24.801292,19.9930665 L23.9651036,19.9930665 L23.9651036,16.6881675 L24.801292,16.6881675 L24.801292,17.9761985 C24.7822877,18.2086724 24.7822877,18.4160139 24.7632834,18.6296386 Z M27.917994,20.030765 C27.5125693,20.030765 27.2021661,19.9176696 26.9867842,19.7040449 C26.7523981,19.4904203 26.6573767,19.1825494 26.6573767,18.7992817 C26.6573767,18.3971647 26.7523981,18.0892939 26.9677799,17.85682 C27.1831618,17.6431953 27.4745608,17.5300999 27.8609811,17.5300999 C28.2283972,17.5300999 28.5007919,17.6243461 28.7161738,17.8191215 C28.9125513,18.0138969 29.0075727,18.2777862 29.0075727,18.6296386 L29.0075727,18.9940571 L27.5125693,18.9940571 C27.5125693,19.1260017 27.5695822,19.226531 27.6646036,19.3019279 C27.759625,19.3773249 27.8799854,19.4150233 28.0510239,19.4150233 C28.2030582,19.4150233 28.3424229,19.3961741 28.4564486,19.3773249 C28.5704743,19.3584756 28.709839,19.3019279 28.8618732,19.2453802 L28.8618732,19.8422726 C28.7288433,19.8988203 28.5894785,19.955368 28.4564486,19.9742173 C28.2664058,20.0119157 28.1143715,20.030765 27.917994,20.030765 Z M27.8609811,18.1081431 C27.7659597,18.1081431 27.6836078,18.1458416 27.6075907,18.2023893 C27.5505779,18.258937 27.5125693,18.3531831 27.493565,18.4914109 L28.2093929,18.4914109 C28.2093929,18.3783155 28.1713844,18.2777862 28.1143715,18.2212385 C28.0573587,18.1458416 27.9813416,18.1081431 27.8609811,18.1081431 Z M30.559589,19.3773249 C30.6736146,19.3773249 30.8129794,19.3584756 30.9650136,19.3019279 L30.9650136,19.8988203 C30.8509879,19.9365188 30.7496318,19.9742173 30.6356061,19.9930665 C30.5405847,20.0119157 30.4202242,20.030765 30.2871943,20.030765 C30.0147996,20.030765 29.8057525,19.955368 29.6853921,19.8171403 C29.5713664,19.6851957 29.4890145,19.471571 29.4890145,19.1825494 L29.4890145,18.2023893 L29.1976155,18.2023893 L29.1976155,17.85682 L29.5650316,17.5866476 L29.7804135,17.0840014 L30.3252028,17.0840014 L30.3252028,17.5615153 L30.9270051,17.5615153 L30.9270051,18.177257 L30.3252028,18.177257 L30.3252028,19.1197187 C30.3252028,19.3019279 30.40122,19.3773249 30.559589,19.3773249 Z M33.1568406,19.2453802 C33.1568406,19.4967033 33.0618192,19.6851957 32.8844459,19.8234234 C32.7070727,19.955368 32.460017,20.0181988 32.1306095,20.0181988 C31.9532362,20.0181988 31.801202,20.0181988 31.668172,19.9993496 C31.535142,19.9805003 31.3957773,19.9428019 31.2627473,19.9051034 L31.2627473,19.2328141 C31.3957773,19.2893618 31.535142,19.3270602 31.6871763,19.3647587 C31.8392105,19.4024572 31.9785752,19.4213064 32.0926009,19.4213064 C32.2699742,19.4213064 32.3649956,19.3836079 32.3649956,19.308211 C32.3649956,19.2705125 32.3459913,19.2328141 32.2889785,19.1951156 C32.2319657,19.1574171 32.0926009,19.1008694 31.8455453,19.0003402 C31.6301634,18.906094 31.4781292,18.8055648 31.3831078,18.6924694 C31.2880864,18.579374 31.2500778,18.422297 31.2500778,18.2526539 C31.2500778,18.02018 31.3260949,17.8505369 31.5034682,17.7311584 C31.6808415,17.618063 31.9278972,17.536383 32.2383004,17.536383 C32.3903347,17.536383 32.5487037,17.5552322 32.6817336,17.5929307 C32.8147636,17.6306292 32.9731326,17.6683276 33.1251668,17.7437246 L32.8907807,18.2840693 C32.776755,18.2275216 32.6563946,18.1898231 32.5423689,18.1521247 C32.4283432,18.1144262 32.3079828,18.095577 32.2319657,18.095577 C32.0989357,18.095577 32.0165838,18.1332754 32.0165838,18.1898231 C32.0165838,18.2275216 32.0355881,18.2652201 32.0926009,18.2840693 C32.1306095,18.3029185 32.2889785,18.3783155 32.4980256,18.4599955 C32.6753989,18.5353924 32.7894245,18.5919401 32.8844459,18.6736201 C32.9604631,18.7301678 33.0174759,18.824414 33.0618192,18.906094 C33.1378364,19.0129063 33.1568406,19.1134356 33.1568406,19.2453802 Z" id="Combined-Shape" fill="#000000"></path>
                <path d="M1.22331459,14.4136933 L1.22331459,0.886226354 L9.43316378,0.886226354 L9.68655418,4.58695929 L5.09385306,4.58695929 L5.09385306,6.3525042 L8.83769632,6.3525042 L8.83769632,10.040671 L5.06217925,10.040671 L5.06851401,14.4136933 L1.22331459,14.4136933 Z M32.8274331,14.394844 L28.4817876,14.394844 L26.5876943,10.9831327 L24.7126053,14.4011271 L20.4809855,14.394844 L24.5162278,7.42062746 L20.7090369,0.905075588 L25.0610171,0.905075588 L26.6383724,3.82042377 L28.2474015,0.905075588 L32.4536823,0.905075588 L28.7225085,7.37664591 L32.8274331,14.394844 Z M16.0086448,1.09356793 C19.6004539,1.09356793 22.5081088,4.03404842 22.5081088,7.67195058 C22.5081088,11.3035697 19.6004539,14.2503332 16.0086448,14.2503332 C12.4168358,14.2503332 9.5091809,11.3035697 9.5091809,7.67195058 C9.5091809,4.0403315 12.4168358,1.09356793 16.0086448,1.09356793 Z M16.0276491,11.4669297 C16.6357861,11.4669297 17.1742407,10.9831327 17.1805755,10.367391 L17.1805755,4.96394397 C17.1805755,4.34820232 16.6357861,3.79529146 16.0276491,3.79529146 C15.4195121,3.79529146 14.9254008,4.34820232 14.9254008,4.96394397 L14.9254008,10.3485418 C14.9254008,10.9705665 15.4195121,11.4669297 16.0276491,11.4669297 Z" id="Combined-Shape" fill="#0060A9"></path>
                <path d="M33.0111412,13.9236132 C33.0111412,13.6597239 33.226523,13.4460992 33.4989177,13.4460992 C33.7649776,13.4460992 33.9803595,13.6597239 33.9803595,13.9236132 C33.9803595,14.1937855 33.7649776,14.4074102 33.4989177,14.4074102 C33.2328578,14.4074102 33.0111412,14.1937855 33.0111412,13.9236132 Z M33.9233466,13.9236132 C33.9233466,13.6911393 33.7333038,13.5026469 33.4989177,13.5026469 C33.2645316,13.5026469 33.0744888,13.6911393 33.0744888,13.9236132 C33.0744888,14.1623701 33.2645316,14.3508625 33.4989177,14.3508625 C33.7333038,14.3508625 33.9233466,14.1623701 33.9233466,13.9236132 Z M33.7396386,14.1937855 L33.6636215,14.1937855 L33.5115872,13.9487455 L33.3912268,13.9487455 L33.3912268,14.1937855 L33.3278792,14.1937855 L33.3278792,13.6534408 L33.5622653,13.6534408 C33.6066086,13.6534408 33.6509519,13.6534408 33.6952953,13.6785731 C33.7333038,13.7037054 33.7586429,13.747687 33.7586429,13.7916685 C33.7586429,13.8984809 33.6826257,13.9361793 33.5876043,13.9361793 L33.7396386,14.1937855 Z M33.4862482,13.9017868 C33.5622653,13.9017868 33.6826257,13.9145733 33.6826257,13.8058877 C33.6826257,13.7227751 33.6066086,13.7099885 33.543261,13.7099885 L33.3912268,13.7099885 L33.3912268,13.9017868 L33.4862482,13.9017868 Z" id="Shape" fill="#0060A9"></path>
            </g>
        </g>
    </g>
</svg>