<?xml version="1.0" encoding="UTF-8"?>
<svg width="42px" height="32px" viewBox="0 0 42 32" version="1.1" xmlns="http://www.w3.org/2000/svg" xmlns:xlink="http://www.w3.org/1999/xlink">
    <!-- Generator: Sketch 46.2 (44496) - http://www.bohemiancoding.com/sketch -->
    <title>FOXRSN_Color</title>
    <desc>Created with Sketch.</desc>
    <defs>
        <radialGradient cx="50.0003504%" cy="49.9774314%" fx="50.0003504%" fy="49.9774314%" r="325.94471%" gradientTransform="translate(0.500004,0.499774),scale(0.759812,1.000000),translate(-0.500004,-0.499774)" id="radialGradient-1">
            <stop stop-color="#FFFFFF" offset="32.52%"></stop>
            <stop stop-color="#FAFBFC" offset="39.47%"></stop>
            <stop stop-color="#EBEFF2" offset="47.81%"></stop>
            <stop stop-color="#D3DBE2" offset="56.88%"></stop>
            <stop stop-color="#B1BFCB" offset="66.45%"></stop>
            <stop stop-color="#869BAE" offset="76.42%"></stop>
            <stop stop-color="#506F8B" offset="86.74%"></stop>
            <stop stop-color="#123C62" offset="97.13%"></stop>
            <stop stop-color="#002D56" offset="100%"></stop>
        </radialGradient>
        <radialGradient cx="49.9759289%" cy="50.015095%" fx="49.9759289%" fy="50.015095%" r="231.154674%" gradientTransform="translate(0.499759,0.500151),scale(1.000000,0.826923),translate(-0.499759,-0.500151)" id="radialGradient-2">
            <stop stop-color="#FFFFFF" offset="60.12%"></stop>
            <stop stop-color="#FBFCFD" stop-opacity="0.917" offset="65.14%"></stop>
            <stop stop-color="#EFF4F8" stop-opacity="0.8342" offset="70.14%"></stop>
            <stop stop-color="#DBE7F0" stop-opacity="0.7513" offset="75.15%"></stop>
            <stop stop-color="#BFD4E5" stop-opacity="0.6683" offset="80.16%"></stop>
            <stop stop-color="#9BBCD6" stop-opacity="0.5853" offset="85.18%"></stop>
            <stop stop-color="#6E9EC3" stop-opacity="0.5022" offset="90.2%"></stop>
            <stop stop-color="#3B7CAE" stop-opacity="0.4206" offset="95.13%"></stop>
            <stop stop-color="#005596" stop-opacity="0.34" offset="100%"></stop>
        </radialGradient>
        <radialGradient cx="50.0292812%" cy="49.9773876%" fx="50.0292812%" fy="49.9773876%" r="231.165993%" gradientTransform="translate(0.500293,0.499774),scale(1.000000,0.826923),translate(-0.500293,-0.499774)" id="radialGradient-3">
            <stop stop-color="#FFFFFF" offset="60.12%"></stop>
            <stop stop-color="#FBFCFD" stop-opacity="0.917" offset="65.14%"></stop>
            <stop stop-color="#EFF4F8" stop-opacity="0.8342" offset="70.14%"></stop>
            <stop stop-color="#DBE7F0" stop-opacity="0.7513" offset="75.15%"></stop>
            <stop stop-color="#BFD4E5" stop-opacity="0.6683" offset="80.16%"></stop>
            <stop stop-color="#9BBCD6" stop-opacity="0.5853" offset="85.18%"></stop>
            <stop stop-color="#6E9EC3" stop-opacity="0.5022" offset="90.2%"></stop>
            <stop stop-color="#3B7CAE" stop-opacity="0.4206" offset="95.13%"></stop>
            <stop stop-color="#005596" stop-opacity="0.34" offset="100%"></stop>
        </radialGradient>
        <radialGradient cx="181.956705%" cy="-61.7735402%" fx="181.956705%" fy="-61.7735402%" r="1542.15151%" gradientTransform="translate(1.819567,-0.617735),scale(1.000000,0.620561),translate(-1.819567,0.617735)" id="radialGradient-4">
            <stop stop-color="#79BDE8" offset="0%"></stop>
            <stop stop-color="#002D56" offset="65.03%"></stop>
        </radialGradient>
        <radialGradient cx="-32.389453%" cy="-61.9660899%" fx="-32.389453%" fy="-61.9660899%" r="1056.72023%" gradientTransform="translate(-0.323895,-0.619661),scale(1.000000,0.907303),translate(0.323895,0.619661)" id="radialGradient-5">
            <stop stop-color="#79BDE8" offset="0%"></stop>
            <stop stop-color="#002D56" offset="65.03%"></stop>
        </radialGradient>
        <radialGradient cx="54.1382863%" cy="-65.0937231%" fx="54.1382863%" fy="-65.0937231%" r="1003.93843%" gradientTransform="translate(0.541383,-0.650937),scale(1.000000,0.980769),translate(-0.541383,0.650937)" id="radialGradient-6">
            <stop stop-color="#79BDE8" offset="0%"></stop>
            <stop stop-color="#002D56" offset="65.03%"></stop>
        </radialGradient>
        <linearGradient x1="-75.684869%" y1="126.78125%" x2="182.708284%" y2="-18.4621269%" id="linearGradient-7">
            <stop stop-color="#79BDE8" offset="0%"></stop>
            <stop stop-color="#002D56" offset="70%"></stop>
        </linearGradient>
        <linearGradient x1="65.7875949%" y1="41.1705616%" x2="219.629536%" y2="-42.9397645%" id="linearGradient-8">
            <stop stop-color="#2974B9" offset="0%"></stop>
            <stop stop-color="#004887" offset="100%"></stop>
        </linearGradient>
        <linearGradient x1="175.008945%" y1="127.832805%" x2="-82.6713924%" y2="-20.1067102%" id="linearGradient-9">
            <stop stop-color="#79BDE8" offset="0%"></stop>
            <stop stop-color="#002D56" offset="70%"></stop>
        </linearGradient>
        <linearGradient x1="38.4205387%" y1="43.3654299%" x2="-120.766667%" y2="-45.6051584%" id="linearGradient-10">
            <stop stop-color="#2974B9" offset="0%"></stop>
            <stop stop-color="#004887" offset="100%"></stop>
        </linearGradient>
        <radialGradient cx="336.373294%" cy="-529.31603%" fx="336.373294%" fy="-529.31603%" r="3296.44412%" gradientTransform="translate(3.363733,-5.293160),scale(1.000000,0.946835),translate(-3.363733,5.293160)" id="radialGradient-11">
            <stop stop-color="#79BDE8" offset="0%"></stop>
            <stop stop-color="#002D56" offset="84.05%"></stop>
        </radialGradient>
        <radialGradient cx="213.174147%" cy="-529.31603%" fx="213.174147%" fy="-529.31603%" r="3280.02094%" gradientTransform="translate(2.131741,-5.293160),scale(1.000000,0.967089),translate(-2.131741,5.293160)" id="radialGradient-12">
            <stop stop-color="#79BDE8" offset="0%"></stop>
            <stop stop-color="#002D56" offset="84.05%"></stop>
        </radialGradient>
        <radialGradient cx="96.3422739%" cy="-529.062866%" fx="96.3422739%" fy="-529.062866%" r="3256.71447%" gradientTransform="translate(0.963423,-5.290629),scale(1.000000,0.979747),translate(-0.963423,5.290629)" id="radialGradient-13">
            <stop stop-color="#79BDE8" offset="0%"></stop>
            <stop stop-color="#002D56" offset="84.05%"></stop>
        </radialGradient>
        <radialGradient cx="-21.8941313%" cy="-530.659472%" fx="-21.8941313%" fy="-530.659472%" r="3162.52096%" gradientTransform="translate(-0.218941,-5.306595),scale(0.994949,1.000000),translate(0.218941,5.306595)" id="radialGradient-14">
            <stop stop-color="#79BDE8" offset="0%"></stop>
            <stop stop-color="#002D56" offset="84.05%"></stop>
        </radialGradient>
        <radialGradient cx="-139.624122%" cy="-530.659472%" fx="-139.624122%" fy="-530.659472%" r="3427.70583%" gradientTransform="translate(-1.396241,-5.306595),scale(1.000000,0.913706),translate(1.396241,5.306595)" id="radialGradient-15">
            <stop stop-color="#79BDE8" offset="0%"></stop>
            <stop stop-color="#002D56" offset="84.05%"></stop>
        </radialGradient>
        <radialGradient cx="-239.212819%" cy="-529.31603%" fx="-239.212819%" fy="-529.31603%" r="3220.12447%" gradientTransform="translate(-2.392128,-5.293160),scale(1.000000,0.951899),translate(2.392128,5.293160)" id="radialGradient-16">
            <stop stop-color="#79BDE8" offset="0%"></stop>
            <stop stop-color="#002D56" offset="84.05%"></stop>
        </radialGradient>
    </defs>
    <g id="Domestic" stroke="none" stroke-width="1" fill="none" fill-rule="evenodd">
        <g id="FOXRSN" fill-rule="nonzero">
            <g id="Logo-/-Fox-Sports-Color" transform="translate(4.000000, 3.000000)">
                <path d="M32.3575226,9.85427964 C32.3575226,14.9313663 25.4795322,19.0515152 17,19.0515152 C8.52046784,19.0515152 1.64912281,14.9313663 1.64912281,9.85427964 C1.64912281,4.77719298 8.52711324,0.657044125 17,0.657044125 C25.4861776,0.663689527 32.3575226,4.77719298 32.3575226,9.85427964 Z" id="Shape" fill="#FFFFFF"></path>
                <path d="M16.9933546,1.81998937 C13.5510367,1.81998937 10.4742158,2.9364168 8.42078682,4.69080276 C7.15816055,6.13950027 6.4138756,7.92711324 6.4138756,9.86092504 C6.4138756,11.7947368 7.15816055,13.5757044 8.42078682,15.0310473 C10.4742158,16.7854333 13.5510367,17.9018607 16.9933546,17.9018607 C20.4356725,17.9018607 23.5124934,16.7854333 25.5659224,15.0310473 C26.8285486,13.5823498 27.579479,11.7947368 27.579479,9.86092504 C27.579479,7.92711324 26.8285486,6.14614567 25.5659224,4.69080276 C23.5124934,2.9364168 20.4356725,1.81998937 16.9933546,1.81998937 Z" id="Shape" fill="url(#radialGradient-1)" opacity="0.6"></path>
                <path d="M17.0066454,0.663689527 C8.52711324,0.663689527 1.65576821,4.77719298 1.65576821,9.86092504 C1.65576821,14.9380117 8.52711324,19.0581606 17.0066454,19.0581606 C25.4861776,19.0581606 32.364168,14.9380117 32.364168,9.86092504 C32.3575226,4.77719298 25.4861776,0.663689527 17.0066454,0.663689527 Z M17.0066454,18.1809676 C10.6669325,18.1809676 5.52339181,14.4528974 5.52339181,9.85427964 C5.52339181,5.25566188 10.6602871,1.52759171 17.0066454,1.52759171 C23.3463583,1.52759171 28.489899,5.25566188 28.489899,9.85427964 C28.4832536,14.4595428 23.3463583,18.1809676 17.0066454,18.1809676 Z" id="Shape" fill="#002D55" opacity="0.3"></path>
                <path d="M16.6677299,18.1743222 C10.4808612,18.0414141 5.52339181,14.3731526 5.52339181,9.85427964 C5.52339181,5.3354067 10.4808612,1.66714514 16.6677299,1.53423711 L16.6677299,1.04247741 C8.58692185,1.14880383 2.0943647,5.04965444 2.0943647,9.85427964 C2.0943647,14.6589048 8.58692185,18.5597554 16.6677299,18.6660819 L16.6677299,18.1743222 Z" id="Shape" fill="#FFFFFF"></path>
                <path d="M17.3389155,1.04912281 L17.3389155,1.54088251 C23.5257842,1.67379054 28.4832536,5.3420521 28.4832536,9.86092504 C28.4832536,14.379798 23.5257842,18.0480595 17.3389155,18.1809676 L17.3389155,18.6727273 C25.4197236,18.5664009 31.9122807,14.6655502 31.9122807,9.86092504 C31.9189261,5.05629984 25.4197236,1.15544923 17.3389155,1.04912281 Z" id="Shape" fill="#FFFFFF"></path>
                <path d="M16.6677299,18.1743222 C10.4808612,18.0414141 5.52339181,14.3731526 5.52339181,9.85427964 C5.52339181,5.3354067 10.4808612,1.66714514 16.6677299,1.53423711 L16.6677299,1.04247741 C8.58692185,1.14880383 2.0943647,5.04965444 2.0943647,9.85427964 C2.0943647,14.6589048 8.58692185,18.5597554 16.6677299,18.6660819 L16.6677299,18.1743222 Z" id="Shape" fill="url(#radialGradient-2)" opacity="0.11"></path>
                <path d="M17.3389155,1.04912281 L17.3389155,1.54088251 C23.5257842,1.67379054 28.4832536,5.3420521 28.4832536,9.86092504 C28.4832536,14.379798 23.5257842,18.0480595 17.3389155,18.1809676 L17.3389155,18.6727273 C25.4197236,18.5664009 31.9122807,14.6655502 31.9122807,9.86092504 C31.9189261,5.05629984 25.4197236,1.15544923 17.3389155,1.04912281 Z" id="Shape" fill="url(#radialGradient-3)" opacity="0.11"></path>
                <path d="M5.02498671,9.45555556 C5.20441255,6.57145136 7.33094099,4.04619883 10.4808612,2.57091972 L10.4144072,2.33168527 C5.9619883,3.68070175 2.86523126,6.34550771 2.61935141,9.45555556 L5.02498671,9.45555556 L5.02498671,9.45555556 Z" id="Shape" fill="#002D55"></path>
                <path d="M5.01834131,10.0536417 L2.61270601,10.0536417 C2.73232323,13.2500797 5.87559809,16.0145667 10.4210526,17.3901648 L10.4875066,17.1509304 C7.25784157,15.6291334 5.10473153,13.0241361 5.01834131,10.0536417 Z" id="Shape" fill="#002D55"></path>
                <path d="M28.9816587,9.45555556 L31.387294,9.45555556 C31.1414141,6.34550771 28.0313663,3.66741095 23.572302,2.32503987 L23.5124934,2.56427432 C26.6624136,4.03955343 28.7955875,6.56480595 28.9816587,9.45555556 Z" id="Shape" fill="#002D55"></path>
                <path d="M28.9883041,10.0536417 C28.8952685,13.0307815 26.7421584,15.6424242 23.505848,17.1575758 L23.5656566,17.3968102 C28.1244019,16.0212121 31.2676768,13.2567251 31.3939394,10.0536417 L28.9883041,10.0536417 Z" id="Shape" fill="#002D55"></path>
                <polygon id="Shape" fill="url(#radialGradient-4)" points="8.85273791 11.7748006 8.85273791 4.66422116 13.1323764 4.66422116 13.2652844 6.60467836 10.8662945 6.60467836 10.8662945 7.53503456 12.8200425 7.53503456 12.8200425 9.47549176 10.8530037 9.47549176 10.8530037 11.7748006"></polygon>
                <path d="M13.1323764,4.66422116 L13.2652844,6.61132376 L10.8662945,6.61132376 L10.8662945,7.53503456 L12.8200425,7.53503456 L12.8200425,9.47549176 L10.8530037,9.47549176 L10.8530037,11.7748006 L8.85273791,11.7748006 L8.85273791,4.66422116 L13.1323764,4.66422116 L13.1323764,4.66422116 Z M13.2453482,4.54460393 L13.1323764,4.54460393 L8.85273791,4.54460393 L8.73312068,4.54460393 L8.73312068,4.66422116 L8.73312068,11.7748006 L8.73312068,11.8944179 L8.85273791,11.8944179 L10.8530037,11.8944179 L10.9726209,11.8944179 L10.9726209,11.7748006 L10.9726209,9.59510898 L12.8200425,9.59510898 L12.9396598,9.59510898 L12.9396598,9.47549176 L12.9396598,7.53503456 L12.9396598,7.41541733 L12.8200425,7.41541733 L10.9859117,7.41541733 L10.9859117,6.73094099 L13.258639,6.73094099 L13.3849016,6.73094099 L13.3782562,6.60467836 L13.2453482,4.66422116 L13.2453482,4.54460393 L13.2453482,4.54460393 Z" id="Shape" fill="#EDF4FA"></path>
                <polygon id="Shape" fill="url(#radialGradient-5)" points="25.4064327 11.7615098 23.2599681 8.07331207 25.2070707 4.67086656 23.0672515 4.67086656 22.1767677 6.20595428 21.2995747 4.67086656 19.086656 4.67086656 21.0669856 8.09989367 18.9670388 11.7681552 21.1201489 11.7615098 22.1501861 9.96725146 23.1868687 11.7615098"></polygon>
                <path d="M25.2070707,4.67086656 L23.2599681,8.07331207 L25.3997873,11.7615098 L23.1868687,11.7615098 L22.1501861,9.96725146 L21.1201489,11.7615098 L18.9670388,11.7615098 L21.0669856,8.09324827 L19.086656,4.67086656 L21.3062201,4.67086656 L22.1834131,6.19930888 L23.0738969,4.67086656 L25.2070707,4.67086656 L25.2070707,4.67086656 Z M25.4130781,4.55124934 L25.2070707,4.55124934 L23.0606061,4.55124934 L22.9875066,4.55124934 L22.9542796,4.61105795 L22.1701223,5.96007443 L21.3992557,4.61105795 L21.3660287,4.55124934 L21.2929293,4.55124934 L19.0733652,4.55124934 L18.8673578,4.55124934 L18.9736842,4.73067517 L20.9207868,8.09324827 L18.8607124,11.7083466 L18.754386,11.8877725 L18.9603934,11.8877725 L21.1201489,11.8877725 L21.1932483,11.8877725 L21.2264753,11.8279638 L22.1501861,10.2131313 L23.0871877,11.8213184 L23.1204147,11.8811271 L23.1935141,11.8811271 L25.4064327,11.8811271 L25.6124402,11.8811271 L25.5061138,11.7017012 L23.3995215,8.07331207 L25.3133971,4.73732057 L25.4130781,4.55124934 L25.4130781,4.55124934 Z" id="Shape" fill="#EDF4FA"></path>
                <path d="M13.2121212,8.2261563 C13.2121212,6.3189261 14.7272727,4.77054758 16.6012759,4.77054758 C18.4752791,4.77054758 19.9904306,6.3189261 19.9904306,8.2261563 C19.9904306,10.1333865 18.4752791,11.681765 16.6012759,11.681765 C14.7272727,11.681765 13.2121212,10.1333865 13.2121212,8.2261563 Z M17.2060074,9.6482722 L17.2060074,6.81068581 C17.2060074,6.48506114 16.9269006,6.19930888 16.6079213,6.19930888 C16.2889421,6.19930888 16.0364168,6.49170654 16.0364168,6.81068581 L16.0364168,9.64162679 C16.0364168,9.96725146 16.2955875,10.2264221 16.6079213,10.2264221 C16.9269006,10.2264221 17.2060074,9.97389686 17.2060074,9.6482722 Z" id="Shape" fill="url(#radialGradient-6)"></path>
                <path d="M16.5946305,4.77054758 C18.4686337,4.77054758 19.9837852,6.3189261 19.9837852,8.2261563 C19.9837852,10.1333865 18.4686337,11.681765 16.5946305,11.681765 C14.7272727,11.681765 13.2054758,10.1333865 13.2054758,8.2261563 C13.2121212,6.3189261 14.7272727,4.77054758 16.5946305,4.77054758 L16.5946305,4.77054758 Z M16.6079213,10.2264221 C16.9269006,10.2264221 17.2060074,9.97389686 17.2060074,9.6482722 L17.2060074,6.81068581 C17.2060074,6.48506114 16.9269006,6.19930888 16.6079213,6.19930888 C16.2889421,6.19930888 16.0364168,6.49170654 16.0364168,6.81068581 L16.0364168,9.64162679 C16.0297714,9.96060606 16.2889421,10.2264221 16.6079213,10.2264221 L16.6079213,10.2264221 Z M16.5946305,4.65093036 C14.6608187,4.65093036 13.0858586,6.25247209 13.0858586,8.2261563 C13.0858586,10.1998405 14.6608187,11.8013822 16.5946305,11.8013822 C18.5284423,11.8013822 20.1034024,10.1931951 20.1034024,8.2261563 C20.1034024,6.25247209 18.5284423,4.65093036 16.5946305,4.65093036 L16.5946305,4.65093036 Z M16.6079213,10.1001595 C16.3553961,10.1001595 16.156034,9.89415205 16.156034,9.63498139 L16.156034,6.8040404 C16.156034,6.53822435 16.3686869,6.3122807 16.6079213,6.3122807 C16.8604466,6.3122807 17.0863902,6.54486975 17.0863902,6.8040404 L17.0863902,9.6482722 C17.0863902,9.89415205 16.867092,10.1001595 16.6079213,10.1001595 L16.6079213,10.1001595 Z" id="Shape" fill="#EDF4FA"></path>
                <path d="M5.02498671,9.45555556 C5.21105795,6.57145136 7.33094099,4.04619883 10.4808612,2.57091972 L10.4144072,2.33168527 C5.9619883,3.68070175 2.86523126,6.34550771 2.61935141,9.45555556 L5.02498671,9.45555556 L5.02498671,9.45555556 Z" id="Shape" fill="url(#linearGradient-7)"></path>
                <path d="M5.01834131,10.0469963 L2.61270601,10.0469963 C2.73232323,13.2434343 5.87559809,16.0079213 10.4210526,17.3835194 L10.4875066,17.144285 C7.25784157,15.6291334 5.11137693,13.0241361 5.01834131,10.0469963 Z" id="Shape" fill="url(#linearGradient-8)"></path>
                <path d="M28.9816587,9.45555556 L31.387294,9.45555556 C31.1414141,6.33886231 28.0313663,3.66741095 23.572302,2.32503987 L23.5124934,2.56427432 C26.669059,4.03955343 28.8022329,6.56480595 28.9816587,9.45555556 Z" id="Shape" fill="url(#linearGradient-9)"></path>
                <path d="M28.9949495,10.0469963 C28.9019139,13.0241361 26.7488038,15.6357788 23.5124934,17.1509304 L23.5789474,17.3901648 C28.1376927,16.0145667 31.2809676,13.2500797 31.4072302,10.0469963 L28.9949495,10.0469963 Z" id="Shape" fill="url(#linearGradient-10)"></path>
                <path d="M17.0066454,1.52759171 C10.6669325,1.52759171 5.52339181,5.25566188 5.52339181,9.85427964 C5.52339181,14.4528974 10.6602871,18.1809676 17.0066454,18.1809676 C23.3463583,18.1809676 28.489899,14.4528974 28.489899,9.85427964 C28.4832536,5.25566188 23.3463583,1.52759171 17.0066454,1.52759171 Z M25.5659224,15.0244019 C23.5124934,16.7787879 20.4356725,17.8952153 16.9933546,17.8952153 C13.5510367,17.8952153 10.4742158,16.7787879 8.42078682,15.0244019 C7.15816055,13.569059 6.4138756,11.7880914 6.4138756,9.85427964 C6.4138756,7.92046784 7.15816055,6.13950027 8.42078682,4.68415736 C10.4742158,2.9297714 13.5510367,1.81334397 16.9933546,1.81334397 C20.4356725,1.81334397 23.5124934,2.9297714 25.5659224,4.68415736 C26.8285486,6.13950027 27.579479,7.92046784 27.579479,9.85427964 C27.579479,11.7880914 26.8285486,13.5757044 25.5659224,15.0244019 Z" id="Shape" fill="#002D55" opacity="0.5"></path>
                <polygon id="Shape" fill="url(#radialGradient-11)" points="8.68660287 14.8715577 8.68660287 14.4994152 8.87267411 14.313344 10.4011164 14.313344 10.460925 14.2535354 10.460925 13.8614567 10.4210526 13.8215843 9.00558214 13.8215843 8.69324827 13.5092504 8.69324827 12.6121212 9.05874535 12.2532695 11.1121744 12.2532695 11.1121744 12.6519936 10.9659755 12.8048379 9.46411483 12.8048379 9.40430622 12.8646465 9.40430622 13.2500797 9.44417863 13.2899522 10.8596491 13.2899522 11.171983 13.602286 11.171983 14.512706 10.8131313 14.8782031 8.68660287 14.8782031"></polygon>
                <path d="M11.105529,12.2532695 L11.105529,12.6519936 L10.9593301,12.8048379 L9.46411483,12.8048379 L9.40430622,12.8646465 L9.40430622,13.2500797 L9.44417863,13.2899522 L10.8596491,13.2899522 L11.171983,13.602286 L11.171983,14.512706 L10.8131313,14.8782031 L8.68660287,14.8782031 L8.68660287,14.4994152 L8.87267411,14.313344 L10.4011164,14.313344 L10.460925,14.2535354 L10.460925,13.8614567 L10.4210526,13.8215843 L9.00558214,13.8215843 L8.69324827,13.5092504 L8.69324827,12.6121212 L9.05874535,12.2532695 L11.105529,12.2532695 L11.105529,12.2532695 Z M11.2251462,12.1336523 L11.105529,12.1336523 L9.05209995,12.1336523 L8.99893674,12.1336523 L8.96570973,12.1668793 L8.60021265,12.5323764 L8.56698565,12.5656034 L8.56698565,12.6121212 L8.56698565,13.5092504 L8.56698565,13.5624136 L8.60021265,13.5956406 L8.91254652,13.9079745 L8.94577352,13.9412015 L8.99893674,13.9412015 L10.3346624,13.9412015 L10.3346624,14.1937267 L8.87267411,14.1937267 L8.8261563,14.1937267 L8.79292929,14.2269537 L8.60685805,14.4063796 L8.56698565,14.4396066 L8.56698565,14.4927698 L8.56698565,14.8649123 L8.56698565,14.9845295 L8.68660287,14.9845295 L10.8131313,14.9845295 L10.8596491,14.9845295 L10.8928761,14.9513025 L11.2583732,14.5924508 L11.2916002,14.5592238 L11.2916002,14.5060606 L11.2916002,13.5956406 L11.2916002,13.5424774 L11.2583732,13.5092504 L10.9460393,13.1969165 L10.9128123,13.1636895 L10.8662945,13.1636895 L9.53056885,13.1636895 L9.53056885,12.9244551 L10.9593301,12.9244551 L11.0124934,12.9244551 L11.0457204,12.8912281 L11.1919192,12.7383838 L11.2251462,12.7051568 L11.2251462,12.658639 L11.2251462,12.2599149 L11.2251462,12.1336523 L11.2251462,12.1336523 Z" id="Shape" fill="#EDF4FA"></path>
                <path d="M11.6305157,12.2532695 L13.7636895,12.2532695 L14.169059,12.658639 L14.169059,13.6288676 L13.7636895,14.0342371 L12.3548644,14.0342371 L12.3548644,14.8782031 L11.6305157,14.8782031 L11.6305157,12.2532695 Z M13.3383838,13.5225412 L13.4447103,13.4162148 L13.4447103,12.9178097 L13.3383838,12.8114833 L12.3548644,12.8114833 L12.3548644,13.5225412 L13.3383838,13.5225412 L13.3383838,13.5225412 Z" id="Shape" fill="url(#radialGradient-12)"></path>
                <path d="M13.7636895,12.2532695 L14.169059,12.658639 L14.169059,13.6288676 L13.7636895,14.0342371 L12.3548644,14.0342371 L12.3548644,14.8782031 L11.6305157,14.8782031 L11.6305157,12.2599149 L13.7636895,12.2599149 L13.7636895,12.2532695 Z M12.3548644,13.5225412 L13.3383838,13.5225412 L13.4447103,13.4162148 L13.4447103,12.9178097 L13.3383838,12.8114833 L12.3548644,12.8114833 L12.3548644,13.5225412 L12.3548644,13.5225412 Z M13.8102073,12.1336523 L13.7636895,12.1336523 L11.6305157,12.1336523 L11.5108985,12.1336523 L11.5108985,12.2997873 L11.5108985,14.8715577 L11.5108985,14.9911749 L11.6305157,14.9911749 L12.3548644,14.9911749 L12.4744817,14.9911749 L12.4744817,14.8715577 L12.4744817,14.1538543 L13.7636895,14.1538543 L13.8102073,14.1538543 L13.8434343,14.1206273 L14.2488038,13.7152578 L14.2820308,13.6820308 L14.2820308,13.6288676 L14.2820308,12.658639 L14.2820308,12.6121212 L14.2488038,12.5788942 L13.8434343,12.1735247 L13.8102073,12.1336523 L13.8102073,12.1336523 Z M12.4744817,12.9311005 L13.291866,12.9311005 L13.325093,12.9643275 L13.325093,13.3630516 L13.291866,13.3962786 L12.4744817,13.3962786 L12.4744817,12.9311005 L12.4744817,12.9311005 Z" id="Shape" fill="#EDF4FA"></path>
                <path d="M14.5478469,14.4661882 L14.5478469,12.6519936 L14.946571,12.2466241 L16.7142477,12.2466241 L17.1196172,12.6519936 L17.1196172,14.4661882 L16.7142477,14.8715577 L14.946571,14.8715577 L14.5478469,14.4661882 Z M16.2490696,14.2601808 L16.3952685,14.1139819 L16.3952685,12.9709729 L16.2490696,12.8247741 L15.4117491,12.8247741 L15.2655502,12.9709729 L15.2655502,14.1139819 L15.4117491,14.2601808 L16.2490696,14.2601808 Z" id="Shape" fill="url(#radialGradient-13)"></path>
                <path d="M16.7142477,12.2532695 L17.1196172,12.658639 L17.1196172,14.4728336 L16.7142477,14.8782031 L14.946571,14.8782031 L14.5478469,14.4728336 L14.5478469,12.658639 L14.946571,12.2532695 L16.7142477,12.2532695 L16.7142477,12.2532695 Z M15.4117491,14.2601808 L16.2490696,14.2601808 L16.3952685,14.1139819 L16.3952685,12.9709729 L16.2490696,12.8247741 L15.4117491,12.8247741 L15.2655502,12.9709729 L15.2655502,14.1139819 L15.4117491,14.2601808 L15.4117491,14.2601808 Z M16.767411,12.1336523 L16.7208931,12.1336523 L14.946571,12.1336523 L14.8934078,12.1336523 L14.8601808,12.1668793 L14.4614567,12.5722488 L14.4282297,12.6054758 L14.4282297,12.6519936 L14.4282297,14.4661882 L14.4282297,14.512706 L14.4614567,14.545933 L14.8601808,14.9513025 L14.8934078,14.9845295 L14.946571,14.9845295 L16.7142477,14.9845295 L16.7607656,14.9845295 L16.7939926,14.9513025 L17.199362,14.545933 L17.232589,14.512706 L17.232589,14.4661882 L17.232589,12.6519936 L17.232589,12.6054758 L17.199362,12.5722488 L16.7939926,12.1668793 L16.767411,12.1336523 L16.767411,12.1336523 Z M15.4582669,12.9443913 L16.2025518,12.9443913 L16.2822967,13.0241361 L16.2822967,14.0674641 L16.2025518,14.1405635 L15.4582669,14.1405635 L15.3851675,14.0674641 L15.3851675,13.0241361 L15.4582669,12.9443913 L15.4582669,12.9443913 Z" id="Shape" fill="#EDF4FA"></path>
                <path d="M17.5914407,12.2532695 L19.7445508,12.2532695 L20.1100478,12.6121212 L20.1100478,13.4494418 L19.764487,13.7950027 L20.2230197,14.8715577 L19.4189261,14.8715577 L19.0800106,13.9212653 L18.3157895,13.9212653 L18.3157895,14.8715577 L17.5914407,14.8715577 L17.5914407,12.2532695 L17.5914407,12.2532695 Z M19.2860181,13.3763424 L19.3856991,13.2766614 L19.3856991,12.8978735 L19.2860181,12.7981925 L18.3157895,12.7981925 L18.3157895,13.3829878 L19.2860181,13.3829878 L19.2860181,13.3763424 Z" id="Shape" fill="url(#radialGradient-14)"></path>
                <path d="M19.7445508,12.2532695 L20.1100478,12.6121212 L20.1100478,13.4494418 L19.764487,13.7950027 L20.2230197,14.8715577 L19.4189261,14.8715577 L19.0800106,13.9212653 L18.3157895,13.9212653 L18.3157895,14.8715577 L17.5914407,14.8715577 L17.5914407,12.2532695 L19.7445508,12.2532695 L19.7445508,12.2532695 Z M18.3091441,13.3763424 L19.2793727,13.3763424 L19.3790537,13.2766614 L19.3790537,12.8978735 L19.2793727,12.7981925 L18.3091441,12.7981925 L18.3091441,13.3763424 L18.3091441,13.3763424 Z M19.797714,12.1336523 L19.7511962,12.1336523 L17.5980861,12.1336523 L17.4784689,12.1336523 L17.4784689,12.2532695 L17.4784689,14.8715577 L17.4784689,14.9911749 L17.5980861,14.9911749 L18.3224349,14.9911749 L18.4420521,14.9911749 L18.4420521,14.8715577 L18.4420521,14.0408825 L19.0069112,14.0408825 L19.3125997,14.9180755 L19.3458267,14.9911749 L19.4255715,14.9911749 L20.2296651,14.9911749 L20.4157363,14.9911749 L20.3359915,14.8183945 L19.9173312,13.8215843 L20.2030835,13.535832 L20.2363105,13.502605 L20.2363105,13.4494418 L20.2363105,12.6121212 L20.2363105,12.5656034 L20.2030835,12.5323764 L19.8375864,12.1668793 L19.797714,12.1336523 L19.797714,12.1336523 Z M18.4287613,12.9111643 L19.2328549,12.9111643 L19.2660819,12.9443913 L19.2660819,13.2700159 L19.2328549,13.303243 L18.4287613,13.303243 L18.4287613,12.9111643 L18.4287613,12.9111643 Z" id="Shape" fill="#EDF4FA"></path>
                <polygon id="Shape" fill="url(#radialGradient-15)" points="21.1866029 12.8580011 20.3492823 12.8580011 20.3492823 12.2532695 22.7416268 12.2532695 22.7416268 12.8580011 21.9109516 12.8580011 21.9109516 14.8715577 21.1866029 14.8715577"></polygon>
                <path d="M22.7416268,12.2532695 L22.7416268,12.8580011 L21.9109516,12.8580011 L21.9109516,14.8715577 L21.1866029,14.8715577 L21.1866029,12.8580011 L20.3492823,12.8580011 L20.3492823,12.2532695 L22.7416268,12.2532695 L22.7416268,12.2532695 Z M22.861244,12.1336523 L22.7416268,12.1336523 L20.3492823,12.1336523 L20.2296651,12.1336523 L20.2296651,12.2532695 L20.2296651,12.8580011 L20.2296651,12.9776183 L20.3492823,12.9776183 L21.0603402,12.9776183 L21.0603402,14.8715577 L21.0603402,14.9911749 L21.1799575,14.9911749 L21.9043062,14.9911749 L22.0239234,14.9911749 L22.0239234,14.8715577 L22.0239234,12.9776183 L22.7349814,12.9776183 L22.8545986,12.9776183 L22.8545986,12.8580011 L22.8545986,12.2532695 L22.8545986,12.1336523 L22.861244,12.1336523 Z" id="Shape" fill="#EDF4FA"></path>
                <polygon id="Shape" fill="url(#radialGradient-16)" points="22.9675704 14.8715577 22.9675704 14.4994152 23.1536417 14.313344 24.682084 14.313344 24.7418926 14.2535354 24.7418926 13.8614567 24.7020202 13.8215843 23.2865497 13.8215843 22.9742158 13.5092504 22.9742158 12.6121212 23.3397129 12.2532695 25.3931419 12.2532695 25.3931419 12.6519936 25.2469431 12.8048379 23.7583732 12.8048379 23.6985646 12.8646465 23.6985646 13.2500797 23.738437 13.2899522 25.1539075 13.2899522 25.4662414 13.602286 25.4662414 14.512706 25.1007443 14.8782031 22.9675704 14.8782031"></polygon>
                <path d="M25.3864965,12.2532695 L25.3864965,12.6519936 L25.2402977,12.8048379 L23.7517278,12.8048379 L23.6919192,12.8646465 L23.6919192,13.2500797 L23.7317916,13.2899522 L25.1472621,13.2899522 L25.459596,13.602286 L25.459596,14.512706 L25.0940989,14.8782031 L22.9675704,14.8782031 L22.9675704,14.4994152 L23.1536417,14.313344 L24.682084,14.313344 L24.7418926,14.2535354 L24.7418926,13.8614567 L24.7020202,13.8215843 L23.2865497,13.8215843 L22.9742158,13.5092504 L22.9742158,12.6121212 L23.3397129,12.2532695 L25.3864965,12.2532695 L25.3864965,12.2532695 Z M25.5061138,12.1336523 L25.3864965,12.1336523 L23.3330675,12.1336523 L23.2799043,12.1336523 L23.2466773,12.1668793 L22.8878256,12.5323764 L22.8545986,12.5656034 L22.8545986,12.6121212 L22.8545986,13.5092504 L22.8545986,13.5624136 L22.8878256,13.5956406 L23.2001595,13.9079745 L23.2333865,13.9412015 L23.2865497,13.9412015 L24.6222754,13.9412015 L24.6222754,14.1937267 L23.1602871,14.1937267 L23.1137693,14.1937267 L23.0805423,14.2269537 L22.894471,14.4063796 L22.8545986,14.4396066 L22.8545986,14.4927698 L22.8545986,14.8649123 L22.8545986,14.9845295 L22.9742158,14.9845295 L25.1007443,14.9845295 L25.1539075,14.9845295 L25.1871345,14.9513025 L25.5459862,14.5924508 L25.5792132,14.5592238 L25.5792132,14.5060606 L25.5792132,13.5956406 L25.5792132,13.5424774 L25.5459862,13.5092504 L25.2336523,13.1969165 L25.2004253,13.1636895 L25.1539075,13.1636895 L23.8181818,13.1636895 L23.8181818,12.9244551 L25.2402977,12.9244551 L25.2934609,12.9244551 L25.3266879,12.8912281 L25.4728868,12.7383838 L25.5061138,12.7051568 L25.5061138,12.658639 L25.5061138,12.2599149 L25.5061138,12.1336523 L25.5061138,12.1336523 Z" id="Shape" fill="#EDF4FA"></path>
                <path d="M28.9152047,16.9382775 L28.7756512,16.9382775 L28.7756512,16.3800638 L28.5696438,16.3800638 L28.5696438,16.2604466 L29.1212121,16.2604466 L29.1212121,16.3800638 L28.9152047,16.3800638 L28.9152047,16.9382775 L28.9152047,16.9382775 Z M29.8522063,16.9382775 L29.7192982,16.9382775 L29.7192982,16.3734184 L29.5930356,16.9382775 L29.4534822,16.9382775 L29.3272196,16.3734184 L29.3272196,16.9382775 L29.1943115,16.9382775 L29.1943115,16.2604466 L29.400319,16.2604466 L29.5199362,16.7920787 L29.6395534,16.2604466 L29.8455609,16.2604466 L29.8455609,16.9382775 L29.8522063,16.9382775 Z M2.579479,23.8694312 C2.579479,24.0555024 2.52631579,24.248219 2.41998937,24.4077087 C2.31366295,24.5671983 2.17410952,24.6801701 1.98803828,24.7599149 C1.80196704,24.8396598 1.58266879,24.892823 1.31685274,24.892823 C1.10419989,24.892823 0.911483254,24.8662414 0.778575226,24.8396598 C0.645667198,24.8130781 0.479532164,24.7599149 0.320042531,24.6801701 L0.320042531,23.8960128 C0.479532164,23.9757576 0.672248804,24.0555024 0.831738437,24.082084 C0.99122807,24.1086656 1.18394471,24.1618288 1.31685274,24.1618288 C1.44976077,24.1618288 1.52950558,24.1352472 1.6158958,24.1086656 C1.69564062,24.082084 1.69564062,24.0023392 1.69564062,23.949176 C1.69564062,23.8960128 1.69564062,23.8694312 1.66905901,23.8428495 C1.64247741,23.8162679 1.6158958,23.7896863 1.56273259,23.7365231 C1.50956938,23.7099415 1.37666135,23.6301967 1.1307815,23.5238703 C0.918128655,23.4175439 0.75199362,23.337799 0.645667198,23.2514088 C0.539340776,23.1650186 0.45959596,23.0653376 0.399787347,22.9523658 C0.346624136,22.8460393 0.320042531,22.7064859 0.320042531,22.5469963 C0.320042531,22.2479532 0.426368953,22.0087188 0.645667198,21.8492291 C0.864965444,21.6897395 1.1573631,21.6033493 1.53615098,21.6033493 C1.86177565,21.6033493 2.20733652,21.6830941 2.5595428,21.8492291 L2.28708134,22.5204147 C1.98803828,22.3875066 1.72222222,22.3077618 1.50292398,22.3077618 C1.39659755,22.3077618 1.31685274,22.3343434 1.25704413,22.360925 C1.20388091,22.3875066 1.17729931,22.4406699 1.17729931,22.4938331 C1.17729931,22.5469963 1.20388091,22.6001595 1.28362573,22.6533227 C1.33678894,22.7064859 1.52950558,22.7862307 1.82190324,22.9257842 C2.0943647,23.0586922 2.30701754,23.1982456 2.41334397,23.3311536 C2.52631579,23.4707071 2.579479,23.6368421 2.579479,23.8694312 Z M4.14114833,24.8994684 C3.73577884,24.8994684 3.41015417,24.7931419 3.17091972,24.5738437 C2.92503987,24.3611909 2.81871345,24.0355662 2.81871345,23.6301967 C2.81871345,23.1982456 2.92503987,22.8726209 3.14433812,22.6599681 C3.35699096,22.4473153 3.65603402,22.3077618 4.06140351,22.3077618 C4.44019139,22.3077618 4.73258905,22.4140883 4.92530569,22.6068049 C5.13795853,22.7928761 5.22434875,23.0919192 5.22434875,23.4707071 L5.22434875,23.8494949 L3.68926103,23.8494949 C3.68926103,23.982403 3.74242424,24.0953748 3.84875066,24.1751196 C3.95507709,24.2548644 4.06140351,24.281446 4.25412015,24.281446 C4.41360978,24.281446 4.55316321,24.2548644 4.68607124,24.2282828 C4.81897927,24.2017012 4.9585327,24.148538 5.09144072,24.0953748 L5.09144072,24.7133971 C4.9585327,24.7931419 4.81897927,24.8197236 4.65948963,24.8463052 C4.5199362,24.8795322 4.36044657,24.8994684 4.14114833,24.8994684 Z M4.08798511,22.8726209 C3.98165869,22.8726209 3.90191388,22.8992026 3.84210526,22.9789474 C3.76236045,23.0321106 3.73577884,23.138437 3.73577884,23.2779904 L4.4933546,23.2779904 C4.4933546,23.171664 4.46677299,23.0653376 4.38702818,22.9789474 C4.30063796,22.9257842 4.22089314,22.8726209 4.08798511,22.8726209 Z M6.51355662,24.8463052 L5.64965444,24.8463052 L5.64965444,21.3973418 L6.51355662,21.3973418 L6.51355662,24.8463052 Z M8.24136098,24.8994684 C7.83599149,24.8994684 7.51036683,24.7931419 7.27113238,24.5738437 C7.02525253,24.3611909 6.9189261,24.0355662 6.9189261,23.6301967 C6.9189261,23.1982456 7.02525253,22.8726209 7.24455077,22.6599681 C7.45720362,22.4473153 7.75624668,22.3077618 8.16161616,22.3077618 C8.54040404,22.3077618 8.8328017,22.4140883 9.02551834,22.6068049 C9.23817119,22.7928761 9.3245614,23.0919192 9.3245614,23.4707071 L9.3245614,23.8494949 L7.78947368,23.8494949 C7.78947368,23.982403 7.8426369,24.0953748 7.94896332,24.1751196 C8.05528974,24.2548644 8.16161616,24.281446 8.3543328,24.281446 C8.51382243,24.281446 8.65337586,24.2548644 8.78628389,24.2282828 C8.91919192,24.2017012 9.05874535,24.148538 9.19165338,24.0953748 L9.19165338,24.7133971 C9.05874535,24.7931419 8.91919192,24.8197236 8.75970229,24.8463052 C8.62014886,24.8795322 8.42743222,24.8994684 8.24136098,24.8994684 Z M8.18819777,22.8726209 C8.08187135,22.8726209 8.00212653,22.8992026 7.94231792,22.9789474 C7.8625731,23.0321106 7.83599149,23.138437 7.83599149,23.2779904 L8.59356725,23.2779904 C8.59356725,23.171664 8.56698565,23.0653376 8.48724083,22.9789474 C8.37426901,22.9257842 8.29452419,22.8726209 8.18819777,22.8726209 Z M10.8795853,24.8994684 C10.4742158,24.8994684 10.1485912,24.7931419 9.93593833,24.5738437 C9.72328549,24.3611909 9.61031366,24.0355662 9.61031366,23.6301967 C9.61031366,23.2248272 9.71664009,22.8992026 9.96251994,22.6599681 C10.1751728,22.4473153 10.5273791,22.3077618 10.9327485,22.3077618 C11.2317916,22.3077618 11.4976077,22.360925 11.7434875,22.4938331 L11.4976077,23.138437 C11.3912812,23.0852738 11.3115364,23.0586922 11.1985646,23.0321106 C11.1188198,23.005529 11.0124934,22.9789474 10.9261031,22.9789474 C10.7931951,22.9789474 10.6802233,23.0321106 10.6004785,23.138437 C10.5207337,23.2447634 10.494152,23.4108985 10.494152,23.5969697 C10.494152,24.0023392 10.6270601,24.1884104 10.9261031,24.1884104 C11.171983,24.1884104 11.4112174,24.1086656 11.6570973,23.9757576 L11.6570973,24.6801701 C11.4510898,24.8130781 11.1786284,24.8994684 10.8795853,24.8994684 Z M13.3051568,24.2017012 C13.4114833,24.2017012 13.5510367,24.1751196 13.7105263,24.1219564 L13.7105263,24.7399787 C13.6041999,24.7931419 13.4978735,24.8197236 13.3849016,24.8463052 C13.2785752,24.8728868 13.1722488,24.8728868 13.0061138,24.8728868 C12.7070707,24.8728868 12.4944179,24.7931419 12.3880914,24.6602339 C12.2551834,24.5273259 12.2020202,24.3080276 12.2020202,24.01563 L12.2020202,22.9922382 L11.9029771,22.9922382 L11.9029771,22.6400319 L12.281765,22.3675704 L12.4944179,21.8292929 L13.059277,21.8292929 L13.059277,22.3409888 L13.6772993,22.3409888 L13.6772993,22.9855928 L13.059277,22.9855928 L13.059277,23.9558214 C13.0659224,24.1219564 13.1456672,24.2017012 13.3051568,24.2017012 Z M16.6212121,24.8463052 L15.9500266,22.5270601 L15.923445,22.5270601 C15.9500266,22.9324296 15.9766082,23.2248272 15.9766082,23.4441255 L15.9766082,24.8463052 L15.1924508,24.8463052 L15.1924508,21.6099947 L16.3487507,21.6099947 L17.0199362,23.9026582 L17.0465178,23.9026582 L17.7177033,21.6099947 L18.8740032,21.6099947 L18.8740032,24.8463052 L18.0632642,24.8463052 L18.0632642,23.4175439 L18.0632642,23.171664 C18.0632642,23.0852738 18.0632642,22.8460393 18.0898458,22.5004785 L18.0632642,22.5004785 L17.4186603,24.8197236 L16.6212121,24.8463052 Z M21.073631,24.8463052 L20.9141414,24.5206805 L20.8875598,24.5206805 C20.7812334,24.6535885 20.64168,24.7665603 20.5353535,24.8197236 C20.4290271,24.8728868 20.2628921,24.8994684 20.0768208,24.8994684 C19.830941,24.8994684 19.6448698,24.8197236 19.5119617,24.6868155 C19.3790537,24.5539075 19.2993089,24.3346093 19.2993089,24.0953748 C19.2993089,23.8229133 19.3790537,23.6368421 19.5717703,23.5039341 C19.7578416,23.371026 20.030303,23.2912812 20.3825093,23.2912812 L20.8144604,23.2912812 L20.8144604,23.2646996 C20.8144604,23.0520468 20.708134,22.9656566 20.5154173,22.9656566 C20.3227007,22.9656566 20.1100478,23.0188198 19.8176502,23.1517278 L19.5717703,22.5868687 C19.8708134,22.4273791 20.2163743,22.3742158 20.674907,22.3742158 C21.0005316,22.3742158 21.2397661,22.4539607 21.4324827,22.6200957 C21.6251994,22.7862307 21.7049442,22.9988836 21.7049442,23.2912812 L21.7049442,24.9326954 L21.0869219,24.9326954 L21.073631,24.8463052 Z M20.4223817,24.281446 C20.5287081,24.281446 20.608453,24.2548644 20.6948432,24.1751196 C20.774588,24.1219564 20.8011696,24.01563 20.8011696,23.9026582 L20.8011696,23.7165869 L20.6150984,23.7165869 C20.3160553,23.7165869 20.1831473,23.8229133 20.1831473,24.0422116 C20.1831473,24.2017012 20.2628921,24.281446 20.4223817,24.281446 Z M23.6852738,22.2878256 C23.7650186,22.2878256 23.8181818,22.2878256 23.8979266,22.3144072 L23.9510898,22.3144072 L23.871345,23.1251462 C23.7916002,23.0985646 23.7118554,23.0985646 23.572302,23.0985646 C23.3862307,23.0985646 23.2466773,23.1517278 23.1669325,23.2314726 C23.0871877,23.3112174 23.0340245,23.4441255 23.0340245,23.6102605 L23.0340245,24.8529506 L22.1701223,24.8529506 L22.1701223,22.3476342 L22.8147262,22.3476342 L22.9476342,22.7530037 L23.0007974,22.7530037 C23.0805423,22.6200957 23.1602871,22.5071239 23.2998405,22.4273791 C23.4194577,22.3409888 23.5523658,22.2878256 23.6852738,22.2878256 Z M25.0342903,23.4507709 C25.1406167,23.2912812 25.2203615,23.1517278 25.3067517,23.071983 L25.8716108,22.3742158 L26.8418394,22.3742158 L25.9779373,23.4507709 L26.8950027,24.8795322 L25.8981925,24.8795322 L25.3599149,23.9890484 L25.0874535,24.2017012 L25.0874535,24.8662414 L24.2235513,24.8662414 L24.2235513,21.3906964 L25.0874535,21.3906964 L25.0874535,22.7397129 C25.0874535,22.9922382 25.0608719,23.2248272 25.0342903,23.4507709 Z M28.323764,24.8994684 C27.9183945,24.8994684 27.5927698,24.7931419 27.3535354,24.5738437 C27.1076555,24.3611909 27.0013291,24.0355662 27.0013291,23.6301967 C27.0013291,23.1982456 27.1076555,22.8726209 27.3269537,22.6599681 C27.5396066,22.4473153 27.8386497,22.3077618 28.2440191,22.3077618 C28.622807,22.3077618 28.9152047,22.4140883 29.1079213,22.6068049 C29.3205742,22.7928761 29.4069644,23.0919192 29.4069644,23.4707071 L29.4069644,23.8494949 L27.8718767,23.8494949 C27.8718767,23.982403 27.9250399,24.0953748 28.0313663,24.1751196 C28.1376927,24.2548644 28.2440191,24.281446 28.4367358,24.281446 C28.5962254,24.281446 28.7357788,24.2548644 28.8686869,24.2282828 C29.0015949,24.2017012 29.1411483,24.148538 29.2740564,24.0953748 L29.2740564,24.7133971 C29.1411483,24.7931419 29.0015949,24.8197236 28.8421053,24.8463052 C28.6759702,24.8795322 28.5164806,24.8994684 28.323764,24.8994684 Z M28.2706007,22.8726209 C28.1642743,22.8726209 28.0845295,22.8992026 28.0247209,22.9789474 C27.9449761,23.0321106 27.9183945,23.138437 27.9183945,23.2779904 L28.6759702,23.2779904 C28.6759702,23.171664 28.6493886,23.0653376 28.5696438,22.9789474 C28.456672,22.9257842 28.3769272,22.8726209 28.2706007,22.8726209 Z M31.0483785,24.2017012 C31.1547049,24.2017012 31.2942584,24.1751196 31.453748,24.1219564 L31.453748,24.7399787 C31.3474216,24.7931419 31.2410952,24.8197236 31.1281233,24.8463052 C31.0217969,24.8728868 30.9154705,24.8728868 30.7493355,24.8728868 C30.4502924,24.8728868 30.2376396,24.7931419 30.1313131,24.6602339 C29.9984051,24.5273259 29.9452419,24.3080276 29.9452419,24.01563 L29.9452419,22.9922382 L29.6461988,22.9922382 L29.6461988,22.6400319 L30.0249867,22.3675704 L30.2376396,21.8292929 L30.8024987,21.8292929 L30.8024987,22.3409888 L31.420521,22.3409888 L31.420521,22.9855928 L30.8024987,22.9855928 L30.8024987,23.9558214 C30.8024987,24.1219564 30.8888889,24.2017012 31.0483785,24.2017012 Z M33.7464115,24.0687932 C33.7464115,24.3412547 33.6666667,24.5273259 33.47395,24.6868155 C33.2878788,24.8197236 33.0154173,24.8994684 32.6897927,24.8994684 C32.5037214,24.8994684 32.3375864,24.8994684 32.2046784,24.8728868 C32.0717703,24.8463052 31.9322169,24.8197236 31.7727273,24.7665603 L31.7727273,24.0687932 C31.9056353,24.1219564 32.0451887,24.1751196 32.2046784,24.2017012 C32.364168,24.2282828 32.5037214,24.2548644 32.6366295,24.2548644 C32.8227007,24.2548644 32.9090909,24.2017012 32.9090909,24.1219564 C32.9090909,24.0687932 32.8825093,24.0422116 32.8293461,24.01563 C32.7761829,23.9890484 32.6166932,23.9093036 32.3708134,23.8029771 C32.1249335,23.7232323 31.9920255,23.6169059 31.8856991,23.4773525 C31.8059543,23.371026 31.7527911,23.204891 31.7527911,23.0188198 C31.7527911,22.7729399 31.8325359,22.6134503 32.0252525,22.4805423 C32.2113238,22.3476342 32.4572036,22.294471 32.7828283,22.294471 C32.9423179,22.294471 33.108453,22.3210526 33.241361,22.3476342 C33.374269,22.3742158 33.540404,22.4273791 33.6998937,22.5071239 L33.4540138,23.071983 C33.3476874,23.0188198 33.208134,22.9656566 33.0752259,22.939075 C32.9423179,22.9124934 32.8293461,22.8859117 32.7496013,22.8859117 C32.6166932,22.8859117 32.5369484,22.9124934 32.5369484,22.9922382 C32.5369484,23.0454014 32.56353,23.071983 32.6166932,23.0985646 C32.6698565,23.1251462 32.8027645,23.1783094 33.0486443,23.2846358 C33.2347156,23.3643806 33.3476874,23.4175439 33.4540138,23.4972887 C33.5603402,23.5770335 33.6135035,23.6567783 33.6400851,23.7431685 C33.7198299,23.8162679 33.7464115,23.9358852 33.7464115,24.0687932 Z" id="Combined-Shape" fill="#000000"></path>
            </g>
        </g>
    </g>
</svg>