<?xml version="1.0" encoding="UTF-8"?>
<svg width="42px" height="32px" viewBox="0 0 42 32" version="1.1" xmlns="http://www.w3.org/2000/svg" xmlns:xlink="http://www.w3.org/1999/xlink">
    <!-- Generator: Sketch 49.1 (51147) - http://www.bohemiancoding.com/sketch -->
    <title>ABCFHD_Color</title>
    <desc>Created with Sketch.</desc>
    <defs></defs>
    <g id="ABCFHD" stroke="none" stroke-width="1" fill="none" fill-rule="evenodd">
        <g id="Freeform" transform="translate(9.000000, 2.000000)" fill-rule="nonzero">
            <polygon id="Shape" fill="#000000" points="0 22.5822014 2.04555035 22.5822014 2.04555035 23.4569087 1.11814988 23.4569087 1.11814988 23.7730679 1.93173302 23.7730679 1.93173302 24.5666276 1.11814988 24.5666276 1.11814988 25.6362998 0 25.6362998"></polygon>
            <path d="M2.4175644,22.5822014 L3.75807963,22.5822014 C4.44625293,22.5822014 5.02903981,22.8741218 5.02903981,23.6434426 C5.02903981,24.1050351 4.85093677,24.3 4.43782201,24.4370023 L4.43782201,24.4612412 C4.49473068,24.5065574 5.2882904,25.6362998 5.2882904,25.6362998 L4.00468384,25.6362998 L3.52306792,24.6604215 L3.5030445,24.6604215 L3.5030445,25.6405152 L2.4175644,25.6405152 L2.4175644,22.5822014 Z M3.5030445,23.935363 L3.58313817,23.935363 C3.76545667,23.935363 3.94777518,23.9069087 3.94777518,23.6803279 C3.94777518,23.4537471 3.78126464,23.4168618 3.59051522,23.4168618 L3.50620609,23.4168618 L3.5030445,23.935363 Z" id="Shape" fill="#000000"></path>
            <polygon id="Shape" fill="#000000" points="5.50433255 22.5822014 7.58782201 22.5822014 7.58782201 23.4168618 6.62142857 23.4168618 6.62142857 23.7119438 7.47611241 23.7119438 7.47611241 24.5055035 6.62142857 24.5055035 6.62142857 24.8048009 7.58782201 24.8048009 7.58782201 25.6394614 5.50433255 25.6394614"></polygon>
            <polygon id="Shape" fill="#000000" points="7.96194379 22.5822014 10.047541 22.5822014 10.047541 23.4168618 9.08009368 23.4168618 9.08009368 23.7119438 9.93477752 23.7119438 9.93477752 24.5055035 9.08009368 24.5055035 9.08009368 24.8048009 10.047541 24.8048009 10.047541 25.6394614 7.96194379 25.6394614"></polygon>
            <polygon id="Shape" fill="#000000" points="10.419555 22.5822014 12.4651054 22.5822014 12.4651054 23.4569087 11.5377049 23.4569087 11.5377049 23.7730679 12.3512881 23.7730679 12.3512881 24.5666276 11.5377049 24.5666276 11.5377049 25.6362998 10.419555 25.6362998"></polygon>
            <path d="M16.0250585,24.1176815 C16.0250585,25.0977752 15.2673302,25.6847775 14.3388759,25.6847775 C13.4104215,25.6847775 12.6526932,25.0977752 12.6526932,24.1176815 C12.6526932,23.1576112 13.4135831,22.5368852 14.3388759,22.5368852 C15.2641686,22.5368852 16.0250585,23.1576112 16.0250585,24.1176815 Z M13.7645199,24.1334895 C13.7645199,24.4489514 14.0202523,24.7046838 14.3357143,24.7046838 C14.6511762,24.7046838 14.9069087,24.4489514 14.9069087,24.1334895 C14.9069087,23.8180275 14.6511762,23.5622951 14.3357143,23.5622951 C14.0202523,23.5622951 13.7645199,23.8180275 13.7645199,24.1334895 Z" id="Shape" fill="#000000"></path>
            <path d="M16.3022248,22.5822014 L17.64274,22.5822014 C18.3309133,22.5822014 18.9137002,22.8741218 18.9137002,23.6434426 C18.9137002,24.1050351 18.7355972,24.3 18.3224824,24.4370023 L18.3224824,24.4612412 C18.3793911,24.5065574 19.1729508,25.6362998 19.1729508,25.6362998 L17.8935597,25.6362998 L17.4077283,24.6562061 L17.3887588,24.6562061 L17.3887588,25.6362998 L16.3022248,25.6362998 L16.3022248,22.5822014 Z M17.3887588,23.935363 L17.4667447,23.935363 C17.6480094,23.935363 17.8303279,23.9069087 17.8303279,23.6803279 C17.8303279,23.4537471 17.6648712,23.4168618 17.4741218,23.4168618 L17.3887588,23.4168618 L17.3887588,23.935363 Z" id="Shape" fill="#000000"></path>
            <path d="M19.7631148,22.5822014 L20.9055035,22.5822014 L21.3270492,24.1861827 L21.3555035,24.1861827 L21.7770492,22.5822014 L22.9067916,22.5822014 L23.4094848,25.6384075 L22.3345433,25.6384075 L22.1848946,23.9659251 L22.1648712,23.9659251 C22.1466128,24.068436 22.1223318,24.1697825 22.0921546,24.2694379 L21.6505855,25.6394614 L21.002459,25.6394614 L20.6051522,24.3442623 C20.5711325,24.2197181 20.5482093,24.0924058 20.5366511,23.9638173 L20.5008197,23.9638173 C20.4923888,24.0850117 20.4839578,24.2104215 20.4723653,24.3316159 L20.3395785,25.6362998 L19.2688525,25.6362998 L19.7631148,22.5822014 Z" id="Shape" fill="#000000"></path>
            <circle id="Oval" fill="#007AFF" cx="11.7" cy="10.2562061" r="10.2562061"></circle>
            <path d="M15.8627635,7.65 C16.024459,7.65689346 16.1836276,7.69258148 16.3327869,7.75538642 L16.3327869,5.2176815 C12.1173302,4.51053864 11.979274,6.87224824 11.979274,8.7323185 L10.4216628,8.7323185 C10.4216628,8.28758782 10.4648712,8.03676815 10.6503513,7.82388759 C10.7517791,7.70862748 10.8994812,7.64482945 11.0529274,7.65 C11.214953,7.65697022 11.3744541,7.69265279 11.5240047,7.75538642 L11.5240047,5.2176815 C7.30433255,4.51053864 7.16627635,6.87224824 7.16627635,8.7323185 L6.39063232,8.7323185 L6.39063232,11.3395785 L7.16627635,11.3395785 L7.16627635,15.4422717 L10.4754098,15.4422717 L10.4754098,11.3395785 L11.9803279,11.3395785 L11.9803279,15.4422717 L15.2810304,15.4422717 L15.2810304,11.3395785 L16.2295082,11.3395785 L16.2295082,8.7323185 L15.2230679,8.7323185 C15.2230679,8.28758782 15.2662763,8.03676815 15.4517564,7.82388759 C15.5550699,7.70627644 15.7064115,7.6422473 15.8627635,7.65 Z" id="Shape" fill="#000000"></path>
        </g>
    </g>
</svg>