<?xml version="1.0" encoding="UTF-8"?>
<svg width="42px" height="32px" viewBox="0 0 42 32" version="1.1" xmlns="http://www.w3.org/2000/svg" xmlns:xlink="http://www.w3.org/1999/xlink">
    <!-- Generator: Sketch 46.2 (44496) - http://www.bohemiancoding.com/sketch -->
    <title>FS1HD_Color</title>
    <desc>Created with Sketch.</desc>
    <defs></defs>
    <g id="Domestic" stroke="none" stroke-width="1" fill="none" fill-rule="evenodd">
        <g id="FS1HD" fill-rule="nonzero" fill="#122C57">
            <g id="FS1_Color" transform="translate(0.000000, 5.000000)">
                <path d="M3.58370049,3.58370049 L3.58370049,18.4304545 L8.37077066,18.4304545 L8.37077066,13.4944258 L7.61688693,12.7231528 L13.2709523,12.6459972 L13.2709523,9.40672275 L8.37077066,9.40672275 L8.37077066,6.66874095 L13.4970999,6.66874095 L16.3870839,3.58370049 L3.58370049,3.58370049 Z M18.8370341,3.58370049 L15.6104045,6.88475599 L15.6104045,10.7949832 L17.3744759,12.5997707 L22.2671436,12.5997707 L22.5975818,12.9892509 L22.5975818,14.7926757 L22.1072395,15.2943284 L17.4926134,15.2943284 L15.0552762,17.8393312 L15.0552762,18.4304545 L25.2826284,18.4304545 L27.2615387,16.4058983 L27.2615387,11.2577367 L25.5559203,9.46135637 L20.6463149,9.46135637 L20.2929578,9.099823 L20.2929578,7.1700851 L20.7711873,6.68079895 L26.0365122,6.68079895 L27.2391728,5.45039758 L27.242691,3.58370049 L18.8370341,3.58370049 Z M29.4791768,6.74587596 L29.4791768,8.51978582 L33.3616066,8.51978582 L32.4192707,9.48385775 L32.4192707,18.4304597 L37.8848338,18.4304597 L37.8848338,3.58370564 L32.4946616,3.58370564 L29.4791768,6.74587596 Z" id="Fill-1"></path>
            </g>
        </g>
    </g>
</svg>