<?xml version="1.0" encoding="UTF-8"?>
<svg width="42px" height="32px" viewBox="0 0 42 32" version="1.1" xmlns="http://www.w3.org/2000/svg" xmlns:xlink="http://www.w3.org/1999/xlink">
    <!-- Generator: Sketch 46.2 (44496) - http://www.bohemiancoding.com/sketch -->
    <title>FS2HD_Color</title>
    <desc>Created with Sketch.</desc>
    <defs></defs>
    <g id="Domestic" stroke="none" stroke-width="1" fill="none" fill-rule="evenodd">
        <g id="FS2HD" fill-rule="nonzero" fill="#122C57">
            <g id="FS2_Color" transform="translate(0.000000, 5.000000)">
                <path d="M7.75639506,18.0113964 L3,18.0113964 L3,3.59986751 L15.7577184,3.59986751 L12.6833404,6.6803116 L7.75639506,6.6803116 L7.75639506,9.2365019 L12.6302181,9.2365019 L12.6302181,12.3440385 L6.9852842,12.3440385 L7.75639506,13.1202244 L7.75639506,18.0113964 Z M14.7331867,10.5557386 L14.7331867,6.8172543 L17.9437254,3.59967199 L23.2221161,3.59967199 L26.3540898,3.59967199 L26.3540898,5.5483761 L25.1588401,6.6803954 L19.8742984,6.6803954 L19.4753226,7.0987928 L19.4753226,8.900583 L19.7898621,9.2357479 L24.6133588,9.2357479 L26.396308,11.0165903 L26.396308,15.9611093 L24.3438335,18.0114802 L14.2240523,18.0114802 L14.2240523,17.3972906 L16.7235921,14.8924922 L21.2333882,14.8924922 L21.6527741,14.4735361 L21.6527741,12.6717459 L21.3382347,12.3575289 L16.5158563,12.3575289 L14.7331867,10.5557386 Z M37.2022325,12.7881319 L31.4513337,12.7881319 L32.4013826,13.7313416 L32.4013826,14.9599999 L39,14.9599999 L39,18.0088826 L28.450488,18.0088826 L28.450488,11.4935577 L30.2272861,9.6976329 L34.6937458,9.6976329 L35.0281361,9.3842538 L35.0281361,6.7738784 L34.7356843,6.5023949 L32.7357729,6.5023949 L32.4430415,6.7738784 L32.4430415,8.1103481 L28.4714573,8.1103481 L28.4714573,5.6253803 L30.5200175,3.59986751 L36.8888115,3.59986751 L39,5.6882237 L39,11.0131548 L37.2022325,12.7881319 Z" id="Combined-Shape"></path>
            </g>
        </g>
    </g>
</svg>