<svg id="Layer_1" data-name="Layer 1" xmlns="http://www.w3.org/2000/svg" viewBox="0 0 500 350"><defs><style>.cls-1{fill:#9f00ff;}</style></defs><title>Fuse_FullColor</title><path class="cls-1" d="M195.49,205.46c-.67,10.62-8.67,18.59-19.9,18.59-17.12,0-19.11-14.33-19.11-20.1V144H110.95v-.15c.18-13.71,7.12-18.75,19.49-17.77V101.45C101.33,98.08,85.23,117.58,84.68,144h0v23.68h0v78.81h26.27V167.73h19.27v36.22c0,26.87,16.12,45,40.4,45a33.67,33.67,0,0,0,24.89-10.34l1.18,8h25.08V144H195.49Z"/><path class="cls-1" d="M363.25,225.45c-12.39,0-23.21-9-26.67-22.2h78.76c.18-37.24-19.81-61.82-51.35-61.82-30,0-51.91,24.58-51.91,54.3a54.7,54.7,0,0,0,.35,6.08c-7.64-13.1-26.78-16.25-41.84-18.84l-1.74-.3c-10.27-1.78-16.6-3.47-17-8.25-.24-5.12,2-11.76,15.9-11.76,11.72,0,16.93,4.13,19.09,11.12h25.73c-2-19.35-14.05-32.34-44.09-32.34-32,0-43.72,15.09-43.23,34.27.45,23.05,24.45,26.51,43.61,30.06l1.74.33c11,2.1,19.48,4.44,18.86,11-.49,4.09-5.12,10-19,10-12.5,0-18.53-4.93-20.35-12.28H223.25c1.93,22.41,16.35,34,47.65,34,32.08,0,44.79-17.26,44.89-33.31a52.07,52.07,0,0,0,48.55,33.4c24.09,0,42.69-14.86,48.63-35H386.84C381.61,221.78,375.05,225.45,363.25,225.45Zm.9-63.47c12.27,0,21,7.52,26.11,22H336.42C341.71,169.84,351.7,162,364.15,162Z"/></svg>