<?xml version="1.0" encoding="UTF-8"?>
<svg width="42px" height="32px" viewBox="0 0 42 32" version="1.1" xmlns="http://www.w3.org/2000/svg" xmlns:xlink="http://www.w3.org/1999/xlink">
    <!-- Generator: Sketch 46.2 (44496) - http://www.bohemiancoding.com/sketch -->
    <title>FXHD_Color</title>
    <desc>Created with Sketch.</desc>
    <defs></defs>
    <g id="Domestic" stroke="none" stroke-width="1" fill="none" fill-rule="evenodd">
        <g id="FXHD" fill="#000000">
            <g id="Page-1" transform="translate(5.000000, 7.000000)">
                <path d="M30.5850112,17.0928067 C30.6103266,17.0928067 30.6344539,17.0917146 30.6571189,17.0904405 C30.6799667,17.0886204 30.7001642,17.0839791 30.7178027,17.0761525 C30.7355326,17.0681439 30.7497896,17.0563131 30.7601169,17.040387 C30.7706268,17.0239148 30.7758361,17.0017092 30.7758361,16.9727692 C30.7758361,16.9484704 30.7709924,16.9291771 30.7619447,16.914525 C30.75244,16.900055 30.7400108,16.8890432 30.7252968,16.8813077 C30.7104914,16.8734811 30.6932184,16.8682027 30.6739349,16.8657456 C30.6542858,16.8627423 30.6353678,16.8609222 30.6166326,16.8609222 L30.4670251,16.8609222 L30.4670251,17.0928067 L30.5850112,17.0928067 Z M30.6348194,16.7703708 C30.7217325,16.7703708 30.7854322,16.787844 30.827198,16.8220624 C30.8686897,16.8562809 30.8897097,16.9081546 30.8897097,16.9782295 C30.8897097,17.0430261 30.8711572,17.0908955 30.8346921,17.1214737 C30.7981356,17.1519609 30.75244,17.1699802 30.6979708,17.1752585 L30.9066171,17.4948732 L30.7849753,17.4948732 L30.5869304,17.1834491 L30.4670251,17.1834491 L30.4670251,17.4948732 L30.3531515,17.4948732 L30.3531515,16.7703708 L30.6348194,16.7703708 Z M30.1209263,17.3421644 C30.1471556,17.406506 30.1832552,17.4624749 30.229225,17.5100713 C30.2752862,17.5574857 30.3299381,17.5947983 30.3924498,17.6216452 C30.4550528,17.6487652 30.5230479,17.6622341 30.5962523,17.6622341 C30.66836,17.6622341 30.735624,17.6487652 30.7977701,17.6216452 C30.8600989,17.5947983 30.9141111,17.5574857 30.9599896,17.5100713 C31.0062335,17.4624749 31.0421503,17.406506 31.0683796,17.3421644 C31.0943347,17.2771858 31.1074951,17.2068378 31.1074951,17.1307564 C31.1074951,17.0567681 31.0943347,16.9877852 31.0683796,16.9235347 C31.0421503,16.8595571 31.0062335,16.8039522 30.9599896,16.7571748 C30.9141111,16.7102155 30.8600989,16.6730849 30.7977701,16.646329 C30.735624,16.619209 30.66836,16.6055581 30.5962523,16.6055581 C30.5230479,16.6055581 30.4550528,16.619209 30.3924498,16.646329 C30.3299381,16.6730849 30.2752862,16.7102155 30.229225,16.7571748 C30.1832552,16.8039522 30.1471556,16.8595571 30.1209263,16.9235347 C30.0948798,16.9877852 30.0819936,17.0567681 30.0819936,17.1307564 C30.0819936,17.2068378 30.0948798,17.2771858 30.1209263,17.3421644 L30.1209263,17.3421644 Z M30.0181111,16.8873141 C30.051469,16.8122338 30.0967076,16.7473461 30.1539186,16.6920142 C30.2112209,16.6369553 30.2778451,16.5937272 30.3537913,16.561966 C30.4301944,16.5305687 30.5108015,16.5147336 30.5962523,16.5147336 C30.6819773,16.5147336 30.7623102,16.5305687 30.8378908,16.561966 C30.9136542,16.5937272 30.9797301,16.6369553 31.0363927,16.6920142 C31.0930552,16.7473461 31.1380197,16.8122338 31.1713776,16.8873141 C31.2045526,16.9620304 31.2213686,17.0432082 31.2213686,17.1307564 C31.2213686,17.2200337 31.2045526,17.3023946 31.1713776,17.378385 C31.1380197,17.4538293 31.0930552,17.519354 31.0363927,17.5752319 C30.9797301,17.6308369 30.9136542,17.673974 30.8378908,17.7048251 C30.7623102,17.7360404 30.6819773,17.7512384 30.5962523,17.7512384 C30.5108015,17.7512384 30.4301944,17.7360404 30.3537913,17.7048251 C30.2778451,17.673974 30.2112209,17.6308369 30.1539186,17.5752319 C30.0967076,17.519354 30.051469,17.4538293 30.0181111,17.378385 C29.9848447,17.3023946 29.9681201,17.2200337 29.9681201,17.1307564 C29.9681201,17.0432082 29.9848447,16.9620304 30.0181111,16.8873141 L30.0181111,16.8873141 Z" id="Fill-1"></path>
                <path d="M14.7144878,2.73019392e-05 L18.3036423,2.73019392e-05 L20.5212095,3.43496372 L22.7310923,2.73019392e-05 L29.8055076,2.73019392e-05 L24.0465734,8.89563296 L29.7498503,17.7298155 L22.7222273,17.7298155 L20.5274169,14.3315396 L18.327404,17.7298155 L11.324548,17.7298155 L17.0123138,8.8890237 L14.4979128,4.99591812 L6.20217707,4.99591812 L6.20217707,7.13411498 L12.2974264,7.13411498 L12.2974264,11.9611888 L6.20217707,11.9611888 L6.20217707,17.7269943 L0,17.7269943 L0,2.73019392e-05 L14.7144878,2.73019392e-05 Z" id="Combined-Shape"></path>
            </g>
        </g>
    </g>
</svg>