<?xml version="1.0" encoding="UTF-8"?>
<svg width="34px" height="25px" viewBox="0 0 34 25" version="1.1" xmlns="http://www.w3.org/2000/svg" xmlns:xlink="http://www.w3.org/1999/xlink">
    <!-- Generator: Sketch 46.2 (44496) - http://www.bohemiancoding.com/sketch -->
    <title>Logo / Galavision Color</title>
    <desc>Created with Sketch.</desc>
    <defs></defs>
    <g id="Latino-A-Z" stroke="none" stroke-width="1" fill="none" fill-rule="evenodd">
        <g id="GALAHD" transform="translate(-3.000000, -3.000000)">
            <g id="Logo-/-Galavision-Color" transform="translate(3.000000, 3.000000)">
                <path d="M0.772727273,22.6465626 C0.772727273,21.3401476 1.77085958,20.3166369 3.04571858,20.3166369 C4.08414816,20.3166369 4.87374916,20.8827142 5.17020178,21.8032284 L4.21236674,21.8032284 C3.98946367,21.3847884 3.58480021,21.0954301 3.04571858,21.0954301 C2.27048934,21.0954301 1.66349414,21.8032284 1.66349414,22.6465626 C1.66349414,23.495813 2.27048934,24.2041491 3.04571858,24.2041491 C3.71301879,24.2041491 4.19884038,23.7469846 4.32677716,23.2061858 L3.16745578,23.2061858 L3.16745578,22.4152911 L5.30490174,22.4152911 C5.35928896,23.985248 4.38144618,24.9762194 3.04571858,24.9762194 C1.77085958,24.9762194 0.772727273,23.9529775 0.772727273,22.6465626 Z M9.29771279,24.8992544 L8.45456996,24.8992544 L8.45456996,24.5512715 C8.19136963,24.8285283 7.81404067,24.9705183 7.39641445,24.9705183 C6.47859487,24.9705183 5.73013654,24.1971034 5.73013654,23.2451254 C5.73013654,22.2864245 6.46535032,21.5009082 7.51730625,21.5009082 C8.56306261,21.5009082 9.29771279,22.2864245 9.29771279,23.2451254 L9.29771279,24.8992544 Z M10.9842802,24.8993619 L10.0937952,24.8993619 L10.0937952,20.1109666 L10.9842802,20.1109666 L10.9842802,24.8993619 Z M15.1653049,24.8992544 L14.3224439,24.8992544 L14.3224439,24.5512715 C14.0589617,24.8285283 13.6821964,24.9705183 13.2631611,24.9705183 C12.3464688,24.9705183 11.597165,24.1971034 11.597165,23.2451254 C11.597165,22.2864245 12.3323788,21.5009082 13.3851801,21.5009082 C14.4306547,21.5009082 15.1653049,22.2864245 15.1653049,23.2451254 L15.1653049,24.8992544 Z M17.5122966,24.8993619 L16.5555888,24.8993619 L15.2398689,21.5849189 L16.1712148,21.5849189 L17.0338018,24.0562967 L17.9034337,21.5849189 L18.8206897,21.5849189 L17.5122966,24.8993619 Z M20.1427501,24.8993619 L19.2528286,24.8993619 L19.2528286,21.5849189 L20.1427501,21.5849189 L20.1427501,24.8993619 Z M22.3759513,24.9762463 C21.4913841,24.9762463 20.837892,24.5322588 20.7293994,23.8180064 L21.6334108,23.8180064 C21.7545844,24.1011795 22.1121874,24.204176 22.3759513,24.204176 C22.7329908,24.204176 23.0023907,24.1011795 23.0023907,23.9083636 C23.0023907,23.7211951 22.8809353,23.644015 22.2747855,23.5536577 C21.6534185,23.4638383 20.8235203,23.3027551 20.8235203,22.5626863 C20.8235203,22.0417877 21.3028605,21.5009889 22.3083196,21.5009889 C23.1041201,21.5009889 23.6970254,21.9132437 23.8114358,22.5371389 L22.8874167,22.5371389 C22.833593,22.3827786 22.6383063,22.2604199 22.3083196,22.2604199 C21.8957657,22.2604199 21.7275317,22.4021409 21.7275317,22.5242307 C21.7275317,22.6979533 21.983687,22.7555022 22.4159668,22.8200431 C23.2788356,22.95531 23.8990753,23.1354866 23.8990753,23.8567309 C23.8990753,24.5128965 23.2653092,24.9762463 22.3759513,24.9762463 Z M7.51730625,22.2987948 C7.02528507,22.2987948 6.62653939,22.7048645 6.62653939,23.2510417 C6.62653939,23.7794701 7.02528507,24.1847331 7.51730625,24.1847331 C8.00989103,24.1847331 8.40779132,23.766562 8.40779132,23.2510417 C8.40779132,22.7231511 8.00989103,22.2987948 7.51730625,22.2987948 Z M13.3851801,22.2987948 C12.8923136,22.2987948 12.4946951,22.7048645 12.4946951,23.2510417 C12.4946951,23.7794701 12.8923136,24.1847331 13.3851801,24.1847331 C13.8774831,24.1847331 14.2748198,23.766562 14.2748198,23.2510417 C14.2748198,22.7231511 13.8774831,22.2987948 13.3851801,22.2987948 Z M25.4236647,24.8993619 L24.5331796,24.8993619 L24.5331796,21.5849189 L25.4236647,21.5849189 L25.4236647,24.8993619 Z M28.1492253,21.1531673 L27.4943242,21.1531673 L28.1218908,20.2455612 L29.1194595,20.2455612 L28.1492253,21.1531673 Z M29.5449761,23.2450986 C29.5449761,24.2363389 28.7550933,24.9761387 27.7902133,24.9761387 C26.8264604,24.9761387 26.0447498,24.2363389 26.0447498,23.2450986 C26.0447498,22.2535893 26.8264604,21.5008813 27.7902133,21.5008813 C28.7550933,21.5008813 29.5449761,22.2535893 29.5449761,23.2450986 Z M28.6477278,23.2510148 C28.6477278,22.6790213 28.2630721,22.2796746 27.7902133,22.2796746 C27.3187634,22.2796746 26.9346713,22.6790213 26.9346713,23.2510148 C26.9346713,23.8114448 27.3187634,24.1970765 27.7902133,24.1970765 C28.2630721,24.1970765 28.6477278,23.8114448 28.6477278,23.2510148 Z M31.6826475,21.500962 C32.6540089,21.500962 33.2266246,22.1130247 33.2266246,22.9813684 L33.2266246,24.8993082 L32.3364213,24.8993082 L32.3364213,22.9620061 C32.3364213,22.7748376 32.2690713,22.3305812 31.6826475,22.3305812 C31.2909468,22.3305812 31.0080205,22.5884758 31.0080205,22.9620061 L31.0080205,24.8993082 L30.118099,24.8993082 L30.118099,22.9813684 C30.118099,22.1380342 30.738057,21.500962 31.6826475,21.500962 Z M25.0604257,17.8824507 L24.9054362,17.8824507 C24.9054362,17.8149517 24.8465402,17.7643947 24.7473469,17.7643947 C24.6650616,17.7643947 24.5884122,17.7945138 24.5884122,17.854483 C24.5884122,17.9082671 24.643363,17.9273604 24.7684818,17.95237 C24.9629232,17.9892121 25.085224,18.0351975 25.085224,18.1946672 C25.085224,18.3452626 24.9536238,18.4396537 24.7473469,18.4396537 C24.5875668,18.4396537 24.4131332,18.3554816 24.4131332,18.1677752 L24.5681227,18.1677752 C24.5681227,18.259746 24.6650616,18.30358 24.7473469,18.30358 C24.8366772,18.30358 24.9299527,18.2734609 24.9299527,18.1992389 C24.9299527,18.1500265 24.887401,18.1193696 24.7369203,18.0916708 C24.5864396,18.0634341 24.4331409,18.0206758 24.4331409,17.8531384 C24.4331409,17.719485 24.5565689,17.6261697 24.7473469,17.6261697 C24.9629232,17.6261697 25.0604257,17.7587474 25.0604257,17.8824507 Z M26.0110466,18.4259656 L25.8580297,18.4259656 L25.8580297,17.8545099 L25.6917683,18.4259656 L25.5255068,18.4259656 L25.3595272,17.8545099 L25.3595272,18.4259656 L25.2067921,18.4259656 L25.2067921,17.6463656 L25.4373037,17.6463656 L25.608074,18.2304605 L25.7785624,17.6463656 L26.0110466,17.6463656 L26.0110466,18.4259656 Z" id="Combined-Shape" fill="#000000"></path>
                <path d="M25.247033,8.13661676 C25.247033,8.13661676 26.932755,10.4326585 25.1915186,14.2647732 C25.1915186,14.2647732 23.4964972,18.2458697 18.4153781,17.4896657 L18.4291863,17.4837495 C17.7449781,17.42136 17.0218817,17.1895506 16.2815955,16.702267 L16.1931106,16.658433 C16.1931106,16.658433 19.6285231,16.5729163 20.3034319,12.8238981 C20.3034319,12.8238981 20.9264896,10.2046141 18.2919501,8.62524499 L18.3080127,8.60857193 L24.1795781,7.64933312 L24.1795781,7.64852636 L24.1908501,7.6490642 L24.2043764,7.64852636 C24.2043764,7.64852636 24.2060672,7.65094665 24.206349,7.65175341 L25.247033,8.13661676 Z M19.919537,18.2539642 C20.0249299,18.2504682 20.2343066,18.2590737 20.2343066,18.2526196 L20.2343066,18.2531574 C20.2343066,18.2649899 18.9033696,19.6257268 15.5891307,19.4458191 C12.0790414,19.2352545 10.1318099,16.3666813 9.80125955,15.5905773 C9.80125955,15.5905773 7.81513969,12.1462457 9.32220113,7.77037416 C9.32220113,7.77037416 10.088131,4.8894307 12.8579341,2.6799813 C12.8579341,2.6799813 16.0073205,-0.0170206595 19.9525075,0.951899278 L19.9525075,0.970992621 L21.1236644,1.64571372 L19.0594862,6.97786596 L19.0155256,6.9585037 C18.5708467,6.91332508 14.815874,6.67129679 13.5376334,11.2553127 C13.5376334,11.2553127 12.2875728,16.6116677 18.4059942,18.2251897 L18.4121938,18.2251897 C18.4121938,18.2251897 19.1778419,18.2789738 19.919537,18.2539642 Z" id="Combined-Shape" fill="#E95018"></path>
            </g>
        </g>
    </g>
</svg>