<?xml version="1.0" encoding="UTF-8"?>
<svg width="42px" height="32px" viewBox="0 0 42 32" version="1.1" xmlns="http://www.w3.org/2000/svg" xmlns:xlink="http://www.w3.org/1999/xlink">
    <!-- Generator: Sketch 46.2 (44496) - http://www.bohemiancoding.com/sketch -->
    <title>HGTVD_Color</title>
    <desc>Created with Sketch.</desc>
    <defs></defs>
    <g id="Domestic" stroke="none" stroke-width="1" fill="none" fill-rule="evenodd">
        <g id="HGTVD" fill="#000000">
            <g id="Logo-/-HGTV-Color" transform="translate(3.000000, 7.000000)">
                <polygon id="Fill-1" points="12.7007443 0.0653871412 0.818226773 7.77575486 24.5832617 7.77575486"></polygon>
                <polygon id="Fill-11" points="0.821913087 8.39014424 3.83457542 8.39014424 3.83457542 11.5684775 6.66404595 11.5684775 6.66404595 8.39014424 9.67715784 8.39014424 9.67715784 17.4032107 6.66404595 17.4032107 6.66404595 14.1673592 3.83457542 14.1673592 3.83457542 17.4032107 0.821913087 17.4032107"></polygon>
                <path d="M10.0657717,12.919505 L10.0657717,12.8936667 C10.0657717,10.2044634 12.1896728,8.19671662 15.0351024,8.19671662 C16.5797577,8.19671662 17.9140235,8.7116848 18.89247,9.5605285 L17.2057567,11.5938889 C16.6139236,11.0926262 15.9575799,10.8944578 15.2108766,10.8944578 C14.0393482,10.8944578 13.2751124,11.7100488 13.2751124,12.9320871 L13.2751124,12.9579254 C13.2751124,14.2327637 14.2173701,15.0222917 15.3394481,15.0222917 C15.8541833,15.0222917 16.1376249,14.9014135 16.3691434,14.7733455 L16.3691434,14.1682804 L14.8242632,14.1682804 L14.8242632,12.0697626 L19.1889486,12.0697626 L19.1889486,16.2393871 C18.210502,17.037453 16.7602522,17.5906169 15.1252373,17.5906169 C12.3182443,17.5906169 10.0657717,15.7120615 10.0657717,12.919505" id="Fill-13"></path>
                <polygon id="Fill-16" points="31.8426923 8.39014424 30.0921429 13.4535486 28.3415934 8.39014424 19.2044805 8.39014424 19.2044805 10.9166788 21.5992358 10.9166788 21.5992358 17.4020873 24.6103247 17.4020873 24.6103247 10.9166788 25.9967383 10.9166788 28.6254845 17.4020873 31.5075524 17.4020873 35.1626224 8.39014424"></polygon>
            </g>
        </g>
    </g>
</svg>