<?xml version="1.0" encoding="UTF-8"?>
<svg width="42px" height="32px" viewBox="0 0 42 32" version="1.1" xmlns="http://www.w3.org/2000/svg" xmlns:xlink="http://www.w3.org/1999/xlink">
    <!-- Generator: Sketch 46.2 (44496) - http://www.bohemiancoding.com/sketch -->
    <title>HISSTR_Color</title>
    <desc>Created with Sketch.</desc>
    <defs>
        <linearGradient x1="50%" y1="0%" x2="50%" y2="100%" id="linearGradient-1">
            <stop stop-color="#CD8234" offset="0%"></stop>
            <stop stop-color="#CA7633" offset="9.78257711%"></stop>
            <stop stop-color="#F2D769" offset="12.9009435%"></stop>
            <stop stop-color="#F5C759" offset="87.3246173%"></stop>
            <stop stop-color="#F4F1A2" offset="88.677854%"></stop>
            <stop stop-color="#E4B461" offset="100%"></stop>
        </linearGradient>
        <linearGradient x1="26.68635%" y1="50%" x2="100%" y2="1.11022302e-14%" id="linearGradient-2">
            <stop stop-color="#D2904A" offset="0%"></stop>
            <stop stop-color="#F8E772" offset="49.7025568%"></stop>
            <stop stop-color="#F4DB83" offset="100%"></stop>
        </linearGradient>
        <linearGradient x1="50%" y1="0%" x2="50%" y2="100%" id="linearGradient-3">
            <stop stop-color="#B26830" offset="0%"></stop>
            <stop stop-color="#914927" offset="12.8386485%"></stop>
            <stop stop-color="#B76D31" offset="86.9060906%"></stop>
            <stop stop-color="#D79737" offset="90.3539541%"></stop>
            <stop stop-color="#DD9337" offset="100%"></stop>
        </linearGradient>
        <linearGradient x1="-1.11022302e-14%" y1="50%" x2="100%" y2="50%" id="linearGradient-4">
            <stop stop-color="#985029" offset="0%"></stop>
            <stop stop-color="#C47433" offset="50.2451371%"></stop>
            <stop stop-color="#8F4A26" offset="100%"></stop>
        </linearGradient>
        <linearGradient x1="50%" y1="0%" x2="50%" y2="100%" id="linearGradient-5">
            <stop stop-color="#CB7C34" offset="0%"></stop>
            <stop stop-color="#B36430" offset="26.0084503%"></stop>
            <stop stop-color="#CC7933" offset="31.269415%"></stop>
            <stop stop-color="#C27232" offset="100%"></stop>
        </linearGradient>
        <linearGradient x1="50%" y1="0%" x2="50%" y2="91.400271%" id="linearGradient-6">
            <stop stop-color="#F7AD4F" offset="0%"></stop>
            <stop stop-color="#D68035" offset="21.2108722%"></stop>
            <stop stop-color="#BB6830" offset="84.5125159%"></stop>
            <stop stop-color="#E7B83F" offset="100%"></stop>
        </linearGradient>
        <linearGradient x1="50%" y1="0%" x2="50%" y2="100%" id="linearGradient-7">
            <stop stop-color="#C46B32" offset="0%"></stop>
            <stop stop-color="#EBAE4C" offset="22.4111129%"></stop>
            <stop stop-color="#F9EB82" offset="27.5968591%"></stop>
            <stop stop-color="#F5D853" offset="100%"></stop>
        </linearGradient>
        <linearGradient x1="50%" y1="0%" x2="50%" y2="100%" id="linearGradient-8">
            <stop stop-color="#F6EE72" offset="0%"></stop>
            <stop stop-color="#EAAF4E" offset="77.0192268%"></stop>
            <stop stop-color="#F6CD72" offset="80.3910236%"></stop>
            <stop stop-color="#FBD755" offset="90.0450415%"></stop>
            <stop stop-color="#F3C870" offset="100%"></stop>
        </linearGradient>
        <linearGradient x1="5.1730992%" y1="0%" x2="91.7754667%" y2="0%" id="linearGradient-9">
            <stop stop-color="#E19236" offset="0%"></stop>
            <stop stop-color="#BC6B31" offset="100%"></stop>
        </linearGradient>
        <linearGradient x1="16.5814596%" y1="0%" x2="100%" y2="100%" id="linearGradient-10">
            <stop stop-color="#ECA63C" offset="0%"></stop>
            <stop stop-color="#F6E955" offset="34.24147%"></stop>
            <stop stop-color="#E98833" offset="69.1745057%"></stop>
            <stop stop-color="#CB7231" offset="100%"></stop>
        </linearGradient>
    </defs>
    <g id="Domestic" stroke="none" stroke-width="1" fill="none" fill-rule="evenodd">
        <g id="HISSTR">
            <g id="Group" transform="translate(9.000000, 3.000000)">
                <polygon id="Fill-8" fill="url(#linearGradient-1)" points="16.7693611 2.40685629 16.7678774 16.6328451 21.1601495 18.6828666 19.1502272 16.6499812 19.1472597 2.40805883 21.160743 0.346913878"></polygon>
                <polygon id="Fill-10" fill="url(#linearGradient-2)" points="12.4346595 0.346913878 16.7693611 2.40685629 21.160743 0.346913878"></polygon>
                <polygon id="Fill-12" fill="url(#linearGradient-3)" points="2.26070797 0.345711343 4.29169982 2.40805883 4.29110631 16.627133 2.26278526 18.6843697 6.64645147 16.6328451 6.64763849 2.40685629"></polygon>
                <polygon id="Fill-14" fill="url(#linearGradient-2)" points="6.64763849 2.40685629 11.0155767 0.347815779 2.26189499 0.345711343"></polygon>
                <path d="M6.64645147,16.6328451 L6.64704498,16.6331457 L6.64793525,16.6328451 L6.64645147,16.6328451 Z M2.26278526,18.6843697 L11.0158734,18.6837685 L6.64704498,16.6331457 L2.26278526,18.6843697 Z" id="Fill-16" fill="url(#linearGradient-4)"></path>
                <polygon id="Fill-19" fill="url(#linearGradient-5)" points="14.4579357 2.40625502 14.4579357 6.34606024 16.7696579 8.09274229 16.7693611 2.40685629 12.4346595 0.346913878"></polygon>
                <polygon id="Fill-21" fill="url(#linearGradient-6)" points="14.4603098 10.3345681 14.4558585 16.6286362 12.4337693 18.681664 16.7678774 16.6364527 16.7696579 8.09274229"></polygon>
                <polygon id="Fill-23" fill="url(#linearGradient-4)" points="12.4337693 18.681664 21.1601495 18.6828666 16.7678774 16.6328451"></polygon>
                <polygon id="Fill-25" fill="url(#linearGradient-7)" points="6.64763849 2.40685629 6.64763849 8.09304293 8.98903616 6.34575961 8.98903616 2.40234679 11.0155767 0.347815779"></polygon>
                <polygon id="Fill-27" fill="url(#linearGradient-8)" points="6.64615471 16.6328451 11.0158734 18.6837685 8.98873941 16.6331457 8.98903616 10.3351694 6.64763849 8.09304293"></polygon>
                <polygon id="Fill-29" fill="url(#linearGradient-9)" points="6.64763849 8.09304293 8.98903616 10.3351694 14.4603098 10.3345681 16.7696579 8.09274229"></polygon>
                <polygon id="Fill-31" fill="url(#linearGradient-10)" points="16.7695689 8.09262204 14.4581435 6.34533872 8.98894714 6.34563935 6.64754946 8.09292267"></polygon>
                <polygon id="Fill-1" fill="#000000" points="2.24708303 21.3489736 2.24708303 22.6950203 1.16633054 22.6950203 1.16633054 21.3489736 0.0855780526 21.3489736 0.0855780526 24.8973083 1.16633054 24.8973083 1.16633054 23.4696955 2.24708303 23.4696955 2.24708303 24.8973083 3.32783551 24.8973083 3.32783551 21.3489736"></polygon>
                <polygon id="Fill-2" fill="#000000" points="4.06189076 24.8971452 5.14264325 24.8971452 5.14264325 21.3488105 4.06189076 21.3488105"></polygon>
                <path d="M8.11981048,22.3278091 C7.91589491,22.103502 7.65080468,22.0219358 7.32453978,22.0219358 C7.05944955,22.0219358 6.87592554,22.103502 6.87592554,22.2666344 C6.87592554,22.837598 8.95586429,22.3278091 8.95586429,23.7756096 C8.95586429,24.3669647 8.44607538,24.9583199 7.34493134,24.9583199 C6.67200998,24.9583199 6.06026328,24.815579 5.67282371,24.265007 L6.32535352,23.7960012 C6.57005219,24.0610914 6.8963171,24.2242238 7.28375667,24.2242238 C7.71197935,24.2242238 7.8751118,24.0610914 7.8751118,23.9183505 C7.8751118,23.3677785 5.81556461,23.7960012 5.81556461,22.4501584 C5.81556461,21.7568455 6.4273113,21.2674482 7.34493134,21.2674482 C7.8751118,21.2674482 8.42568382,21.4101891 8.75194872,21.8180202 L8.11981048,22.3278091 Z" id="Fill-3" fill="#000000"></path>
                <polygon id="Fill-5" fill="#000000" points="10.1385746 22.103502 9.09860518 22.103502 9.09860518 21.3490144 12.279688 21.3490144 12.279688 22.103502 11.2397186 22.103502 11.2397186 24.8971452 10.1589661 24.8971452 10.1589661 22.103502"></polygon>
                <path d="M13.5439645,23.1230798 C13.5439645,24.081483 13.8498378,24.265007 14.2168858,24.265007 C14.5839338,24.265007 14.8898072,24.081483 14.8898072,23.1230798 C14.8898072,22.2258513 14.6451085,21.9811526 14.2168858,21.9811526 C13.7682716,21.9811526 13.5439645,22.2666344 13.5439645,23.1230798 M14.2168858,24.9787114 C13.0953502,24.9787114 12.4020373,24.265007 12.4020373,23.1230798 C12.4020373,21.9811526 13.0953502,21.2674482 14.2168858,21.2674482 C15.3384214,21.2674482 16.0317343,21.9811526 16.0317343,23.1230798 C16.0317343,24.265007 15.3384214,24.9787114 14.2168858,24.9787114" id="Fill-7" fill="#000000"></path>
                <path d="M17.5611011,22.7764233 L18.1320647,22.7764233 C18.437938,22.7764233 18.6622451,22.654074 18.6622451,22.4093753 C18.6622451,22.1850682 18.4991127,22.0219358 18.1728478,22.0219358 L17.5611011,22.0219358 L17.5611011,22.7764233 Z M16.4803486,21.3490144 L18.2951971,21.3490144 C19.5594736,21.3490144 19.8041723,21.919978 19.8041723,22.3685922 C19.8041723,22.8172065 19.4982989,23.1026882 19.0904678,23.2658207 L19.8041723,24.8971452 L18.6010704,24.8971452 L18.07089,23.4289531 L17.5814926,23.4289531 L17.5814926,24.8971452 L16.5007401,24.8971452 L16.5007401,21.3490144 L16.4803486,21.3490144 Z" id="Fill-9" fill="#000000"></path>
                <polygon id="Fill-11" fill="#000000" points="21.150015 23.38817 19.7633892 21.3490144 20.9868825 21.3490144 21.7821532 22.5521162 22.5366408 21.3490144 23.5154355 21.3490144 22.2103759 23.3066038 22.2103759 24.8971452 21.1296234 24.8971452 21.1296234 23.38817"></polygon>
                <polygon id="Fill-13" fill="#E43332" points="23.1076044 20.4721775 22.1492013 19.4933828 1.4721631 19.4933828 0.513759953 20.4721775"></polygon>
                <path d="M23.4134777,24.632055 C23.4134777,24.7544043 23.31152,24.8563621 23.1891706,24.8563621 C23.0668213,24.8563621 22.9648635,24.7544043 22.9648635,24.632055 C22.9648635,24.5097056 23.0668213,24.4077479 23.1891706,24.4077479 C23.3319115,24.3873563 23.4134777,24.4893141 23.4134777,24.632055 M23.1891706,24.3465732 C23.0260382,24.3465732 22.9036888,24.4689225 22.9036888,24.632055 C22.9036888,24.7747959 23.0260382,24.9175368 23.1891706,24.9175368 C23.3523031,24.9175368 23.4746524,24.7951874 23.4746524,24.632055 C23.4746524,24.4689225 23.3523031,24.3465732 23.1891706,24.3465732" id="Fill-17" fill="#000000"></path>
                <path d="M23.2926277,24.6785999 L23.1958535,24.6785999 L23.1958535,24.5587843 L23.2926277,24.5587843 C23.3571439,24.5587843 23.3894019,24.5887382 23.3894019,24.6186921 C23.3894019,24.648646 23.3571439,24.6785999 23.2926277,24.6785999 L23.2926277,24.6785999 Z M23.3894019,24.7385078 C23.4539181,24.7085539 23.4861761,24.6785999 23.4861761,24.6186921 C23.4861761,24.5288304 23.42166,24.4689225 23.2926277,24.4689225 L23.0668213,24.4689225 L23.0668213,24.8882774 L23.1635955,24.8882774 L23.1635955,24.7684617 L23.2281116,24.7684617 L23.3248858,24.8882774 L23.4539181,24.8882774 L23.3894019,24.7385078 Z" id="Fill-19" fill="#000000"></path>
            </g>
        </g>
    </g>
</svg>