<?xml version="1.0" encoding="UTF-8"?>
<svg width="42px" height="32px" viewBox="0 0 42 32" version="1.1" xmlns="http://www.w3.org/2000/svg" xmlns:xlink="http://www.w3.org/1999/xlink">
    <!-- Generator: Sketch 46.2 (44496) - http://www.bohemiancoding.com/sketch -->
    <title>IFCSTR_Color</title>
    <desc>Created with Sketch.</desc>
    <defs></defs>
    <g id="Domestic" stroke="none" stroke-width="1" fill="none" fill-rule="evenodd">
        <g id="IFCSTR" fill="#000000">
            <g id="Logo-/-IFC-White" transform="translate(3.000000, 5.000000)">
                <path d="M32.5310641,10.5531978 C31.4186514,12.7719745 29.215492,14.8404344 26.3190281,15.418905 C22.2352094,16.2338932 19.1036187,13.9887575 19.0031038,9.44897432 L19.0023934,9.40801119 C18.9054303,4.60392674 21.8242702,1.32260206 26.0192592,0.491941058 C28.6983551,-0.0384424036 30.837938,0.911902174 32.0302653,2.52193122 C32.1812153,2.72460965 32.1641668,2.83895021 32.0483793,2.93654932 C31.9322366,3.03379222 28.4635835,5.92293947 28.3218681,6.03478662 C28.1797975,6.14698998 28.0611685,6.07076294 28.0114438,6.02552539 C27.5330212,5.58205501 27.0158843,5.42247691 26.254386,5.57350618 C25.0251203,5.81607914 23.9659842,7.16999958 24.0032777,8.50183555 L24.0043432,8.52819444 C24.0427023,9.89956873 25.1611529,10.5596094 26.3911289,10.3156116 C27.2446179,10.1471285 27.7638859,9.68299845 28.2433741,9.00336672 C28.2778262,8.95492337 28.3360751,8.85055645 28.5076253,8.90541142 C28.6784652,8.96097879 32.3580931,10.0424054 32.5388779,10.1079464 C32.7200179,10.1738436 32.5960613,10.4238968 32.5310641,10.5531978 L32.5310641,10.5531978 Z M18.0487447,6.78423377 C18.0487447,6.89073791 17.9702507,6.97907578 17.8679599,6.99439243 L17.8679599,6.99474863 L13.5319659,7.70643846 L13.5326762,7.70821947 C13.4726514,7.70821947 13.4239922,7.75701902 13.4239922,7.81686081 L13.4236371,7.81650461 L13.4236371,9.6327741 L13.4239922,9.6324179 C13.4239922,9.69261588 13.4726514,9.74105924 13.5326762,9.74105924 L13.5319659,9.74248404 C13.5319659,9.74248404 17.1888625,9.14086036 17.2052006,9.14086036 C17.3224089,9.14086036 17.4175961,9.23596605 17.4175961,9.35386862 L17.4175961,13.5712898 C17.4175961,13.6770816 17.3405229,13.764707 17.2392976,13.7810923 L13.5319659,14.388059 L13.5326762,14.38984 C13.4786894,14.38984 13.4342924,14.4293783 13.4257681,14.4810275 L13.4257681,17.1300952 C13.4257681,17.2408737 13.3415913,17.331705 13.2336177,17.3420348 C13.2336177,17.3420348 8.47460854,18.1249649 8.45152207,18.1249649 C8.33395867,18.1249649 8.23877138,18.029503 8.23877138,17.9119566 L8.23877138,4.03578596 C8.23877138,3.93070663 8.31513432,3.84343736 8.4149389,3.8263397 L17.7915969,2.28826329 C17.8061592,2.28505748 17.8210766,2.28363267 17.8363492,2.28363267 C17.9535574,2.28363267 18.0487447,2.37873837 18.0487447,2.49664094 L18.0487447,6.78423377 Z M6.3570466,18.288105 C6.3570466,18.3921157 6.28245955,18.4786726 6.18407567,18.4971951 L6.18407567,18.4971951 L1.29613749,19.2986476 C1.28157526,19.3018534 1.26630267,19.3036344 1.25103008,19.3036344 C1.13666327,19.3036344 1.04396222,19.2131593 1.03898975,19.0995312 L1.03863457,5.21837367 C1.03863457,5.11329434 1.11428716,5.02673747 1.21338138,5.00892741 L1.21373656,5.00892741 L6.10913344,4.20355669 C6.12085427,4.20177568 6.13257509,4.20035088 6.14465109,4.20035088 C6.26185931,4.20035088 6.3570466,4.29581278 6.3570466,4.41335914 L6.3570466,18.288105 Z M35.4697939,12.1749815 L32.7097178,9.9836322 C32.7097178,9.9836322 32.7072316,9.98220739 32.7036798,9.98007018 C32.6742002,9.95620471 32.639748,9.93625745 32.601389,9.9223656 C32.4955464,9.88389588 28.6312267,8.7394217 28.5640984,8.71733723 C28.3651996,8.65428963 28.2043047,8.709857 28.0860309,8.88225835 L28.0803481,8.89009477 C27.5617905,9.62458147 27.0609917,9.98185119 26.3517043,10.1221944 C26.3747908,9.91844739 26.4039153,9.76349991 26.4039153,9.76349991 C26.6092073,8.53674326 27.5759975,7.55469679 28.6152438,7.34988114 C29.2414199,7.22556695 29.7013733,7.31497343 30.111247,7.59530371 C30.1162194,7.59957813 30.3712361,7.80047556 30.3723016,7.80154416 C30.4220263,7.8471379 30.5406553,7.92336494 30.6827259,7.81116159 L34.7193061,4.60642015 L34.7189509,4.60606395 C34.7651239,4.56759423 34.7946035,4.50988965 34.7946035,4.44470484 C34.7946035,4.3987549 34.7793309,4.35636697 34.7544686,4.32145926 L34.7544686,4.32145926 L34.7182406,4.2726597 C34.3751401,3.80959825 33.1749989,2.8995044 31.7855487,1.8455053 C31.6360194,1.73223334 31.4836487,1.61682418 31.3302125,1.49999022 C30.7065227,0.974949771 29.9556797,0.584909549 29.1405497,0.366558265 C28.1517385,0.101188434 27.0826575,0.0794601658 25.9620758,0.30101726 C23.812548,0.726677594 22.0054102,1.77675848 20.7356545,3.33763177 C20.5815079,3.52713077 20.4365959,3.72339758 20.3002081,3.92571982 L18.0732519,2.1650177 L18.0732519,2.1653739 C18.0047028,2.11408094 17.920526,2.08344764 17.8285353,2.08344764 C17.8029626,2.08344764 17.7759692,2.08629725 17.7493309,2.09128407 L8.3787109,3.62864809 C8.37800055,3.62864809 8.37729019,3.62900429 8.37693502,3.62900429 C8.17910174,3.66319959 8.03561046,3.83381993 8.03561046,4.03471736 L8.03561046,5.38578819 L6.39576083,4.08885993 L6.39540565,4.08921613 C6.3254359,4.03364875 6.23699696,3.99980965 6.14074415,3.99980965 C6.11943356,3.99980965 6.09741262,4.00194686 6.0750365,4.00550887 C6.06935368,4.00622127 1.17928444,4.81052339 1.17928444,4.81052339 C1.17218091,4.81159199 1.16543256,4.813373 1.15868421,4.815154 C0.971861402,4.85718573 0.837959884,5.02317545 0.837959884,5.21659266 C0.837959884,5.21659266 0.838315061,19.099175 0.838315061,19.1023808 C0.843642707,19.2199271 0.89727435,19.3239379 0.979675284,19.3955343 L3.59412906,21.4764612 L3.59448424,21.4764612 C3.63035706,21.5046011 3.67510929,21.5216987 3.72412364,21.5216987 C3.73904105,21.5216987 9.8832383,20.5129372 9.8832383,20.5129372 C9.98304288,20.4954833 10.0586955,20.4082141 10.0586955,20.3031347 L10.0586955,19.4578695 L11.0578068,20.2543352 L11.058162,20.2543352 C11.1295524,20.310615 11.2069809,20.2974355 11.2069809,20.2974355 L16.0281459,19.506669 C16.1293712,19.4902838 16.2064445,19.4026583 16.2064445,19.2968666 L16.2064445,16.5908067 C16.2089307,16.5441443 16.2408966,16.5053184 16.2842281,16.4924952 L20.6369154,15.7775995 L20.6369154,15.7775995 C20.7374303,15.7608581 20.8141484,15.6735888 20.8141484,15.5677971 L20.8141484,14.4885077 C22.4753087,16.1031674 24.885536,17.2177207 24.887667,17.2180769 C26.0657873,17.7826556 27.5095795,17.9304791 29.0986389,17.6138163 C31.965268,17.0414011 34.2146004,14.9323343 35.339089,12.7381354 L35.3422856,12.7370668 C35.369279,12.6857739 35.3930758,12.6351933 35.4190037,12.5839003 C35.4776078,12.466354 35.5834504,12.26795 35.4697939,12.1749815 L35.4697939,12.1749815 Z" id="Fill-1"></path>
            </g>
        </g>
    </g>
</svg>