<?xml version="1.0" encoding="UTF-8"?>
<svg width="42px" height="32px" viewBox="0 0 42 32" version="1.1" xmlns="http://www.w3.org/2000/svg" xmlns:xlink="http://www.w3.org/1999/xlink">
    <!-- Generator: Sketch 46.2 (44496) - http://www.bohemiancoding.com/sketch -->
    <title>LIFESTR_Color</title>
    <desc>Created with Sketch.</desc>
    <defs></defs>
    <g id="Domestic" stroke="none" stroke-width="1" fill="none" fill-rule="evenodd">
        <g id="LIFESTR">
            <g id="Logo-/-Lifetime-Color" transform="translate(8.000000, 3.000000)">
                <path d="M12.9996611,0.611478631 C6.15209536,0.605940519 0.596438937,6.15256651 0.59092149,13.0001323 C0.585404042,19.8477187 6.13188538,25.4033544 12.9795751,25.4088719 C19.8271615,25.41441 25.3827973,19.867784 25.3883147,13.0202182 C25.3938322,6.17263184 19.8472268,0.616996079 12.9996611,0.611478631" id="Fill-1" fill="#EE3749"></path>
                <polygon id="Fill-3" fill="#FEFEFE" points="3.12621965 11.3769467 2.49338701 11.3763888 2.49067995 14.6270126 4.57220421 14.6286038 4.57263817 14.023627 3.12407053 14.0224905"></polygon>
                <polygon id="Fill-5" fill="#FEFEFE" points="5.30147233 14.6292506 5.94308742 14.6298086 5.94581515 11.3791847 5.3040554 11.3787301"></polygon>
                <polygon id="Fill-7" fill="#FEFEFE" points="6.7136682 14.6304016 7.3509024 14.6308562 7.35191496 13.3656456 8.61282739 13.3665342 8.61328201 12.7842265 7.34807135 12.7832139 7.34864996 11.9807869 8.76979567 11.9820268 8.77025029 11.3814516 6.71625128 11.3797571"></polygon>
                <polygon id="Fill-9" fill="#FEFEFE" points="9.49695187 14.6326603 11.5326834 14.6343548 11.5331173 14.0381605 10.1303218 14.0370446 10.1309004 13.2851425 11.4006159 13.2861344 11.4010912 12.7224455 10.131355 12.721309 10.1319336 11.9785407 11.5348118 11.9797805 11.5352665 11.3837102 9.49953494 11.3820157"></polygon>
                <polygon id="Fill-11" fill="#FEFEFE" points="12.2228003 11.9848082 13.2495209 11.9855935 13.2473718 14.6357662 13.8847093 14.6362208 13.8868377 11.9861514 14.9139922 11.9870607 14.9144675 11.3863822 12.2232343 11.384233"></polygon>
                <polygon id="Fill-13" fill="#FEFEFE" points="15.6410162 14.6376156 16.2827553 14.6381736 16.285359 11.3875497 15.6436199 11.3870951"></polygon>
                <polygon id="Fill-15" fill="#FEFEFE" points="18.8648753 13.7369388 17.8903742 11.3888619 17.055917 11.38818 17.0533133 14.6388245 17.6585174 14.6392791 17.6603359 12.3790474 18.5936731 14.6400644 19.1208476 14.640519 20.0582351 12.3625778 20.0564373 14.6412009 20.6795576 14.6416349 20.6822646 11.3911144 19.8205302 11.3904324"></polygon>
                <polygon id="Fill-17" fill="#FEFEFE" points="23.4880334 11.9894288 23.4884674 11.3933585 21.4527566 11.391788 21.4501735 14.6423086 23.4858843 14.6440031 23.486339 14.0478088 22.0834401 14.0467962 22.084122 13.2947702 23.3537342 13.2958034 23.3542922 12.7320938 22.0845766 12.7310813 22.0851346 11.9882923"></polygon>
                <path d="M24.3742905,14.0475133 L24.4624664,14.0475133 L24.6687817,14.3739932 L24.8732786,14.0475133 L24.9595533,14.0475133 L24.9595533,14.6424884 L24.87892,14.6424884 L24.87892,14.186586 L24.6725633,14.5092017 L24.6613011,14.5092017 L24.4568249,14.186586 L24.4568249,14.6424884 L24.3742905,14.6424884 L24.3742905,14.0475133 Z M23.9784808,14.1286425 L23.7927681,14.1286425 L23.7927681,14.0475133 L24.2467486,14.0475133 L24.2467486,14.1286425 L24.0610152,14.1286425 L24.0610152,14.6424884 L23.9784808,14.6424884 L23.9784808,14.1286425 Z" id="Fill-19" fill="#FEFEFE"></path>
            </g>
        </g>
    </g>
</svg>