<?xml version="1.0" encoding="UTF-8"?>
<svg width="42px" height="32px" viewBox="0 0 42 32" version="1.1" xmlns="http://www.w3.org/2000/svg" xmlns:xlink="http://www.w3.org/1999/xlink">
    <!-- Generator: Sketch 46.2 (44496) - http://www.bohemiancoding.com/sketch -->
    <title>LONOW_Color</title>
    <desc>Created with Sketch.</desc>
    <defs></defs>
    <g id="Domestic" stroke="none" stroke-width="1" fill="none" fill-rule="evenodd">
        <g id="LONOW" fill="#000000">
            <g id="Logo-/-Local-Now" transform="translate(6.000000, 5.000000)">
                <path d="M0.681818182,12.3578012 L0.681818182,0.368181818 L2.68867925,0.368181818 L2.68867925,12.3578012 L0.681818182,12.3578012 Z M4.41696484,11.448616 C4.03496655,11.0977974 3.73208491,10.6753043 3.50839708,10.1811365 C3.2845163,9.68689361 3.17278816,9.13683693 3.17278816,8.53100409 C3.17278816,7.92513367 3.2845163,7.37511458 3.50839708,6.88083407 C3.73208491,6.38659114 4.03496655,5.964098 4.41696484,5.61335465 C4.79900172,5.2626113 5.25185763,4.99154818 5.77576415,4.80027805 C6.29967067,4.60889516 6.85630446,4.51327888 7.44574271,4.51327888 C8.03498799,4.51327888 8.59166038,4.60889516 9.1155283,4.80027805 C9.63943482,4.99154818 10.0921364,5.2626113 10.4743276,5.61335465 C10.8561715,5.964098 11.1590146,6.38659114 11.3828954,6.88083407 C11.6064288,7.37511458 11.7185043,7.92513367 11.7185043,8.53100409 C11.7185043,9.13683693 11.6064288,9.68689361 11.3828954,10.1811365 C11.1590146,10.6753043 10.8561715,11.0977974 10.4743276,11.448616 C10.0921364,11.7993593 9.63943482,12.0703473 9.1155283,12.2616926 C8.59166038,12.4529627 8.03498799,12.5486166 7.44574271,12.5486166 C6.85630446,12.5486166 6.29967067,12.4529627 5.77576415,12.2616926 C5.25185763,12.0703473 4.79900172,11.7993593 4.41696484,11.448616 Z M5.29295969,7.67004419 C5.18898885,7.94651955 5.13727358,8.2335563 5.13727358,8.53100409 C5.13727358,8.8286774 5.18898885,9.1156014 5.29295969,9.39192642 C5.39639022,9.66843937 5.54925901,9.91281712 5.75133448,10.1252476 C5.95306261,10.3380164 6.1958542,10.5079006 6.47978645,10.6354266 C6.76352573,10.7629901 7.08551115,10.8268095 7.44574271,10.8268095 C7.8058199,10.8268095 8.12761235,10.7629901 8.411506,10.6354266 C8.69524528,10.5079006 8.93807547,10.3380164 9.14015094,10.1252476 C9.34187907,9.91281712 9.49455489,9.66843937 9.59852573,9.39192642 C9.70211063,9.1156014 9.75401887,8.8286774 9.75401887,8.53100409 C9.75401887,8.2335563 9.70211063,7.94651955 9.59852573,7.67004419 C9.49455489,7.39371916 9.34187907,7.14941658 9.14015094,6.93664781 C8.93807547,6.72414215 8.69524528,6.55399479 8.411506,6.42643125 C8.12761235,6.2989053 7.8058199,6.23516112 7.44574271,6.23516112 C7.08551115,6.23516112 6.76352573,6.2989053 6.47978645,6.42643125 C6.1958542,6.55399479 5.95306261,6.72414215 5.75133448,6.93664781 C5.54925901,7.14941658 5.39639022,7.39371916 5.29295969,7.67004419 Z M13.4209091,11.448616 C13.0387178,11.0977974 12.7358362,10.6753043 12.5123413,10.1811365 C12.2884605,9.68689361 12.1766938,9.13683693 12.1766938,8.53100409 C12.1766938,7.92513367 12.2884605,7.37511458 12.5123413,6.88083407 C12.7358362,6.38659114 13.0387178,5.964098 13.4209091,5.61335465 C13.802753,5.2626113 14.2558019,4.99154818 14.7797084,4.80027805 C15.3035763,4.60889516 15.8600557,4.51327888 16.449494,4.51327888 C16.9514408,4.51327888 17.4563593,4.60641455 17.9637864,4.79227244 C18.4713679,4.97835584 18.9159262,5.27332303 19.2981561,5.67709883 L17.9393568,7.000392 C17.7101501,6.76676355 17.4698285,6.58064256 17.2188551,6.44240488 C16.9677273,6.3044303 16.711428,6.23516112 16.449494,6.23516112 C16.0894168,6.23516112 15.767277,6.2989053 15.4835377,6.42643125 C15.1996441,6.55399479 14.9569683,6.72414215 14.7550858,6.93664781 C14.5530103,7.14941658 14.4003345,7.39371916 14.296711,7.67004419 C14.1929331,7.94651955 14.1412178,8.2335563 14.1412178,8.53100409 C14.1412178,8.8286774 14.1929331,9.1156014 14.296711,9.39192642 C14.4003345,9.66843937 14.5530103,9.91281712 14.7550858,10.1252476 C14.9569683,10.3380164 15.1996441,10.5079006 15.4835377,10.6354642 C15.767277,10.7629901 16.0894168,10.8268095 16.449494,10.8268095 C16.755,10.8268095 17.0389322,10.7657714 17.3008662,10.6434698 C17.5628002,10.5213561 17.7863336,10.3432407 17.9719297,10.1093867 L19.2816767,11.4804505 C19.0852744,11.6717958 18.8585377,11.8367188 18.602277,11.9746934 C18.3458233,12.1129311 18.0865137,12.224521 17.8247727,12.3094631 C17.5628002,12.3944052 17.3114794,12.4554809 17.0716981,12.4928404 C16.8313379,12.5299744 16.6239365,12.5486166 16.449494,12.5486166 C15.8600557,12.5486166 15.3035763,12.4529627 14.7797084,12.2616926 C14.2558019,12.0703473 13.802753,11.7993593 13.4209091,11.448616 Z M20.5364858,11.9746558 C20.2688786,11.7833857 20.053527,11.5444953 19.8898521,11.2574962 C19.7262157,10.970497 19.6442045,10.6359528 19.6442045,10.2532998 C19.6442045,9.83881223 19.7205425,9.48607688 19.8734112,9.19362789 C20.0262414,8.90136682 20.2308255,8.65800386 20.4874335,8.46120872 C20.7436943,8.26467669 21.04125,8.10993919 21.3795605,7.99282428 C21.7178323,7.87597248 22.0697277,7.79234582 22.4354781,7.73378837 C22.8010356,7.67545643 23.1694104,7.64606495 23.5406411,7.63009132 C23.9115244,7.61415527 24.2609498,7.62208571 24.5882611,7.62208571 L25.111473,7.62208571 L25.111473,7.38304502 C25.111473,6.90473814 24.9261085,6.54606435 24.587991,6.30691091 C24.2495648,6.06775747 23.802575,5.94816195 23.2787071,5.94816195 C22.8637114,5.94816195 22.4763872,6.01991174 22.11631,6.16341133 C21.7560785,6.30691091 21.4450536,6.50096233 21.1831196,6.74537768 L20.151786,5.74091819 C20.5881625,5.30523271 21.0983684,4.99154818 21.6822877,4.80027805 C22.2660527,4.60889516 22.8691917,4.51327888 23.4912028,4.51327888 C24.0478752,4.51327888 24.5168246,4.57458004 24.8990545,4.69661858 C25.2808984,4.81892021 25.5970176,4.97561214 25.8481454,5.16695744 C26.0991188,5.35826516 26.2919318,5.57896436 26.4284756,5.82860402 C26.5648649,6.07846919 26.6616188,6.33081498 26.7216702,6.58590446 C26.7815287,6.84099395 26.8205467,7.08807783 26.8315459,7.32723128 C26.8423521,7.56638472 26.8481797,7.77637219 26.8481797,7.95696818 L26.8481797,12.3577974 L25.111473,12.3577974 L25.111473,11.3430021 L25.0303109,11.3430021 C24.7464172,11.7940222 24.3861857,12.0760602 23.9497706,12.2726298 C23.5132011,12.4691618 23.0330596,12.5486166 22.5091531,12.5486166 C22.1490759,12.5486166 21.7969876,12.500846 21.4532354,12.4051921 C21.1094447,12.3094631 20.8037457,12.1660387 20.5364858,11.9746558 Z M21.919985,9.46360104 C21.7124292,9.61781235 21.6091917,9.83306173 21.6091917,10.1093867 C21.6091917,10.2902082 21.6507955,10.4416759 21.7326136,10.5636768 C21.8144318,10.6860536 21.9218375,10.7896379 22.052708,10.87458 C22.1837714,10.9597853 22.3330896,11.0208609 22.496726,11.0579573 C22.6603623,11.0953544 22.828051,11.1137335 22.991726,11.1137335 C23.6682697,11.1137335 24.1752723,10.9570416 24.4974507,10.6434698 C24.8192431,10.3300484 24.9956925,9.90203023 24.9956925,9.36001674 L24.9956925,8.89997617 L24.5556497,8.89997617 C24.2827166,8.89997617 23.9770562,8.92553398 23.6387843,8.94665676 C23.3003195,8.9681178 22.98119,9.03317746 22.6811642,9.11285769 C22.3807912,9.19261309 22.127232,9.30965282 21.919985,9.46360104 Z M27.3885077,12.3578012 L27.3885077,0.368181818 L29.3181818,0.368181818 L29.3181818,12.3578012 L27.3885077,12.3578012 Z M11.1430909,14.7071164 C11.359446,14.4792008 11.6199134,14.296688 11.924416,14.1598786 C12.2287642,14.0230691 12.5740986,13.954702 12.9604966,13.954702 C13.3467015,13.954702 13.6918816,14.0230691 13.9963842,14.1598786 C14.3006938,14.296688 14.5611612,14.4792008 14.7779022,14.7071164 C14.9942573,14.9353326 15.1580094,15.1973753 15.2695446,15.4937331 C15.3806552,15.7903165 15.4363456,16.0981377 15.4363456,16.4171969 C15.4363456,16.7365192 15.3806552,17.0442653 15.2695446,17.3406231 C15.1580094,17.6371689 14.9942573,17.8993243 14.7779022,18.1271647 C14.5611612,18.3553809 14.3006938,18.537593 13.9963842,18.6744025 C13.6918816,18.8112119 13.3467015,18.8796543 12.9604966,18.8796543 C12.5740986,18.8796543 12.2287642,18.8112119 11.924416,18.6744025 C11.6199134,18.537593 11.359446,18.3553809 11.1430909,18.1271647 C10.9263499,17.8993243 10.7624048,17.6371689 10.6514485,17.3406231 C10.539952,17.0442653 10.4844931,16.7365192 10.4844931,16.4171969 C10.4844931,16.0981377 10.539952,15.7903165 10.6514485,15.4937331 C10.7624048,15.1973753 10.9263499,14.9353326 11.1430909,14.7071164 Z M26.1416951,18.1834783 L24.7279001,13.6732767 L27.536232,13.6732767 L26.1768538,18.1834783 L26.1416951,18.1834783 Z M20.2945279,18.1834783 L18.8805785,13.6732767 L21.6482714,13.6732767 L20.3294936,18.1834783 L20.2945279,18.1834783 Z M27.1952354,20.5889192 L29.3181857,14.2760651 L29.3181857,22.0923197 L0.681822041,22.0923197 L0.681822041,20.5889192 L2.88165051,20.5889192 L2.88165051,16.0409822 C2.88165051,15.7673633 2.88300129,15.5052078 2.95328002,15.2543654 C3.02355875,15.0036734 3.12197213,14.7813956 3.28001244,14.5874194 C3.43805274,14.3937062 3.6266205,14.2397956 3.86671055,14.1256499 C4.10645326,14.0118801 4.3951325,13.9547133 4.74637178,13.9547133 C5.75485806,13.9547133 6.10019254,14.740428 6.17305703,15.6048457 C6.19644468,15.8843654 6.16209648,16.137914 6.16209648,16.3658295 L6.16209648,20.5889192 L8.28473799,20.5889192 L8.28473799,16.8843899 C8.51629889,17.3526992 8.49889322,17.7868813 8.68008962,18.1870113 C8.92006389,18.7170352 9.28056561,19.1701225 9.6903512,19.5464237 C10.1000982,19.9226121 10.5966033,20.2130691 11.1585244,20.4183208 C11.7204455,20.6234974 12.3228898,20.7257287 12.9550896,20.7257287 C13.5871351,20.7257287 14.1869164,20.6224074 14.7488375,20.4172309 C15.31072,20.2119791 15.7976154,19.9198684 16.2075939,19.54368 C16.6171865,19.1673788 16.9426454,18.7113223 17.182774,18.1812608 C17.4225167,17.6511618 17.5430828,17.0553641 17.5430828,16.4055568 C17.5430828,16.2904715 17.5381428,16.2234199 17.5306171,16.1121306 L19.1180828,20.5889192 L21.2952569,20.5889192 L23.0688203,14.9135821 L23.1039404,14.9135821 L25.1056299,20.5889192 L27.1952354,20.5889192 Z" id="Logos-/-White-/-local_now"></path>
            </g>
        </g>
    </g>
</svg>