<?xml version="1.0" encoding="UTF-8"?>
<svg width="42px" height="32px" viewBox="0 0 42 32" version="1.1" xmlns="http://www.w3.org/2000/svg" xmlns:xlink="http://www.w3.org/1999/xlink">
    <!-- Generator: Sketch 46.2 (44496) - http://www.bohemiancoding.com/sketch -->
    <title>NGWIHD_Color</title>
    <desc>Created with Sketch.</desc>
    <defs></defs>
    <g id="Domestic" stroke="none" stroke-width="1" fill="none" fill-rule="evenodd">
        <g id="NGWIHD">
            <g id="Logo-/-Nat-Geo-Wild-Color" transform="translate(1.000000, 9.000000)">
                <path d="M14.6898323,5.76275753 C15.012187,7.68244967 15.3332899,9.58958454 15.6464121,11.8768907 L15.6684762,11.8768907 C16.1847131,9.63887181 16.7089307,7.75528181 17.2334613,5.88613267 L19.0014046,5.88613267 C19.5447131,7.75528181 20.1017921,9.63887181 20.6363376,11.8768907 L20.6541766,11.8768907 C20.9483644,9.58958454 21.2433346,7.68244967 21.5456595,5.76275753 L23.4120306,6.00699636 L21.727962,14.4431251 L19.35443,14.4431251 C18.8879545,12.8544739 18.413342,11.2655087 17.9593852,9.3081448 L17.9407638,9.3081448 C17.5249888,11.2655087 17.1023286,12.8544739 16.6779471,14.4431251 L14.295965,14.4431251 L12.5261438,6.00699636 L14.6898323,5.76275753 Z" id="Fill-1" fill="#000000"></path>
                <polygon id="Fill-3" fill="#000000" points="23.8468182 14.4431251 25.9763934 14.4431251 25.9763934 5.88613267 23.8468182 5.88613267"></polygon>
                <polygon id="Fill-5" fill="#000000" points="26.9347571 5.88608558 29.067775 5.88608558 29.067775 12.8424974 31.6536542 12.8424974 31.6536542 14.443078 26.9347571 14.443078"></polygon>
                <path d="M34.4294411,12.842466 L34.9732191,12.842466 C36.1953502,12.842466 36.7708942,11.6559613 36.7708942,9.93153461 C36.7708942,8.37945645 35.9740835,7.48663479 35.0452012,7.48663479 L34.4294411,7.48663479 L34.4294411,12.842466 Z M35.0452012,5.88605419 C37.8708122,5.88605419 38.9625931,7.85377787 38.9625931,9.91944824 C38.9625931,13.049347 37.083234,14.4430466 34.9639866,14.4430466 L32.2967362,14.4430466 L32.2967362,5.88605419 L35.0452012,5.88605419 Z" id="Fill-6" fill="#000000"></path>
                <path d="M16.2383085,4.91217537 L15.7386587,4.91217537 C15.0809613,3.95389896 14.421386,3.00127332 13.7721386,1.92417377 L13.7618107,1.92417377 L13.7618107,4.91217537 L13.207392,4.91217537 L13.207392,0.745517332 L13.713301,0.745517332 C14.3731893,1.69924173 15.0263487,2.64558874 15.6724665,3.71625269 L15.6857675,3.71625269 L15.6857675,0.745517332 L16.2383085,0.745517332 L16.2383085,4.91217537 Z" id="Fill-7" fill="#000000"></path>
                <path d="M18.597006,3.26419109 C18.4511639,2.7165373 18.30407,2.21079338 18.140389,1.56770437 L18.1319389,1.56770437 C17.9898525,2.21079338 17.8257019,2.7165373 17.6651505,3.26419109 L18.597006,3.26419109 Z M18.5040551,0.745517332 L19.7978554,4.91217537 L19.0206051,4.91217537 L18.7015365,3.77589971 L17.4817526,3.77589971 L17.1285708,4.91217537 L16.528459,4.91217537 L17.9288241,0.745517332 L18.5040551,0.745517332 Z" id="Fill-8" fill="#000000"></path>
                <polygon id="Fill-9" fill="#000000" points="20.5217139 4.91217537 20.5217139 1.30494356 19.4602906 1.30494356 19.4602906 0.745517332 22.2751043 0.745517332 22.2751043 1.30494356 21.2136811 1.30494356 21.2136811 4.91217537"></polygon>
                <path d="M26.6587839,3.08904861 L26.6587839,4.7360911 C26.3054456,4.87751732 25.9356766,4.97954511 25.5574575,4.97954511 C24.4188882,4.97954511 23.699693,4.06851541 23.699693,2.89582367 C23.699693,1.80757955 24.4166975,0.857308398 25.5773308,0.857308398 C25.9378674,0.857308398 26.3027854,0.993868673 26.5170104,1.16449053 L26.3054456,1.63695769 C26.1270551,1.52221567 25.8491416,1.42630954 25.5975171,1.42630954 C24.8891192,1.42630954 24.4043353,2.00174629 24.4043353,2.90743915 C24.4043353,3.85253043 24.9612578,4.410387 25.5310119,4.410387 C25.7092459,4.410387 25.8552444,4.38794088 25.9952966,4.31448087 L25.9952966,3.08904861 L26.6587839,3.08904861 Z" id="Fill-10" fill="#000000"></path>
                <polygon id="Fill-11" fill="#000000" points="29.123389 1.46099899 28.0194024 1.46099899 28.0194024 2.55410906 29.0989776 2.55410906 29.0989776 3.08904861 28.0194024 3.08904861 28.0194024 4.37569755 29.3260343 4.37569755 29.3260343 4.91220677 27.3540373 4.91220677 27.3540373 0.924646741 29.123389 0.924646741"></polygon>
                <path d="M32.1867131,2.86204463 C32.1867131,2.1261888 31.9083301,1.42627815 31.2487548,1.42627815 C30.5916833,1.42627815 30.3150216,2.1261888 30.3150216,2.86204463 C30.3150216,3.62521251 30.5586654,4.41035561 31.2487548,4.41035561 C31.9424434,4.41035561 32.1867131,3.62521251 32.1867131,2.86204463 M29.608345,2.86204463 C29.608345,1.74460486 30.3028159,0.857277005 31.2487548,0.857277005 C32.1950067,0.857277005 32.8918249,1.74460486 32.8918249,2.86204463 C32.8918249,4.05247351 32.2607295,4.97951372 31.2487548,4.97951372 C30.238032,4.97951372 29.608345,4.05247351 29.608345,2.86204463" id="Fill-12" fill="#000000"></path>
                <path d="M2.27815946,13.1283793 L9.04635618,13.1283793 L9.04635618,2.20748141 L2.27815946,2.20748141 L2.27815946,13.1283793 Z M0.909090909,14.5071671 L10.4229359,14.5071671 L10.4229359,0.831361946 L0.909090909,0.831361946 L0.909090909,14.5071671 Z" id="Fill-13" fill="#FFD700"></path>
            </g>
        </g>
    </g>
</svg>