<?xml version="1.0" encoding="UTF-8"?>
<svg width="42px" height="32px" viewBox="0 0 42 32" version="1.1" xmlns="http://www.w3.org/2000/svg" xmlns:xlink="http://www.w3.org/1999/xlink">
    <!-- Generator: Sketch 46.2 (44496) - http://www.bohemiancoding.com/sketch -->
    <title>NGCHD_Color</title>
    <desc>Created with Sketch.</desc>
    <defs></defs>
    <g id="Domestic" stroke="none" stroke-width="1" fill="none" fill-rule="evenodd">
        <g id="NGCHD">
            <g id="Logo-/-Nat-Geo-Color" transform="translate(0.000000, 9.000000)">
                <path d="M14.5674769,6.11873684 L14.0602214,6.11873684 C13.3959784,5.15655502 12.7376434,4.2 12.0793085,3.11835701 L12.0729784,3.11835701 L12.0729784,6.11873684 L11.5138157,6.11873684 L11.5138157,1.93456607 L12.0206492,1.93456607 C12.6853143,2.89112109 13.3436492,3.84161649 13.996076,4.91719985 L14.0078922,4.91719985 L14.0078922,1.93456607 L14.5674769,1.93456607 L14.5674769,6.11873684 Z M16.1638969,1.93491233 L16.7466922,1.93491233 L18.0464816,6.11865028 L17.2653419,6.11865028 L16.9450367,4.97684387 L15.7153008,4.97684387 L15.3599687,6.11865028 L14.753541,6.11865028 L16.1638969,1.93491233 Z M15.8959209,4.46307427 L16.8399563,4.46307427 C16.6884548,3.91294693 16.5428615,3.40523695 16.3795438,2.7594541 L16.3681496,2.7594541 C16.2221343,3.40523695 16.0592386,3.91294693 15.8959209,4.46307427 Z M18.7049432,6.11873684 L18.7049432,2.49637983 L17.6326168,2.49637983 L17.6326168,1.93456607 L20.4765393,1.93456607 L20.4765393,2.49637983 L19.404213,2.49637983 L19.404213,6.11873684 L18.7049432,6.11873684 Z M20.7037493,6.11873684 L20.7037493,1.93456607 L21.397111,1.93456607 L21.397111,6.11873684 L20.7037493,6.11873684 Z M23.5531157,6.19045683 C22.4871195,6.19045683 21.8220324,5.21615576 21.8220324,3.96700743 C21.8220324,2.79533574 22.5567511,1.86301921 23.5531157,1.86301921 C24.5494803,1.86301921 25.2841989,2.79533574 25.2841989,3.96700743 C25.2841989,5.21615576 24.6195339,6.19045683 23.5531157,6.19045683 Z M23.5531157,5.59271815 C24.2819262,5.59271815 24.538086,4.76817637 24.538086,3.96700743 C24.538086,3.19570379 24.2473214,2.46075789 23.5531157,2.46075789 C22.859754,2.46075789 22.5681454,3.19570379 22.5681454,3.96700743 C22.5681454,4.76817637 22.8247272,5.59271815 23.5531157,5.59271815 Z M28.7631192,6.11873684 L28.2562857,6.11873684 C27.5920427,5.15655502 26.9332857,4.2 26.2749508,3.11835701 L26.2690427,3.11835701 L26.2690427,6.11873684 L25.709458,6.11873684 L25.709458,1.93456607 L26.2162915,1.93456607 C26.8805345,2.89112109 27.5392915,3.84161649 28.1917183,4.91719985 L28.2035345,4.91719985 L28.2035345,1.93456607 L28.7631192,1.93456607 L28.7631192,6.11873684 Z M30.3597502,1.93491233 L30.9425455,1.93491233 L32.2423349,6.11865028 L31.4607732,6.11865028 L31.14089,4.97684387 L29.9111541,4.97684387 L29.555822,6.11865028 L28.9493943,6.11865028 L30.3597502,1.93491233 Z M30.0917742,4.46307427 L31.0353876,4.46307427 C30.8847301,3.91294693 30.7387148,3.40523695 30.5753971,2.7594541 L30.5640029,2.7594541 C30.4179876,3.40523695 30.2550919,3.91294693 30.0917742,4.46307427 Z M32.4457857,1.93478248 L33.1399915,1.93478248 L33.1399915,5.55670666 L34.5203848,5.55670666 L34.5203848,6.11895326 L32.4457857,6.11895326 L32.4457857,1.93478248 Z M14.1370272,9.61920883 L14.1370272,11.3462018 C13.7639707,11.4959611 13.3736119,11.6033031 12.9773449,11.6033031 C11.7767277,11.6033031 11.0192205,10.6471809 11.0192205,9.41577858 C11.0192205,8.27440501 11.7767277,7.27586544 13.0005554,7.27586544 C13.37952,7.27586544 13.7584846,7.41956511 13.9914339,7.59875686 L13.7639707,8.09521325 C13.5774425,7.97531925 13.2862559,7.87360412 13.0182798,7.87360412 C12.2721669,7.87360412 11.7649114,8.4769696 11.7649114,9.42789783 C11.7649114,10.4199449 12.3477066,11.0055644 12.9482262,11.0055644 C13.1347544,11.0055644 13.292164,10.9817587 13.4377573,10.9042821 L13.4377573,9.61920883 L14.1370272,9.61920883 Z M16.6369275,7.90944247 L15.471337,7.90944247 L15.471337,9.05687567 L16.6137169,9.05687567 L16.6137169,9.61912227 L15.471337,9.61912227 L15.471337,10.9695529 L16.8466662,10.9695529 L16.8466662,11.5313667 L14.7724892,11.5313667 L14.7724892,7.34762871 L16.6369275,7.34762871 L16.6369275,7.90944247 Z M18.7931432,11.6033463 C17.726725,11.6033463 17.0624819,10.6290453 17.0624819,9.37989695 C17.0624819,8.20822525 17.7967786,7.27590872 18.7931432,7.27590872 C19.7899298,7.27590872 20.5242264,8.20822525 20.5242264,9.37989695 C20.5242264,10.6290453 19.8595613,11.6033463 18.7931432,11.6033463 Z M18.7931432,11.0056077 C19.5215317,11.0056077 19.7781135,10.1810659 19.7781135,9.37989695 C19.7781135,8.60902613 19.4869269,7.87364741 18.7931432,7.87364741 C18.0997814,7.87364741 17.8085948,8.60902613 17.8085948,9.37989695 C17.8085948,10.1810659 18.0647546,11.0056077 18.7931432,11.0056077 Z M23.8807217,9.61920883 L23.8807217,11.3462018 C23.5076653,11.4959611 23.1168844,11.6033031 22.7210394,11.6033031 C21.5204222,11.6033031 20.762915,10.6471809 20.762915,9.41577858 C20.762915,8.27440501 21.5204222,7.27586544 22.744672,7.27586544 C23.1227925,7.27586544 23.5021791,7.41956511 23.7351284,7.59875686 L23.5076653,8.09521325 C23.321559,7.97531925 23.0295284,7.87360412 22.7619744,7.87360412 C22.0158614,7.87360412 21.5090279,8.4769696 21.5090279,9.42789783 C21.5090279,10.4199449 22.0918232,11.0055644 22.6919208,11.0055644 C22.878027,11.0055644 23.0354366,10.9817587 23.1814519,10.9042821 L23.1814519,9.61920883 L23.8807217,9.61920883 Z M26.9925359,11.5313667 L26.1940938,11.5313667 L25.5353368,9.95413294 L25.5239426,9.95413294 L25.2209397,9.95413294 L25.2209397,11.5313667 L24.5216699,11.5313667 L24.5216699,7.34762871 L25.6112986,7.34762871 C26.3924383,7.34762871 26.8756392,7.74236997 26.8756392,8.55479249 C26.8756392,9.05687567 26.6190574,9.55333206 26.1708833,9.79831402 L26.9925359,11.5313667 Z M25.2209397,7.90944247 L25.2209397,9.43387089 C25.279177,9.42781126 25.4420727,9.42175164 25.5121263,9.41569201 C25.8446699,9.39751314 26.1767914,9.14647155 26.1767914,8.58509061 C26.1767914,8.15442444 25.9434201,7.90944247 25.5294287,7.90944247 L25.2209397,7.90944247 Z M28.4145393,7.34758543 L28.9973345,7.34758543 L30.297124,11.5313234 L29.5155623,11.5313234 L29.194835,10.3899498 L27.9659432,10.3899498 L27.6101891,11.5313234 L27.0041833,11.5313234 L28.4145393,7.34758543 Z M28.1465633,9.8761802 L29.0901767,9.8761802 C28.9386752,9.32605285 28.7935039,8.81834288 28.6301862,8.17256003 L28.6179479,8.17256003 C28.4727767,8.81834288 28.309881,9.32605285 28.1465633,9.8761802 Z M31.2176957,11.5314532 L30.5180038,11.5314532 L30.5180038,7.34771527 L31.6076325,7.34771527 C32.3887722,7.34771527 32.8728172,7.74245653 32.8728172,8.55487906 C32.8728172,9.26039249 32.3659837,9.95378668 31.5325148,9.95378668 L31.2063014,9.95378668 L31.2063014,9.43395745 C31.2409062,9.42789783 31.4329206,9.4218382 31.5084603,9.41577858 C31.8410038,9.39759971 32.1731254,9.14655812 32.1731254,8.58474435 C32.1731254,8.154511 31.9397541,7.90952904 31.5325148,7.90952904 L31.2176957,7.90952904 L31.2176957,11.5314532 Z M36.1128379,11.5314532 L35.413146,11.5314532 L35.413146,9.51749371 L33.9622771,9.51749371 L33.9622771,11.5314532 L33.2684934,11.5314532 L33.2684934,7.34771527 L33.9622771,7.34771527 L33.9622771,8.95567994 L35.413146,8.95567994 L35.413146,7.35940169 L36.1128379,7.35940169 L36.1128379,11.5314532 Z M36.7823139,11.5308473 L36.7823139,7.34754214 L37.4760976,7.34754214 L37.4760976,11.5308473 L36.7823139,11.5308473 Z M40.6230652,8.10685639 C40.4542613,7.99951446 40.174891,7.87356084 39.9060709,7.87356084 C39.1954068,7.87356084 38.676335,8.47692632 38.676335,9.42785455 C38.676335,10.4199017 39.247314,11.0055211 39.9242173,11.0055211 C40.1921934,11.0055211 40.4424451,10.9159252 40.6230652,10.7968969 L40.8150795,11.3167261 C40.6057628,11.4660526 40.2322843,11.6032598 39.8942546,11.6032598 C38.6944814,11.6032598 37.9369743,10.6471376 37.9369743,9.4157353 C37.9369743,8.27436172 38.6885733,7.27582216 39.9060709,7.27582216 C40.2677331,7.27582216 40.6057628,7.43120824 40.8446202,7.59871358 L40.6230652,8.10685639 Z" id="Combined-Shape" fill="#000000"></path>
                <path d="M0.954545455,12.7466676 L0.954545455,0.726536621 L9.13393493,0.726536621 L9.13393493,12.7466676 L0.954545455,12.7466676 Z M2.13364019,11.5364741 L7.9506201,11.5364741 L7.9506201,1.93673022 L2.13364019,1.93673022 L2.13364019,11.5364741 Z" id="Combined-Shape" fill="#FFD700"></path>
            </g>
        </g>
    </g>
</svg>