<?xml version="1.0" encoding="UTF-8"?>
<svg width="42px" height="32px" viewBox="0 0 42 32" version="1.1" xmlns="http://www.w3.org/2000/svg" xmlns:xlink="http://www.w3.org/1999/xlink">
    <!-- Generator: Sketch 46.2 (44496) - http://www.bohemiancoding.com/sketch -->
    <title>NBCRSN_Color</title>
    <desc>Created with Sketch.</desc>
    <defs></defs>
    <g id="Domestic" stroke="none" stroke-width="1" fill="none" fill-rule="evenodd">
        <g id="NBCRSN">
            <g id="Page-1" transform="translate(0.000000, 8.000000)">
                <g id="Group">
                    <path d="M6.5675121,1.05753424 C6.7508954,0.761530835 7.05133492,0.452719932 7.37359727,0.320208859 C7.93312027,0.0664201022 8.67938944,0.175748893 9.13437751,0.578505281 C9.57484089,0.976754003 9.79814923,1.5211799 9.69590392,2.13300613 C9.8029431,2.11540477 9.91105554,2.04585792 10.0281833,2.00614753 C10.7087693,1.81525145 11.4335019,2.02231789 11.8697438,2.60981704 C12.1995905,3.02738433 12.2853792,3.67748995 12.0877574,4.1817046 C11.989662,4.43606576 11.8205888,4.66860409 11.6056518,4.86314923 L11.6274746,4.88211005 C12.2619107,4.91316286 12.8901935,5.40843373 13.0835939,6.0151799 C13.2888,6.62450187 13.1065615,7.27932981 12.6582276,7.72766371 C12.295754,8.08541499 11.824524,8.21062794 11.3021356,8.20082555 L1.83152913,8.20082555 C1.0517029,8.21649506 0.453041908,7.87183748 0.128561499,7.18037581 C-0.125227257,6.58622249 -0.000300511073,5.82879148 0.477082794,5.37652232 C0.773372402,5.0624167 1.14700784,4.93412709 1.55255468,4.87152061 C1.0955632,4.4480862 0.87368586,3.86616797 1.00254787,3.24232129 C1.0955632,2.73703339 1.52486474,2.22666542 2.01791755,2.05000784 C2.4533724,1.87978978 3.04308961,1.91084259 3.44112368,2.14338092 L3.45786644,2.12857002 C3.33601635,1.4390402 3.64124974,0.820273595 4.20799932,0.440413288 C4.71836729,0.0983315162 5.52917479,0.106130494 6.02780852,0.469176491 C6.25083066,0.608699489 6.43557342,0.844028279 6.5675121,1.05753424" id="Fill-1" fill="#FFFFFF"></path>
                    <path d="M9.25064668,1.31326917 C9.4529908,1.72439693 9.33614923,2.26352811 9.12099761,2.63272743 L7.47641499,6.32929983 L7.46332129,6.3477598 L6.86852402,2.59616525 C6.82130085,2.23562351 7.20752913,2.08386542 7.43477274,1.9108569 C7.4241833,1.8557632 7.36186303,1.85690801 7.32630256,1.83451278 L6.77293288,1.82835945 L6.75475911,1.80961329 C6.75726337,1.34625383 7.00854787,0.91416184 7.43477274,0.689422487 C7.87802658,0.433415673 8.5002276,0.50246167 8.88559727,0.831449744 C9.04043203,0.968683135 9.17544736,1.13160307 9.25064668,1.31326917" id="Fill-3" fill="#FFFFFF"></path>
                    <path d="M6.22317649,1.1852586 C6.35647462,1.43375264 6.4356092,1.71823646 6.38666882,2.02819216 L5.71588518,6.32371175 C5.71867564,6.32936422 5.71481193,6.3365908 5.7086586,6.3374494 L5.53393288,5.99143237 L3.85643714,2.24255673 C3.69909813,1.75622964 3.84384429,1.25208654 4.19351039,0.906355707 C4.55011687,0.546887223 5.13396695,0.447360818 5.59374889,0.64669983 C5.84360239,0.750662351 6.07671312,0.944348893 6.22317649,1.1852586" id="Fill-5" fill="#FFFFFF"></path>
                    <path d="M11.6783254,2.99553731 C11.9069284,3.38126474 11.8560562,3.96339761 11.6056303,4.3225799 C11.4482913,4.57186099 11.1917121,4.69907734 10.9764889,4.86314208 L7.49456729,7.25134651 L7.48676831,7.25134651 L7.5253339,7.13536354 L9.37140204,2.97264123 C9.64529642,2.48180647 10.1738382,2.23338399 10.7317155,2.3082971 C11.1142947,2.37841635 11.4958007,2.62691039 11.6783254,2.99553731" id="Fill-7" fill="#FFFFFF"></path>
                    <path d="M3.77398262,2.97261976 L5.69525009,7.25139659 L5.66026201,7.25139659 L1.7921121,4.58164191 C1.39658228,4.25100818 1.24038807,3.75294685 1.37146814,3.25152266 C1.4720678,2.87509676 1.78481397,2.52349881 2.15573049,2.38233015 C2.76390767,2.16095366 3.45086167,2.39599625 3.77398262,2.97261976" id="Fill-9" fill="#FFFFFF"></path>
                    <path d="M12.689817,6.01629608 C12.8818579,6.41933867 12.8049414,6.97914787 12.5313332,7.32516491 C12.257725,7.6603063 11.8918886,7.83775094 11.4625871,7.82852095 L7.33499591,7.82937956 L10.7931629,5.42436082 C11.1308085,5.2102109 11.6436807,5.16856865 12.0120215,5.34551244 C12.2962906,5.45591448 12.5648903,5.73624838 12.689817,6.01629608" id="Fill-11" fill="#FFFFFF"></path>
                    <path d="M0.469534242,6.01629608 C0.275561499,6.41933867 0.352692675,6.97914787 0.627731857,7.32516491 C0.902771039,7.6603063 1.26803509,7.83775094 1.69647802,7.82852095 L5.82492777,7.82937956 L2.36647462,5.42436082 C2.03076082,5.2102109 1.51710153,5.16856865 1.14704361,5.34551244 C0.863633049,5.45591448 0.595605792,5.73624838 0.469534242,6.01629608" id="Fill-13" fill="#FFFFFF"></path>
                    <path d="M9.25064668,1.31326917 C9.4529908,1.72439693 9.33614923,2.26352811 9.12099761,2.63272743 L7.47641499,6.32929983 L7.46332129,6.3477598 L6.86852402,2.59616525 C6.82130085,2.23562351 7.20752913,2.08386542 7.43477274,1.9108569 C7.4241833,1.8557632 7.36186303,1.85690801 7.32630256,1.83451278 L6.77293288,1.82835945 L6.75475911,1.80961329 C6.75726337,1.34625383 7.00854787,0.91416184 7.43477274,0.689422487 C7.87802658,0.433415673 8.5002276,0.50246167 8.88559727,0.831449744 C9.04043203,0.968683135 9.17544736,1.13160307 9.25064668,1.31326917" id="Fill-15" fill="#54519B"></path>
                    <path d="M6.22317649,1.1852586 C6.35647462,1.43375264 6.4356092,1.71823646 6.38666882,2.02819216 L5.71588518,6.32371175 C5.71867564,6.32936422 5.71481193,6.3365908 5.7086586,6.3374494 L5.53393288,5.99143237 L3.85643714,2.24255673 C3.69909813,1.75622964 3.84384429,1.25208654 4.19351039,0.906355707 C4.55011687,0.546887223 5.13396695,0.447360818 5.59374889,0.64669983 C5.84360239,0.750662351 6.07671312,0.944348893 6.22317649,1.1852586" id="Fill-17" fill="#B41D43"></path>
                    <path d="M11.6783254,2.99553731 C11.9069284,3.38126474 11.8560562,3.96339761 11.6056303,4.3225799 C11.4482913,4.57186099 11.1917121,4.69907734 10.9764889,4.86314208 L7.49456729,7.25134651 L7.48676831,7.25134651 L7.5253339,7.13536354 L9.37140204,2.97264123 C9.64529642,2.48180647 10.1738382,2.23338399 10.7317155,2.3082971 C11.1142947,2.37841635 11.4958007,2.62691039 11.6783254,2.99553731" id="Fill-19" fill="#3B8CC9"></path>
                    <path d="M3.77398262,2.97261976 L5.69525009,7.25139659 L5.66026201,7.25139659 L1.7921121,4.58164191 C1.39658228,4.25100818 1.24038807,3.75294685 1.37146814,3.25152266 C1.4720678,2.87509676 1.78481397,2.52349881 2.15573049,2.38233015 C2.76390767,2.16095366 3.45086167,2.39599625 3.77398262,2.97261976" id="Fill-21" fill="#F15027"></path>
                    <path d="M12.689817,6.01629608 C12.8818579,6.41933867 12.8049414,6.97914787 12.5313332,7.32516491 C12.257725,7.6603063 11.8918886,7.83775094 11.4625871,7.82852095 L7.33499591,7.82937956 L10.7931629,5.42436082 C11.1308085,5.2102109 11.6436807,5.16856865 12.0120215,5.34551244 C12.2962906,5.45591448 12.5648903,5.73624838 12.689817,6.01629608" id="Fill-23" fill="#2FAC41"></path>
                    <path d="M0.469534242,6.01629608 C0.275561499,6.41933867 0.352692675,6.97914787 0.627731857,7.32516491 C0.902771039,7.6603063 1.26803509,7.83775094 1.69647802,7.82852095 L5.82492777,7.82937956 L2.36647462,5.42436082 C2.03076082,5.2102109 1.51710153,5.16856865 1.14704361,5.34551244 C0.863633049,5.45591448 0.595605792,5.73624838 0.469534242,6.01629608" id="Fill-25" fill="#EDAF14"></path>
                </g>
                <path d="M25.358398,3.73339932 C25.0283366,3.4771063 24.5581799,3.67916422 24.5581799,3.67916422 C23.6543571,3.96736865 22.6791986,4.68845213 21.9069567,5.36231244 C22.2613451,4.95590698 22.6618119,4.51823407 23.1185172,4.04585928 C23.1185172,4.04585928 23.4438562,3.87814549 23.1940027,3.63194106 C22.9447216,3.38602283 22.6475734,3.1529121 22.6475734,3.1529121 C22.6475734,3.1529121 22.5285138,3.04837717 22.4717744,3.09109267 C22.4156075,3.13387973 22.4578221,3.24878944 22.4684116,3.265246 C22.478214,3.2809155 22.3200164,3.47517445 22.3200164,3.47517445 C22.3200164,3.47517445 22.3088545,3.48662249 22.2937574,3.50307905 C22.0318835,3.73196831 21.5581492,3.96064293 21.3177404,4.06904157 C20.799001,4.25857819 20.1366603,4.48245894 19.423662,4.7356753 C19.3825206,4.69567871 19.3350112,4.65654072 19.277771,4.62047939 C18.4261083,4.08721533 15.8785615,4.04113697 14.9006126,3.96872811 C13.8443877,3.88937888 13.6068409,3.82033288 13.5671305,3.6453925 C13.5156859,3.41814889 13.8488954,3.09674514 14.3259925,2.7487247 C16.1739925,1.40071789 18.7257608,1.12653731 19.5516654,1.14027496 C20.4580641,1.15422726 20.7120675,1.26069404 20.7255189,1.32723578 C20.7397574,1.39098705 20.6967557,1.44014208 20.6967557,1.44014208 C20.5508647,1.61093254 20.3501663,1.71711312 20.1337983,1.85634991 C19.30403,2.39376388 18.4023537,2.79093935 18.4023537,2.79093935 C18.2053043,2.97432266 18.587955,3.02097342 18.587955,3.02097342 C19.1144934,3.00365826 19.6198528,2.87644191 20.0941595,2.69448961 C21.0768307,2.31885077 21.3124457,1.97984566 21.3409942,1.77778773 C21.3895768,1.42926644 21.2400368,1.06507564 21.258783,1.0966293 C21.0074985,0.0287417376 19.3151918,0.0717434412 19.3151918,0.0717434412 C17.8548511,0.0768235094 15.6680606,0.493245997 13.7267591,1.91752538 C12.7314235,2.64669404 12.8815359,3.16965486 12.8815359,3.16965486 C12.8815359,3.16965486 12.864507,4.18201942 13.6328136,4.42793765 C13.9427693,4.52717785 14.1688681,4.58026814 14.6753009,4.63085417 C15.6580436,4.72894957 16.3855666,4.74290187 17.4037267,4.81223407 C18.0041049,4.85330392 18.4202412,4.92149131 18.7047966,4.99590358 C17.8718801,5.30356968 17.0138494,5.64794106 16.2659346,6.02243509 C15.6130385,6.34999216 14.6350896,6.89835332 14.2848511,7.33717104 C13.8662106,7.86292232 14.2572327,8.27963101 14.2085785,8.18904838 C14.2706126,8.3048167 14.5319857,8.77347087 15.6482412,8.63180136 C16.1938119,8.56218296 16.8304661,8.30395809 17.3238051,8.03621704 C18.0289329,7.65270767 18.5518937,7.20694957 18.8680027,6.90171618 C19.5002208,6.29103475 19.6793826,5.81980477 19.6805274,5.4089632 C19.6805274,5.25105179 19.648616,5.12133118 19.608691,5.02015911 C20.3711305,4.75549472 21.0399823,4.5534368 21.4843094,4.42851005 C20.2406228,5.92319489 18.1424116,8.78549131 19.0731373,10.0999411 C19.0731373,10.0999411 19.1335257,10.2031165 19.2151646,10.2953448 C19.2151646,10.2953448 19.3797302,10.4314334 19.4418358,10.3478627 C19.5030112,10.2651506 19.3202003,10.1754266 19.3202003,10.1754266 C19.2668239,10.110602 19.2333383,10.0060671 19.257093,9.83141295 C19.2813486,9.65582862 19.3288579,9.38193424 19.479829,8.98590358 L19.736122,8.40935162 C19.7358358,8.41013867 19.7352634,8.41128348 19.734691,8.41214208 C19.7358358,8.40956627 19.7366944,8.40763441 19.7380538,8.40541635 L19.736122,8.40935162 C20.0555939,7.85648279 20.6000198,7.09318467 21.2571373,6.44057479 C22.8946365,4.81416593 24.3564082,4.14424089 24.6554882,4.04807734 C24.8732157,3.9788167 24.9688068,3.99727666 25.0042957,4.02997513 C25.2136518,4.21750835 24.6926228,5.05593424 24.6926228,5.05593424 C24.6839652,5.06938569 24.6753077,5.08140613 24.6663639,5.09428518 C23.727553,6.46432947 23.1775462,6.84526303 22.6856382,7.03251005 C22.3457744,7.13368211 22.1389227,7.02106201 22.0763162,6.97777411 C21.9572566,6.8642954 21.8907148,6.70888825 21.9015905,6.63340273 C21.9228409,6.48894276 21.8585888,6.49309267 21.8585888,6.49309267 C21.6246194,6.57251346 21.7549124,6.98528688 21.7549124,6.98528688 C21.9284218,7.76647257 23.0123366,7.96523918 24.0400129,7.19578773 C25.3991816,6.17927325 25.6689261,5.36338569 25.8636859,4.86811482 C26.0579448,4.3729155 25.6878869,3.99133799 25.358398,3.73339932 M19.0505274,5.4774368 C18.7092327,6.07166167 17.5510487,6.78351516 17.1647489,7.00095639 C16.9515291,7.12166167 16.4579039,7.4098661 15.8495121,7.62981158 C15.178156,7.87322555 14.5792089,7.9853448 14.5235428,7.82070767 C14.5003605,7.75194787 14.4556416,7.72118126 14.6736552,7.49171959 C14.9293758,7.22340613 15.7102753,6.72205349 16.4325036,6.34806031 C17.2717881,5.91346405 18.2075939,5.52830903 19.0717779,5.2116276 C19.1078392,5.27902794 19.1142072,5.3653891 19.0505274,5.4774368" id="Fill-43" fill="#EDAF14"></path>
                <path d="M41.9683963,3.15819966 C41.8934831,2.71186917 41.2146143,2.60647564 40.0233741,2.70149438 C39.3942327,2.75150801 38.2058545,2.92008041 37.1396126,3.09029847 L38.1876807,1.92116729 C38.1876807,1.92116729 38.4154968,1.77441772 38.1812412,1.59418262 C37.9476296,1.41330358 37.6921237,1.2923121 37.6921237,1.2923121 C37.6921237,1.2923121 37.5875888,1.19171244 37.4048494,1.35885383 C37.2980964,1.45723543 36.6242361,2.14003952 35.6800589,3.32169199 C34.6274831,3.46171584 33.4169959,3.5475046 33.1051083,3.58385213 C33.1051083,3.58385213 32.9514184,3.61576354 32.8918886,3.51008382 C32.8918886,3.51008382 32.755156,3.41477888 32.7870675,3.64280954 C32.7870675,3.64280954 32.820553,4.24876865 33.4039022,4.13865281 C33.7345359,4.07576014 34.4069652,3.98775332 35.2463213,3.87534787 C35.104294,4.06009063 34.8865666,4.33684702 34.6548869,4.66132743 C33.6081782,5.80334106 31.8331595,7.63903441 31.4356978,7.39590664 C31.4356978,7.39590664 31.3487642,7.31541261 31.4094388,7.11943646 C31.4991629,6.82765451 31.8365223,6.29889813 32.5128869,5.50483339 C32.5128869,5.50483339 32.8247744,5.13448927 32.8121816,4.97099693 C32.7923622,4.72028484 32.6526245,4.72615196 32.6526245,4.72615196 C32.6526245,4.72615196 31.7523792,4.45948416 31.4519397,4.19009744 C31.5776535,3.99419284 31.80826,3.55730698 31.5139738,3.3527448 C31.5139738,3.3527448 31.1358307,3.11290835 30.8582872,3.68223373 C30.7464542,3.90947734 30.7562566,4.12834957 30.9021475,4.33012129 C30.6961543,4.54842112 30.1259704,5.10629847 29.5583622,5.27057785 C29.5259499,5.0727414 29.442093,4.95196457 29.3157353,4.88878569 C29.3157353,4.88878569 29.0032753,4.73116048 28.8330572,4.92742283 C28.6642702,5.12218262 28.8140249,5.31701397 28.9876058,5.44945349 C28.935875,5.60407359 28.7927744,5.80699012 28.5924337,6.12052334 C28.3369278,6.52270733 28.0032174,6.90371244 27.5482293,7.21223714 C27.393967,7.31791687 26.7623213,7.68210767 26.5965394,7.18318773 C26.5060283,6.90814855 26.6575002,6.3763155 27.0470913,5.77228825 C27.8480964,4.52466644 28.9688596,4.11575673 29.271875,4.31001567 C29.271875,4.31001567 29.4144031,4.45111278 29.33026,4.60651993 C29.33026,4.60651993 29.2978477,4.69202249 29.4127574,4.70268348 C29.5284542,4.71355911 29.5924201,4.61267325 29.6117387,4.51207359 C29.659248,4.24791005 29.419984,3.94553867 29.1472344,3.72895605 C29.0653094,3.66377376 28.9714354,3.61876865 28.8629652,3.56460511 C28.8629652,3.56460511 28.3864405,3.39631891 27.7354763,3.72022692 C27.5356365,3.81918092 26.6823281,4.28933765 26.0619158,5.39443135 C25.8648664,5.74438365 25.7407267,6.11916388 25.7449482,6.48192368 C25.7463077,6.72090153 25.7910266,6.95651652 25.9196024,7.17617581 C25.9685428,7.26003271 26.2292719,7.60268688 26.5797966,7.78213492 C27.2790572,8.1404586 28.0993809,7.45958637 28.4188528,7.16780443 C28.9817387,6.65271414 29.4116126,5.97076865 29.5105666,5.67419284 C30.2473196,5.48386917 30.976202,4.74518433 31.2140351,4.48581465 C31.2573945,4.51457785 31.3015411,4.54334106 31.3521271,4.57103101 L31.7945939,4.80607359 C31.5355104,5.10458126 31.533507,5.10629847 31.258754,5.4941724 C30.9756296,5.89385213 30.2730061,6.83380784 30.726921,7.43862215 C30.8160726,7.55882658 30.9370641,7.7063632 31.1358307,7.78521158 C31.7358511,8.02275843 32.4155785,7.43304123 33.4678681,6.32708893 C33.6342225,6.15186235 33.7946382,5.97742283 33.9477557,5.80641772 C33.8823588,5.93807019 33.8217557,6.07022351 33.7722429,6.19994412 C33.5268971,6.83938876 33.669139,7.41515366 34.1839431,7.75694923 C34.4891765,7.95936491 34.8860658,7.86685043 35.339122,7.56912981 C36.234001,6.97833935 37.5557489,5.6482201 38.3948187,4.76335809 C38.3646245,4.88492198 38.3357898,5.0179339 38.3095308,5.16690153 C38.1102634,6.2767891 37.4366893,7.70385894 37.1708801,7.33859489 C37.1658716,7.39197138 37.1625087,7.09181806 37.0179772,6.97046882 C36.8863963,6.86092538 36.7717727,6.83187598 36.6245223,6.92825417 C36.4336262,7.05346712 36.5289312,7.52054719 37.1152855,7.82012811 C37.249156,7.8888879 37.3693605,7.92466303 37.4794763,7.93811448 C37.7983758,7.99177717 38.4445462,7.99707189 39.2059124,7.4266017 C40.2363792,6.65214174 41.3527063,5.54282658 41.3527063,5.54282658 C41.3527063,5.54282658 41.5763009,5.34491857 41.3649414,5.22278228 C41.3649414,5.22278228 41.2624099,5.16911959 41.1651015,5.25605315 C41.109507,5.30585213 41.0594934,5.37096286 41.0594934,5.37096286 C41.0745905,5.35586576 39.4962634,6.86006678 38.5630334,7.36456763 C38.7137182,7.17953867 38.8075922,6.91265622 38.8867267,6.59711959 C38.9526961,6.33159659 39.0669618,5.61630869 39.1865939,5.09170221 C39.2519908,4.8063598 39.3439329,4.57747053 39.3741271,4.50956934 C39.4876058,4.25384872 39.645231,4.2753138 39.6812923,4.20068688 C39.7070504,4.14816899 39.6978204,4.10008722 39.6293468,4.01680273 C39.5733945,3.94582487 39.497122,3.87255741 39.4350879,3.81503101 C39.3610334,3.74705826 39.2061986,3.64173629 39.1239874,3.62606678 C39.067248,3.61547734 39.0024235,3.61962726 38.9448256,3.66463237 C38.8931663,3.70541601 38.8022974,3.78648245 38.6999806,3.95813152 C38.1345905,4.57553867 36.2798647,6.55404634 35.1445768,7.22790664 C35.2054661,7.19155911 34.2230811,7.85561704 34.4310061,6.99200545 C34.5257387,6.59876525 34.9204099,5.71919796 36.0280794,4.3306937 L36.6040589,3.68752845 C37.0770061,3.62019966 37.5689141,3.54614514 38.0596773,3.46672436 C38.0596773,3.46672436 42.3884678,2.93009744 41.21626,3.85216559 C41.21626,3.85216559 41.2917455,3.99726951 41.4731254,3.85388279 C41.8496228,3.55537513 41.9902191,3.29600545 41.9683963,3.15819966" id="Fill-46" fill="#EDAF14"></path>
            </g>
            <path d="M5.46384908,22.6403711 C5.46384908,22.8580613 5.40012884,23.0476624 5.29392845,23.223219 C5.18772806,23.3917533 5.03196748,23.5251763 4.8195667,23.6094435 C4.60008589,23.6937107 4.36644503,23.7358443 4.08324399,23.7358443 C3.8425231,23.7358443 3.6513624,23.7147775 3.49560183,23.6937107 C3.34692128,23.6515771 3.16992063,23.6094435 3,23.5251763 L3,22.689527 C3.16992063,22.7737941 3.36816136,22.8580613 3.56640209,22.9072171 C3.76464282,22.9493507 3.93456344,22.9914843 4.11156409,22.9914843 C4.23900456,22.9914843 4.35228498,22.9704175 4.41600522,22.9282839 C4.47972545,22.8861504 4.52220561,22.82295 4.52220561,22.7316606 C4.52220561,22.689527 4.50096553,22.6473934 4.47972545,22.6052598 C4.45848537,22.5631262 4.41600522,22.5420594 4.35228498,22.4999259 C4.28856475,22.4577923 4.13280417,22.3945919 3.89916331,22.2822357 C3.65844243,22.1769017 3.50976188,22.0856123 3.38232141,21.9802783 C3.27612102,21.8960112 3.18408068,21.7625882 3.12036044,21.6572542 C3.05664021,21.5308535 3.03540013,21.3763637 3.03540013,21.2078293 C3.03540013,20.8848052 3.14160052,20.6460483 3.38232141,20.4564471 C3.62304229,20.2879128 3.94872349,20.1966234 4.35936501,20.1966234 C4.72752636,20.1966234 5.09568772,20.2808905 5.46384908,20.4564471 L5.18064803,21.1867626 C4.85496683,21.039295 4.57176579,20.9690724 4.33812493,20.9690724 C4.21068446,20.9690724 4.11864412,20.9901392 4.07616396,21.0322728 C4.01244373,21.0744063 3.99120365,21.1165399 3.99120365,21.1797403 C3.99120365,21.2429407 4.03368381,21.306141 4.09740404,21.3482746 C4.16112428,21.3904082 4.35936501,21.4957422 4.68504621,21.650232 C4.98948733,21.7766327 5.20188811,21.9311225 5.31516853,22.07859 C5.40012884,22.212013 5.46384908,22.4086364 5.46384908,22.6403711 Z M7.15597531,23.7358443 C6.70285364,23.7358443 6.35593236,23.6094435 6.11521147,23.3706865 C5.85325051,23.1319296 5.74705012,22.7878387 5.74705012,22.3594806 C5.74705012,21.9100557 5.85325051,21.5659648 6.0939714,21.306141 C6.33469228,21.0673841 6.66037348,20.9409833 7.09225507,20.9409833 C7.50289659,20.9409833 7.80733771,21.0463173 8.04805859,21.2640075 C8.2675394,21.4816976 8.37373979,21.7766327 8.37373979,22.1698795 L8.37373979,22.5771708 L6.70285364,22.5771708 C6.70285364,22.7246383 6.76657387,22.8369945 6.87277427,22.9212617 C6.97897466,23.0055288 7.11349515,23.0476624 7.30465586,23.0476624 C7.47457648,23.0476624 7.63033706,23.0265956 7.75777753,23.0055288 C7.88521799,22.984462 8.04097857,22.9212617 8.21089919,22.8580613 L8.21089919,23.5251763 C8.06221865,23.5883767 7.90645807,23.6515771 7.75777753,23.6726439 C7.54537674,23.7147775 7.37545612,23.7358443 7.15597531,23.7358443 Z M7.09225507,21.5870316 C6.98605468,21.5870316 6.89401434,21.6291652 6.80905403,21.6923655 C6.7453338,21.7555659 6.70285364,21.8608999 6.68161356,22.0153897 L7.48165651,22.0153897 C7.48165651,21.8889889 7.43917635,21.7766327 7.37545612,21.7134323 C7.31173588,21.6291652 7.21969554,21.5870316 7.09225507,21.5870316 Z M9.71186472,23.6937107 L8.78438131,23.6937107 L8.78438131,20 L9.71894475,20 L9.71186472,23.6937107 Z M11.5526715,23.7358443 C11.0995498,23.7358443 10.7526286,23.6094435 10.5119077,23.3706865 C10.2499467,23.1319296 10.1437463,22.7878387 10.1437463,22.3594806 C10.1437463,21.9100557 10.2499467,21.5659648 10.4906676,21.306141 C10.7313885,21.0673841 11.0570697,20.9409833 11.4889513,20.9409833 C11.8995928,20.9409833 12.2040339,21.0463173 12.4447548,21.2640075 C12.6642356,21.4816976 12.770436,21.7766327 12.770436,22.1698795 L12.770436,22.5771708 L11.0995498,22.5771708 C11.0995498,22.7246383 11.1632701,22.8369945 11.2694705,22.9212617 C11.3756709,23.0055288 11.5101913,23.0476624 11.7013521,23.0476624 C11.8712727,23.0476624 12.0270333,23.0265956 12.1544737,23.0055288 C12.2819142,22.984462 12.4376748,22.9212617 12.6075954,22.8580613 L12.6075954,23.5251763 C12.4589148,23.5883767 12.3031543,23.6515771 12.1544737,23.6726439 C11.963313,23.7147775 11.7721523,23.7358443 11.5526715,23.7358443 Z M11.5101913,21.5870316 C11.403991,21.5870316 11.3119506,21.6291652 11.2269903,21.6923655 C11.1632701,21.7555659 11.1207899,21.8608999 11.0995498,22.0153897 L11.8995928,22.0153897 C11.8995928,21.8889889 11.8571126,21.7766327 11.7933924,21.7134323 C11.7296722,21.6291652 11.6163917,21.5870316 11.5101913,21.5870316 Z M14.413002,23.7358443 C13.9811204,23.7358443 13.6341992,23.6094435 13.4147184,23.3706865 C13.1739975,23.1319296 13.0677971,22.7878387 13.0677971,22.3384138 C13.0677971,21.8889889 13.1952376,21.544898 13.4359584,21.306141 C13.6766793,21.0673841 14.0448407,20.9409833 14.4979624,20.9409833 C14.8024035,20.9409833 15.1068446,21.0041837 15.3829656,21.1376067 L15.0997646,21.8257885 C14.9935642,21.783655 14.8802838,21.7415214 14.7953234,21.7204546 C14.7103631,21.6993878 14.5970827,21.678321 14.4908823,21.678321 C14.3422018,21.678321 14.2289214,21.7415214 14.143961,21.8468553 C14.0590007,21.9521893 14.0165206,22.1277459 14.0165206,22.3384138 C14.0165206,22.7667719 14.1652011,22.984462 14.4908823,22.984462 C14.7740834,22.984462 15.0289643,22.9001949 15.2696852,22.7457051 L15.2696852,23.4760205 C15.0431244,23.6515771 14.7599233,23.7358443 14.413002,23.7358443 Z M17.0326117,23.0055288 C17.1600522,23.0055288 17.3158127,22.984462 17.4857334,22.9212617 L17.4857334,23.5883767 C17.3582929,23.6305103 17.2450125,23.6726439 17.117572,23.6937107 C17.0113716,23.7147775 16.8768511,23.7358443 16.7281706,23.7358443 C16.4237294,23.7358443 16.1900886,23.6515771 16.0555681,23.4970873 C15.9281276,23.3496198 15.8360873,23.1108628 15.8360873,22.7878387 L15.8360873,21.6923655 L15.5104061,21.6923655 L15.5104061,21.306141 L15.9210476,21.0041837 L16.1617685,20.4424026 L16.7706507,20.4424026 L16.7706507,20.9760946 L17.4432532,20.9760946 L17.4432532,21.6642765 L16.7706507,21.6642765 L16.7706507,22.717616 C16.7989708,22.9212617 16.8839311,23.0055288 17.0326117,23.0055288 Z M20.6080249,23.6937107 L19.8929422,21.2008071 L19.8717021,21.2008071 C19.9141823,21.6291652 19.9141823,21.9521893 19.9141823,22.1909463 L19.9141823,23.6937107 L19.0716592,23.6937107 L19.0716592,20.2317347 L20.3248238,20.2317347 L21.0611465,22.6825047 L21.0823866,22.6825047 L21.7974692,20.2317347 L23.0506339,20.2317347 L23.0506339,23.6937107 L22.1868707,23.6937107 L22.1868707,22.1698795 L22.1868707,21.9100557 C22.1868707,21.8257885 22.2081108,21.5870316 22.2081108,21.2008071 L22.1868707,21.2008071 L21.471788,23.6937107 L20.6080249,23.6937107 Z M25.4436827,23.6937107 L25.273762,23.328553 L25.252522,23.328553 C25.1250815,23.4760205 24.990561,23.5883767 24.8631205,23.6515771 C24.7356801,23.7147775 24.5586794,23.7358443 24.3675187,23.7358443 C24.1055577,23.7358443 23.914397,23.6515771 23.7586365,23.4970873 C23.6099559,23.3496198 23.5391557,23.1319296 23.5391557,22.851039 C23.5391557,22.5701485 23.645356,22.3594806 23.8435968,22.2049908 C24.0418375,22.0575232 24.3391986,21.9873006 24.70736,21.9662338 L25.1604816,21.945167 L25.1604816,21.9030334 C25.1604816,21.6853433 25.0542812,21.5800093 24.8348004,21.5800093 C24.6365597,21.5800093 24.3816788,21.6432097 24.0772376,21.7766327 L23.8152767,21.172718 C24.1409579,21.0252505 24.5303593,20.9339611 25.0047211,20.9339611 C25.3516423,20.9339611 25.6136033,21.0182282 25.804764,21.1937848 C26.0030047,21.3623191 26.087965,21.6010761 26.087965,21.9030334 L26.087965,23.6656216 L25.4436827,23.6937107 Z M24.7498401,23.0757515 C24.8560405,23.0757515 24.9693209,23.0336179 25.0330412,22.9704175 C25.1180015,22.9072171 25.1604816,22.8018832 25.1604816,22.689527 L25.1604816,22.4718368 L24.9410008,22.4718368 C24.6365597,22.4929036 24.4878792,22.5982375 24.4878792,22.8159277 C24.4878792,22.984462 24.5728395,23.0757515 24.7498401,23.0757515 Z M28.2615331,20.9480056 C28.3464934,20.9480056 28.4102136,20.9480056 28.5022539,20.9690724 L28.5447341,20.9690724 L28.4597738,21.8468553 C28.3748135,21.8257885 28.2898532,21.8257885 28.1340926,21.8257885 C27.9358519,21.8257885 27.7871713,21.8679221 27.6809709,21.9521893 C27.5960106,22.0364565 27.5535304,22.1909463 27.5535304,22.3594806 L27.5535304,23.6726439 L26.618967,23.6726439 L26.618967,20.9901392 L27.3128096,20.9901392 L27.4614901,21.4184973 L27.5039703,21.4184973 C27.5889306,21.2710297 27.702211,21.1586735 27.8296515,21.0744063 C27.978332,20.9901392 28.1270126,20.9480056 28.2615331,20.9480056 Z M29.7341785,22.1698795 C29.8403789,22.0013451 29.9536593,21.8468553 30.0173795,21.7625882 L30.6262618,21.011206 L31.6670256,21.011206 L30.7324622,22.1488127 L31.7307458,23.6937107 L30.6687419,23.6937107 L30.0810998,22.7246383 L29.7766586,22.9633953 L29.7766586,23.6937107 L28.8420952,23.6937107 L28.8420952,20 L29.7766586,20 L29.7766586,21.439564 C29.7554186,21.6993878 29.7554186,21.9311225 29.7341785,22.1698795 Z M33.2600315,23.7358443 C32.8069098,23.7358443 32.4599885,23.6094435 32.2192676,23.3706865 C31.9573067,23.1319296 31.8511063,22.7878387 31.8511063,22.3594806 C31.8511063,21.9100557 31.9573067,21.5659648 32.1980276,21.306141 C32.4387484,21.0673841 32.7644296,20.9409833 33.1963112,20.9409833 C33.6069527,20.9409833 33.9113939,21.0463173 34.1521147,21.2640075 C34.3715956,21.4816976 34.4777959,21.7766327 34.4777959,22.1698795 L34.4777959,22.5771708 L32.8069098,22.5771708 C32.8069098,22.7246383 32.87063,22.8369945 32.9768304,22.9212617 C33.0830308,23.0055288 33.2175513,23.0476624 33.408712,23.0476624 C33.5786326,23.0476624 33.7343932,23.0265956 33.8618337,23.0055288 C33.9892741,22.984462 34.1450347,22.9212617 34.3149553,22.8580613 L34.3149553,23.5251763 C34.1662748,23.5883767 34.0105142,23.6515771 33.8618337,23.6726439 C33.6494329,23.7147775 33.4795123,23.7358443 33.2600315,23.7358443 Z M33.1963112,21.5870316 C33.0901108,21.5870316 32.9980705,21.6291652 32.9131102,21.6923655 C32.84939,21.7555659 32.8069098,21.8608999 32.7856697,22.0153897 L33.5857127,22.0153897 C33.5857127,21.8889889 33.5432325,21.7766327 33.4795123,21.7134323 C33.415792,21.6291652 33.3308317,21.5870316 33.1963112,21.5870316 Z M36.2124023,23.0055288 C36.3398428,23.0055288 36.4956034,22.984462 36.665524,22.9212617 L36.665524,23.5883767 C36.5380835,23.6305103 36.4248031,23.6726439 36.2973627,23.6937107 C36.1911623,23.7147775 36.0566418,23.7358443 35.9079612,23.7358443 C35.6035201,23.7358443 35.3698792,23.6515771 35.2353587,23.4970873 C35.1079183,23.3496198 35.0158779,23.1108628 35.0158779,22.7878387 L35.0158779,21.6923655 L34.6901967,21.6923655 L34.6901967,21.306141 L35.1008382,21.0041837 L35.3415591,20.4424026 L35.9504414,20.4424026 L35.9504414,20.9760946 L36.6230439,20.9760946 L36.6230439,21.6642765 L35.9504414,21.6642765 L35.9504414,22.717616 C35.9504414,22.9212617 36.0354017,23.0055288 36.2124023,23.0055288 Z M39.115213,22.8580613 C39.115213,23.1389518 39.0090126,23.3496198 38.8107719,23.5041096 C38.6125312,23.6515771 38.3364102,23.7217997 37.9682488,23.7217997 C37.7700081,23.7217997 37.6000874,23.7217997 37.4514069,23.7007329 C37.3027264,23.6796661 37.1469658,23.6375326 36.9982852,23.595399 L36.9982852,22.8440168 C37.1469658,22.9072171 37.3027264,22.9493507 37.472647,22.9914843 C37.6425676,23.0336179 37.7983282,23.0546847 37.9257686,23.0546847 C38.1240094,23.0546847 38.2302098,23.0125511 38.2302098,22.9282839 C38.2302098,22.8861504 38.2089697,22.8440168 38.1452495,22.8018832 C38.0815292,22.7597496 37.9257686,22.6965492 37.6496476,22.584193 C37.4089267,22.4788591 37.2390061,22.3665028 37.1328057,22.2401021 C37.0266053,22.1137014 36.9841252,21.9381448 36.9841252,21.7485436 C36.9841252,21.4887199 37.0690855,21.2991188 37.2673262,21.1656958 C37.465567,21.039295 37.741688,20.9480056 38.0886092,20.9480056 C38.2585299,20.9480056 38.4355305,20.9690724 38.5842111,21.011206 C38.7328916,21.0533395 38.9098923,21.0954731 39.0798129,21.1797403 L38.8178519,21.783655 C38.6904115,21.7204546 38.555891,21.678321 38.4284505,21.6361874 C38.30101,21.5940538 38.1664895,21.5729871 38.0815292,21.5729871 C37.9328487,21.5729871 37.8408083,21.6151206 37.8408083,21.678321 C37.8408083,21.7204546 37.8620484,21.7625882 37.9257686,21.783655 C37.9682488,21.8047218 38.1452495,21.8889889 38.3788903,21.9802783 C38.577131,22.0645455 38.7045715,22.1277459 38.8107719,22.2190353 C38.8957322,22.2822357 38.9594525,22.3875696 39.0090126,22.4788591 C39.093973,22.5982375 39.115213,22.7105938 39.115213,22.8580613 Z" id="Combined-Shape" fill="#000000" fill-rule="nonzero"></path>
        </g>
    </g>
</svg>