<?xml version="1.0" encoding="UTF-8"?>
<svg width="42px" height="32px" viewBox="0 0 42 32" version="1.1" xmlns="http://www.w3.org/2000/svg" xmlns:xlink="http://www.w3.org/1999/xlink">
    <!-- Generator: Sketch 46.2 (44496) - http://www.bohemiancoding.com/sketch -->
    <title>NBCSNHD_Color</title>
    <desc>Created with Sketch.</desc>
    <defs></defs>
    <g id="Domestic" stroke="none" stroke-width="1" fill="none" fill-rule="evenodd">
        <g id="NBCSNHD">
            <g id="Group" transform="translate(4.000000, 3.000000)">
                <g id="Logo-/-NBCSN-Color" transform="translate(0.000000, 14.820513)" fill="#000000">
                    <path d="M32.3790311,1.31596081 L32.3790311,5.12701844 L29.0874136,1.31596081 L28.6221819,1.31596081 C28.630416,1.34203574 28.6379641,1.36742449 28.6441397,1.39418561 L28.6475706,1.41134017 C28.6853106,1.52867738 28.7100132,1.6418975 28.7271678,1.74962815 C28.7896104,2.08036812 28.6894277,2.39326734 28.6894277,2.39326734 C28.5645425,2.6848949 28.2180204,2.96211263 27.6622125,3.22080344 L27.6622125,5.17436503 C27.9366855,5.2539622 28.0794115,5.39051252 28.1562639,5.51059446 C28.2818353,5.71027356 28.2900695,5.96484727 28.175477,6.19403223 C28.0711773,6.39988698 27.942175,6.51791037 27.6622125,6.6503436 L27.6622125,7.50258227 L29.1862239,7.50258227 L29.1862239,3.5714427 L32.5896891,7.50395463 L33.9037286,7.50395463 L33.9037286,1.31596081 L32.3790311,1.31596081 Z" id="Fill-1"></path>
                    <path d="M26.0182565,6.20103129 C25.6497765,6.84329812 24.3926901,7.61525343 23.9741188,7.85130021 C23.7428753,7.98373344 23.2049082,8.29457411 22.5475454,8.53336562 C21.8195057,8.79617352 21.1690047,8.91900019 21.109993,8.73990656 C21.0832319,8.6637403 21.0358853,8.63286209 21.2705597,8.38446402 C21.549836,8.09283646 22.3965852,7.54869373 23.1788333,7.14384605 C24.012545,6.71017871 24.9327158,6.32728887 25.7979919,6.00341073 C25.8837647,5.97527725 25.9661066,5.9498885 26.04639,5.92655829 C26.0800129,5.99654891 26.0820715,6.08643881 26.0182565,6.20103129 M28.4137196,1.44853127 C28.1413052,0.289569017 26.3050808,0.337601792 26.3050808,0.337601792 C24.7220577,0.34240507 22.3499248,0.795285523 20.2460893,2.33782379 C19.1646656,3.13036458 19.3300356,3.69577897 19.3300356,3.69577897 C19.3300356,3.69577897 19.3108225,4.79298479 20.1445343,5.06128215 C20.4787051,5.16764044 20.7216137,5.22733832 21.2739907,5.28086055 C22.3396321,5.38790502 23.1294281,5.40162867 24.2314372,5.47848111 C24.8606666,5.52102443 25.3005096,5.59101505 25.6099779,5.66923985 C25.4528421,5.72825155 25.3533456,5.77353959 25.3416805,5.77902905 C25.3080576,5.79481125 25.2703176,5.80990726 25.2353223,5.82568946 L25.1330811,5.86686041 L25.1323949,5.87029132 C24.3940625,6.15162615 23.6564163,6.46109446 22.9983673,6.78977588 C22.2909131,7.14453224 21.2307612,7.74151101 20.8513022,8.21429076 C20.3949909,8.78588079 20.8190517,9.23670269 20.7682742,9.14063714 C20.8362062,9.26552236 21.1189134,9.77466977 22.3300255,9.62165108 C22.9215148,9.54411245 23.6104421,9.26552236 24.1456644,8.97458097 C24.9121303,8.55806819 25.4782309,8.07362335 25.8206359,7.74425574 C26.5054461,7.08140345 26.7016943,6.5695113 26.7030666,6.12417885 C26.7030666,5.99586272 26.6831673,5.8867597 26.6550339,5.7927527 C26.7147317,5.78520469 26.7730572,5.77902905 26.828638,5.77559814 C27.2279962,5.7536403 27.3919939,5.8517644 27.4544365,5.91146228 C27.4935489,5.94851613 27.5148205,5.99586272 27.5141344,6.04115077 C27.5107034,6.13927487 27.4352234,6.21818585 27.3755255,6.28337319 C27.3528815,6.30464485 27.3350407,6.32591651 27.3226894,6.34444344 C27.2918112,6.38218347 27.3000454,6.41580642 27.3069072,6.43433334 C27.3274927,6.48099375 27.3892491,6.49403122 27.4064037,6.49608977 L27.4214997,6.49608977 L27.433851,6.49197267 C27.7886074,6.34444344 27.8819282,6.24837788 27.9649563,6.08643881 C28.0397501,5.93342012 28.0363192,5.7653054 27.9546635,5.63561691 C27.8688907,5.49975277 27.6575465,5.33987225 27.1326169,5.34467553 C26.8986286,5.34879262 26.6639542,5.3810432 26.4436896,5.42633124 L26.4237904,5.39613921 C26.3764438,5.35016499 26.3270386,5.30968022 26.264596,5.271254 C25.3416805,4.69211596 22.5791098,4.64339701 21.5189578,4.56242747 C20.3737192,4.47802702 20.1157146,4.40254695 20.0731713,4.21178821 C20.0169043,3.96613488 20.3792087,3.6161818 20.8965903,3.24015379 C22.899557,1.77858505 25.6676172,1.48009566 26.5637716,1.49519168 C27.5443264,1.50960151 27.8201717,1.62556635 27.8359539,1.69761552 C27.8524223,1.76691995 27.8050757,1.82250073 27.8050757,1.82250073 C27.6458814,2.0043391 27.4283615,2.11961776 27.1930009,2.27263645 C26.2941019,2.8552054 25.3162918,3.28612801 25.3162918,3.28612801 C25.1022028,3.48374857 25.5187156,3.53658463 25.5187156,3.53658463 C26.0868747,3.51668533 26.6358207,3.37944883 27.1504576,3.18045591 C28.2167852,2.7728635 28.4720451,2.40506968 28.5001786,2.18754982 C28.5550732,1.80877708 28.3931341,1.41422214 28.4137196,1.44853127" id="Fill-4"></path>
                    <path d="M17.0838858,7.6087347 C15.0143594,7.6087347 13.4800553,6.20549148 13.4800553,4.42759261 L13.4800553,4.41181041 C13.4800553,2.64969374 14.9848535,1.21008285 17.1428975,1.21008285 C18.4679159,1.21008285 19.2625153,1.59914833 19.915761,2.16387653 L18.9290306,3.16364444 C18.3876326,2.73066328 17.8373142,2.46511065 17.1339771,2.46511065 C15.9503123,2.46511065 15.0939565,3.33038678 15.0939565,4.3925973 L15.0939565,4.41181041 C15.0939565,5.47059002 15.930413,6.3537069 17.1339771,6.3537069 C17.9374968,6.3537069 18.4281173,6.07237207 18.9791219,5.62978436 L19.9624214,6.5067256 C19.242616,7.18536009 18.4390963,7.6087347 17.0838858,7.6087347" id="Fill-7"></path>
                    <path d="M11.906433,5.62072675 C11.906433,5.20558633 11.5551075,4.94964026 10.7632529,4.94964026 L8.97711985,4.94964026 L8.97711985,6.3089678 L10.812658,6.3089678 C11.4960958,6.3089678 11.906433,6.10036832 11.906433,5.63650895 L11.906433,5.62072675 Z M11.5146228,3.14566645 C11.5146228,2.74081878 11.1543769,2.50888909 10.5011312,2.50888909 L8.97711985,2.50888909 L8.97711985,3.81881149 L10.3995762,3.81881149 C11.0843863,3.81881149 11.5146228,3.62393566 11.5146228,3.1635072 L11.5146228,3.14566645 Z M10.812658,7.50361154 L7.47094925,7.50361154 L7.47094925,1.31561772 L10.7337471,1.31561772 C12.1678685,1.31561772 13.0516716,1.94210234 13.0516716,2.9164815 L13.0516716,2.93363606 C13.0516716,3.63216985 12.6296693,4.02054915 12.1287561,4.2696334 C12.9411962,4.54204785 13.440737,4.95924681 13.440737,5.78884146 L13.440737,5.80668221 C13.440737,6.93888334 12.3997982,7.50361154 10.812658,7.50361154 L10.812658,7.50361154 Z" id="Fill-9"></path>
                    <polygon id="Fill-11" points="2.31662075 3.57171717 5.72008597 7.50354292 7.03343929 7.50354292 7.03343929 1.31623528 5.51011413 1.31623528 5.51011413 5.12729291 2.21712429 1.31623528 0.792609411 1.31623528 0.792609411 7.50285674 2.31662075 7.50285674"></polygon>
                </g>
                <g id="Page-1" transform="translate(6.102564, 0.000000)">
                    <path d="M16.3808206,13.3514474 C17.7065927,13.3514474 19.0267205,13.3513192 20.3464545,13.3504221 C20.7982671,13.3501657 21.1857601,13.2637805 21.5312485,13.0863958 C22.3973321,12.6415245 22.9117579,11.8922539 23.0186073,10.9193301 C23.1097049,10.0904672 22.8392999,9.33440373 22.2364017,8.73316731 C21.7242074,8.22216121 21.1045073,7.94826604 20.3944973,7.91917189 C20.3570869,7.91763387 20.319939,7.91686486 20.2829224,7.91686486 L20.2827911,7.91686486 C20.2108582,7.91686486 20.1391877,7.92006906 20.067911,7.92583662 C20.9543407,7.25231341 21.3230628,6.3848719 21.1630513,5.34427533 C21.0572521,4.65729447 20.7146516,4.08322968 20.144307,3.63835831 C19.7532699,3.3333183 19.2855742,3.14670558 18.754609,3.08377506 C18.6296452,3.06903573 18.5056001,3.06147382 18.3856243,3.06147382 C17.772225,3.06160199 17.2285272,3.25590478 16.761094,3.63425693 C16.9816185,2.95727318 16.9285876,2.27631621 16.6020014,1.65008702 C16.1049024,0.697157407 15.1894633,0.128219338 14.1529983,0.128219338 C13.929061,0.128219338 13.7001355,0.155006465 13.4726541,0.207811711 C12.7807585,0.368406304 12.2322039,0.730737441 11.841823,1.28493618 C11.7045203,1.47987982 11.5983273,1.69097263 11.5202249,1.92052165 C11.1518965,0.859930857 10.13604,0.145522028 8.92971859,0.145522028 C8.76209374,0.145522028 8.59249991,0.159620516 8.42566265,0.187432987 C8.04066367,0.251517023 7.67272908,0.405831381 7.33209752,0.646402851 C6.40011909,1.30428956 5.99175501,2.34373262 6.23984505,3.42675282 C6.25454668,3.49096502 6.27239866,3.5528702 6.29103823,3.61426271 C5.8321373,3.24065278 5.27636311,3.04660632 4.6432741,3.04660632 L4.64314283,3.04660632 C4.54994499,3.04660632 4.45372806,3.05083587 4.35737987,3.05903862 C3.60195227,3.12363533 2.95888715,3.4489259 2.4970984,3.99953593 C1.86007145,4.75957259 1.6790576,5.65405756 1.97387783,6.58622394 C2.13612083,7.0994089 2.45063074,7.53223248 2.93210918,7.90327904 C2.86293275,7.89815232 2.79336253,7.89533262 2.72366104,7.89533262 C2.60736064,7.89533262 2.48869747,7.90251004 2.37108441,7.91660852 C1.77842488,7.9877418 1.26662433,8.2278006 0.850121853,8.62986384 C0.372975146,9.09037172 0.0948255245,9.62662693 0.0234175991,10.223762 C-0.0519282634,10.8543489 0.0549210956,11.4264912 0.341340385,11.9244241 C0.874668328,12.8514638 1.74337724,13.34427 2.8534817,13.3493967 C3.77653415,13.3537544 4.77952672,13.3558051 6.01026332,13.3558051 C6.71042853,13.3558051 7.410725,13.3551643 8.11089021,13.3545235 L16.3808206,13.3514474 Z" id="Fill-1" fill="#FFFFFF"></path>
                    <path d="M10.084033,11.3549477 C10.053317,11.2975284 10.0296894,11.2599752 10.0121,11.2198586 C9.56829446,10.2056646 9.12514528,9.19121436 8.68173357,8.17689224 C8.10495705,6.85740195 7.52660536,5.53868066 6.95271667,4.21790869 C6.82840912,3.93209389 6.69451926,3.64999597 6.62416145,3.34290527 C6.40639353,2.39189818 6.773278,1.51535674 7.56283438,0.957953798 C7.84150906,0.761215809 8.14945574,0.623435132 8.49179374,0.566528509 C9.75587153,0.356332872 10.9807012,1.07099804 11.2319416,2.34703935 C11.3020369,2.70347476 11.2971801,3.05721864 11.2413927,3.41403855 C11.1799608,3.80777086 11.1277175,4.20278486 11.0707487,4.59715801 C11.014305,4.98666078 10.9572049,5.37603538 10.8999735,5.76528181 C10.8419546,6.15965497 10.7834106,6.55389996 10.7252604,6.94827311 C10.6656663,7.35264338 10.6059409,7.75714181 10.5467406,8.16164024 C10.4906906,8.54601629 10.4356907,8.9305205 10.3795095,9.31489655 C10.3203092,9.71939498 10.2596649,10.1237652 10.2008584,10.5282637 C10.1620041,10.7957504 10.1251188,11.0633654 10.084033,11.3549477" id="Fill-4" fill="#C7244A"></path>
                    <path d="M13.0035145,11.3622149 C12.9659728,11.12818 12.9325003,10.9245209 12.9008656,10.7206055 C12.8421903,10.3425097 12.7846964,9.96428571 12.72694,9.58606174 C12.6791597,9.27345981 12.6320358,8.96072972 12.5842554,8.64812779 C12.5271554,8.27503054 12.4695302,7.90193328 12.4124301,7.52883602 C12.3645186,7.2162341 12.3171321,6.90337584 12.2692205,6.59077391 C12.2228841,6.28829726 12.1761539,5.98569245 12.1296862,5.6832158 C12.0816434,5.37061387 12.0333381,5.05801195 11.9862141,4.74541002 C11.9716437,4.64941214 11.9642929,4.55251707 11.9470972,4.45716003 C11.9079804,4.24029965 11.93804,4.0313857 12.006035,3.82400976 C12.0704859,3.62778444 12.2021443,3.48782491 12.3800078,3.38759747 C12.5064156,3.31646419 12.6382052,3.25443085 12.7755079,3.18432291 C12.7046251,3.0611534 12.5898998,3.04500422 12.4781937,3.04039017 C12.2790653,3.03218741 12.0794119,3.03526345 11.880021,3.03359726 C11.8493051,3.03334093 11.818458,3.03359726 11.7697588,3.03359726 C11.7697588,2.88466596 11.7570261,2.74265574 11.7721216,2.60333705 C11.8151763,2.20755404 11.9329207,1.83420045 12.1663091,1.50275782 C12.5082533,1.01738533 12.9815933,0.716959374 13.5636204,0.581870227 C14.749202,0.306693378 15.7578389,0.878963816 16.2509999,1.82458785 C16.5749609,2.44569032 16.5786363,3.09422076 16.3040308,3.73685547 C15.8230774,4.8622993 15.3350358,5.9846671 14.8494881,7.10818841 C14.2584038,8.4758699 13.6666631,9.84355139 13.0750537,11.2112329 C13.0570704,11.2527593 13.0363306,11.2931323 13.0035145,11.3622149" id="Fill-6" fill="#6460AB"></path>
                    <path d="M10.0429471,12.1803501 C9.91719569,12.1003732 9.82150382,12.0420568 9.72830597,11.9800234 C8.54705612,11.1931996 7.36593753,10.4061195 6.1849502,9.61878304 C5.24627727,8.99293835 4.30760434,8.36735 3.369719,7.74035179 C2.89427873,7.42236681 2.52240621,7.01761204 2.35018709,6.47276957 C2.09159589,5.65518544 2.24990096,4.90155718 2.80186847,4.24302963 C3.20786978,3.75881066 3.75629315,3.49645062 4.39174493,3.44210735 C5.4528877,3.35136436 6.20582127,3.82802142 6.69425673,4.71904585 C6.90598648,5.10508808 7.06665431,5.51791744 7.24727436,5.91998068 C7.67795341,6.87816518 8.1062697,7.83737502 8.53642369,8.79581586 C9.02328397,9.88050225 9.51132564,10.9648041 9.99844846,12.0494905 C10.0121,12.0799945 10.0202384,12.1129337 10.0429471,12.1803501" id="Fill-8" fill="#F26F21"></path>
                    <path d="M13.0821551,12.1099987 C13.1862479,11.8651976 13.2873216,11.6192431 13.3948273,11.3759801 C14.3182735,9.28414903 15.2432949,7.19308694 16.1667412,5.10125585 C16.3064067,4.78493705 16.4696998,4.48348575 16.7032195,4.22202289 C17.2356286,3.62616952 17.9003523,3.36996155 18.7072356,3.46557493 C19.149466,3.5178675 19.5517919,3.66820865 19.8985929,3.93877145 C20.3803338,4.3146884 20.6817173,4.8040341 20.7736025,5.40142548 C20.9283634,6.40792934 20.5004409,7.16629982 19.6766245,7.73088017 C18.737164,8.37466839 17.7856271,9.00153843 16.8392096,9.63558588 C15.642208,10.4375335 14.4452064,11.2392248 13.247811,12.0405316 C13.2005557,12.0721891 13.1500189,12.098848 13.1009259,12.127814 C13.0947565,12.1217901 13.0884558,12.1158944 13.0821551,12.1099987" id="Fill-10" fill="#0189CF"></path>
                    <path d="M10.3625239,12.9687504 L10.2109133,12.9687504 C7.75902241,12.9687504 5.30713153,12.9764405 2.85537191,12.9649053 C1.90344126,12.9605476 1.15772724,12.5583562 0.684649738,11.7360299 C0.423433246,11.2819304 0.352419114,10.788227 0.414507255,10.2682491 C0.479745746,9.72263763 0.737943153,9.2787916 1.12701133,8.90338732 C1.48326337,8.55938422 1.91722404,8.35854485 2.41931101,8.29830586 C3.06395131,8.22076417 3.64571588,8.39161221 4.1739245,8.73561532 C4.80570087,9.14703482 5.42395699,9.57870489 6.04785749,10.0019159 C7.45921413,10.959075 8.87043951,11.9164905 10.2816649,12.873906 C10.3114619,12.8941566 10.3400776,12.9159451 10.3693496,12.9369647 C10.3671181,12.9476026 10.3647554,12.9581124 10.3625239,12.9687504" id="Fill-12" fill="#FCB814"></path>
                    <path d="M12.6990069,12.966815 C12.7684459,12.9160605 12.8082191,12.8854283 12.8495674,12.8573595 C14.024254,12.0600259 15.1990719,11.2629487 16.3740211,10.4661278 C17.2218589,9.89103766 18.0689092,9.31479401 18.9181909,8.7420109 C19.3566146,8.44645533 19.8408496,8.28124669 20.3779842,8.30329159 C20.997553,8.32866887 21.52248,8.57065019 21.9549967,9.00206392 C22.4786111,9.52434881 22.7063551,10.1572427 22.6270713,10.8783163 C22.5357112,11.7111524 22.1190774,12.3500703 21.3478981,12.7461096 C21.035751,12.9064479 20.6956445,12.9657897 20.3462182,12.9659179 C17.8111056,12.9674559 15.2761242,12.966815 12.6990069,12.966815" id="Fill-14" fill="#23B24D"></path>
                    <polygon id="Fill-16" fill="#0189CF" points="13.0128736 11.778697 13.2400926 11.9919687 13.448672 12.1954996 12.6983637 12.4982326"></polygon>
                    <path d="M12.9421089,11.4484463 L12.7197467,11.9595806 L12.7118709,11.9775241 L12.7063578,11.9904691 L12.3294972,12.8557318 L13.2193397,12.4960922 L13.24428,12.4859669 L13.2513682,12.4831472 L13.7962475,12.2629544 L13.3793512,11.8560208 C13.3709503,11.8478181 13.3624181,11.8396153 13.3538859,11.8316689 L12.9421089,11.4484463 Z M13.0821682,12.1100499 C13.0884689,12.1159457 13.0947696,12.1218414 13.1008078,12.1278653 C13.0901753,12.1320948 13.0794117,12.1365807 13.068648,12.1408103 C13.0732422,12.1305568 13.0777052,12.1203034 13.0821682,12.1100499 L13.0821682,12.1100499 Z" id="Fill-18" fill="#FFFFFF"></path>
                </g>
            </g>
        </g>
    </g>
</svg>