<?xml version="1.0" encoding="UTF-8"?>
<svg width="42px" height="32px" viewBox="0 0 42 32" version="1.1" xmlns="http://www.w3.org/2000/svg" xmlns:xlink="http://www.w3.org/1999/xlink">
    <!-- Generator: Sketch 46.2 (44496) - http://www.bohemiancoding.com/sketch -->
    <title>NEWSY_Color</title>
    <desc>Created with Sketch.</desc>
    <defs></defs>
    <g id="Domestic" stroke="none" stroke-width="1" fill="none" fill-rule="evenodd">
        <g id="NEWSY" fill="#5397C5">
            <g id="Logo-/-Newsy-Color" transform="translate(2.000000, 7.000000)">
                <path d="M26.5234303,0.794545455 L37.1363636,0.794545455 L37.1363636,14.1696619 L28.9936963,14.1696619 L28.9936963,18.0222838 L26.5961558,14.1696619 L26.5961558,10.605376 C26.8737677,10.5686441 27.119816,10.5089871 27.3957667,10.4113984 L27.3957667,13.3047827 L36.3367527,13.3047827 L36.3367527,1.66485139 L27.3957667,1.66485139 L27.3957667,2.61552451 C27.1259072,2.527571 26.8004885,2.471218 26.5234303,2.43614734 L26.5234303,0.794545455 Z M3.17335265,2.90258703 L3.17335265,3.83605706 L3.19987714,3.83605706 C3.50956946,3.12818362 4.0892689,2.82989849 4.93882778,2.82989849 C5.20431262,2.82989849 5.44988103,2.84520037 5.67551453,2.90258703 C5.90120341,2.9603244 6.09802361,3.02197491 6.26625199,3.17235418 C6.43424042,3.32289958 6.56699207,3.52200859 6.66447003,3.76969969 C6.76174494,4.01753846 6.81047469,4.33609074 6.81047469,4.7254119 L6.81047469,10.1716813 L4.42548571,10.1716813 L4.42548571,5.40242317 C4.42548571,5.10168309 4.44115676,4.88468804 4.35279717,4.75193639 C4.26421608,4.6192032 4.04943602,4.55282737 3.83705553,4.55282737 C3.62467504,4.55282737 3.47409273,4.6192032 3.38573314,4.75193639 C3.29718897,4.88468804 3.25298149,5.10168309 3.25298149,5.40242317 L3.25298149,10.1716813 L0.863636364,10.1716813 L0.863636364,2.90258703 L3.17335265,2.90258703 Z M9.65922692,7.89799546 C9.65922692,8.28748275 9.73150938,8.54632263 9.86424257,8.67447818 C9.99699422,8.8029106 10.1473366,8.86694223 10.3155834,8.86694223 C10.5279639,8.86694223 10.693885,8.78068688 10.8133652,8.60812081 C10.9328269,8.43553628 10.9676761,8.11430756 10.9676761,7.62750844 L13.1429425,7.62750844 C13.1251488,8.51252559 12.8994599,9.17019263 12.4659682,9.61697429 C12.0322734,10.0639405 11.3198223,10.2443698 10.3288364,10.2443698 C9.75349314,10.2443698 9.27127166,10.2230505 8.8819505,10.0948027 C8.49246321,9.9666287 8.17845166,9.75428512 7.9394913,9.45771661 C7.70054941,9.16129576 7.53008758,8.77404191 7.42845652,8.2962135 C7.32660396,7.81831125 7.27578843,7.23877794 7.27578843,6.55728132 C7.27578843,5.86703549 7.33323046,5.28292454 7.44837295,4.80509612 C7.56325703,4.32719387 7.74475689,3.9378727 7.99259566,3.6369665 C8.24023138,3.33620797 8.55675325,3.11721943 8.94171827,2.97990859 C9.32662792,2.84276388 9.78895142,2.82989849 10.3288364,2.82989849 C10.8067018,2.82989849 11.2248362,2.83178123 11.5832399,2.94672068 C11.9416435,3.06182625 12.242402,3.2542903 12.4858846,3.52409437 C12.7291642,3.79415686 12.9106456,4.14805666 13.0301258,4.58603375 C13.149606,5.02408466 13.2093184,5.57061464 13.2093184,6.22542065 L13.2210947,6.97327463 L9.6651151,6.97327463 L9.65922692,7.89799546 Z M10.8398897,4.4997784 C10.7469894,4.32287464 10.572116,4.23429355 10.3155834,4.23429355 C10.0677262,4.23429355 9.89743048,4.32287464 9.80453017,4.4997784 C9.71159294,4.67694057 9.6651151,4.95564151 9.6651151,5.3360658 L9.6651151,5.65461808 L10.9792863,5.65461808 L10.9792863,5.3360658 C10.9792863,4.95564151 10.9328269,4.67694057 10.8398897,4.4997784 Z M15.5182594,2.90258703 L16.1155865,8.12362897 L16.1421109,8.12362897 L16.8456836,2.90258703 L19.3943049,2.90258703 L20.0977484,8.12362897 L20.1243282,8.12362897 L20.7216368,2.90258703 L23.0313162,2.90258703 L21.5712695,10.1716813 L18.8633167,10.1716813 L18.133238,5.05727257 L18.1066397,5.05727257 L17.3766164,10.1716813 L14.6686821,10.1716813 L13.2085247,2.90258703 L15.5182594,2.90258703 Z M25.2112341,8.26645882 C25.2376294,8.39049818 25.2819292,8.49209232 25.3439489,8.57177654 C25.4587591,8.73994955 25.6270982,8.79054358 25.8484125,8.79054358 C26.0341024,8.79054358 26.1954274,8.77088556 26.3327567,8.66467685 C26.4699014,8.55846815 26.5385661,8.40810734 26.5385661,8.21339138 C26.5385661,8.00097397 26.4521815,7.83737861 26.2797816,7.72227303 C26.107197,7.60733358 25.8925277,7.5055364 25.6359582,7.41695531 C25.3792041,7.32854035 25.1026997,7.23564003 24.8062604,7.13816208 C24.5096365,7.04092408 24.2333167,6.90819089 23.9767472,6.73992558 C23.7198085,6.57193716 23.5053237,6.34835251 23.3327392,6.06957774 C23.1603393,5.79085834 23.106995,5.42582822 23.106995,4.97445046 C23.106995,4.65589818 23.1315444,4.36182152 23.2465392,4.09175904 C23.3615341,3.82195497 23.5363336,3.58524652 23.7709378,3.38155986 C24.0051728,3.17811315 24.3017967,3.01883701 24.6602557,2.90373144 C25.0187147,2.78879199 25.4412238,2.75720994 25.9279675,2.75720994 C27.7243233,2.75720994 28.6226858,3.50630063 28.6226858,5.0106286 L26.551856,5.0106286 C26.551856,4.7009732 26.4964813,4.46803023 26.3859164,4.35724388 C26.275167,4.24669749 26.1180874,4.21101772 25.9146776,4.21101772 C25.7376631,4.21101772 25.5914738,4.24005253 25.4766636,4.33738282 C25.3614842,4.43484231 25.3040791,4.57191319 25.3040791,4.74881695 C25.3040791,4.95250361 25.390279,5.10511633 25.5628636,5.20674739 C25.7354481,5.30863686 25.9499328,5.39928527 26.2066869,5.4788772 C26.4632564,5.55856141 26.7397609,5.64273098 27.0363847,5.73114594 C27.3326395,5.81963473 27.6093285,5.94581525 27.8660826,6.10941062 C28.1226521,6.2732644 28.3373214,6.49441256 28.5097213,6.7731135 C28.6823059,7.05190673 28.7686904,7.42153295 28.7686904,7.88154917 C28.7686904,8.2356151 28.7022408,8.55846815 28.569526,8.85056977 C28.4368113,9.1425791 28.2487218,9.39475555 28.0054423,9.60720988 C27.7617935,9.81951654 27.4611088,9.97888497 27.1028344,10.0850014 C26.7443754,10.1912101 26.3394017,10.2443514 25.8880977,10.2443514 C24.8880304,10.2443514 24.169082,10.0452423 23.731068,9.64704276 C23.293054,9.24880626 23.106995,8.63327939 23.106995,7.84555561 L25.2151104,7.84555561 C25.2151104,7.98720413 25.1846543,8.14262249 25.2112341,8.26645882 Z M29.823025,10.6678203 C29.9734596,10.6678203 30.0995294,10.6575575 30.2014189,10.6134054 C30.3029392,10.5690687 30.3848938,10.5182532 30.4469135,10.4607927 C30.5087486,10.4031476 30.5530483,10.3433429 30.5796282,10.2815447 C30.6062081,10.2195804 30.619498,10.1708506 30.619498,10.1355954 C30.619498,10.0824357 30.6082385,10.0117591 30.5862732,9.92315955 C30.5641233,9.83485533 30.5397584,9.74186273 30.5133631,9.64436631 L28.6284078,2.81721768 L31.0840918,2.81721768 L31.8141152,7.71961505 L31.840695,7.71961505 L32.5310332,2.81721768 L34.9202675,2.81721768 L32.995627,10.2550202 C32.8894921,10.6708843 32.7676678,11.0137461 32.6305231,11.283827 C32.4931938,11.5536127 32.3296538,11.768282 32.1393493,11.9276504 C31.9490449,12.0869081 31.7299456,12.1974545 31.4822361,12.2594926 C31.2345265,12.3212908 30.9513771,12.3523929 30.6327879,12.3523929 C30.3760338,12.3523929 30.1393992,12.3478153 29.9226995,12.3390845 C29.7056306,12.3301877 29.4955759,12.3573397 29.2921661,12.3397121 L29.2921661,10.6678203 L29.823025,10.6678203 Z" id="Combined-Shape"></path>
            </g>
        </g>
    </g>
</svg>