<?xml version="1.0" encoding="UTF-8"?>
<svg width="42px" height="32px" viewBox="0 0 42 32" version="1.1" xmlns="http://www.w3.org/2000/svg" xmlns:xlink="http://www.w3.org/1999/xlink">
    <!-- Generator: Sketch 46.2 (44496) - http://www.bohemiancoding.com/sketch -->
    <title>NICJRHD_Color</title>
    <desc>Created with Sketch.</desc>
    <defs></defs>
    <g id="Domestic" stroke="none" stroke-width="1" fill="none" fill-rule="evenodd">
        <g id="NICJRHD">
            <g id="Logo" transform="translate(1.000000, 10.000000)">
                <path d="M30.0686036,8.17214813 C30.0686036,9.74002538 29.3056456,10.7531034 27.4713678,10.7531034 L27.4010125,10.7531034 C26.7599649,10.7531034 26.088779,10.5831264 25.6700388,10.3136248 C24.9423553,9.84478311 24.4675053,9.07475081 24.94691,8.26110983 C25.3909432,7.50697047 26.9462224,7.36800415 27.176767,8.6808191 C27.2573946,9.14006691 27.5009248,9.08008076 27.5009248,8.65630134 L27.5016031,5.53324181 C27.501797,4.59982234 28.0774315,4.02535072 28.7872838,4.02573835 C29.4971361,4.02622289 30.0721892,4.60108214 30.0719954,5.31015921 L30.0686036,8.17214813 Z M28.7872838,3.6218251 C29.4899649,3.6218251 30.0593973,3.05219889 30.0593973,2.34980849 C30.0593973,1.64693355 29.4899649,1.07769497 28.7872838,1.07769497 C28.0848934,1.07769497 27.5151703,1.64693355 27.5151703,2.34980849 C27.5151703,3.05219889 28.0848934,3.6218251 28.7872838,3.6218251 L28.7872838,3.6218251 Z" id="Fill-1" fill="#09BCCA"></path>
                <path d="M33.2733858,10.5111915 L33.2733858,7.05108537 C33.2733858,6.80135302 33.4295048,6.38019012 33.7191634,6.26738902 C34.0147333,6.15410337 34.2845256,6.28512321 34.6078113,6.40606461 C35.6747702,6.81269128 36.5045948,6.27456022 36.6332889,5.57701523 C36.7625644,4.87985787 36.3019599,4.20983479 35.6044149,4.0805593 C34.7478436,3.92017628 34.143815,4.18929026 33.4440411,4.7295533 L33.4421029,4.73091001 C33.3927766,4.76899492 33.2603032,4.8838311 33.2136904,4.92278819 C33.0490434,4.40268205 32.5628551,4.02570928 31.988868,4.02570928 C31.2793064,4.02570928 30.7044472,4.60066544 30.7044472,5.31013013 L30.7044472,10.5111915 L33.2733858,10.5111915 Z" id="Fill-3" fill="#09BCCA"></path>
                <path d="M35.4668828,10.5814112 C36.1693701,10.5814112 36.7388025,10.011688 36.7388025,9.30929765 C36.7388025,8.6064227 36.1693701,8.03766867 35.4668828,8.03766867 C34.7644924,8.03766867 34.1947693,8.6064227 34.1947693,9.30929765 C34.1947693,10.011688 34.7644924,10.5814112 35.4668828,10.5814112" id="Fill-5" fill="#09BCCA"></path>
                <path d="M4.29765944,4.02544762 C3.36598431,4.02467236 2.51067282,4.40668436 1.90131426,5.01778726 C1.29030826,5.62695201 0.90839317,6.48206968 0.909071527,7.41432626 L0.909071527,10.5094762 L3.48149885,10.5094762 L3.48149885,9.15508768 L3.48149885,7.46675358 C3.48246793,7.09607983 3.57084818,6.77909322 3.7205713,6.53381864 C3.87223258,6.29145132 4.06847162,6.14841486 4.29765944,6.14725196 C4.52723489,6.14841486 4.72298939,6.29145132 4.87455376,6.53381864 C5.02427688,6.77909322 5.11285095,7.09607983 5.11362621,7.46675358 L5.11362621,10.5094762 L7.68624735,10.5094762 L7.68624735,7.41432626 C7.68702261,6.48206968 7.3048168,5.62695201 6.69371389,5.01778726 C6.08445224,4.40668436 5.22943147,4.02467236 4.29765944,4.02544762" id="Fill-7" fill="#F58A1E"></path>
                <path d="M10.4547296,3.19245408 C10.7136682,2.93370928 10.8735667,2.57631195 10.8735667,2.18121735 C10.8735667,1.78602584 10.7136682,1.42882234 10.4547296,1.17007753 C10.1959848,0.911041994 9.83849054,0.751434241 9.44349285,0.751434241 C9.04859206,0.751434241 8.69129165,0.911041994 8.43264375,1.17007753 C8.17360821,1.42882234 8.01370974,1.78602584 8.01370974,2.18121735 C8.01370974,2.57631195 8.17360821,2.93370928 8.43264375,3.19245408 L8.74827365,3.50847162 C9.27555099,4.03584587 9.31295754,4.17539363 8.81145778,4.67660268 L8.52451269,4.96393539 C8.28892893,5.19932533 8.1437605,5.52435533 8.1437605,5.88340009 L8.1437605,10.5091177 L10.7437097,10.5091177 L10.7437097,5.88340009 C10.7437097,5.52435533 10.5981537,5.19932533 10.3629575,4.96393539 L10.0758186,4.67679649 C9.57441578,4.17578126 9.61182234,4.03584587 10.138809,3.5082778 L10.4547296,3.19245408 Z" id="Fill-10" fill="#F58A1E"></path>
                <path d="M15.0631684,8.49542409 C14.9111195,8.77519797 14.7152681,8.94120166 14.4858865,8.94158929 C14.256311,8.94120166 14.0606534,8.77519797 13.9087983,8.49542409 C13.759269,8.21216151 13.6703073,7.84623627 13.6699197,7.41770835 C13.6703073,6.98937425 13.759269,6.62344901 13.9087983,6.33999262 C14.0606534,6.06041255 14.2567956,5.89499031 14.4858865,5.89343978 C14.7152681,5.89499031 14.9111195,6.06041255 15.0631684,6.33999262 C15.1739345,6.55047716 15.2511703,6.806024 15.2839252,7.09897739 L17.8592598,7.09897739 C17.7834776,6.29241071 17.4229792,5.56056022 16.8822317,5.02155699 C16.2727762,4.41016336 15.4174647,4.02844209 14.4858865,4.02892663 C13.5543083,4.02844209 12.698803,4.41016336 12.0897351,5.02155699 C11.4785353,5.63072174 11.0964264,6.48613013 11.0972986,7.41770835 C11.0964264,8.34928657 11.4785353,9.20459806 12.0897351,9.81415044 C12.5588676,10.283186 13.3759972,10.8070715 14.4860803,10.8068777 C15.3201689,10.8070715 16.0922363,10.5004541 16.6821163,9.99779142 C17.1125824,9.63312598 17.7501412,8.89972497 17.8592598,7.7362455 L15.2839252,7.7362455 C15.2511703,8.0292958 15.1739345,8.285521 15.0631684,8.49542409" id="Fill-13" fill="#F58A1E"></path>
                <path d="M24.6650235,10.0598708 C24.6650235,9.97362252 24.6394398,9.89396401 24.5973816,9.82564375 L23.1885307,7.69502077 L24.1636207,5.9241209 C24.5243129,5.31243655 24.3210964,4.52379788 23.7091214,4.16281495 C23.0972432,3.80221966 22.3087014,4.00553299 21.9478154,4.6177988 L20.7828823,6.69967697 L20.7828823,5.31166128 C20.7828823,4.60151823 20.2068602,4.02530226 19.4965233,4.02530226 C18.786671,4.02530226 18.2102612,4.60151823 18.2102612,5.31166128 L18.2102612,10.5095247 L20.7828823,10.5095247 L20.7828823,8.47425934 L22.140275,10.5088463 L24.2168233,10.508168 L24.2169202,10.5080711 C24.4644236,10.5079742 24.6650235,10.3073743 24.6650235,10.0598708" id="Fill-16" fill="#F58A1E"></path>
                <path d="M38.1770941,4.42519382 L38.2032593,4.42519382 L38.6219026,4.89316336 L39.0375418,4.42519382 L39.063707,4.42519382 L39.063707,5.30308491 L38.9067157,5.30308491 L38.9067157,4.75943009 L38.6363419,5.08213429 L38.6072695,5.08213429 L38.3340854,4.75943009 L38.3340854,5.30308491 L38.1770941,5.30308491 L38.1770941,4.42519382 Z M37.5723872,4.57336641 L37.3107351,4.57336641 L37.3107351,4.43963313 L37.9910305,4.43963313 L37.9910305,4.57336641 L37.7293784,4.57336641 L37.7293784,5.30308491 L37.5723872,5.30308491 L37.5723872,4.57336641 Z" id="Fill-18" fill="#09BCCA"></path>
            </g>
        </g>
    </g>
</svg>