<?xml version="1.0" encoding="UTF-8"?>
<svg width="42px" height="32px" viewBox="0 0 42 32" version="1.1" xmlns="http://www.w3.org/2000/svg" xmlns:xlink="http://www.w3.org/1999/xlink">
    <!-- Generator: Sketch 46.2 (44496) - http://www.bohemiancoding.com/sketch -->
    <title>SYFYHD_Color</title>
    <desc>Created with Sketch.</desc>
    <defs></defs>
    <g id="Domestic" stroke="none" stroke-width="1" fill="none" fill-rule="evenodd">
        <g id="SYFYHD">
            <g id="Page-1" transform="translate(8.000000, 3.000000)">
                <polygon id="Fill-1" fill="#000000" points="0 26 26 26 26 0 0 0"></polygon>
                <g id="Group-12" transform="translate(4.517500, 3.867500)" fill="#E1FF00">
                    <path d="M16.5724674,0.379040743 L13.2414657,0.379040743 C13.1672115,0.453394348 13.1254621,0.495044296 13.0512079,0.569397901 L13.0512079,4.52842919 L12.2132388,4.52842919 L12.2132388,0.569397901 C12.1387858,0.495044296 12.0972352,0.453394348 12.0227822,0.379040743 L8.72995131,0.379040743 C8.6555977,0.453394348 8.61394775,0.495044296 8.53959415,0.569397901 L8.53959415,4.56650062 L10.7954507,6.84184023 L10.7954507,8.52602892 C10.8697049,8.60048193 10.9114543,8.64203247 10.9857085,8.71648548 L14.2786388,8.71648548 L14.468996,8.52602892 L14.468996,6.8222578 L16.7628246,4.52842919 L16.7628246,0.569397901 C16.688471,0.495044296 16.646821,0.453394348 16.5724674,0.379040743" id="Fill-2"></path>
                    <path d="M16.5724674,9.53491192 L13.2414657,9.53491192 L13.0512079,9.72516968 L13.0512079,13.6843004 L12.2132388,13.6843004 L12.2132388,9.72516968 C12.1387858,9.65091547 12.0972352,9.60916612 12.0227822,9.53491192 L8.72995131,9.53491192 C8.6555977,9.60916612 8.61394775,9.65091547 8.53959415,9.72516968 L8.53959415,13.7223718 L10.7954507,15.9977114 L10.7954507,17.6819001 C10.8697049,17.7562537 10.9114543,17.7979037 10.9857085,17.8722573 L14.2786388,17.8722573 L14.468996,17.6819001 L14.468996,15.978129 L16.7628246,13.6843004 L16.7628246,9.72516968 C16.688471,9.65091547 16.646821,9.60916612 16.5724674,9.53491192" id="Fill-4"></path>
                    <path d="M7.51123806,0.379040743 L1.86771987,0.379040743 L0.20221899,2.04444222 L0.20221899,4.33856904 C0.276572596,4.41292265 0.318222543,4.4545726 0.392576149,4.52842919 L3.9519071,4.52842919 L3.9519071,3.70994311 L7.51123806,3.70994311 L7.70159522,3.51958595 L7.70159522,0.569397901 C7.62724161,0.495044296 7.58559166,0.453394348 7.51123806,0.379040743" id="Fill-6"></path>
                    <path d="M0.392506566,5.34686557 C0.318152961,5.42121917 0.276503013,5.46286912 0.202149408,5.53722272 L0.202149408,8.52607862 C0.276503013,8.60043223 0.318152961,8.64208218 0.392506566,8.71643578 L6.03612415,8.71643578 L7.70162504,7.0509349 L7.70162504,4.71873664 C7.62727143,4.64448244 7.58562148,4.60273309 7.51126788,4.52847889 L3.95193692,4.52847889 L3.95193692,5.34686557 L0.392506566,5.34686557 Z" id="Fill-8"></path>
                    <path d="M7.51123806,9.53491192 L1.86771987,9.53491192 L0.20221899,11.2003134 L0.20221899,17.6819001 C0.276572596,17.7562537 0.318222543,17.7979037 0.392576149,17.8722573 L3.68540708,17.8722573 C3.75976069,17.7979037 3.80141063,17.7562537 3.87576424,17.6819001 L3.87576424,16.6445281 L7.51123806,16.6445281 L7.70159522,16.454171 L7.70159522,13.8745581 C7.62724161,13.8003039 7.58559166,13.7585546 7.51123806,13.6843004 L3.87576424,13.6843004 L3.87576424,12.8658143 L7.51123806,12.8658143 C7.58559166,12.7915601 7.62724161,12.7498107 7.70159522,12.6755565 L7.70159522,9.72516968 C7.62724161,9.65091547 7.58559166,9.60916612 7.51123806,9.53491192" id="Fill-10"></path>
                </g>
            </g>
        </g>
    </g>
</svg>