<?xml version="1.0" encoding="UTF-8"?>
<svg width="42px" height="32px" viewBox="0 0 42 32" version="1.1" xmlns="http://www.w3.org/2000/svg" xmlns:xlink="http://www.w3.org/1999/xlink">
    <!-- Generator: Sketch 46.2 (44496) - http://www.bohemiancoding.com/sketch -->
    <title>TRAVHD_Color</title>
    <desc>Created with Sketch.</desc>
    <defs></defs>
    <g id="Domestic" stroke="none" stroke-width="1" fill="none" fill-rule="evenodd">
        <g id="TRAVHD" fill="#4AB1D9">
            <g id="Logo-/-Travel-Color" transform="translate(1.000000, 8.000000)">
                <path d="M35.7901284,0.377049904 L39.0909091,7.85760652 L35.7162956,15.3480775 L33.7375067,15.3480775 L37.2672508,7.85760652 L33.8115728,0.377049904 L35.7901284,0.377049904 Z M32.9345605,0.363636364 L36.3506977,7.84302658 L36.3506977,7.84419298 L32.9149651,15.3336142 L6.74701368,15.3336142 L6.74701368,15.3299984 C3.52333165,15.3299984 0.909090909,12.7170407 0.909090909,9.49289207 L0.909090909,0.363636364 L32.9345605,0.363636364 Z M29.9051999,13.4068466 L29.9051999,13.1054501 L29.1575408,13.1054501 L29.1575408,11.5218359 L28.813221,11.5218359 L28.813221,13.4068466 L29.9051999,13.4068466 Z M28.440208,11.810052 L28.440208,11.5218359 L27.2992405,11.5218359 L27.2992405,13.4068466 L28.440208,13.4068466 L28.440208,13.1042838 L27.6345791,13.1042838 L27.6345791,12.6033172 L28.262566,12.6033172 L28.262566,12.3062364 L27.6365619,12.3062364 L27.6365619,11.810052 L28.440208,11.810052 Z M26.9103645,3.77359165 C26.9103645,3.77359165 26.9391745,6.8879825 26.9391745,8.64597279 C26.9391745,10.4059459 28.490013,10.6606866 28.8188197,10.6606866 L29.7409715,10.6606866 C29.8636762,10.6606866 29.9205963,10.6137975 29.9205963,10.520136 L29.9205963,9.39013269 C29.9205963,9.29600463 29.8823385,9.20024361 29.8078059,9.20024361 L29.2514356,9.20024361 C28.8855375,9.20024361 28.7071957,8.86280559 28.7071957,8.6663847 C28.7071957,8.46763102 28.7159437,3.27484122 28.7159437,3.19016096 C28.7159437,3.10524742 28.6639225,3.01018624 28.5491492,3.03852963 C28.4714673,3.0582417 27.1444599,3.50298805 27.0519648,3.54019605 C26.9522381,3.57892036 26.9103645,3.65695217 26.9103645,3.77359165 Z M26.8331492,13.4068466 L26.8331492,11.5218359 L26.4930284,11.5218359 L26.4930284,12.7625301 L25.798207,11.5218359 L25.4667176,11.5218359 L25.4667176,13.4068466 L25.8080047,13.4068466 L25.8013563,12.1455072 L26.5043425,13.4068466 L26.8331492,13.4068466 Z M24.9830137,13.4068466 L24.9830137,11.5218359 L24.6504745,11.5218359 L24.6504745,12.7580978 L23.9502877,11.5218359 L23.6221808,11.5218359 L23.6221808,13.4068466 L23.9602021,13.4068466 L23.9575193,12.1383922 L24.6575895,13.4068466 L24.9830137,13.4068466 Z M22.9701661,13.4068466 L23.3261498,13.4068466 L22.7280226,11.5218359 L22.3414793,11.5218359 L21.7516334,13.4068466 L22.0826563,13.4068466 L22.2071106,12.9926598 L22.8338146,12.9926598 L22.9701661,13.4068466 Z M24.2527339,5.08100362 C23.3399133,5.08100362 21.7409026,5.60844736 21.7409026,8.06359185 C21.7409026,10.3500756 23.6319785,10.7553978 24.4885789,10.7553978 C25.3448294,10.7553978 25.9994101,10.3950985 26.08584,10.3385283 C26.1688873,10.2821915 26.2255741,10.2477828 26.1820676,10.1285773 C26.0054754,9.63449241 25.9906622,9.61921263 25.7746459,9.07718896 C25.7363881,8.98364409 25.6980137,8.98364409 25.595371,9.01163757 C25.4913285,9.03974768 25.0848399,9.23406906 24.4590691,9.2297534 C23.4431392,9.22158864 23.4869957,8.46763102 23.4869957,8.46763102 L26.5683775,8.46763102 C26.6422103,5.35417329 25.1652046,5.08100362 24.2527339,5.08100362 Z M21.4798634,13.4068466 L21.4798634,11.5218359 L21.1480241,11.5218359 L21.1480241,12.3062364 L20.4614841,12.3090358 L20.4614841,11.5218359 L20.1341937,11.5218359 L20.1341937,13.4068466 L20.4614841,13.4068466 L20.4614841,12.6141646 L21.1480241,12.615331 L21.1451081,13.4068466 L21.4798634,13.4068466 Z M19.0587777,13.0123718 C18.7870077,12.7965888 18.8263152,12.1765333 18.9702483,11.9763799 C19.114648,11.7756434 19.4642165,11.7701613 19.668219,11.9040635 L19.8071366,11.6448905 C19.8071366,11.6448905 19.3979653,11.3611067 18.937356,11.5820219 C18.4046635,11.8379289 18.4887605,12.735703 18.6048168,12.9505529 C18.7208731,13.1677356 18.9926431,13.6272952 19.8071366,13.2843751 L19.6735844,13.0021076 C19.6735844,13.0021076 19.3301978,13.229088 19.0587777,13.0123718 Z M16.5654921,5.36338781 L18.1370925,10.668968 L20.2054604,10.668968 C20.2054604,10.668968 21.7686628,5.4017622 21.7868586,5.33551097 C21.8052876,5.26937639 21.8153186,5.15670265 21.7113928,5.15670265 L20.2256391,5.15670265 C20.1320942,5.15670265 20.0374996,5.17571488 20.0096228,5.26937639 C19.9811627,5.36338781 19.2371195,9.27815878 19.2371195,9.27815878 C19.2371195,9.27815878 18.4844449,5.45751587 18.4657826,5.33551097 C18.4466537,5.21233968 18.3466936,5.13745713 18.2614302,5.13745713 L16.7060427,5.13745713 C16.5835712,5.13745713 16.5282841,5.24091635 16.5654921,5.36338781 Z M16.4873436,10.5108048 L16.4873436,7.31628268 C16.4873436,4.91864146 14.5808713,5.18131358 14.326014,5.18131358 L12.9441861,5.18131358 C12.8681371,5.18131358 12.7740091,5.20149221 12.7740091,5.27684131 C12.7740091,5.35137394 12.7658443,6.34105996 12.7658443,6.43448818 C12.7658443,6.52908281 12.8135498,6.62321087 12.9081445,6.62321087 L14.1196788,6.62321087 C14.5863533,6.62321087 14.707775,6.94595232 14.707775,7.0492949 L14.707775,7.3781016 L14.0535442,7.3781016 C13.0283998,7.3781016 11.8517407,7.58595316 11.8517407,8.98691 C11.8517407,10.0601099 12.5022391,10.7821083 13.5272668,10.7821083 C14.3587897,10.7821083 14.9562171,10.1453733 14.9562171,10.1453733 L15.1907791,10.668968 C15.1907791,10.668968 16.3023534,10.6759664 16.3877335,10.6759664 C16.472997,10.6759664 16.4873436,10.5863872 16.4873436,10.5108048 Z M22.2955233,12.6948792 C22.2906245,12.6948792 22.5324181,11.8998644 22.5324181,11.8998644 L22.7688464,12.6948792 L22.2955233,12.6948792 Z M14.3538909,8.48326071 C14.4725132,8.47264651 14.732386,8.48326071 14.732386,8.48326071 L14.732386,9.21785617 C14.6481723,9.36820447 13.8276135,9.71124119 13.6941779,9.25238146 C13.5262171,8.66428518 14.1361249,8.50157311 14.3538909,8.48326071 Z M24.1643211,6.35913908 C24.811437,6.35913908 24.7841434,7.38976555 24.7841434,7.38976555 L23.4696164,7.38976555 C23.4696164,7.38976555 23.4651841,6.35913908 24.1643211,6.35913908 Z M10.7100734,10.5252681 L10.7100734,7.11332998 C11.0246501,6.74953143 12.1783312,6.69925981 12.2653443,6.69925981 C12.3544568,6.69925981 12.4163924,6.59533403 12.4163924,6.52535034 L12.4163924,5.37050282 C12.4163924,5.21957133 12.4048451,5.08100362 12.2653443,5.08100362 C11.0858858,5.08100362 10.5849192,5.94705178 10.5849192,5.94705178 C10.5849192,5.94705178 10.3343776,5.35732256 10.3091835,5.29445388 C10.2850391,5.23158519 10.2572789,5.14352238 10.1264094,5.14352238 L9.1307748,5.14352238 C9.04177887,5.14352238 8.91639143,5.15670265 8.91639143,5.33329482 C8.91639143,5.33329482 8.92245668,10.4370887 8.92245668,10.5241017 C8.92245668,10.6121646 9.00282129,10.6759664 9.07770384,10.6759664 C9.15316958,10.6759664 10.4075106,10.6710675 10.5206509,10.6710675 C10.6322749,10.6710675 10.7100734,10.6505389 10.7100734,10.5252681 Z M8.51223562,10.5263179 L8.51223562,9.43445569 C8.51223562,9.32119875 8.48377559,9.22707069 8.39617933,9.22707069 C8.30869972,9.22707069 7.77694032,9.22543774 7.5636067,9.22543774 C7.20867276,9.22543774 7.01610097,8.90526236 7.01610097,8.67886512 L7.01610097,6.63639113 L8.30753333,6.63639113 C8.46872909,6.63639113 8.45916466,6.47741151 8.45916466,6.47741151 L8.45916466,5.34484213 C8.45916466,5.1943772 8.30753333,5.16871651 8.30753333,5.16871651 L7.05657487,5.16871651 L7.05657487,3.23716667 C7.05657487,3.08670174 6.90424371,3.09976536 6.86831874,3.11131267 C6.83239378,3.12285998 5.76036029,3.46554678 5.40076077,3.57577109 C5.31678034,3.60154842 5.27653972,3.66278415 5.27653972,3.73720014 L5.27653972,8.55802662 C5.27653972,10.3915993 6.68344516,10.6636026 7.16983181,10.6636026 L8.33657656,10.6636026 C8.44820054,10.6636026 8.51223562,10.6137975 8.51223562,10.5263179 Z" id="Combined-Shape"></path>
            </g>
        </g>
    </g>
</svg>