<?xml version="1.0" encoding="UTF-8"?>
<svg width="42px" height="32px" viewBox="0 0 42 32" version="1.1" xmlns="http://www.w3.org/2000/svg" xmlns:xlink="http://www.w3.org/1999/xlink">
    <!-- Generator: Sketch 46.2 (44496) - http://www.bohemiancoding.com/sketch -->
    <title>TSL_Color</title>
    <desc>Created with Sketch.</desc>
    <defs></defs>
    <g id="Domestic" stroke="none" stroke-width="1" fill="none" fill-rule="evenodd">
        <g id="TSL">
            <g id="Page-1" transform="translate(0.000000, 11.000000)">
                <polygon id="Fill-1" fill="#582E8D" points="0 10.8253906 41.8785938 10.8253906 41.8785938 4.12245312 0 4.12245312"></polygon>
                <path d="M1.75295313,9.16884063 L2.08764063,8.77268438 C2.58639063,9.22352813 3.06414063,9.44884063 3.72651563,9.44884063 C4.36854688,9.44884063 4.79204688,9.10737188 4.79204688,8.63618438 L4.79204688,8.62262188 C4.79204688,8.17877813 4.55317188,7.92590313 3.54910938,7.71437188 C2.44967188,7.47527813 1.94414063,7.12024688 1.94414063,6.33471563 L1.94414063,6.32093438 C1.94414063,5.56996563 2.60651563,5.01674687 3.51498438,5.01674687 C4.21148438,5.01674687 4.71023438,5.21471563 5.19498438,5.60409063 L4.88085938,6.02059063 C4.43701563,5.65855938 3.99295313,5.50149687 3.50120313,5.50149687 C2.87973438,5.50149687 2.48379688,5.84296563 2.48379688,6.27324688 L2.48379688,6.28680938 C2.48379688,6.73765313 2.72967188,6.99030938 3.78120313,7.21562188 C4.84673438,7.44793438 5.33848438,7.83709063 5.33848438,8.56793438 L5.33848438,8.58149688 C5.33848438,9.40115313 4.65554688,9.93380938 3.70617188,9.93380938 C2.94820313,9.93380938 2.32673438,9.68115313 1.75295313,9.16884063 Z" id="Fill-2" fill="#FFFFFF"></path>
                <polygon id="Fill-4" fill="#FFFFFF" points="6.37021875 5.08501875 6.90965625 5.08501875 6.90965625 7.2088625 9.66875 7.2088625 9.66875 5.08501875 10.2081875 5.08501875 10.2081875 9.86558125 9.66875 9.86558125 9.66875 7.71439375 6.90965625 7.71439375 6.90965625 9.86558125 6.37021875 9.86558125"></polygon>
                <path d="M15.597225,7.48890625 L15.597225,7.47534375 C15.597225,6.38946875 14.8051312,5.5015625 13.712475,5.5015625 C12.6198187,5.5015625 11.8410687,6.3756875 11.8410687,7.4615625 L11.8410687,7.47534375 C11.8410687,8.561 12.6333812,9.44890625 13.7260375,9.44890625 C14.8186937,9.44890625 15.597225,8.57478125 15.597225,7.48890625 M11.2812875,7.48890625 L11.2812875,7.47534375 C11.2812875,6.15715625 12.27135,5.00303125 13.7260375,5.00303125 C15.180725,5.00303125 16.1574437,6.14359375 16.1574437,7.4615625 L16.1574437,7.47534375 C16.1574437,8.7933125 15.1669437,9.9474375 13.712475,9.9474375 C12.2575687,9.9474375 11.2812875,8.806875 11.2812875,7.48890625" id="Fill-6" fill="#FFFFFF"></path>
                <path d="M19.2380125,7.52309687 C19.9548563,7.52309687 20.4671688,7.15406562 20.4671688,6.53959687 L20.4671688,6.52581562 C20.4671688,5.93869062 20.0165438,5.58365937 19.2447938,5.58365937 L17.7695438,5.58365937 L17.7695438,7.52309687 L19.2380125,7.52309687 Z M17.2301063,5.08490937 L19.2859188,5.08490937 C19.8730438,5.08490937 20.34445,5.26253437 20.6447938,5.56309687 C20.8768875,5.79540937 21.0136063,6.12987812 21.0136063,6.50547187 L21.0136063,6.51903437 C21.0136063,7.31134687 20.4671688,7.77575312 19.7162,7.91225312 L21.1842313,9.86547187 L20.5218563,9.86547187 L19.1354188,8.00784687 L17.7695438,8.00784687 L17.7695438,9.86547187 L17.2301063,9.86547187 L17.2301063,5.08490937 Z" id="Fill-8" fill="#FFFFFF"></path>
                <polygon id="Fill-10" fill="#FFFFFF" points="23.3156437 5.58361562 21.710675 5.58361562 21.710675 5.08508437 25.4668312 5.08508437 25.4668312 5.58361562 23.8620812 5.58361562 23.8620812 9.86542812 23.3156437 9.86542812"></polygon>
                <polygon id="Fill-12" fill="#FFFFFF" points="26.3005969 5.08501875 26.8400344 5.08501875 26.8400344 9.36683125 29.5308781 9.36683125 29.5308781 9.86558125 26.3005969 9.86558125"></polygon>
                <path d="M32.1743844,9.16884063 L32.5090719,8.77268438 C33.0078219,9.22352813 33.4855719,9.44884063 34.1479469,9.44884063 C34.7899781,9.44884063 35.2134781,9.10737188 35.2134781,8.63618438 L35.2134781,8.62262188 C35.2134781,8.17877813 34.9746031,7.92590313 33.9705406,7.71437188 C32.8711031,7.47527813 32.3655719,7.12024688 32.3655719,6.33471563 L32.3655719,6.32093438 C32.3655719,5.56996563 33.0279469,5.01674687 33.9364156,5.01674687 C34.6329156,5.01674687 35.1316656,5.21471563 35.6164156,5.60409063 L35.3022906,6.02059063 C34.8584469,5.65855938 34.4143844,5.50149687 33.9226344,5.50149687 C33.3011656,5.50149687 32.9052281,5.84296563 32.9052281,6.27324688 L32.9052281,6.28680938 C32.9052281,6.73765313 33.1511031,6.99030938 34.2026344,7.21562188 C35.2681656,7.44793438 35.7599156,7.83709063 35.7599156,8.56793438 L35.7599156,8.58149688 C35.7599156,9.40115313 35.0769781,9.93380938 34.1276031,9.93380938 C33.3696344,9.93380938 32.7481656,9.68115313 32.1743844,9.16884063" id="Fill-14" fill="#FFFFFF"></path>
                <polygon id="Fill-16" fill="#FFFFFF" points="37.9524469 5.58361562 36.3474781 5.58361562 36.3474781 5.08508437 40.1036344 5.08508437 40.1036344 5.58361562 38.4988844 5.58361562 38.4988844 9.86542812 37.9524469 9.86542812"></polygon>
                <path d="M30.601375,4.12245312 L31.1659687,4.12245312 L31.1659687,0.218640625 L30.601375,0.218640625 L30.601375,4.12245312 Z M40.681375,1.60092187 L40.9924375,2.36064062 L40.3694375,2.36064062 L40.681375,1.60092187 Z M40.1345,2.81542188 L41.1252187,2.81542188 L41.3395937,3.34151562 L41.8785937,3.34151562 L40.8740937,0.981203125 L40.3989687,0.981203125 L39.395125,3.34151562 L39.920125,3.34151562 L40.1345,2.81542188 Z M38.122875,3.38132812 C38.574375,3.38132812 38.8427812,3.22142187 39.0840625,2.96307812 L38.7555,2.63145312 C38.57175,2.79879688 38.40725,2.90620313 38.1390625,2.90620313 C37.737875,2.90620313 37.4598437,2.57151562 37.4598437,2.16967187 L37.4598437,2.16332813 C37.4598437,1.76148437 37.7444375,1.43314062 38.1390625,1.43314062 C38.3737812,1.43314062 38.5579687,1.53376562 38.7390937,1.69760937 L39.0667812,1.31939062 C38.8495625,1.10523437 38.5850937,0.958453125 38.1432187,0.958453125 C37.4233125,0.958453125 36.9215,1.50401562 36.9215,2.16967187 L36.9215,2.17601562 C36.9215,2.84954688 37.4338125,3.38132812 38.122875,3.38132812 L38.122875,3.38132812 Z M36.4400312,2.88279687 L35.1677812,2.88279687 L35.1677812,2.39082812 L36.2729062,2.39082812 L36.2729062,1.93232812 L35.1677812,1.93232812 L35.1677812,1.45654687 L36.423625,1.45654687 L36.423625,0.998265625 L34.6565625,0.998265625 L34.6565625,3.34151562 L36.4400312,3.34151562 L36.4400312,2.88279687 Z M32.5349062,2.37376562 L33.1307812,2.37376562 C33.3948125,2.37376562 33.5122812,2.47132812 33.5122812,2.62817187 L33.5122812,2.63560937 C33.5122812,2.80907812 33.3749062,2.88957812 33.1480625,2.88957812 L32.5349062,2.88957812 L32.5349062,2.37376562 Z M32.5349062,1.45020312 L33.0441562,1.45020312 C33.2615937,1.45020312 33.3814687,1.53704687 33.3814687,1.69126562 L33.3814687,1.69760937 C33.3814687,1.87195312 33.238625,1.94567187 33.0106875,1.94567187 L32.5349062,1.94567187 L32.5349062,1.45020312 Z M34.0248125,2.69904687 L34.0248125,2.69182812 C34.0248125,2.37726563 33.85725,2.22064062 33.5862187,2.11651562 C33.753125,2.02245313 33.8944375,1.87501562 33.8944375,1.61054687 L33.8944375,1.60442187 C33.8944375,1.23626562 33.5997812,0.998265625 33.1209375,0.998265625 L32.0330937,0.998265625 L32.0330937,3.34151562 L33.1480625,3.34151562 C33.6767812,3.34151562 34.0248125,3.12735937 34.0248125,2.69904687 L34.0248125,2.69904687 Z M29.3617187,1.80479687 C29.3617187,2.00254688 29.2182187,2.13620312 28.9673125,2.13620312 L28.4980937,2.13620312 L28.4980937,1.46354687 L28.95725,1.46354687 C29.208375,1.46354687 29.3617187,1.57664062 29.3617187,1.79845312 L29.3617187,1.80479687 Z M29.88475,1.77832812 L29.88475,1.77110937 C29.88475,1.28920312 29.5526875,0.998265625 29.0007812,0.998265625 L27.9822812,0.998265625 L27.9822812,3.34151562 L28.4980937,3.34151562 L28.4980937,2.59185937 L28.8507187,2.59185937 L29.3520937,3.34151562 L29.95475,3.34151562 L29.3825,2.50479687 C29.6802187,2.39410937 29.88475,2.15676562 29.88475,1.77832812 L29.88475,1.77832812 Z M26.2653125,3.34151562 L26.7813437,3.34151562 L26.7813437,1.47339062 L27.4935937,1.47339062 L27.4935937,0.998265625 L25.5524062,0.998265625 L25.5524062,1.47339062 L26.2653125,1.47339062 L26.2653125,3.34151562 Z" id="Fill-18" fill="#582E8D"></path>
                <polygon id="Fill-20" fill="#FFFFFF" points="30.5865 5.72348437 31.171 5.72348437 31.171 5.08298437 30.5865 5.08298437"></polygon>
                <polygon id="Fill-21" fill="#FFFFFF" points="30.5865 7.10401563 31.171 7.10401563 31.171 6.46351563 30.5865 6.46351563"></polygon>
                <polygon id="Fill-22" fill="#FFFFFF" points="30.5865 8.48432813 31.171 8.48432813 31.171 7.84382813 30.5865 7.84382813"></polygon>
                <polygon id="Fill-23" fill="#FFFFFF" points="30.5865 9.86485937 31.171 9.86485937 31.171 9.22435937 30.5865 9.22435937"></polygon>
            </g>
        </g>
    </g>
</svg>