<?xml version="1.0" encoding="UTF-8"?>
<svg width="42px" height="32px" viewBox="0 0 42 32" version="1.1" xmlns="http://www.w3.org/2000/svg" xmlns:xlink="http://www.w3.org/1999/xlink">
    <!-- Generator: Sketch 46.2 (44496) - http://www.bohemiancoding.com/sketch -->
    <title>TRUTVHD_Color</title>
    <desc>Created with Sketch.</desc>
    <defs></defs>
    <g id="Domestic" stroke="none" stroke-width="1" fill="none" fill-rule="evenodd">
        <g id="TRUTVHD">
            <g id="onblack" transform="translate(2.000000, 9.000000)">
                <path d="M31.7006292,0.0879277778 C28.9392958,0.0879277778 26.7009023,2.32605741 26.7009023,5.08712685 C26.7009023,7.84793241 28.9392958,10.0863259 31.7006292,10.0863259 C34.4606431,10.0863259 36.6989486,7.84793241 36.6989486,5.08712685 C36.6989486,2.32605741 34.4606431,0.0879277778 31.7006292,0.0879277778 L31.7006292,0.0879277778 Z" id="Fill-3" fill="#C9DD4B"></path>
                <polygon id="Fill-1" fill="#000000" points="28.4497292 4.18093241 29.5176875 4.18093241 29.0143634 7.06233519 29.9977014 7.06233519 30.5008495 4.18093241 31.5137431 4.18093241 31.6623125 3.329275 28.5986505 3.329275"></polygon>
                <polygon id="Fill-2" fill="#000000" points="34.3378995 3.32923981 33.0385986 5.85377685 32.840506 3.32923981 31.8863718 3.32923981 32.2653162 7.06238796 33.3637097 7.06238796 35.3766542 3.32923981"></polygon>
                <path d="M22.5126866,8.93909537 C22.5126866,9.8211 22.0858903,10.7910676 20.9017329,10.7910676 C19.6726264,10.7910676 19.2906912,9.78925741 19.2906912,8.95809537 L19.2906912,3.32925741 L15.6364458,3.32925741 L15.6364458,10.2640815 C15.6364458,12.7667157 17.2978903,14.2258454 19.6190569,14.2258454 C20.5042282,14.2258454 22.0415569,14.0370769 22.7810616,12.4822435 L22.7810616,14.0803546 L26.1915616,14.0803546 L26.1915616,3.32925741 L22.5126866,3.32925741 L22.5126866,8.93909537 Z" id="Fill-6" fill="#000000"></path>
                <path d="M11.4604042,5.13966713 L11.4604042,3.32921343 L8.0498162,3.32921343 L8.0498162,14.0804866 L11.7426773,14.0804866 L11.7426773,9.22238009 C11.7426773,7.71363935 12.5481542,7.06350509 14.5164134,7.06350509 L15.1024227,7.06350509 L15.1024227,3.32921343 L14.6867097,3.32921343 C13.2908255,3.32921343 12.2458255,3.76427824 11.4604042,5.13966713" id="Fill-9" fill="#000000"></path>
                <polygon id="Fill-11" fill="#000000" points="5.60443704 0.336097685 1.91148796 0.336097685 1.91148796 3.32930139 -3.51851852e-05 3.32930139 -3.51851852e-05 6.1552875 1.91148796 6.1552875 1.91148796 14.0803986 5.60443704 14.0803986 5.60443704 6.1552875 7.51587222 6.1552875 7.51587222 3.32930139 5.60443704 3.32930139"></polygon>
            </g>
        </g>
    </g>
</svg>