<?xml version="1.0" encoding="UTF-8"?>
<svg width="42px" height="32px" viewBox="0 0 42 32" version="1.1" xmlns="http://www.w3.org/2000/svg" xmlns:xlink="http://www.w3.org/1999/xlink">
    <!-- Generator: Sketch 49.1 (51147) - http://www.bohemiancoding.com/sketch -->
    <title>UNIMHD_Color</title>
    <desc>Created with Sketch.</desc>
    <defs></defs>
    <g id="UNIMHD" stroke="none" stroke-width="1" fill="none" fill-rule="evenodd">
        <g id="Logo-/-Unimas-Color" transform="translate(9.000000, 3.000000)">
            <path d="M20.4164905,2.4235467 C20.4254608,2.38209768 20.4004058,2.33848341 20.3490585,2.28713611 C19.521934,1.4600116 14.5328946,1.39227029 13.045679,1.39227029 C12.8040992,1.39227029 12.5854093,1.39196097 12.382804,1.39381689 C12.382804,1.39381689 12.3555837,1.30349514 12.3555837,1.19430481 C12.3555837,1.08202127 12.3815667,0.914369252 12.5430323,0.882818504 C12.6664514,0.857763498 17.4677328,0.581849114 20.46227,0.581849114 C22.3686157,0.581849114 23.2869899,0.724446122 23.7500435,1.18749975 C23.8781025,1.31524934 23.9115091,1.48135475 23.8725347,1.63075682 L21.4802456,10.7668636 C20.7666419,13.4922915 17.153772,19.1411126 10.1655906,19.1411126 C4.15517312,19.1411126 3.20215494,15.0141511 3.20215494,12.4477142 C3.20215494,11.7638054 3.29464193,11.1228922 3.36795102,10.7721221 L4.86042513,3.58628456 C4.87774711,3.50307719 4.914247,3.44709008 4.95198417,3.40873427 C5.03117036,3.3298574 5.14994964,3.32274301 5.42679199,3.32274301 C6.94493975,3.32274301 9.67377013,4.16966407 10.7041186,6.28016166 L9.51199521,11.8272162 C9.09286518,13.7824346 8.70435793,16.1518339 8.70435793,17.6090454 C8.70435793,18.03065 8.73467139,18.3882252 8.80983641,18.6449617 C15.6282005,18.3829667 18.0724555,12.9945939 18.5716997,10.7430459 L20.4164905,2.4235467 Z" id="Fill-1" fill="#EF121E"></path>
            <path d="M3.01235554,21.2483314 L3.01235554,23.2601556 C3.01235554,23.7578532 2.63250928,24.0569666 2.2084301,24.0569666 C1.76053321,24.0569666 1.40543264,23.7077432 1.40543264,23.2601556 L1.40543264,21.2483314 L0.430452658,21.2483314 L0.430452658,23.2227277 C0.430452658,24.1420299 1.07105657,24.9601841 2.18708695,24.9601841 C3.38663402,24.9601841 3.98578891,24.1494536 3.98578891,23.2227277 L3.98578891,21.2483314 L3.01235554,21.2483314 Z M5.76314771,24.8840911 L5.76314771,22.8728856 C5.76314771,22.3745694 6.13866348,22.0766932 6.56243333,22.0766932 C7.01218614,22.0766932 7.36604944,22.4240608 7.36604944,22.8728856 L7.36604944,24.8840911 L8.34072009,24.8840911 L8.34072009,22.9096948 C8.34072009,21.9891554 7.6988789,21.1728571 6.58377648,21.1728571 C5.38422941,21.1728571 4.78569316,21.9835876 4.78569316,22.9096948 L4.78569316,24.8840911 L5.76314771,24.8840911 Z M10.1997397,24.8840911 L9.22383171,24.8840911 L9.22383171,21.7534527 L9.22383171,21.2483314 L10.1997397,21.2483314 L10.1997397,24.8840911 Z" id="Fill-3" fill="#EF121E"></path>
            <polygon id="Fill-6" fill="#EF121E" points="18.7215658 20.9094083 16.9364739 20.9094083 17.0484481 20.4751216 19.1233738 20.0454746"></polygon>
            <path d="M23.4375055,21.5220187 L23.485141,21.505006 L23.4941113,21.4777858 L23.485141,21.4496376 L23.4375055,21.4313876 L23.3697642,21.4313876 L23.3697642,21.5220187 L23.4375055,21.5220187 Z M23.3697642,21.6132684 L23.3697642,21.8223694 L23.2580993,21.8223694 L23.2580993,21.3280744 L23.4337937,21.3280744 C23.4956579,21.3280744 23.5303019,21.3419938 23.5572128,21.3670488 C23.5884542,21.3939598 23.6067042,21.4326249 23.6067042,21.4777858 C23.6067042,21.5282051 23.5819585,21.5684168 23.5432933,21.5916159 L23.5120519,21.6058447 L23.6608354,21.8223694 L23.5383442,21.8223694 L23.400387,21.6132684 L23.3697642,21.6132684 Z M23.4325564,21.9377462 C23.6320685,21.9377462 23.7932248,21.7759713 23.7932248,21.5761499 C23.7932248,21.3757098 23.6320685,21.2151722 23.4325564,21.2151722 C23.232735,21.2151722 23.0706508,21.3757098 23.0706508,21.5761499 C23.0706508,21.7759713 23.232735,21.9377462 23.4325564,21.9377462 L23.4325564,21.9377462 Z M23.4325564,21.1245411 C23.6815599,21.1245411 23.8835465,21.3268371 23.8835465,21.5761499 C23.8835465,21.8251533 23.6815599,22.0277586 23.4325564,22.0277586 C23.1832436,22.0277586 22.9800197,21.8251533 22.9800197,21.5761499 C22.9800197,21.3268371 23.1832436,21.1245411 23.4325564,21.1245411 L23.4325564,21.1245411 Z M17.5832952,23.5452877 L17.4218296,22.6705278 L16.9006236,23.5452877 L17.5832952,23.5452877 Z M22.4025173,23.5155929 C22.4025173,24.302815 21.6319985,24.9601223 20.5014301,24.9601223 C19.8933049,24.9601223 19.4896409,24.8410336 19.1156717,24.6443055 L19.1704215,24.8840293 L17.8162139,24.8840293 L17.7187778,24.4008698 L16.411587,24.4008698 L16.1192786,24.8840293 L13.7984427,24.8840293 L14.1674627,23.0825434 L13.3180671,24.5963607 L12.6434379,24.5963607 L12.414231,23.0825434 L12.045211,24.8840293 L10.8122572,24.8840293 L11.5574116,21.2482696 L12.0897532,21.2482696 C12.4881587,21.2482696 13.21197,21.4750019 13.3731263,22.3157365 L13.4155032,22.5260748 L14.1999414,21.2482696 L15.797894,21.2482696 L15.1780146,24.2709549 L17.1072501,21.2482696 L18.3395852,21.2482696 L18.9839009,24.0683496 L19.5224289,23.5675588 C19.8667032,23.8660537 20.3012993,24.0027736 20.7402259,24.0027736 C20.9957251,24.0027736 21.1206908,23.9235874 21.1206908,23.8140877 C21.1206908,23.7562447 21.0903774,23.7203635 21.0634664,23.6934525 C20.8580772,23.487754 19.9010379,23.5483809 19.4655138,23.1134755 C19.3374549,22.984798 19.2647645,22.8208578 19.2647645,22.6173246 C19.2647645,22.0970465 19.7340045,21.1727952 21.1516229,21.1727952 C21.8806927,21.1727952 22.3319921,21.3608624 22.7016307,21.6958571 L21.9270908,22.5090622 C21.6248841,22.2616053 21.22586,22.1279786 20.8794204,22.1279786 C20.6669168,22.1279786 20.5478282,22.2356224 20.5478282,22.3358424 C20.5478282,22.6108288 21.6988119,22.5254562 22.2033145,23.0299588 C22.3440556,23.1706999 22.4025173,23.3405172 22.4025173,23.5155929 L22.4025173,23.5155929 Z" id="Fill-8" fill="#898989"></path>
        </g>
    </g>
</svg>