<?xml version="1.0" encoding="UTF-8"?>
<svg width="42px" height="32px" viewBox="0 0 42 32" version="1.1" xmlns="http://www.w3.org/2000/svg" xmlns:xlink="http://www.w3.org/1999/xlink">
    <!-- Generator: Sketch 49.1 (51147) - http://www.bohemiancoding.com/sketch -->
    <title>UNIHD_Color</title>
    <desc>Created with Sketch.</desc>
    <defs>
        <radialGradient cx="-43.5542016%" cy="118.777233%" fx="-43.5542016%" fy="118.777233%" r="366.058617%" gradientTransform="translate(-0.435542,1.187772),scale(1.000000,0.780068),translate(0.435542,-1.187772)" id="radialGradient-1">
            <stop stop-color="#C13E96" offset="0%"></stop>
            <stop stop-color="#C24197" offset="28%"></stop>
            <stop stop-color="#C4499C" offset="46%"></stop>
            <stop stop-color="#C957A4" offset="60%"></stop>
            <stop stop-color="#D06CAF" offset="72%"></stop>
            <stop stop-color="#D886BD" offset="84%"></stop>
            <stop stop-color="#E2A6CE" offset="94%"></stop>
            <stop stop-color="#E9BBDA" offset="100%"></stop>
        </radialGradient>
        <radialGradient cx="63.2595353%" cy="27.0995654%" fx="63.2595353%" fy="27.0995654%" r="319.070583%" gradientTransform="translate(0.632595,0.270996),scale(1.000000,0.982844),translate(-0.632595,-0.270996)" id="radialGradient-2">
            <stop stop-color="#ED1C24" offset="0%"></stop>
            <stop stop-color="#ED1E26" offset="37%"></stop>
            <stop stop-color="#EE252D" offset="52%"></stop>
            <stop stop-color="#EF3239" offset="64%"></stop>
            <stop stop-color="#F0434A" offset="73%"></stop>
            <stop stop-color="#F25A60" offset="82%"></stop>
            <stop stop-color="#F4777B" offset="89%"></stop>
            <stop stop-color="#F7989B" offset="96%"></stop>
            <stop stop-color="#F9B0B2" offset="100%"></stop>
        </radialGradient>
        <radialGradient cx="63.0079462%" cy="30.906843%" fx="63.0079462%" fy="30.906843%" r="444.621027%" gradientTransform="translate(0.630079,0.309068),scale(1.000000,0.970850),translate(-0.630079,-0.309068)" id="radialGradient-3">
            <stop stop-color="#FFFFFF" offset="0%"></stop>
            <stop stop-color="#FDFDFD" offset="33%"></stop>
            <stop stop-color="#F6F6F6" offset="47%"></stop>
            <stop stop-color="#EAE9E9" offset="58%"></stop>
            <stop stop-color="#D8D8D8" offset="67%"></stop>
            <stop stop-color="#C2C1C1" offset="74%"></stop>
            <stop stop-color="#A6A4A4" offset="81%"></stop>
            <stop stop-color="#848283" offset="87%"></stop>
            <stop stop-color="#5E5B5C" offset="93%"></stop>
            <stop stop-color="#333031" offset="98%"></stop>
            <stop stop-color="#231F20" offset="100%"></stop>
        </radialGradient>
        <radialGradient cx="-17.6655172%" cy="26.5872193%" fx="-17.6655172%" fy="26.5872193%" r="315.009781%" gradientTransform="translate(-0.176655,0.265872),scale(0.795268,1.000000),translate(0.176655,-0.265872)" id="radialGradient-4">
            <stop stop-color="#0054A6" offset="0%"></stop>
            <stop stop-color="#0255A7" offset="36%"></stop>
            <stop stop-color="#095AA9" offset="51%"></stop>
            <stop stop-color="#1662AE" offset="62%"></stop>
            <stop stop-color="#276EB4" offset="71%"></stop>
            <stop stop-color="#3E7EBC" offset="80%"></stop>
            <stop stop-color="#5B91C6" offset="87%"></stop>
            <stop stop-color="#7CA7D1" offset="93%"></stop>
            <stop stop-color="#A2C0DF" offset="99%"></stop>
            <stop stop-color="#A6C3E0" offset="100%"></stop>
        </radialGradient>
        <linearGradient x1="60.0334448%" y1="36.9991261%" x2="11.8729097%" y2="90.9727617%" id="linearGradient-5">
            <stop stop-color="#FFFFFF" offset="63%"></stop>
            <stop stop-color="#DBDCDD" offset="100%"></stop>
        </linearGradient>
    </defs>
    <g id="UNIHD" stroke="none" stroke-width="1" fill="none" fill-rule="evenodd">
        <g id="Logo-/-Univision-Color" transform="translate(5.000000, 3.000000)" fill-rule="nonzero">
            <path d="M10.0825742,25.4789883 L9.11531302,25.4789883 L9.11531302,21.9946268 L10.0825742,21.9946268 L10.0825742,25.4789883 Z M12.7218666,24.1200873 L13.7107023,21.9946268 L14.7175169,21.9946268 L13.0562729,25.4789883 L12.3874603,25.4789883 L10.7190248,21.9946268 L11.7222436,21.9946268 L12.7218666,24.1200873 Z M16.3176329,25.4789883 L15.3323929,25.4789883 L15.3323929,21.9946268 L16.299654,21.9946268 L16.299654,25.4789883 L16.3176329,25.4789883 Z M17.5294061,24.4127737 C17.8057445,24.6392136 18.1563487,24.7627561 18.5182418,24.7612098 C18.7291839,24.7998833 18.9334503,24.6684403 18.9784999,24.4650391 C18.9784999,23.9389005 17.2309575,24.1166029 17.2309575,23.0016072 C17.2309575,22.3326098 17.89977,21.9144865 18.6153275,21.9144865 C19.0478119,21.9143666 19.4711163,22.0353665 19.8342923,22.2629226 L19.3488638,22.9423731 C19.1548303,22.7945396 18.9191626,22.7070802 18.6728598,22.6914991 C18.4067731,22.6914991 18.1838356,22.7925456 18.1838356,22.970248 C18.1838356,23.4266994 19.931378,23.2455126 19.931378,24.454586 C19.931378,25.1235834 19.2553739,25.5347381 18.4930715,25.5347381 C17.9748184,25.5267103 17.4720468,25.3622821 17.054765,25.0643493 L17.5294061,24.4127737 Z M21.6933035,25.4789883 L20.7260423,25.4789883 L20.7260423,21.9946268 L21.6933035,21.9946268 L21.6933035,25.4789883 Z M24.2930425,21.9144865 C25.3232577,21.9374442 26.1417253,22.7609456 26.1266787,23.7594 C26.1116321,24.7578544 25.2686987,25.557846 24.238231,25.551644 C23.2077633,25.5454421 22.3751498,24.735366 22.3729033,23.7368075 C22.3718002,23.2464854 22.5750396,22.7765009 22.9365398,22.4334167 C23.29804,22.0903325 23.7871759,21.9032135 24.2930425,21.9144865 L24.2930425,21.9144865 Z M24.2930425,24.7019757 C24.6932301,24.7146945 25.0615593,24.4914596 25.2248865,24.1372088 C25.3882137,23.782958 25.3140504,23.3681577 25.0372592,23.0877965 C24.7604679,22.8074352 24.3361072,22.7172816 23.9636596,22.8597148 C23.5912119,23.0021479 23.3447636,23.3488356 23.3401644,23.7368075 C23.3292811,23.9873202 23.4252076,24.231143 23.6054317,24.4110556 C23.7856559,24.5909681 24.034311,24.6911311 24.2930425,24.6880382 L24.2930425,24.7019757 Z M2.95216963,21.9946268 L2.95216963,23.9284474 C2.95829297,24.1347354 2.87591412,24.3342571 2.72464058,24.4795233 C2.57336704,24.6247894 2.36672895,24.7028072 2.15390951,24.6950069 C1.94316686,24.6941086 1.74158934,24.6113928 1.59426937,24.4653629 C1.44694939,24.319333 1.36618121,24.1221756 1.37003247,23.9179943 L1.37003247,21.9946268 L0.39198404,21.9946268 L0.39198404,23.8936038 C0.376515461,24.3437409 0.555518719,24.7797277 0.885874513,25.0965413 C1.21623031,25.4133549 1.66799135,25.5822757 2.13233492,25.562613 C2.60749616,25.6032791 3.07764138,25.4431844 3.42209496,25.1234216 C3.76654854,24.8036588 3.95177032,24.3553638 3.93021805,23.8936038 L3.93021805,21.9946268 L2.95216963,21.9946268 Z M5.684952,25.4789883 L5.684952,23.548652 C5.67780842,23.3426925 5.75935843,23.1431274 5.91007561,22.9977406 C6.0607928,22.8523538 6.26710633,22.7742362 6.47961634,22.7820925 C6.69124737,22.77832 6.89545792,22.857642 7.04580468,23.0020181 C7.19615144,23.1463943 7.27985416,23.343552 7.27787646,23.548652 L7.27787646,25.4789883 L8.23794605,25.4789883 L8.23794605,23.5834956 C8.25341463,23.1333585 8.07441137,22.6973717 7.74405558,22.3805581 C7.41369979,22.0637445 6.96193875,21.8948237 6.49759518,21.9144865 C6.02243393,21.8738203 5.55228872,22.033915 5.20783513,22.3536778 C4.86338155,22.6734406 4.67815978,23.1217356 4.69971204,23.5834956 L4.69971204,25.4789883 L5.684952,25.4789883 Z M27.8888087,25.4789883 L27.8888087,23.548652 C27.8824936,23.3404648 27.9663228,23.1392066 28.1200037,22.9935963 C28.2736846,22.8479861 28.4832088,22.7712967 28.6978562,22.7820925 C28.908575,22.7802255 29.1112749,22.8602754 29.2606193,23.004338 C29.4099638,23.1484006 29.4934915,23.3444554 29.4925205,23.548652 L29.4925205,25.4789883 L30.4597816,25.4789883 L30.4597816,23.5834956 C30.4597816,22.6405594 29.6709407,21.8761585 28.6978562,21.8761585 C27.7247716,21.8761585 26.9359307,22.6405594 26.9359307,23.5834956 L26.9359307,25.4789883 L27.9031918,25.4789883 L27.8888087,25.4789883 Z" id="Shape" fill="#6D6E71"></path>
            <path d="M6.78525648,10.0153919 C6.97223632,10.2836877 8.85641785,10.4265465 9.11171726,10.4474527 C11.5856045,10.6565144 13.8041922,10.6774206 13.8041922,10.6774206 L13.8041922,4.75400597 C12.0458625,2.31495291 8.46088356,1.47173742 6.93987443,1.6180806 C6.87434833,1.62493412 6.81458062,1.65750147 6.77449517,1.70819554 C6.73440973,1.75888961 6.71750681,1.82328381 6.72772422,1.88637644 L6.72772422,1.88637644 L6.78525648,10.0153919 Z" id="Shape" fill="url(#radialGradient-1)"></path>
            <path d="M13.8041922,10.6774206 C13.8041922,10.6774206 23.0920565,10.8516386 24.2319144,10.0502355 L24.3038298,1.33933168 C24.3038298,1.33933168 24.3577663,1.12678563 23.1603761,0.823646176 C21.6681331,0.440366408 17.730769,0.266148333 14.7247084,0.259179609 L13.8041922,0.259179609 L13.8041922,10.6774206 Z" id="Shape" fill="#3EB873"></path>
            <path d="M13.8041922,10.6774206 C13.8041922,10.6774206 11.5856045,10.6599987 9.11171726,10.4474527 C8.85641785,10.4265465 6.97583209,10.2836877 6.78525648,10.0153919 C6.78525648,15.1199815 11.4813272,18.3778595 14.9871994,18.3604377 C13.9552144,17.7855181 13.7970007,12.5624601 13.8041922,10.6774206 Z" id="Shape" fill="url(#radialGradient-2)"></path>
            <path d="M13.8041922,10.6774206 C13.8041922,10.6774206 11.5856045,10.6599987 9.11171726,10.4474527 C9.01463157,10.4474527 8.69460837,10.4126091 8.31705291,10.3707967 L8.31705291,10.3707967 C8.31705291,13.3046291 10.8916216,16.1618056 14.1997265,16.4301014 C13.9188468,14.5249012 13.7866272,12.601889 13.8041922,10.6774206 L13.8041922,10.6774206 Z" id="Shape" fill="url(#radialGradient-3)" style="mix-blend-mode: multiply;"></path>
            <path d="M24.2139356,10.0467511 C23.0920565,10.8516386 13.7862134,10.6739362 13.7862134,10.6739362 C13.7862134,12.5624601 13.9336398,17.7855181 14.9692205,18.3395315 C22.3369456,18.3604377 24.2139356,12.3917264 24.2139356,10.0467511 Z" id="Shape" fill="url(#radialGradient-4)"></path>
            <path d="M13.9048737,13.8203146 L13.9048737,13.8203146 C13.9565236,14.6911318 14.0549412,15.5587514 14.1997265,16.4196483 C14.8188376,16.4740551 15.4426409,16.4494543 16.0551419,16.3464767 C14.6743677,16.0712122 13.9048737,13.8203146 13.9048737,13.8203146 Z" id="Shape" fill="url(#linearGradient-5)" style="mix-blend-mode: multiply;"></path>
        </g>
    </g>
</svg>