<?xml version="1.0" encoding="UTF-8"?>
<svg width="42px" height="32px" viewBox="0 0 42 32" version="1.1" xmlns="http://www.w3.org/2000/svg" xmlns:xlink="http://www.w3.org/1999/xlink">
    <!-- Generator: Sketch 46.2 (44496) - http://www.bohemiancoding.com/sketch -->
    <title>USAHD_Color</title>
    <desc>Created with Sketch.</desc>
    <defs></defs>
    <g id="Domestic" stroke="none" stroke-width="1" fill="none" fill-rule="evenodd">
        <g id="USAHD" fill-rule="nonzero" fill="#F37B1F">
            <g id="Logo-/-USA-Color" transform="translate(3.000000, 8.000000)">
                <path d="M15.0381069,8.90994676 C14.8390319,8.83511085 14.6426036,8.75397865 14.4529814,8.66385175 C14.0899956,8.49367202 13.7419452,8.290032 13.4303825,8.04519625 C12.8548988,7.59276281 12.4363308,7.00001204 12.1871562,6.33242536 C11.9324991,5.6493678 11.8417526,4.90838436 11.8863696,4.18664959 C11.9338225,3.41346511 12.151803,2.65305312 12.5554356,1.97899026 C12.8696451,1.45064155 13.2868896,0.980218707 13.7757861,0.589668808 L9.49179797,0.589668808 C9.49179797,0.589668808 9.48518105,4.88895581 9.48518105,6.60298595 L9.48518105,7.88545036 C9.48518105,8.28355581 9.47705165,8.68184115 9.42411623,9.07616883 C9.3333698,9.77721579 9.09497134,10.5942944 8.40019394,10.9655956 C8.06291965,11.1433309 7.67025226,11.197479 7.28968439,11.1845266 C6.90760404,11.1730134 6.52041925,11.0789289 6.21415001,10.854601 C5.60350212,10.4075644 5.41104402,9.60973447 5.34203892,8.91894146 C5.30403887,8.53486775 5.30536223,8.15079403 5.30536223,7.76815947 L5.30536223,6.48191728 C5.30536223,5.62094454 5.30403887,0.589668808 5.30403887,0.589668808 L0.895652491,0.58840955 C0.895652491,0.58840955 0.898299262,6.31047829 0.892816664,8.02198992 C0.890169893,8.85579866 0.905105245,9.69482433 1.08508568,10.5119029 C1.24502628,11.234897 1.52671835,11.9384624 1.96419181,12.5506418 C2.3880533,13.1423132 2.95559665,13.6267677 3.612374,13.9786404 C4.31546985,14.356238 5.10231709,14.5740896 5.89861708,14.6861636 C6.70191214,14.7994968 7.52392362,14.8124492 8.3311888,14.7480471 C9.10045394,14.6849043 9.86839568,14.5354124 10.5849144,14.2531587 C11.2621097,13.9838574 11.8797527,13.5920482 12.3781019,13.0752127 C12.852063,12.584282 13.2110786,11.9990867 13.449477,11.3714365 C13.4683825,11.3212461 13.4859647,11.2696165 13.5048702,11.2181668 C14.0291199,11.7103568 14.6046036,12.1665681 15.2642168,12.487499 C15.9117304,12.8019537 16.6715428,12.9888636 17.400161,12.8677949 C17.7605,12.8071706 18.1057146,12.6601972 18.3726604,12.41788 C18.6231584,12.1897744 18.7910393,11.8844942 18.8521041,11.5583464 C18.9090097,11.2491086 18.8764922,10.9229608 18.7341337,10.6394478 C18.6000937,10.3766226 18.3821131,10.1652472 18.1301027,10.0040621 C17.7657936,9.76822109 17.3351261,9.62520535 16.919394,9.49496209 C16.4533732,9.35068709 15.7572724,9.15604177 15.5880681,9.10189367 C15.4213215,9.04648631 15.1301767,8.9446663 15.0381069,8.90994676 L15.0381069,8.90994676 Z M28.0173053,11.1600611 C27.3561797,11.1600611 26.7251139,10.9062306 26.2294114,10.4939135 C25.6985448,10.0492155 25.335559,9.44477166 25.1391308,8.80290982 C24.7409808,7.48968354 25.0646431,5.94835164 26.1061475,4.97656419 C26.5923972,4.52179213 27.2357516,4.2343215 27.9223997,4.21507284 C28.6103711,4.19564429 29.2904023,4.43922078 29.8131395,4.86197171 C30.7232507,5.59647896 31.1404953,6.7938535 31.0822663,7.90721754 C31.0240373,9.0259784 30.4659467,10.1665064 29.4420244,10.7709503 C29.0168395,11.0222622 28.5196247,11.1600611 28.0173053,11.1600611 L28.0173053,11.1600611 Z M30.8533206,1.91063054 C29.9159855,1.05883239 28.6565006,0.596144992 27.3671449,0.552250853 C26.0830828,0.506018092 24.7869212,0.865446328 23.7372873,1.57171022 C22.8203702,2.19036572 22.1066873,3.06159242 21.6162784,4.0177291 C21.0164066,3.51258671 20.3932811,3.02417447 19.6429215,2.73418532 C18.9413381,2.46362473 18.0949385,2.33985765 17.3852257,2.64531768 C17.0628868,2.78185724 16.7853539,3.00618507 16.6078312,3.29869273 C16.4289851,3.59515806 16.3560098,3.94685086 16.3951442,4.2884696 C16.4331443,4.61713596 16.5847665,4.91342139 16.8326177,5.14422541 C17.0954043,5.38654265 17.4285193,5.54628853 17.7644702,5.67653179 C18.1505206,5.82728297 18.5513174,5.93414002 18.9509799,6.0489124 C19.3287119,6.15846785 19.706633,6.27306034 20.0777481,6.40582212 C20.7969137,6.66486949 21.4998205,7.00522896 22.0565877,7.51810679 C23.1725798,8.54782011 23.5329188,10.1085806 23.3472667,11.540357 C23.2945204,11.9449386 23.1914853,12.343224 23.0411865,12.72334 C23.0045099,12.8123876 22.9666988,12.9012552 22.926052,12.9888636 C22.9139525,13.0133292 22.8961813,13.055964 22.8961813,13.055964 C22.8961813,13.055964 22.9869277,13.1513079 23.0262512,13.1872867 C23.1521619,13.307276 23.2835552,13.4206092 23.4217544,13.5301647 C23.9297454,13.9297093 24.5093883,14.244164 25.1270312,14.4645342 C26.3526754,14.9040152 27.7369367,14.9709358 28.9828096,14.5650949 C29.6830696,14.3382486 30.3387127,13.9644288 30.8533206,13.4567679 C30.8533206,13.6694026 30.8519972,14.634534 30.8519972,14.634534 L35.107438,14.634534 L35.1061147,0.74041999 L30.8533206,0.74041999 L30.8533206,1.91063054 Z" id="Fill-1"></path>
            </g>
        </g>
    </g>
</svg>