<?xml version="1.0" encoding="UTF-8"?>
<svg width="42px" height="32px" viewBox="0 0 42 32" version="1.1" xmlns="http://www.w3.org/2000/svg" xmlns:xlink="http://www.w3.org/1999/xlink">
    <!-- Generator: Sketch 46.2 (44496) - http://www.bohemiancoding.com/sketch -->
    <title>VICEHD_Color</title>
    <desc>Created with Sketch.</desc>
    <defs></defs>
    <g id="Domestic" stroke="none" stroke-width="1" fill="none" fill-rule="evenodd">
        <g id="VICEHD" fill="#000000">
            <g id="Group" transform="translate(0.000000, 13.000000)">
                <polygon id="Fill-1" points="4.66128237 0.519106648 3.68679255 3.91245817 2.74944666 0.519106648 0.979010728 0.519106648 2.80900679 5.6197588 4.5720276 5.6197588 6.43175247 0.519106648"></polygon>
                <polygon id="Fill-2" points="6.68298823 0.519093631 8.43855976 0.519093631 8.43855976 5.61974578 6.68298823 5.61974578"></polygon>
                <polygon id="Fill-6" points="14.9582479 5.61975555 14.9582479 0.519103394 19.3248972 0.519103394 19.3248972 1.70925122 16.7138194 1.70925122 16.7138194 2.43893391 19.0940718 2.43893391 19.0940718 3.62908174 16.7138194 3.62908174 16.7138194 4.42960772 19.4290505 4.42960772 19.4290505 5.61975555"></polygon>
                <polygon id="Fill-8" points="20.1923257 5.61975555 20.1923257 0.519103394 21.9478973 0.519103394 21.9478973 4.42960772 24.3581176 4.42960772 24.3581176 5.61975555"></polygon>
                <path d="M27.4377522,2.05638988 L26.8946718,3.88412736 L28.0031121,3.88412736 L27.4377522,2.05638988 Z M24.6407156,5.61973928 L26.5599664,0.519087123 L28.3453009,0.519087123 L30.2645517,5.61973928 L28.5163611,5.61973928 L28.3081228,4.94674424 L26.5599664,4.94674424 L26.359109,5.61973928 L24.6407156,5.61973928 Z" id="Fill-10"></path>
                <polygon id="Fill-12" points="34.0864565 3.30322536 34.0195154 2.14138881 34.0195154 0.519087123 35.7006966 0.519087123 35.7006966 5.61977182 34.0567277 5.61977182 32.1449262 2.84272767 32.2118672 4.00456422 32.2118672 5.61977182 30.5306519 5.61977182 30.5306519 0.519087123 32.174655 0.519087123"></polygon>
                <path d="M12.6712757,2.46727773 C12.619199,1.93593675 12.2695609,1.63134638 11.7190995,1.63134638 C11.1016629,1.63134638 10.7297111,2.13431099 10.7297111,3.11902303 C10.7297111,3.83455007 10.8933563,4.50751256 11.7860406,4.50751256 C12.3514005,4.50751256 12.619199,4.13204635 12.6861742,3.64326992 L14.3748047,3.64326992 C14.2185747,4.96091616 13.2291863,5.75438059 11.8158036,5.75438059 C10.0453335,5.75438059 8.97413961,4.72007499 8.97413961,3.06233538 C8.97413961,1.4117224 10.1494868,0.384510896 11.6447092,0.384510896 C13.2812629,0.384510896 14.196261,1.15669305 14.3375924,2.46727773 L12.6712757,2.46727773 Z" id="Fill-3"></path>
                <path d="M38.2017334,4.42959795 L38.5737193,4.42959795 C39.3919791,4.42959795 39.8383213,4.01872637 39.8383213,3.05526407 C39.8383213,1.99261464 39.4738188,1.70924146 38.5365071,1.70924146 L38.2017334,1.70924146 L38.2017334,4.42959795 Z M36.4461618,5.61974578 L36.4461618,0.519093631 L38.7968562,0.519093631 C40.522699,0.519093631 41.593927,1.28421423 41.593927,2.96317104 C41.593927,4.88300155 40.4706223,5.61974578 38.7522289,5.61974578 L36.4461618,5.61974578 Z" id="Fill-14"></path>
            </g>
        </g>
    </g>
</svg>